<?xml version="1.0" encoding="utf-8"?>
<!-- Generator: Adobe Illustrator 21.1.0, SVG Export Plug-In . SVG Version: 6.00 Build 0)  -->
<svg version="1.1" id="Layer_1" xmlns="http://www.w3.org/2000/svg" xmlns:xlink="http://www.w3.org/1999/xlink" x="0px" y="0px"
	 viewBox="0 0 1900 718" style="enable-background:new 0 0 1900 718;" xml:space="preserve">
<style type="text/css">
	.st0{display:none;fill:url(#SVGID_1_);}
	.st1{display:none;fill:url(#SVGID_2_);}
	.st2{fill:url(#a_1_);}
</style>
<g transform="translate(0 -290)">
	<linearGradient id="SVGID_1_" gradientUnits="userSpaceOnUse" x1="0" y1="508.7513" x2="1900" y2="508.7513">
		<stop  offset="0" style="stop-color:#B5DDE7"/>
		<stop  offset="1" style="stop-color:#DDEFF4"/>
	</linearGradient>
	<path class="st0" d="M0,10h1900v868c-63.3,56.4-167,80.8-311,73c-216-11.6-237,93-514,27s-468.1,37.5-628,29s-188.9-11.1-294-85
		C82.9,872.7,31.9,828,0,788V10z"/>
	<linearGradient id="SVGID_2_" gradientUnits="userSpaceOnUse" x1="0" y1="500.2211" x2="1900" y2="500.2211">
		<stop  offset="0" style="stop-color:#B5DDE7"/>
		<stop  offset="1" style="stop-color:#DDEFF4"/>
	</linearGradient>
	<path class="st1" d="M0,0h1900v875c-56.7,38.7-150.7,60.7-282,66c-197,8-248.6,88.1-572,43s-464,37.7-596,11s-184.1-15.6-278-48
		C109.4,925.4,52,872.7,0,789V0z"/>
	<g>
		<linearGradient id="a_1_" gradientUnits="userSpaceOnUse" x1="0" y1="479.5984" x2="1900" y2="479.5984">
			<stop  offset="0" style="stop-color:#B5DDE7"/>
			<stop  offset="1" style="stop-color:#DDEFF4"/>
		</linearGradient>
		<path id="a" class="st2" d="M0,0h1900v876c-276,69.3-515,86.3-717,51c-303-53-458,26-741,32c-188.7,4-336-53-442-171V0z"/>
	</g>
</g>
<script  xmlns=""></script>
</svg>
