<svg viewBox="0 0 489.54 274.53" xmlns="http://www.w3.org/2000/svg" xmlns:xlink="http://www.w3.org/1999/xlink"><linearGradient id="a"><stop offset="0" stop-color="#b5dde7"/><stop offset="1" stop-color="#ddeff4"/></linearGradient><linearGradient id="b" gradientUnits="userSpaceOnUse" x1="6.85" x2="482.69" xlink:href="#a" y1="232.25" y2="232.25"/><linearGradient id="c" gradientUnits="userSpaceOnUse" x1="219.36" x2="422.77" xlink:href="#a" y1="228.17" y2="228.17"/><linearGradient id="d" gradientTransform="translate(-.07 .3)" gradientUnits="userSpaceOnUse" x1="270.49" x2="285.21" xlink:href="#a" y1="137.79" y2="137.79"/><linearGradient id="e" gradientTransform="translate(-.07 .3)" gradientUnits="userSpaceOnUse" x1="261.66" x2="267.58" xlink:href="#a" y1="137.79" y2="137.79"/><linearGradient id="f" gradientUnits="userSpaceOnUse" x1="317.75" x2="349.3" xlink:href="#a" y1="31.63" y2="31.63"/><linearGradient id="g" gradientUnits="userSpaceOnUse" x1="308.92" x2="314.84" xlink:href="#a" y1="31.63" y2="31.63"/><linearGradient id="h" gradientTransform="translate(-.07 .3)" gradientUnits="userSpaceOnUse" x1="237.15" x2="247.6" xlink:href="#a" y1="149.35" y2="149.35"/><linearGradient id="i" gradientTransform="translate(-.07 .3)" gradientUnits="userSpaceOnUse" x1="292.31" x2="302.76" xlink:href="#a" y1="40" y2="40"/><linearGradient id="j" gradientUnits="userSpaceOnUse" x1="417.34" x2="427.79" xlink:href="#a" y1="85.28" y2="85.28"/><linearGradient id="k" gradientTransform="translate(-.07 .3)" gradientUnits="userSpaceOnUse" x1="261.11" x2="264.02" xlink:href="#a" y1="94.11" y2="94.11"/><linearGradient id="l" gradientTransform="translate(-.07 .3)" gradientUnits="userSpaceOnUse" x1="255.02" x2="270.11" xlink:href="#a" y1="94.11" y2="94.11"/><linearGradient id="m" gradientUnits="userSpaceOnUse" x1="390.62" x2="393.53" xlink:href="#a" y1="34.71" y2="34.71"/><linearGradient id="n" gradientUnits="userSpaceOnUse" x1="384.53" x2="399.63" xlink:href="#a" y1="34.71" y2="34.71"/><linearGradient id="o" gradientUnits="userSpaceOnUse" x1="411" x2="422.53" xlink:href="#a" y1="128.49" y2="128.49"/><linearGradient id="p" gradientUnits="userSpaceOnUse" x1="411" x2="422.53" xlink:href="#a" y1="128.49" y2="128.49"/><linearGradient id="q" gradientTransform="translate(-.07 .3)" gradientUnits="userSpaceOnUse" x1="215.36" x2="218.28" xlink:href="#a" y1="181.92" y2="181.92"/><linearGradient id="r" gradientTransform="translate(-.07 .3)" gradientUnits="userSpaceOnUse" x1="209.27" x2="224.37" xlink:href="#a" y1="181.92" y2="181.92"/><linearGradient id="s" gradientUnits="userSpaceOnUse" x1="374.21" x2="388.93" xlink:href="#a" y1="242.05" y2="242.05"/><linearGradient id="t" gradientUnits="userSpaceOnUse" x1="391.84" x2="397.76" xlink:href="#a" y1="242.05" y2="242.05"/><linearGradient id="u" gradientUnits="userSpaceOnUse" x1="414.11" x2="424.56" xlink:href="#a" y1="180.21" y2="180.21"/><path clip-rule="evenodd" d="M35.06 216.1c.06.03 226.53-7.3 432.63 34.07 4.35.96 18.71 5.7 14.1-2.68-.65-17.17-155.54-43.64-205.98-32.86-64.14 13.72-81.02 17.67-166.86 6.9-48.87-6.15-103.38 21.16-102.08 5.43 2.65-12.11 28.26-10.85 28.19-10.86z" fill="url(#b)" fill-rule="evenodd"/><path clip-rule="evenodd" d="M319.15 267.54c4.62.56 9.25 1.1 13.88 1.6 5.84.67 11.48 1.05 17.31 1.47 2.31.17 4.43 0 6.7-.05 1.54-.14 2.75-.35 4.23-.77 1.31-.4 2.29-.83 3.44-1.51a11.52 11.52 0 0 0 4.38-4.6 12.21 12.21 0 0 0 1.4-5.7 12.29 12.29 0 0 0-1.72-6.18 17.4 17.4 0 0 0-2.7-3.4c2.48-5.03-.95-11.35-10.78-14.7l.92-.07c1.04.58 2.85.58 4.04.5 4-.23 8.7-.59 12.57-1.26.82-.16 24.25 7.64 34.09 7.1 2.02-.12 3.85-.4 5.8-.72 1.34-.21 2.35-.53 3.57-.98 1.09-.42 1.88-.83 2.79-1.44a8.3 8.3 0 0 0 3.15-3.74c.56-1.5.69-2.68.41-4.23a8.5 8.5 0 0 0-2.37-4.27 15.2 15.2 0 0 0-2.83-2.17c1.55-4.13-3-8.65-13.45-9.71-3.3-.18-18.66-10.64-33.48-11.25-.41-.9-1-1.7-1.9-2.58a15.28 15.28 0 0 0-2.83-2.02c1.55-3.85-3-8.05-13.45-9.04-9.62-.48-95.81-5.98-98.74 2.6-1.63.3-3.16.72-4.86 1.38-2.55 1.08-4.07 2.23-5.34 4.06a5.93 5.93 0 0 0 .07 6.66c.44.66.9 1.21 1.42 1.73a13.18 13.18 0 0 0-3.9 2.04 7.16 7.16 0 0 0-2.04 2.43 4.87 4.87 0 0 0-.4 3.34 6.15 6.15 0 0 0 1.54 2.74c.6.62 1.2 1.1 2 1.62a17.76 17.76 0 0 0 4.33 1.88c-2.63.58-4.37 1.52-4.97 2.87a25.1 25.1 0 0 0-5.8 1.24 14.16 14.16 0 0 0-6.96 5.1 11.06 11.06 0 0 0-1.51 9.76c.34 1.03.72 1.91 1.18 2.74-1.92.57-3.29 1.23-4.86 2.38-1.28.99-2.09 1.9-2.88 3.23a9.26 9.26 0 0 0-1.24 4.82 9.9 9.9 0 0 0 1.08 4.25 12.34 12.34 0 0 0 1.86 2.7 17.91 17.91 0 0 0 3.53 2.94c4.22 2.46 7.86 3.09 12.69 3.83.08.03.86.12 1.01.14 4.69.61 9.36.98 14.06 1.36 11.9.96 23.83 1.06 35.71 1.6l6.8.31c1.03.95 3.07 1.23 4.42 1.33 4.55.31 9.92.57 14.42.26.82-.06 1.8-.45 2.56-.68.6-.19 1.14-.62 1.65-.94zm-27.78-50.02c.16.44.37.87.64 1.34.44.7.9 1.3 1.41 1.85-.45.18-.86.35-1.25.53-6.14-.96-12.19-1.8-17.85-2.45 5.7-.33 11.37-.8 17.05-1.27z" fill="url(#c)" fill-rule="evenodd"/><path d="M397.93 87.31c-1.97-.15-1.74 1.48-2.04 2.6-1.02 3.78-1.77 7.65-3.4 11.23-.73 1.63-1.82 3.1-1.27 5.07.19.66-.32 1.2-.8 1.7a22.38 22.38 0 0 1-4.53 3.69c-2.75 1.61-5.65 2.93-8.3 4.73-2.7 1.83-2.75 1.91-.56 4.32 2.66 2.94 2.45 5.7-.62 8.21a11.49 11.49 0 0 1-4.32 2.22 27.82 27.82 0 0 1-12.6.32c-7.05-1.32-14.04-2.78-21.22-3.38-6.08-.51-11.38-3.44-15.7-7.83-1.91-1.95-1.47-3.56.99-4.4 1.31-.45 3.22-.87 2.95-2.38-.29-1.57-2.26-1.53-3.74-1.55-.15 0-.3.1-.45.17-.23.19-.27.4-.1.66.21.28.53.24.82.28-.3 0-.6-.04-.82.24-.4.43-1.07.04-1.48.48-.1.1-.2.15-.3.19.05 1.2-.68 2.53-2.22 2.67-3.65.35-7.16 2.4-10.7 3.25-1.46.35-2.93.58-4.37.9.92 4.17-2.56 10.46-3.21 13.74-.2.97-.8 1.47-1.52 1.62-.02.28-.03.56-.2.8a.4.4 0 0 1-.04.37c-.34.4-.43.87-.36 1.37.06.24.13.48.24.7.1.23.21.45.33.67.52.98.6 2.02.33 3.08-1.83 7.62-2.17 15.44-3.13 23.18-.47 3.74-1.1 7.37-3.2 10.64a19.11 19.11 0 0 0-2.33 4.82c.06.85.12 1.7-.01 2.53 1.14.02 2.26.77 2.24 2.24-.05 4-.78 8.19-2.78 11.7.23.17.49.33.8.47 1.37-3.47 1.7-7.19 2.51-10.92a14.64 14.64 0 0 1 2.63 7.78c.02.73.18 1.35.86 1.6 2.21.84 3.85 2.69 6.23 3.3 1.96.51 3.82 1.47 5.75 2.1 5.82 1.86 8.67 5.88 9.43 11.82 1.71 13.36 2.54 26.8 3.81 40.2.23 2.46 1.01 5.01-.45 7.4-.05.5.31.68.66.87.13.18.3.35.47.5.13.2.32.35.5.5h.48c.17-.15.37-.3.46-.52l-.02.01.02-.01c.2-.12.36-.3.5-.48h-.02l.02-.01c.19-.13.34-.3.5-.47l.5-.44.04-.03c.2-.32.68-.22.89-.53l.03-.03-.03.03c.21-.11.37-.3.54-.46 1.32-.98 2.49-2.1 3.43-3.45v.01c.3-.35.25-.74.1-1.13-2.62-1.93-3.18-4.7-3.39-7.75-.3-4.22-.92-8.43-1.2-12.66-.25-3.66-1.62-7.43.54-11 .34-.55.13-1.16-.25-1.6-2.66-3.08-2.14-6.92-2.41-10.51-.25-3.15.67-3.7 3.91-3.77 6.87-.13 13.68 1 20.52.97 4.33-.03 8.26.78 11.7 3.5 1.36 1.08 2.69.92 3.99-.19a14.69 14.69 0 0 0 4.11-6c2.91-7.56 5.22-15.3 6.77-23.25 1.3-6.73 1.76-13.62 3.67-20.23.4-1.4-.13-2.38-1.06-3.28a13.58 13.58 0 0 1-3.04-4.39c-3.06-7.01.88-14.85 6.72-19.04.91-.66 1.98-.67 3.05-.37 1.41.38 2.32 1.45 3.37 2.37 1.12.98 1.85 2.56 3.66 2.6l.18-.54c.1-.18.23-.32.39-.44l.03-.02c.13-.18.28-.33.46-.47l.03-.03c.13-.17.29-.32.46-.46l.03-.03c.13-.17.29-.32.46-.46l.03-.03.44-.5c.66-1.1-.12-2.4.48-3.5l.06-1.41c.57-1.45-.17-3.03.43-4.48l.05-.91a6.3 6.3 0 0 0 .03-3.43l-.03-.04c-.37-.3-.27-.62-.05-.95l.01-.01c.18-.14.35-.3.48-.5l-.02.01.03-.02c.03-.01.06-.05.1-.13.04-.1 0-.2-.11-.3l.02.01c-.15-.17-.3-.35-.43-.53l-.04-.04a1.63 1.63 0 0 1-.45-.45l-.04-.04a1.65 1.65 0 0 1-.45-.45l-.04-.04a1.72 1.72 0 0 1-.46-.45l-.03-.04a1.65 1.65 0 0 1-.22-.18c-3.4-.04-6.78-.36-10.18-.4-1.7 0-2.44-1.52-2.2-2.81l-.16-.07c-.4-.3-.33-.62-.04-.95v.02c.28-.25.74-.18.98-.51h-.01l.02-.02-.01.02c.3-.23.76-.15.99-.52l-.03.04c.19-.13.37-.27.54-.42.1-.09.2-.12.33-.1.36-.17.83-.12 1.1-.48l.02-.02-.01.02c.3-.21.74-.15.98-.48l.02-.01h-.02c.3-.22.74-.15 1-.47h-.01l.01-.01c.29-.24.73-.17 1-.46h-.01c.4-.44 1.08-.04 1.47-.5 2.45-.6 3.93-2.25 4.9-4.47a.54.54 0 0 1 .04-.42c.47-.6-.05-1.42.45-2.01a.6.6 0 0 1 .06-.45c.37-.43 0-1.07.44-1.48l-.01.02c.55-.56-.04-1.41.5-1.97.42-.45.11-1.11.45-1.59a.4.4 0 0 1 .06-.37c.41-.43.06-1.1.46-1.53a.58.58 0 0 1 .06-.44c.37-.42.01-1.07.44-1.48v.02c.54-.59-.02-1.43.48-2.03a.6.6 0 0 1 .06-.43c.36-.46.06-1.1.42-1.56a.47.47 0 0 1 .04-.4c.5-.6-.01-1.43.45-2.05a.46.46 0 0 1 .04-.4c.42-.75.2-1.54.17-2.33zM427.19 218.17a.4.4 0 0 1-.05-.38c-.36-.46-.02-1.14-.47-1.58v.02c-.26-.28-.17-.71-.43-1a.3.3 0 0 1-.09-.32c-.05-.27-.24-.46-.4-.67l-.02-.04c-.34-.21-.22-.7-.55-.92l.02.02c-.12-.2-.3-.35-.45-.53l-.01-.02c-.3-.22-.21-.69-.54-.9l-.04-.03.04.03a1.27 1.27 0 0 0-.49-.52l.02.02-.03-.03.01.01c-.12-.2-.28-.36-.48-.48v.01l-.02-.03.02.02c-.12-.2-.3-.36-.48-.5l-.01-.01a2.8 2.8 0 0 0-.48-.5l.01.01a3.8 3.8 0 0 0-.49-.5 3.93 3.93 0 0 0-.5-.5l.01.02a3.91 3.91 0 0 0-.5-.5 3.88 3.88 0 0 0-.5-.5l.02.02a2.72 2.72 0 0 0-.5-.48l-.02-.02.01.01c-.13-.19-.29-.35-.5-.47h.02l-.04-.02.03.02a1 1 0 0 0-.65-.48.34.34 0 0 1-.32-.12c-.19-.14-.36-.3-.57-.4a.57.57 0 0 1-.42-.12 9.31 9.31 0 0 0-.57-.36.54.54 0 0 1-.4-.09c-.32-.23-.74-.18-1.06-.4l-.91-.1c-.95-.4-2.02.04-2.95-.45-.48.44-1 .84-1.44 1.3-.4.43-.98.76-1.18 1.6 1.18-.43 2.16-.78 3.13-1.16.47-.18.94-.27 1.43-.17.33.06.63.22.77.54.16.34 0 .6-.27.83-2.01 1.66-4.04 3.3-5.87 5.16a12.51 12.51 0 0 0-2.6 4.1 5.85 5.85 0 0 0 1.5 6.47 11.42 11.42 0 0 0 10.01 2.64c.66-.13 1.3-.26 1.9.05.68.35 1.26.09 1.86-.2a4.86 4.86 0 0 0 1.68-1.4c.74-.91 1.74-1.15 2.8-1.25.43-.04.46.35.54.65.21.14.35.08.44-.14a.49.49 0 0 1 .1-.38c.23-.29.15-.7.43-.97.44-.4.04-1.07.49-1.47.38-.8.36-1.62 0-2.44z" fill="#fff"/><path d="M404.09 54.9c-.1-.24-.27-.4-.5-.52v.01l-.02-.02.02.01c-.1-.22-.28-.37-.45-.54-.16-.15-.3-.32-.44-.5l-.03-.04a1.65 1.65 0 0 1-.45-.45l-.04-.04a1.65 1.65 0 0 1-.46-.45l-.03-.04c-.14-.1-.25-.2-.35-.33-.37-.04-.74-.1-1.13-.2-5.5-1.37-11.54-1.21-17.18-2.14-5.79-.95-11.44-1.87-17.08-3.52-5.66-1.65-10.94-2.14-16.74-2.85-2.37-.28-4.99-1.37-7.33-1.44-1.57-.05-2.98-.21-4.36-.54-.48.26-1.01.47-1.6.64-2.9.8-5.44 2.44-8.27 3.46-2.51.9-5.07 1.67-7.6 2.53-4.15 1.42-7.98 3.58-12.12 5.01.77 3.27.42 6.67-.15 10.08-.76 4.54-1.53 9.07-2.27 13.6-1.69 10.34-1.68 21.1-4.35 31.24.15.13.3.27.43.42l.02.02c.18.14.33.33.53.45l-.02-.03c.42.5 1.11.15 1.59.49l.18-.02.17.07c.45.42 1.12.1 1.6.44l.19-.02.17.07c.75.57 1.73-.09 2.47.47 1.1.66 2.4-.1 3.53.47l.19-.04.18.06c.61.44 1.28.26 1.94.15.06-1.54-1.3-1.44-2.18-1.77-2.97-1.1-6.05-1.94-8.87-3.49.16-.22.3-.27.48-.24 12.27 2.4 24.6 4.42 37.03 5.83 8.53.97 16.91 2.89 25.4 4.19 1.22.18 2.44.4 3.57-.31 3.91-2.52 8.03-4.76 11.34-8.1 9.2-9.3 14.6-20.57 17.27-33.24.97-4.56 1.51-9.22 2.55-14.1.86 1.8.24 3.48 1.05 4.88.2.24.43.25.66.03a.54.54 0 0 1 .05-.42c.46-.61-.02-1.43.43-2.05a.47.47 0 0 1 .04-.4c.56-.75-.09-1.73.47-2.5a.6.6 0 0 1 .05-.44c.46-.6-.05-1.42.44-2.02a.59.59 0 0 1 .05-.44c.24-.5.38-.98-.12-1.42zM271.26 184.4c-.41-.68-1.03-1.26-1.05-2.16-.04-1.32-.1-2.65.16-3.92-3.1 1.25-6.46 1.82-9.41 3.48-3.06 1.73-1.93 5.92-5.79 7.17-2.77.9-5.9-1.68-8.13-2.87-4-2.14-7.6-1.97-11.4-.52l.02.23c.01.64.45.78.93.93 3.49 1.12 6.96 2.28 10.47 3.35.99.3 1.54.78 1.63 1.84.04.46.2 1 .5 1.35 1.13 1.26 1.21 2.9 1.3 4.36.17 2.43.81 4.83.62 7.29-.02.24-.03.5.05.73.52 1.58.4 3.22.43 4.85.01.49-.07 1 .07 1.46.54 1.76.36 3.56.37 5.34.03 2.45 0 4.9.02 7.35a11 11 0 0 0 .18 2.18c.4 1.9.72 3.82.8 5.77.14 3.9-.3 7.82.45 11.7.23 1.17-.5 2.02-1.7 2.28-.4.08-.81.04-1.22.05-.05 0-.08.07-.1.2 0 .12.09.18.28.2.13-.02.25.01.35.1.3.24.63.23.95.04l.52-.04.51.44-.01-.01c.15.19.31.36.5.5v-.01c.14.2.3.37.52.49l-.03-.04c.3.37.62.36.94.02l-.03.02c.2-.12.35-.3.54-.44l.02-.02c.23-.32.72-.2.94-.54l-.02.02c.2-.12.34-.3.53-.44l.03-.02c.22-.32.71-.2.93-.55l-.03.03c.21-.12.36-.3.54-.46.24-.3.7-.21.92-.54l.03-.03-.03.03c.22-.1.38-.27.52-.47l.01-.02-.01.02c.19-.13.34-.3.52-.44l.04-.02a23.21 23.21 0 0 0 3.42-3.37l.05-.06c.1-.14.1-.28.02-.42-1.18-.12-1.74-1.12-2.52-1.8a3.22 3.22 0 0 1-1.06-2.1c-.37-2.56-.92-5.08-1.34-7.64a71.8 71.8 0 0 1-.56-4.81c-.08-.89-.08-1.77-.31-2.65a11.73 11.73 0 0 1-.15-3.87c.13-1.64 1.19-2.76 2.35-3.79.77-5.59-.54-11.12-.43-16.73.68.18 1.17 1 2 .58-.02-.32 0-.66-.04-.98-.2-1.32.44-2.08 1.51-2.76 1.66-1.05 3.44-1.87 5.2-2.71a7.4 7.4 0 0 0 3.91-4.44c.18-.5.18-.95-.17-1.37-.36-.44-.78-.85-1.06-1.33z" fill="#fff"/><g clip-rule="evenodd" fill-rule="evenodd"><path d="M393.33 138.68h-.01v.01zM326.08 261.3z" fill="#fff"/><path d="M330.14 256.5c-1.95-.72-3.3-1.86-3.56-4.13-.37-3.31-.85-6.61-.96-9.95-.78-2.2-.23-4.54-.84-6.78-.29-1.07.13-2.36-.23-3.4-.57-1.6.26-3.22-.35-4.77-.18-.47.15-.96.43-1.37.4-.6.87-1.17 1.36-1.82-.27-.32-.47-.7-.79-.92-1.36-.92-1.81-2.4-1.88-3.82-.1-2.44-.76-4.83-.62-7.3.04-.73.06-1.44.33-2.15.47-1.22 1.47-2.04 2.73-1.89 2.52.3 5.05.06 7.58.17.97.04 1.96-.05 2.9.32.23.08.49.12.73.1 4.08-.22 8.11.86 12.2.54 3.13-.25 5.95.7 8.67 2.11.81.42 1.5.96 2.18 1.57 1.18 1.05 1.74 1 2.96-.04a14.08 14.08 0 0 0 3.83-5.3 115 115 0 0 0 4.02-11.8c.92-3.13 1.77-6.28 2.44-9.46.54-2.63.97-5.28 1.42-7.92.8-4.56 1.2-9.19 2.44-13.67.06-.23.02-.53.15-.71.97-1.42.26-2.32-.83-3.28-3.3-2.93-4.32-6.8-4.14-11.03.05-1.28.46-2.57.89-3.8.89-2.55 2.03-4.98 4.16-6.8.74-.64 1.38-1.4 2.1-2.07a4.76 4.76 0 0 1 6.61-.06c1.27 1.15 2.44 2.42 3.66 3.62.34.34.72.65 1.08.98l.17-.05c.08.2.22.34.41.44l.06.06c.1.19.24.34.42.46l.03.04c.13.19.3.34.44.52l-.02-.01c.2.15.39.31.48.56l-.05-.05c.4.18.27.7.6.92v.02c.15.2.36.34.42.6l-.05-.06c.42.2.33.69.53 1.01l-.03-.04c.42.27.36.76.52 1.15-.05.13-.01.23.11.3.25.28.15.71.45.96.28.3.22.73.45 1.05l-.03-.04c.52.4.18 1.07.46 1.55l-.03-.04c.44.17.33.68.59.97l-.02-.03c.35.3.32.77.48 1.15-.06.13-.03.24.1.31.25.3.18.72.42 1.02l-.02-.03c.36.3.32.77.48 1.15-.06.13-.03.24.1.32.25.29.17.72.43 1l-.01-.02c.33.3.28.76.47 1.12-.05.14-.02.26.1.35.24.3.17.72.42 1.01l-.02-.02c.5.36.06 1.07.54 1.44v.01c.28.32.25.77.44 1.12-.06.15-.02.27.1.37.23.3.15.71.42 1v-.03c.3.34.3.79.44 1.19-.06.12-.04.21.08.28.27.35.27.79.41 1.18-.06.12-.03.22.1.3.36.46.1 1.07.36 1.56l-.03-.05c.46.22.36.73.57 1.08a.3.3 0 0 0 .1.35c.23.33.2.76.4 1.1-.06.16-.03.28.1.38.22.29.15.71.41.99v-.02c.31.33.3.78.45 1.16-.06.13-.03.24.1.32.25.29.18.72.42 1l-.01-.02c.34.32.32.78.47 1.17-.06.13-.04.22.09.3.26.28.18.72.44 1l-.01-.02c.33.32.3.78.46 1.16-.06.13-.03.23.1.31.25.3.18.72.42 1.02l-.02-.03c.6.57.05 1.41.48 2.03l-.04-.04c.31.13.5.35.53.69-.06.11-.03.2.1.25.26.3.18.73.43 1.02l-.02-.03c.5.39.1 1.08.51 1.5l-.01-.03c.33.32.31.78.46 1.17-.07.12-.04.22.07.3.3.3.24.76.43 1.11-.05.15-.02.27.1.36.24.3.18.72.41 1.02l-.02-.03c.51.38.1 1.08.52 1.5l-.02-.03c.34.32.32.78.47 1.18-.07.11-.04.2.07.28.28.35.28.79.42 1.19-.07.12-.04.21.08.28.5.58-.06 1.4.47 1.97.3.26.2.72.49.99v-.01c.44.4.06 1.08.48 1.5l-.02-.03c.47.44.13 1.12.48 1.59l-.02 2.11c-.14.4-.12.87-.47 1.18l.01-.03c-.25.3-.14.79-.56.98l.05-.05c-.07.26-.27.41-.46.57h.01c-.15.16-.29.34-.42.52l-.02.04c-.2.28-.27.64-.49.91-.3.39-.62.76-1.16 1.08 1.46-.21 3.18-1.4 4.01.3.87 1.8-1.23 2.37-2.21 3.26-2.12 1.91-4.41 3.64-5.7 6.28-1.53 3.17-.85 5.7 2.04 7.63a11.85 11.85 0 0 0 7.68 1.84c2.5-.17 4.96-.17 6.92-2.27.54-.58 2.16-1.66 2.85.37 0 .25-.07.46-.21.65l-.03.5c.29.33.28.66-.04.97l.02-.02c-.27.27-.15.8-.6.94l.06-.06c-.14.45-.67.32-.92.6-.17.2-.32.4-.6.43l.05-.06c-.16.47-.67.35-.97.58l.02-.01c-.17.2-.38.33-.63.39-.79.25-1.5.62-2.13 1.17-5.92 5.18-17 2.3-20.57-5.01-1.79-3.67-.58-7.35.77-10.93.38-.99 1.35-2.06-.09-3.03-.3-.2-.57-.46-.8-.75l.02.04a1.4 1.4 0 0 1-.55-.49l.01.02c-.19-.14-.36-.31-.5-.5h.01c-.2-.13-.36-.3-.5-.5l.01.02c-.2-.14-.36-.31-.5-.5h.01a2.3 2.3 0 0 1-.5-.5l.01.01a2.3 2.3 0 0 1-.5-.5l.01.01a2.3 2.3 0 0 1-.5-.5l.01.01c-.2-.15-.38-.31-.48-.55l.05.05c-.4-.29-.37-.77-.51-1.17.05-.13.02-.22-.1-.28-.26-.28-.17-.72-.45-.98-.3-.28-.23-.72-.46-1.03l.02.04c-.37-.3-.34-.78-.49-1.18v-.09c.07-.24.19-.48-.04-.71l.01.02c-.2-.15-.39-.32-.47-.57l.05.06c-.43-.25-.35-.75-.53-1.12.05-.13.01-.24-.1-.33-.25-.3-.19-.71-.42-1.02l.02.04c-.36-.31-.33-.78-.48-1.18.07-.12.05-.2-.07-.28-.3-.3-.22-.75-.45-1.09a.35.35 0 0 0-.1-.4c-.22-.29-.14-.7-.41-.98v.01c-.3-.3-.27-.76-.45-1.13.05-.14.01-.26-.12-.35-.22-.3-.15-.71-.41-.99v.02c-.31-.3-.27-.76-.45-1.12.04-.15 0-.27-.11-.36-.23-.28-.14-.71-.44-.97-.28-.29-.22-.72-.45-1.03l.02.03c-.13-.1-.18-.2-.14-.3.03-.1.07-.16.11-.16v.03c.1-.12.14-.22.08-.32-.04-.1-.09-.14-.13-.14l-.04-.06a1.82 1.82 0 0 0-.43-.48l-.02-.02c-.14-.19-.35-.33-.42-.58l.04.05c-.4-.22-.31-.69-.52-1.01l.03.04c-.4-.23-.32-.7-.52-1.03l.02-.01c-.99-.27-.77.49-.82.98-.12 1.17.22 2.36-.2 3.5-.17.43-.2.86-.1 1.3-.43.84.06 1.8-.4 2.64l-.08.84c-.47.81.1 1.8-.43 2.6a.31.31 0 0 0-.05.38c-.44.63.02 1.44-.42 2.06a.37.37 0 0 0-.06.42c-.52.78.06 1.74-.43 2.53l-.08.84c-.51.98.12 2.11-.43 3.09a.36.36 0 0 0-.04.4c-.55.96.08 2.07-.42 3.02l-.07.91c-.59 1.12.14 2.4-.46 3.52-.1.11-.12.24-.04.38-.5.6.14 1.5-.56 2.04l.05-.06a.9.9 0 0 1-.52.54l.04-.04a.94.94 0 0 1-.53.53l.04-.04a.94.94 0 0 1-.53.53l.04-.04a.94.94 0 0 1-.53.53l.04-.04a.94.94 0 0 1-.53.53l.04-.04a.95.95 0 0 1-.53.53l.04-.04c-.11.26-.28.44-.57.5l.05-.06c-.17.46-.67.35-.97.57l.02-.02c-.22.38-.69.3-1 .51l.02-.02c-.21.38-.7.28-.97.54-.22.32-.7.2-.93.52l-.03.01c-.19.15-.32.37-.59.4l.05-.04c-.19.44-.68.33-.99.55l.03-.02c-.21.38-.7.27-.96.55-.24.3-.7.2-.94.52l-.03.01c-.2.14-.33.36-.58.4l.04-.04c-.19.42-.68.32-.97.56l.02-.01c-.23.34-.7.24-.97.53-.48.36-.98.7-1.53.93l.03-.02c-.2.39-.69.28-.97.54-.14.2-.3.4-.58.44l.05-.05c-.17.45-.67.34-.98.57l.03-.02c-.22.37-.7.28-.98.53h.02c-2.23.74-4.59-.19-6.81.54l-.03.03c-.34.22-.22.7-.53.93l.01-.02c-.28.27-.17.76-.56.97l.04-.04c-.08.23-.28.38-.41.57l-.02.04c-.33.22-.22.7-.53.92-.27.26-.15.78-.6.94l.06-.05c-.05.26-.25.42-.44.59h.01c-.29.25-.16.77-.6.93l.05-.06c-.05.28-.25.45-.47.58l.03-.03c-.11.22-.3.37-.45.55l-.01.02c-.43.42-.57 1.05-1.09 1.4l.05-.04c-.09.26-.27.42-.5.56l.03-.03c-.11.22-.3.38-.49.53l.01-.02c-.14.2-.3.36-.5.5h.01c-.14.19-.3.36-.5.5l.01-.01c-.14.19-.3.36-.5.5l.01-.01c-.14.19-.3.36-.5.5l.01-.01c-.14.19-.3.36-.5.5l.01-.01c-.14.2-.3.37-.52.5l.02-.03c-.12.21-.3.37-.49.52v-.01a44.56 44.56 0 0 1-5.82 5.93l-.03.03c-.18.12-.33.27-.46.45l-.03.04c-.18.12-.33.27-.46.45l-.04.04a3.3 3.3 0 0 0-.48.44l-.02.01c-.17.16-.32.33-.51.47l.01-.01c-.14.2-.3.36-.5.5v-.01c-.14.2-.3.37-.5.5l.01-.03c-.14.21-.3.4-.54.5l.03-.04a1 1 0 0 1-.52.53l.04-.04c-.1.24-.29.4-.5.55l.03-.02c-.14.2-.31.37-.5.51-.13.18-.3.35-.5.5l.02-.02c-.14.2-.31.34-.47.52v.01c-.17.15-.32.31-.44.49l-.04.04c-.46.39-.6 1.02-1.07 1.39l.04-.04c-.11.23-.3.4-.49.55l.02-.02c-.14.2-.31.36-.5.5-.14.19-.3.36-.5.5l.01-.01c-.14.19-.3.36-.5.5l.01-.01c-.14.19-.3.36-.5.5v-.01c-.08.21-.2.25-.38.1zM290.24 198.63c.04-1.8.45-3.52.8-5.28.4-1.95 1.19-3.9.87-5.98-.06-.4.34-.88.62-1.54.92 1.29 1.94 2.24 2.16 3.67.13.84.43 1.58.9 2.24.94 1.3 1.32 2.6.33 4.05-.07.1 0 .31 0 .55.58.22 1.18.49 1.8.66.88.26 1.7.52 2.05 1.52.14.44.63.42 1.01.55 3.7 1.27 7.4 2.56 10.94 4.24 1.52.73 2.66 1.88 3.9 2.92.59.5 1.03 1.22 1.21 2.08.2.95.57 1.87.85 2.8.62 2.12.88 4.29 1.14 6.47.3 2.5.38 5.02.8 7.51.38 2.16.45 4.37.63 6.56.06.8 0 1.63.3 2.41.1.23.16.48.14.72-.16 2.78.5 5.52.52 8.29.03 3.01.44 5.99.89 8.97.09.56.08 1.14.1 1.7.05 1.22.05 2.43.36 3.65.45 1.81.21 3.56-1.36 4.87-.48.4-.95.43-1.42 0l.02.01c-.3-.23-.74-.15-1.02-.43l-.12-.11-.17.03c-.4-.14-.84-.14-1.17-.45-.4-.43-1.1-.01-1.47-.51l.02.01c-.3-.25-.75-.17-1-.5l.02.03c-.2-1.42-1.02-1.82-2.43-1.76-1.31.07-2.68.35-3.97-.24l.02.01c-.43-.39-1.09-.02-1.5-.44l-.15-.1-.17.03c-.5-.3-1.18 0-1.64-.46h.01c-.57-.5-1.41.08-1.97-.5l.01.01c-.58-.5-1.42.07-1.99-.48l-.13-.1-.15.05c-.68-.37-1.52.07-2.17-.44l-.13-.1-.15.06c-.29-.04-.49-.23-.7-.4l-.04-.03a2.12 2.12 0 0 0-.46-.45l-.04-.04a1.82 1.82 0 0 0-.45-.45l-.04-.04a1.77 1.77 0 0 0-.45-.45l-.04-.04a1.82 1.82 0 0 0-.45-.45l-.04-.04a2.15 2.15 0 0 0-.45-.47l-.02-.02c-.57-1.3.15-2.73-.44-4.01l-.05-.9c-.59-1.46.17-3.05-.44-4.5l-.04-.9c-.61-1.45.17-3.04-.45-4.5.1-.47.12-.94-.07-1.4-.51-1.33.12-2.77-.4-4.1.11-.44.1-.86-.07-1.29-.59-1.45.17-3.03-.44-4.49l-.04-.9c-.87-.84.76-2.52-1.02-3.05h.01c-.6.5-1.37.61-2 1.02l.04-.03c-.2.4-.7.3-.97.56-.14.2-.3.4-.58.44l.05-.05c-.17.45-.67.35-.98.56l.03-.02c-.2.38-.7.27-.94.57h-.01c-.18.17-.32.38-.59.42l.05-.05c-.18.44-.68.33-.97.58l.02-.02c-.47.38-1.2.38-1.49 1.02l.02-.03c-.13.2-.3.38-.5.51l.01-.01c-.15.2-.3.4-.57.46l.04-.06c-.15.43-.67.3-.9.6l-.03.02c-.17.16-.32.35-.54.45l.03-.03c-.19.36-.7.23-.9.57l-.05.03-.54.42.03-.02c-.43.42-.99.67-1.48 1-.14.2-.3.4-.57.45l.05-.06c-.16.44-.68.32-.94.6-.16.19-.32.38-.57.45l.05-.05c-.18.42-.69.3-.94.59-.18.18-.32.39-.58.44l.04-.05c-.17.42-.68.3-.94.58-.16.2-.32.4-.59.43l.06-.05c-.28.65-1.06.14-1.42.6v.01c-.17.18-.33.35-.52.48l.01-.01c-.14.2-.3.38-.54.48l.04-.04c-.2.38-.7.27-.95.56h-.01c-.16.18-.32.38-.58.44l.05-.05c-.19.43-.68.32-.98.55l.02-.01c-.2.36-.7.25-.94.55l-.01.02c-.19.15-.33.36-.57.42l.04-.04c-.18.4-.69.27-.92.59l-.02.01c-.19.15-.33.34-.56.44l.04-.03c-.19.36-.7.23-.9.57l-.05.03c-.25.13-.51.22-.78.28-2.21-.43-3.36-1.96-3.8-3.98a138.84 138.84 0 0 1-2.44-16.94c-.22-2.36.29-4.56 2.33-6.11 1.4-1.83 3.55-2.57 5.46-3.63 6.2-3.43 12.24-7.19 18.95-9.66 2.05-.75 4.38-.67 6.19-2.1zM314.4 110.66c-1.65-.93-3.51-1.25-5.27-1.88-2.07-.76-4.14-1.5-6.12-2.48-.36-.18-.74-.36-1.05-.61-.26-.2-.41-.55-.2-.87.12-.18.36-.36.56-.37.4-.01.8.05 1.2.15 3.07.79 6.2 1.27 9.34 1.77 3.44.54 6.87 1.24 10.31 1.8 2.57.43 5.16.72 7.73 1.13 2.97.46 5.97.67 8.95 1.02 3.55.42 7.06 1.14 10.58 1.73l9.86 1.65c2.33.4 4.66.72 6.96 1.21.8.17 1.46.15 2.09-.29 3.27-2.29 6.9-4.06 9.87-6.76a44.75 44.75 0 0 0 6.77-7.39c2.8-4.02 5.34-8.2 7.15-12.77.48-1.22 1.14-2.36 1.63-3.56a56.6 56.6 0 0 0 3.1-11.53c.68-3.76 1.37-7.51 1.94-11.3.14-.95.49-1.87.8-2.8.09-.28.31-.64.7-.45.18.08.3.35.36.56.47 2 .47 4.04.55 6.07.26.64.33 1.28-.04 1.9-.12.1-.13.23-.05.36-.52 1.14.1 2.41-.4 3.55-.18.44-.2.89-.1 1.34-.5.98.13 2.12-.43 3.09a.32.32 0 0 0-.04.38c-.45.63.03 1.45-.43 2.07a.32.32 0 0 0-.06.38c-.36.47-.06 1.11-.42 1.58a.33.33 0 0 0-.07.39c-.36.46-.04 1.12-.44 1.57-.12.1-.14.2-.07.34-.17.36-.15.8-.4 1.13-.12.1-.15.2-.09.34-.18.37-.15.8-.42 1.14-.12.07-.15.17-.07.3-.4.66.1 1.52-.5 2.14l.02-.04c-.1.2-.14.47-.42.56-.85.9-1.6 1.83-1.2 3.22.08.26-.07.64-.21.92-.75 1.47-1.07 3.08-1.44 4.66a23.36 23.36 0 0 1-3.1 7.66c-.3.45-.42.85-.17 1.36.18.36.32.77.35 1.17.07.9.09 1.83-1.07 2.14-.41.12-.74.39-.92.76-.5 1.02-1.42 1.57-2.32 2.11-1.6.97-3.19 2-4.87 2.8-2.3 1.1-4.3 2.66-6.54 3.86-.55.3-.57.77-.11 1.17.3.26.63.5.96.76 1.29 1 1.91 2.4 2.32 3.93a4.1 4.1 0 0 1-.85 3.9 11.74 11.74 0 0 1-5.32 3.77c-1.55.5-3.1.96-4.77.96-.56 0-1.13.14-1.69.22-.48.07-.97.23-1.44.19a101.8 101.8 0 0 1-5.81-.67 65.4 65.4 0 0 1-11.17-2.56c-.66-.23-1.45-.14-2.18-.15-1.7-.04-3.4.08-5.1-.4-1.17-.32-2.43-.08-3.65-.29a26.35 26.35 0 0 1-6.05-1.88 28.63 28.63 0 0 1-9.71-6.46c-1.06-1.11-1.1-2.29-.93-3.6.06-.44.35-.74.7-.96.48-.31.98-.6 1.57-.64.4-.03.83-.04 1.21-.15.9-.28 2.18-1.36 1.97-1.6-.51-.63-1.29-.62-2-.77-.7-.14-1.36-.6-2.14-.33-.62.16-1.25.32-1.84-.13h.01c-.58-.5-1.42.06-1.99-.47l-.13-.1-.15.05c-.66-.4-1.53.1-2.14-.5l.02.03c-.41-.42-1.14.06-1.48-.53zM241.76 244.64l-.14-.1-.16.05c-.67-.39-1.51.07-2.16-.44l-.13-.1-.16.06c-.67-.39-1.5.04-2.15-.43l-.16-.1-.19.04c-.64-.42-1.48.09-2.09-.47l.02.01a21 21 0 0 0-.53-.42l-.04-.04a1.86 1.86 0 0 0-.45-.45l-.04-.04a1.82 1.82 0 0 0-.46-.45l-.03-.04a1.81 1.81 0 0 0-.46-.45l-.04-.04a1.81 1.81 0 0 0-.45-.45l-.04-.04a3.02 3.02 0 0 0-.44-.5c-.66-2.63.16-5.35-.45-8a3.6 3.6 0 0 0-.08-1.82c-.55-1.8.16-3.7-.42-5.5.1-.78.17-1.57-.07-2.35-.44-2.9-.07-5.81-.2-8.72-.05-.88.2-1.79-.23-2.63.11-.96.19-1.92-.07-2.87-.55-2.48.18-5.02-.4-7.5.1-.45.1-.9-.07-1.33-.59-1.79.17-3.68-.44-5.47v-1.8c.63-2.28-.18-4.66.45-6.95l.01-.01c.17-.14.31-.3.42-.5l.06-.05c.19-.1.34-.25.46-.43l.04-.03c.21-.15.4-.34.67-.4.14.06.24.04.33-.08.65-.3 1.3-.32 1.94.01.08.13.19.15.32.1.39.18.84.11 1.24.27 2.35 2.57 5.66 3.3 8.77 3.96 5.35 1.15 6.89 4.9 7.46 9.53.7 5.5 1.44 11.05 1.4 16.55-.07 8.58 1.46 17.06 1.15 25.63-.04 1.23.15 2.44.27 3.66.24 2.49-.5 3.24-3.19 3.36-.42-.03-.86.06-1.22-.25l-.13-.1-.16.04c-.52-.3-1.19-.01-1.66-.46-.56-.5-1.4.07-1.96-.49-.57-.5-1.42.07-1.99-.48l-.12-.1-.16.05c-.52-.29-1.18-.02-1.67-.44z" fill="#cdbfbd"/><path d="M298.67 139.25c.98 1.04 1.13 2.24.83 3.6-.55 2.54-1.28 5.05-1.34 7.66-.02.8-.91 1.24-.78 2 .13.71.47 1.45.26 2.15-.65 2.04-.3 4.19-.81 6.27-.43 1.78-.41 3.67-.62 5.5-.2 1.61-.36 3.23-.66 4.82a8.64 8.64 0 0 1-1.48 3.82c-.68.9-1.08 2-1.62 3l-2.08 3.86a3.6 3.6 0 0 1-.3 1.78 15.4 15.4 0 0 1-2.05 3.02c-1.98 2.25-3.88 4.31-5.1 7.37-1.65 4.13-5.83 6.28-10.43 7.16-4.26.83-7.8-.33-10.92-3.18-.77-2.16.13-3.59 1.97-4.65 1.61-.94 3.33-1.68 4.96-2.61 3.25-1.85 3.6-3.4 1.92-6.64-1.4-2.7-1.23-5.47.3-8.12.41-.28.68-.7 1.05-1.02l-.04.04c.08-.24.28-.39.44-.57.32-.24.2-.77.61-.93l-.05.05c.07-.26.26-.42.46-.58l-.02.02c.14-.16.27-.33.38-.5.14-.05.19-.14.16-.28.04-.33.22-.54.5-.7l-.04.05c.12-.24.3-.4.52-.54l-.02.03c.24-.3.16-.77.51-1.02l-.03.04.4-.54c.13-.04.17-.13.12-.26.04-.32.23-.54.49-.7l-.03.03c.11-.21.3-.36.42-.56l.02-.04c.35-.2.23-.7.56-.91l-.02.02c.13-.16.26-.33.38-.51.13-.06.18-.15.15-.3.03-.3.22-.5.45-.69v.02c.27-.27.15-.79.6-.95l-.06.05c.05-.27.25-.42.44-.6v.02c.27-.27.16-.78.58-.95l-.05.05c.06-.26.26-.42.45-.58.28-.26.17-.76.56-.96l-.04.05c.07-.24.28-.39.43-.58.32-.25.2-.74.57-.95l-.04.04c.1-.22.3-.36.42-.57l.02-.03c.34-.21.22-.7.55-.92l-.02.02c.14-.16.26-.33.37-.5.14-.06.19-.16.16-.3a.91.91 0 0 1 .5-.68l-.03.04c.11-.23.29-.4.48-.55v.02c.25-.3.19-.72.44-1.01l.01-.02c.33-.23.2-.73.57-.94l-.03.04c.1-.22.29-.38.47-.54a15.13 15.13 0 0 1 .98-.99c.44-.4.05-1.07.47-1.48.31-.25.2-.73.54-.96l-.02.03c.11-.2.3-.34.42-.54l.04-.05c.18-.11.32-.26.42-.45l.06-.06c.19-.1.33-.24.43-.43l.06-.06c.19-.1.33-.24.43-.43l.05-.05c.62-.5-.04-1.38.55-1.89v.02c.26-.28.16-.77.54-.98l-.04.05c.08-.24.29-.38.41-.58l.02-.04c.34-.2.22-.7.56-.92l-.02.03c.25-.3.16-.78.55-.99l-.04.05c.07-.24.28-.38.41-.58l.02-.03c.33-.22.21-.7.54-.93l-.02.01c.27-.28.17-.77.57-.97l-.05.05c.07-.25.28-.4.43-.58v-.02c.18-.13.32-.3.43-.49l.06-.06a1 1 0 0 0 .43-.43l.06-.06a1 1 0 0 0 .43-.43l.06-.06c.19-.1.33-.24.43-.43l.06-.06c.19-.1.33-.24.43-.43l.06-.06c.2-.12.38-.25.55-.39l-.02.03c.16-.18.3-.17.41.04h-.01c.56.06.77.53 1.05.92l-.03-.03c.2.16.36.36.52.55z" fill="#cdbfbd"/><path d="M372.1 22.4l-.2-.01-.16.13c-.3.2-.72.12-1 .4a12.05 12.05 0 0 1-4.87.08l-.21-.1-.25.02c-.28-.28-.74-.19-1.01-.48-.13-.15-.3-.27-.48-.36-.04-.15-.15-.22-.3-.2-.33-.06-.55-.22-.62-.56l.06.06a.62.62 0 0 1-.55-.54l.06.05c-.31-.05-.5-.23-.55-.54l.06.05a.61.61 0 0 1-.55-.54l.06.05a.61.61 0 0 1-.55-.54l.06.05a.62.62 0 0 1-.55-.55l.06.06c-.31-.06-.5-.24-.54-.55l.06.06c-.47-.12-.33-.67-.64-.9-.2-.2-.4-.4-.43-.7.07-.14.04-.23-.1-.3-.25-.31-.2-.74-.4-1.08.09-.3.1-.6-.09-.87-.3-.82-.32-1.63.01-2.44.18-.24.2-.5.1-.77.29-.52-.03-1.22.5-1.67l-.03.05c.21-.32.14-.79.51-1.02l-.04.04c.12-.24.3-.41.53-.53l-.04.03c.12-.23.3-.4.53-.52l-.04.03c.12-.23.3-.4.53-.52l-.04.03c.12-.23.3-.4.53-.52l-.03.03c.11-.23.29-.4.52-.52l-.03.03c.12-.23.29-.4.53-.52l-.04.04c.19-.37.7-.25.92-.58l.02-.01c.2-.18.4-.37.7-.4.14.06.24.02.3-.12.28-.23.71-.14.97-.44.46-.4 1.12-.1 1.59-.45.74.11 1.49.15 2.23 0 .47.34 1.08.09 1.56.37l.79.15c.27.02.46.2.68.33.1.13.24.17.4.13.23.1.4.28.6.4l.05.03c.1.2.26.33.46.42l.06.06a19.5 19.5 0 0 1 2.4 2.4l.06.06c.09.2.23.34.43.43l.05.06c.1.2.24.36.42.5v.01c.18.2.37.4.42.68v6.46c-.03.3-.23.5-.4.73l-.01.03c-.34.2-.22.7-.57.92l.03-.04c-.1.22-.3.37-.46.55a9.4 9.4 0 0 0-.48.5c-.18.15-.34.3-.5.48a6.4 6.4 0 0 0-.49.5c-.17.15-.33.31-.49.48a6.4 6.4 0 0 0-.49.5c-.17.15-.34.31-.49.48l-.5.48c-.17.2-.37.37-.63.45z" fill="#ed7a7a"/><path d="M400.05 209.95c.4.1.8.18 1.18.3.89.3.95.44.63 1.19l-1.47 3.36a15 15 0 0 0-1.17 6.67 7.14 7.14 0 0 0 1.07 3.45c1.85 3.15 4.73 4.9 8.08 5.95 2.61.82 5.3.9 7.93.02 1.24-.42 2.48-.93 3.34-1.97.7-.87 1.62-1.02 2.63-.95.12.11.16.22.1.33-.03.1-.08.15-.12.15l.02-.01c-.16.18-.31.36-.5.5-.14.18-.3.35-.5.5l.02-.02c-.15.2-.32.36-.51.5h.01c-.14.18-.3.36-.52.49l.03-.03c-.14.21-.31.39-.53.5l.03-.03c-.22.37-.7.27-.99.53h.02c-.26.32-.7.25-1 .48l.02-.02c-.42.51-1.11.15-1.58.5l-.19-.02-.18.07c-2.29.4-4.58.4-6.86 0l-.18-.07-.2.02c-.47-.34-1.13-.02-1.58-.46-.38-.44-1.1 0-1.46-.53l.03.02c-.3-.23-.77-.15-1-.51l.02.03c-.21-.11-.36-.3-.54-.46-.25-.3-.74-.19-.95-.56l.03.03c-.23-.11-.4-.29-.52-.5l.02.02c-.22-.12-.39-.3-.51-.51l.02.02c-.22-.12-.39-.3-.51-.51l.02.02a1.4 1.4 0 0 1-.52-.51l.03.02c-.22-.12-.39-.3-.52-.51l.03.02a1.4 1.4 0 0 1-.52-.51l.03.02c-.22-.13-.4-.3-.51-.52l.03.03c-.36-.19-.22-.7-.58-.9l-.03-.04a5.5 5.5 0 0 0-.42-.53v.02c-.3-.25-.2-.72-.51-.96v-.01c-.27-.29-.2-.73-.47-1.01l.01.02c-.54-.6-.03-1.45-.47-2.07l-.07-1.37a3.15 3.15 0 0 1 0-2.43c.07-.14.09-.29.04-.45.5-.59-.02-1.4.45-2a.5.5 0 0 0 .06-.4c.22-.33.17-.77.44-1.09.32-.26.23-.7.48-.98l.01-.03c.5-.35.04-1.07.55-1.43l-.02.03c.2-.36.43-.7.8-.9z" fill="#979898"/><path d="M308.99 160.42c.4-.19.77-.13 1.14.12.86.6 1.74 1.17 2.6 1.77.66.47 1.25 1.03 2.05 1.27-.12.2-.2.46-.37.6-.74.59-.64 1.27-.24 1.96.16.27.45.48.65.73.56.73.56.96-.13 1.66-.52.53-1.09 1-1.63 1.49-.71.64-.92 1.64-.41 2.39.5.74 1.15 1.36 2 1.76.5.23.9.2 1.36-.1.69-.44 1.4-.84 2.14-1.18 1.04-.5 1.49-.36 2.04.56.29.5.53 1.02.79 1.52l.67 1.32c.85 1.63 1.98 2.76 4.03 2.17 1.11 1.88-.33 2.94-1.44 3.9-1.42 1.2-2.28 2.32-1.63 4.35.49 1.54-.18 2.89-1.85 3.5-1.76 1.3-1.76 1.33-3.92.74-1-.27-2.09-.34-2.82-1.24-.23-.28-.58-.2-.9-.1-.99.3-1.7-.12-2.4-.79-.56-.56-1-1.28-1.81-1.56a2.26 2.26 0 0 1-1.14-1.53c-.36-1.96-1.35-3.64-2.22-5.38-.31-.37-.58-.78-.95-1.1-1.26-1.06-1.34-2.36-.7-3.73.26-.55.37-1 .24-1.6-.1-.46-.02-.97.04-1.45.28-2.25.65-4.49.84-6.74.09-.97.38-1.7 1.06-2.37 1-.95 1.94-1.96 2.9-2.94zM353.04 169.18c-.14-.09-.3-.15-.41-.26-.68-.69-1.37-.75-2.16-.16-.85.63-1.74 1.2-2.6 1.81-.45.32-.87.42-1.3-.03-1.42-1.46-2.98-2.78-4.14-4.57l1.5-1.88c.6-.75.5-1.56 0-2.27-.61-.9-1.33-1.65-2.64-1.18-.43.16-.97.02-1.46.05a2.21 2.21 0 0 1-1.95-.79c-.16-.18-.32-.38-.52-.51-1.74-1.18-2.01-3.05-2.33-4.9-.13-.77.31-1.21.87-1.6 1.93-2.12 1.97-2.22 4.74-1.37 3.26 1 6.61 1.67 9.8 2.91.41.17.77.1 1.16.04 2.4-.31 4.26.6 5.79 2.42.59.7.93 1.55.54 2.24-1.02 1.78-.74 3.8-1.29 5.67-.26.9-.52 1.69-1.22 2.3-.8.7-1.38 1.63-2.38 2.08z" fill="#cdbfbd"/><path d="M315.43 128.45c2.72-.29 5.2 1.77 5.28 4.9.06 2.67-3.1 5.18-5.24 5.24-2.07.05-4.97-2.55-4.92-5.2.04-1.7 1.23-2.76 2.12-3.98.69-.95 1.76-1.1 2.76-.96z" fill="#ed7a7a"/><path d="M320.76 190.2c1.4-1.2 1.6-2.68 1.1-4.37-.2-.69-.27-1.42-.41-2.17.59-.3 1.2-.52 1.7-.9.59-.43 1.02-1.05 1.6-1.5.98-.74 1.08-1.72.93-2.8.33-.01.66-.06.97-.01 2.33.36 3.5 1.94 3.17 4.26-.12.86-.5 1.53-1.35 1.85-.23.09-.45.27-.67.27-1.76.03-2.67 1.36-3.8 2.39-1 .92-1.12 1.88-.32 2.98a.7.7 0 0 1-.69.5 4.2 4.2 0 0 1-2.23-.5z" fill="#fafdff"/><path d="M332.06 134.57c-.03 1.58-1.5 3.1-2.9 3.01-1.29-.09-2.45-1.6-2.42-3.16.03-1.58 1.15-2.6 2.86-2.6 1.38 0 2.48 1.24 2.46 2.76z" fill="#ed7a7a"/><path d="M305.55 180.35c1.6.81 2.2 2.27 2.46 3.92.17 1.03.3 2.08.9 2.98a8.11 8.11 0 0 1-3.28-.66c-.62-.21-1.17-.66-1.15-1.4.04-1.67.27-3.32 1.07-4.84z" fill="#f6f4f4"/><path d="M290.4 184.88c-.15-.54.06-1.21-.59-1.56l.56-1.4c.9.98.5 1.97.03 2.96z" fill="#d3d4d3"/><path d="M298.67 139.25c-.3-.07-.5-.22-.52-.55.29.08.44.27.52.55z" fill="#c3c7ca"/><path d="M350.21 107.33c-1.47-.05-3.51-.64-5.56-1.14-7.67-1.88-15.32-3.83-22.97-5.77-1.11-.28-2.2-.62-3.27-1.01-1.25-.46-1.62-1.07-1.58-2.44.02-.4.03-.83.16-1.2.42-1.22.42-2.59 1.2-3.69 1.31-.33 2.52.22 3.78.45 3.67.69 7.36 1.3 11.03 2.02 2.4.47 4.75 1.1 7.14 1.62 4.28.95 8.57 1.88 12.86 2.79a3.8 3.8 0 0 1 1.59.58c.16.13.34.43.3.61-.37 1.74-.51 3.53-1.2 5.21-.79 1.93-.8 2-3.48 1.97zM318.28 73.08v-1.72c-.01-.85.24-1.67.79-2.27 1.1-1.18 2.02-2.5 3.32-3.54 1.5-1.2 3.08-1.2 4.6-.66a9.95 9.95 0 0 1 6.7 6.91c.87 2.97-.24 4.72-1.93 6.37a10 10 0 0 1-3.58 2.07 8.19 8.19 0 0 1-9.11-2.92 3.9 3.9 0 0 1-.79-2.28v-1.96zM349.18 78.38c-.02-.67.11-1.53.4-2.4.52-1.65 1.7-2.52 3.26-2.98.77-.22 1.58-.35 2.38-.45 2.38-.29 4.33.7 5.85 2.39a7.5 7.5 0 0 1 1.78 4.46c.1 1.4-.44 2.73-1.25 3.87a9.56 9.56 0 0 1-3.8 2.95c-1.4.67-2.77.32-3.98-.26a8.4 8.4 0 0 1-4.1-4.02c-.52-1.09-.54-2.2-.54-3.56z" fill="#cdbfbd"/><path d="M382.04 89.44c-.1-2.57.55-5.01 1.49-7.38.27-.68.64-1.33 1.05-1.93.33-.47.8-.8 1.44-.8.32.01.67.1.96 0 .52-.2.99-.66 1.6-.38.76.36 1.29.99 1.66 1.73a9 9 0 0 1 .97 3.27c.2 2.54.07 5.07-.83 7.5-.58 1.54-1.34 2.96-2.87 3.83-2.06 1.17-3.56.75-4.84-1.53-.4-.7-.61-1.52-.63-2.35v-1.96z" fill="#ed7a7a"/><path d="M352.71 47.49c1.62.12 3.73.28 5.63 1.35a3.7 3.7 0 0 1 1.72 1.95c.6 1.5.4 2.53-1.05 3.64-1.6 1.23-3.37 2.21-5.6 1.93a7.86 7.86 0 0 1-3-.93c-2.27-1.3-3.16-3.23-2.64-5.77.08-.41.3-.73.62-1 1.25-1.07 1.72-1.22 4.32-1.17z" fill="#cdbfbd"/><path d="M354.2 214.64c1-.08 1.78.17 2.39.88.24.27.28.54 0 .82-.27.24-.58.33-.87.12-.61-.48-1.28-.92-1.52-1.82z" fill="#8b8c8c"/><path d="M359 118.08c2.44 0 4.78.75 7.18 1.07.52.07.99.52 1.5.76.42.21 1.1.13 1.2.68.12.7-.7.77-1.08 1.12-.34.3-.79.25-1.09-.1-1.31-1.52-3.28-1.67-4.99-2.36-.4-.16-.79-.1-1.17.07-.8.38-1.2-.14-1.57-.71-.12-.12-.15-.24-.11-.36.04-.12.09-.17.13-.17z" fill="#949394"/><path d="M359 118.08l-.02.53c-4.45-.76-8.9-1.44-13.33-2.69.45-.36.88-.33 1.26-.23 3.15.76 6.42.9 9.55 1.8.84.25 1.83-.21 2.54.59z" fill="#858787"/><path d="M274.47 188.32c-.12.08-.26.23-.36.2-.38-.06-.46-.36-.37-.68.02-.1.23-.23.3-.2.34.09.51.32.43.68z" fill="#858585"/><path d="M382.69 93.7a5.07 5.07 0 0 0 1.22 2.9c.97 1.08 2.19 1.42 3.54.9a5.24 5.24 0 0 0 2.88-2.53 15.61 15.61 0 0 0 1-11.86c-.21-.7-.58-1.36-1.11-1.88-.24-.23-.47-.5-.76-.6-.73-.29-1.43-.32-1.9.6.29.18.53.42.82.52 1.14.4 1.66 1.34 1.89 2.39.71 3.26.56 6.48-.8 9.57a4.29 4.29 0 0 1-1.69 2.05c-1.4.84-2.75.47-3.44-1.02-.2-.44-.32-.93-.4-1.4-.45-2.88-.04-5.68.87-8.41.41-1.23.86-2.47 2.02-3.26.18-.12.28-.42 0-.6a.68.68 0 0 0-.44-.1c-.9.17-1.37.85-1.73 1.59a19.84 19.84 0 0 0-1.97 11.15z" fill="#4f2808"/><path d="M380.63 70.44c.83-.48 1.72-.89 2.36-1.64.15-.18.25-.4.35-.57-.05-.12-.07-.22-.12-.24-.13-.06-.31-.16-.43-.12a5.23 5.23 0 0 0-2.52 1.78c-.05.07-.1.15-.1.22 0 .16.03.31.07.46.06.2.2.22.39.11zM322.94 59.83c1.84.67 3.67 1.36 5.54 1.94 5.08 1.57 10.31 2.54 15.54 3.34 7.86 1.2 15.53 3.05 23.1 5.41 3.34 1.05 6.74 1.84 10.17 2.54.11.03.3-.1.38-.2a.6.6 0 0 0 .07-.47c-.16-.51-.54-.76-1.07-.86a50.45 50.45 0 0 1-5.47-1.3c-4.05-1.27-8.06-2.66-12.18-3.71a137.73 137.73 0 0 0-12.18-2.67c-6.53-1.06-13.03-2.22-19.4-4.09-1.4-.41-2.86-.61-4.16-.88-.42.12-.88-.02-.81.49.02.18.27.4.47.46z" fill="#250d08"/><path d="M362.5 75.44c-.6.06-1.07.37-1.56.66-1.19.71-2.4 1.39-3.57 2.12-.5.32-.9.25-1.3-.13l-2.82-2.7a39.9 39.9 0 0 0-1.82-1.62.77.77 0 0 0-.91-.03c-.28.18-.4.5-.4.84.01.85.39 1.57.84 2.26l2.57 3.8c-.99.74-1.85 1.35-2.66 2.03-.64.53-.77 1.36-.4 1.96.31.51 1 .78 1.72.53.99-.36 1.97-.76 2.92-1.23.69-.35 1.22-.26 1.73.3.38.42.79.82 1.2 1.2.85.77 1.7 1.54 2.56 2.27.24.2.55.32.91.22 1.5-.43 2.16-1.88 1.39-3.22-.24-.41-.64-.73-.96-1.1-.61-.71-1.92-1.12-1.76-2.14.16-.97 1.52-1.07 2.25-1.7.19-.15.42-.25.62-.38.5-.31.88-.72 1.19-1.21.37-.6.47-1.21.14-1.85-.32-.6-1.12-.95-1.88-.88zM346.67 108.28c1.58.4 3.17.74 4.78 1.03 1.5.27 2.04-.04 2.67-1.47.4-.89.67-1.83.94-2.77.22-.78.37-1.59.52-2.39.08-.37.55-.72.2-1.1a4.13 4.13 0 0 0-1.93-.95c-3.81-.82-7.67-1.5-11.45-2.48-7.43-1.92-15.01-3.05-22.52-4.59-.97-.2-1.22-.1-1.47.74-.46 1.57-.93 3.13-1.02 4.56-.03 1.39.22 1.84 1.35 2.24 1.38.48 2.79.93 4.2 1.3l23.73 5.88zM319.3 99.9c-.82-.22-1-.44-.78-1.18.38-1.23.42-2.57 1.05-3.73 1.32-.2 2.53.33 3.78.57 3.52.68 7.06 1.31 10.57 2.03 2.08.42 4.12.98 6.19 1.46l13.34 3.07c.6.14.86.48.71 1.06-.32 1.26-.7 2.51-1.04 3.77-.14.5-.5.58-1.28.51l-1.34-.28c-6.24-1.2-12.37-2.93-18.57-4.35l-11.68-2.72c-.31-.08-.64-.13-.95-.21zM319.42 77.97c1.31.11 2.6.04 3.84-.48.8-.34 1.6-1.23 2.45-.82.75.37 1.26 1.24 1.86 1.9.88.96 1.7 1.97 2.8 2.71.27.19.56.39.87.43.76.1 2.08-1.33 1.99-2.11-.12-.93-.66-1.6-1.3-2.27-3.1-3.26-3.12-2.48.93-4.64.5-.27 1.05-.46 1.54-.74.43-.24.84-.52 1.2-.84.75-.66.84-1.67.18-2.64-.47-.7-1.24-1.08-2.13-.66-.88.42-1.76.83-2.63 1.28-1.17.6-2.3 1.23-3.47 1.81-.95.48-1.13.43-1.87-.4-.6-.68-1.14-1.4-1.74-2.07a55.73 55.73 0 0 0-2.35-2.48 3.24 3.24 0 0 0-1.03-.63c-.51-.21-1.26.42-1.09.94.2.61.48 1.21.8 1.77 1 1.77 2.03 3.52 3.04 5.26a9.38 9.38 0 0 1-4.03 2.75c-.3.12-.6.22-.88.38-.36.21-.37.79-.07 1.06.32.27.67.46 1.1.5zM329.81 139.35c1.57.05 3.16-1.57 3.12-3.17-.04-1.42-1.31-2.73-2.65-2.72-1.88 0-3 1.02-3.01 2.79-.03 1.57 1.2 3.07 2.54 3.1zm-.96-3.97c.17-.29.47-.44 1.1-.38.12.06.5.2.83.43.48.35.6 1.03.3 1.52-.3.47-.75.6-1.26.53-.88-.14-1.42-1.32-.97-2.1zM316.1 140.36c2.73-.02 5.38-2.66 5.33-5.39-.05-3.07-2.17-4.96-5.47-4.96-1.04 0-2.01.16-2.65.98-1 1.26-2.28 2.45-2.2 4.24.15 3.07 2.84 5.15 5 5.13zm-2.42-6.64c.31-.09.66-.15.76-.5.24-.87.94-.74 1.57-.75.65 0 1.3.04 1.9.3 1.14.5 1.7 1.62 1.4 2.79-.36 1.44-1.68 2.38-3.3 2.34a3.19 3.19 0 0 1-3.08-2.6c-.1-.65-.09-1.34.75-1.58z" fill="#4f2808"/><path d="M427.37 215.96c-2.13-5.26-5.62-9.13-11.3-10.68-.45-.12-.98-.05-1.36-.46-.24-.4.03-.77.1-1.16a9.78 9.78 0 0 0-.18-4.84c-.33-1-.51-2.06-.84-3.06a355.3 355.3 0 0 0-7.76-21.4c-.76-1.9-1.55-3.8-2.2-5.72a246.27 246.27 0 0 0-9.32-23.68 3.16 3.16 0 0 1-.23-1.88c.24-1.62.4-3.25.5-4.88.3-4.56.68-9.12 1.66-13.6.41-1.9-.38-3.23-2.15-3.8a20.6 20.6 0 0 0-2.38-.56c-2.73-.52-5.5-.77-8.27-.96-.35-.02-.82.13-1.04-.35.25-.62.83-.78 1.33-1 2.79-1.17 5.4-2.68 8.08-4.07 1.26-.65 2.01-1.55 2.3-2.95.36-1.84.82-3.66 1.3-5.48 1.2-4.58 2.46-9.14 3.25-13.82a488.73 488.73 0 0 1 3.69-19.24c.92-4.4 1.92-8.77 2.39-13.25.2-1.86.34-3.73-.16-5.59-.24-.87-.7-1.57-1.53-1.76-2.3-.55-4.44-1.62-6.84-1.84a57.43 57.43 0 0 1-8.46-1.35 89 89 0 0 0-8.65-1.68c-2.43-.35-4.86-.64-7.28-1-3.72-.56-7.32-1.67-10.99-2.47-.45-.1-.99-.1-1.33-.62.07-.28.13-.6.23-.9 1.52-4.75 3.23-9.42 5.39-13.93.14-.3.3-.58.43-.87.28-.58.71-.88 1.37-.82l.73.08c3.91.21 7.03-1.39 9.27-4.49 2.44-3.36 3.13-7.08 1.68-11.13a9.03 9.03 0 0 0-5.14-5.58c-1.43-.6-2.97-.92-4.53-.96a8.68 8.68 0 0 0-7.1 3.21c-.63.74-1.14 1.6-1.68 2.4a9 9 0 0 0-1.33 2.88c-1 4.2-.18 7.94 2.92 11.04.62.63.74 1.13.34 1.92a83.41 83.41 0 0 0-4.2 10.18c-.65 1.85-1.3 3.7-1.9 5.57-.2.65-.55.96-1.23.87-.33-.05-.65-.07-.97-.13-4.02-.77-8.1-1-12.16-1.42-1.71-.18-3.34.04-5.04.28-2.79.4-5.37 1.3-7.98 2.25-1.46.53-2.92 1.07-4.41 1.46-4.9 1.3-9.69 2.92-14.34 4.92a9.8 9.8 0 0 0-2.12 1.2c-.67.52-.98 1.14-.84 1.9.28 1.42-.02 2.74-.32 4.1-1.11 5.11-2 10.27-2.57 15.46-.61 5.6-1.06 11.22-1.59 16.83-.24 2.52-.42 5.06-.8 7.55-.53 3.47-1.2 6.92-1.86 10.37-.14.73-.28 1.44-.19 2.18.1.8.92 1.46 1.72 1.25a3.69 3.69 0 0 1 1.92.02l13.05 3.32c.4.1.8.19 1.17.34.31.12.79 0 .91.56-.3.17-.57.37-.87.47-3.03.97-6.06 1.95-9.1 2.87-1.42.42-2.84.75-4.34.78-1.65.04-2.55.89-2.66 2.53-.18 2.86-.76 5.66-1.32 8.46a8.58 8.58 0 0 1-1.29 3.13c-1.2 1.85-2.43 3.7-3.5 5.61a4.54 4.54 0 0 1-2.52 2.11c-3.68 1.45-6.51 3.74-7.04 8-.1.81-.56 1.3-1.27 1.67-1.02.52-1.99 1.13-2.96 1.73a17.4 17.4 0 0 0-3.8 3.08c-.54.6-.99 1.29-1.45 1.96-.06.09 0 .33.08.42.08.08.35.12.41.05.46-.46.87-.98 1.32-1.44a14.06 14.06 0 0 1 7-3.82c.33-.07.64-.07.87.24.27.35.36.73.13 1.13a554.47 554.47 0 0 1-14.33 21.96 2.33 2.33 0 0 1-1.96 1.12c-3.81.29-7.05 1.92-9.87 4.45a9.78 9.78 0 0 0-3.05 4.65c-.1.39-.23.78-.35 1.17-.16.56-.55.82-1.1.75-.96-.14-1.95-.25-2.88-.53a450.8 450.8 0 0 1-9.1-2.87c-.7-.22-1.41-.49-2-.9-.85-.59-1.64-.5-2.55-.2-2.55.86-5.08 1.79-7.72 2.37-.73.16-1.1.65-1.2 1.36-.07.49-.1.98-.14 1.47-.48 4.89-.23 9.8-.14 14.69.1 5.3.4 10.6.62 15.9.1 2.78.18 5.56.33 8.33.23 4.32.7 8.63.66 12.97-.01 1.06.03 2.12.14 3.18.11 1.12.95 1.72 2 1.36.7-.24 1.25-.09 1.86.2a58.9 58.9 0 0 0 10.92 3.57c1.83.44 3.62.98 5.43 1.48.57.16.97.46 1.35.96 1 1.3 1.22 1.34 2.59.42 2.64-1.79 5.23-3.64 7.84-5.47.54-.37 1.06-.8 1.33-1.41.46-1.04 1.35-1.62 2.23-2.2 1.43-.96 2.88-1.88 4.33-2.79 6.98-4.4 13.88-8.93 20.16-14.32.24-.2.52-.48.85-.2a1 1 0 0 1 .28.63c.25 2.85.48 5.7.74 8.54.55 6.27 1.13 12.53 1.67 18.8.1 1.13 0 2.28.07 3.42.05 1.07.54 1.65 1.55 1.93.55.15 1.12.23 1.69.33 6.69 1.2 13.13 3.27 19.5 5.63.68.25 1.36.55 2.01.88.42.21.48.62.32 1.05h2.45c.65-.67 1.57-.82 2.34-1.26 1.07-.61 2.14-1.19 3.2-1.8.74-.4 1.42-1 1.6-1.78.23-1 .93-1.48 1.58-2.09 1.08-1 2.16-2 3.15-3.08a173.5 173.5 0 0 1 8.52-8.47c4.1-3.88 8.15-7.8 11.13-12.67a3.74 3.74 0 0 1 1.86-1.49 48.4 48.4 0 0 0 4.63-2.23c4.27-2.4 8.5-4.89 12.74-7.33 1.84-1.06 3.66-2.16 5.55-3.14a6.14 6.14 0 0 0 3.48-5.24c.19-1.95.42-3.9.7-5.84 1-6.95 2.03-13.9 3.05-20.84.05-.35-.05-.82.61-1 .18.32.42.64.58 1 .85 1.85 1.73 3.7 2.5 5.58 1.86 4.54 3.7 9.08 5.46 13.64.7 1.83 1.7 3.32 3.48 4.21.28.14.5.4.8.66a18.78 18.78 0 0 0-2.1 8.5c-.08 3.78 1.08 7.1 3.83 9.74 4.64 4.45 13.97 6.28 20.17 1.7a17.43 17.43 0 0 0 6.13-8.34c1.1-3 .8-5.97-.37-8.85zm-13.5 15.32c-2.73.06-5.36-.37-7.82-1.61a8.47 8.47 0 0 1-4.84-6.89c-.36-2.86-.24-5.69.73-8.44.21-.59.54-.96 1.24-.94 1.87.06 3.48-.7 5.01-1.7.48-.3 1-.57 1.42-.95 1.02-.92 2.12-1.53 3.15-1.18 3.62-.08 6.27 1.1 8.38 3.53 1.57 1.8 2.85 3.76 3.41 6.13.31 1.3.4 2.57-.14 3.83-.07.15-.09.32-.14.47-1.76 4.88-5.1 7.63-10.4 7.74zm-34.7-17.46c-.52 3.52-.5 2.91-2.93 4.28-3.62 2.06-7.2 4.18-10.8 6.28-1.05.6-2.06 1.29-3.3 1.68-.28-.92-.03-1.71.04-2.5.1-1.3.22-2.6.3-3.9.01-.13-.16-.38-.2-.37-.23.05-.57.13-.6.27-.25.86-.43 1.74-.61 2.62-.3 1.44-.58 2.88-.9 4.31-.1.48-.2.98-.73 1.2-.22.09-.47.28-.66.24-.44-.1-.3-.49-.24-.78.06-.32.14-.64.24-.95.94-2.9.47-5.7-.8-8.33a10.12 10.12 0 0 0-8.43-5.94c-3.5-.38-6.78.19-9.88 2.03-3.95 2.35-7.77 4.84-11.03 8.1-.33.32-.62.8-1.21.68-.08-.13-.22-.24-.24-.38-.18-1.46-.4-2.91-.5-4.38-.29-3.75-.4-7.5-.11-11.26.1-1.44-.4-2.73-.83-4.04-.25-.76-.96-1.1-1.69-1.29-1.34-.36-2.69-.67-4.03-1.04l-15.34-4.22c-1.1-.3-2.21-.57-3.33-.8-1.13-.25-1.98.64-3.02.84-1.83.35-3.57 1.14-5.45 1.3-.45-.3-.26-.71-.2-1.1.63-4.2 1.26-8.4 1.87-12.6.12-.8.18-1.62.24-2.44.08-1.4.33-2.75 1.06-3.98.7-1.16.62-2.5.83-3.77a246.8 246.8 0 0 0 2.1-16.77 99.11 99.11 0 0 1 2.33-13.76c.23-.99.39-1.1 1.33-.9 2.35.48 4.48 1.45 6.36 2.98.88.7 1.2 1.41.82 2.53-.6 1.7-1.07 3.43-1.54 5.16a119.17 119.17 0 0 0-3.37 18.05c-.53 4.63-1.46 9.19-2.3 13.77-.27 1.52-.78 3-.75 4.58 0 .63.24 1.08.74 1.45.36.26.74.46 1.1.2.91-.67 1.58-.36 2.39.25.55.4 1.37.47 2.08.65 1.27.32 2.56.56 3.8.94 5.41 1.62 10.95 2.61 16.52 3.5 6.86 1.08 13.72 2.15 20.5 3.67 2.22.5 3.63-.49 3.77-2.83.1-1.8.32-3.58.6-5.35a2124 2124 0 0 1 2.03-12.32c.08-.49.2-.97.38-1.42.14-.38.47-.4.79-.19a7.12 7.12 0 0 1 2.06 2.07c2.04 3.16 2.61 6.65 2.25 10.33-.04.48-.37.7-.82.74a5.93 5.93 0 0 0-3.73 1.64c-1.22 1.17-1.28 2.62-.91 4.08.33 1.35 2.05 2.09 3.4 1.57a4.75 4.75 0 0 0 2.29-1.77c.41-.6.8-1.22 1.33-2.04.5.18.9.27 1.27.45 1.99.95 2.01 1 1.7 3.17-.55 3.63-1.15 7.26-1.6 10.9-.29 2.35-.34 4.73-.5 7.1 0 .25.08.5.33.57.5.13.46-.33.5-.6.5-3.06 1-6.12 1.47-9.18.4-2.59.74-5.18 1.12-7.76.06-.4.15-.8.54-1.14.95.53 1.42 1.53 1.97 2.4 1.65 2.56 2.9 5.3 2.58 8.48-.02.28.04.49.34.48.12 0 .29-.15.33-.27.36-.93.47-1.88.31-2.88-.32-2.02-.78-4-1.42-5.95-.61-1.88-1.4-3.7-2.86-5.07-.88-.82-1.08-1.73-.9-2.85.42-2.83.8-5.66 1.17-8.5.8-6.07 1.76-12.12 2.3-18.23.25-2.93.66-5.84 1.01-8.76.02-.16.05-.33.13-.46s.22-.27.34-.3c.1 0 .29.16.32.27 1.47 5.86 4.4 11.03 7.56 16.1.34.56.56 1.18.82 1.78.1.23.15.47.24.7.69 1.74 1.63 3.44 2 5.25.37 1.82-.38 3.7-.53 5.57-.18 2.2-.1 4.4-.53 6.58-.46 2.4-.7 4.85-1.14 7.26-.82 4.5-1.27 9.05-1.87 13.59-.04.24-.04.49-.07.73zm-48.63 40.98c-.3-.07-.3-.35-.33-.58l-1-9.71-.96-9.48c-.1-1.04-.12-2.1-.2-3.63 2.55 1.7 4.1 3.52 5.2 5.74 1.58 3.24 2.39 6.73 3.19 10.22.21.94.02 1.69-.73 2.42-1.58 1.53-3.04 3.17-4.54 4.77-.18.19-.37.32-.63.25zm7.08-7.42c-.37-1.82-.68-3.66-1.13-5.46-.32-1.26-.8-2.48-1.26-3.7a15.95 15.95 0 0 0-6.19-7.68 9.24 9.24 0 0 1-.4-.28c-1.16-.88-1.21-1.45-.22-2.6.27-.3.56-.6.85-.88 1.11-1.08 2.24-2.14 3.33-3.24 1.3-1.32 2.77-1.55 4.47-.87a9.2 9.2 0 0 1 4.02 3.1 20.06 20.06 0 0 1 2.35 3.99c.92 2.09 1.65 4.25 2.22 6.46.2.78.27 1.6.35 2.41a1.9 1.9 0 0 1-.54 1.57 91.76 91.76 0 0 1-7.39 7.13c-.1.08-.3.04-.46.05zm10.09-9.7c-.22.16-.52.07-.6-.16-.15-.46-.22-.95-.3-1.43-.36-2.09-.66-4.19-1.5-6.16a22.16 22.16 0 0 0-2.79-4.87 10.9 10.9 0 0 0-5.2-3.9c-.22-.08-.41-.24-.9-.53a25.94 25.94 0 0 1 6.37-3.58c2.66-1.01 5.4-.9 8.19-.3 2.68.58 5.34 4.46 4.48 7.73a17.97 17.97 0 0 1-1.09 2.98 46.4 46.4 0 0 1-5.99 9.5c-.2.26-.42.51-.67.71zm-56.5-15.63c-1.17.55-2.25 1.3-3.36 1.98-1.21.75-1.73 1.14-2-.8-.2-1.43-.66-2.85-1.09-4.25a14.85 14.85 0 0 0-6.2-8.23l-1.37-.96c.16-.4.4-.6.7-.74a70.96 70.96 0 0 1 9.32-3.72c.93-.28 1.9-.4 2.87-.57.57-.1.91.16 1.04.76.08.4.13.8.16 1.2.33 4.48.63 8.96.98 13.43.08.92-.13 1.48-1.04 1.9zm-27.16 16.77l-.89-5.3c-.75-4.43-1.22-8.89-1.58-13.36-.05-.64.3-.93.9-.76 2.4.7 4.49 1.93 5.94 4.04 1.94 2.8 3.07 5.9 3.28 9.26v1.3c-.01.6-.23 1.1-.76 1.43l-5.97 3.83c-.37.23-.84.01-.92-.44zm-9.45 7.88c-.46-.43-.53-.98-.55-1.57-.12-2.85-.32-5.7-.36-8.56-.1-6.38-.54-12.73-.94-19.09-.31-5.05-.81-10.09-1.2-15.14-.14-1.7-.4-3.4-.63-5.1a5.64 5.64 0 0 0-.45-1.4.8.8 0 0 0-.77-.5c-.42.02-.51.34-.51.68 0 .49-.02.98.05 1.46.55 3.72.9 7.46 1.17 11.2.44 6.27.89 12.55 1.26 18.82.34 5.62.57 11.25.84 16.88.02.32-.04.64-.08 1.28-2.56-.65-4.92-1.29-7.3-1.83a414.1 414.1 0 0 0-9.1-1.94c-.68-.14-.98-.5-.98-1.16-.01-1.23.02-2.45-.05-3.68-.29-5.38-.64-10.76-.9-16.14-.13-3.02-.07-6.04-.23-9.06-.21-4.16-.3-8.32-.74-12.47-.34-3.16-.47-6.35-.69-9.53-.02-.32-.03-.66.02-.98.06-.38.35-.56.7-.46.63.17 1.24.4 1.85.61 3.4 1.16 6.8 2.34 10.2 3.47 1.5.5 2.44.36 2.35-.2-.18-1.05-1.14-1.07-1.87-1.32-2.56-.85-5.13-1.63-7.7-2.45l-.68-.26c-.2-.07-.28-.2-.2-.38.06-.13.15-.3.27-.36.9-.35 1.83-.69 2.74-1.03a3.24 3.24 0 0 1 1.93 0c3.73.91 7.42 1.94 11.03 3.25.39.14.77.3 1.13.47 1.44.68 2.2 1.7 2.25 3.41.21 7.1 1.02 14.17 1.19 21.28.1 4.65.52 9.3 1.17 13.91a189.3 189.3 0 0 0 2.17 13.04c.17.8.09 1.41-.66 1.9-1.57 1.04-3.1 2.12-4.65 3.18-.44.3-.77.05-1.08-.23zm8.49-63.05a32.73 32.73 0 0 1 6.43-3.51c.34-.14.67 0 .68.41.03.9-.01 1.8 0 2.7a9.1 9.1 0 0 0 2.56 6.43c1.12 1.2 2.31 2.3 3.67 3.22a8.4 8.4 0 0 0 3.56 1.55c.3.05.6.19 1.01.32a4.53 4.53 0 0 1-2.02 2.42c-4.68 2.83-9.47 3.15-14.49.84-5.7-2.62-5.9-11.24-1.4-14.38zm43.51-60.5c.48.03.96.15 1.43.27 3.48.88 6.94 1.88 10.44 2.65 4.79 1.04 9.62 1.88 14.4 2.88a736 736 0 0 1 33.44 7.6c1.18.3 2.4.48 3.6.68.29.05.72.05.74-.4.02-.2-.15-.46-.31-.58-.86-.66-1.87-1-2.9-1.25-5.57-1.3-11.12-2.67-16.7-3.88-7.65-1.67-15.3-3.4-23.02-4.76a199.76 199.76 0 0 1-15.59-3.2l-2.22-.6c.38-.6.92-.7 1.42-.85 3.66-1.15 7.32-2.28 10.97-3.47 1.17-.37 2.35-.77 3.39-1.39 1.1-.64 2.13-.7 3.27-.33l1.25.37c.2.84-.07 1.62-.27 2.38-.26.96-.3 1.93-.35 2.91-.04.92.37 1.61 1.14 2.02.93.5 1.9.98 2.9 1.3 4.74 1.5 9.51 2.92 14.38 3.98 2.71.58 5.44 1.12 8.15 1.68.4.09.8.2 1.2.26 2.04.3 3.48-.61 4.08-2.59.46-1.48.69-3 .51-4.7 1.96.27 3.67.5 4.75 2.24.43.68.77.7 1.45.25 2.52-1.68 5.24-3.02 7.88-4.48 1-.55 1.93-.66 3.02-.33 4 1.2 8.03 2.2 12.15 2.85.22.04.54.08.47.4a.96.96 0 0 1-.4.55c-1.93 1.23-3.91 2.37-5.8 3.66-1.61 1.11-3.15 2.32-4.94 3.17-.57.28-1.05.76-1.55 1.17-.11.09-.18.29-.18.43 0 .13.13.26.22.37.04.04.17.02.23-.01 1.77-.84 3.61-1.5 5.23-2.65a48.46 48.46 0 0 1 5.86-3.55c.43-.22.81-.56 1.51-.5.41 1.98-.3 3.93-.36 5.9a35.73 35.73 0 0 1-.64 6.26c-1.25-.71-2.4-1.29-3.47-2a5.66 5.66 0 0 0-4.92-.72 12.77 12.77 0 0 0-8.15 6.9c-.4.8-.5 1.74-1.34 2.59.09-.92.17-1.64.21-2.37a41.65 41.65 0 0 0 0-4.16c-.02-.2-.18-.5-.34-.55-.48-.14-.48.3-.5.58-.42 7.18-1.45 14.3-2.37 21.43l-3.6 27.94c-.13.96-.34 1.92-.55 3.1l-.86-.25c-1.56-.4-2.19-1.3-2.06-3 .17-2.47-.44-4.85-1.25-7.2a11.42 11.42 0 0 0-4.6-6.14c-.85-.55-1.03-1.14-.81-2.04.5-2.15.92-4.32 1.47-6.45.6-2.3.96-4.64 1.23-6.99.08-.74.22-1.38.64-2.04.85-1.36.05-3.03-1.52-3.37-.4-.08-.8-.06-1.22-.08a35.09 35.09 0 0 1-8.44-1.4 92.56 92.56 0 0 0-17.25-3.52c-.5-.08-.68-.41-.6-.87 1.37-7.37 8-9.85 13.44-7.75.28.1.52.34.76.5-.14.9-.95 1.16-1.37 1.75-.92 1.3-1.2 2.66-.47 4.14.63 1.26 1.88 1.6 3.08.85a4.55 4.55 0 0 0 2.3-3.82c.04-1.1.33-1.3 1.35-1.1 3.09.62 5.97 1.69 8.25 3.99.17.17.33.37.52.5.1.08.33.11.4.05.1-.09.2-.33.15-.42-.24-.42-.48-.87-.83-1.2-2.9-2.7-6-5.04-10.17-5.36-.52-.04-.96-.2-1.3-.6-2.57-2.97-8.58-2.87-12.05-.55a12.06 12.06 0 0 0-5.23 7.14c-.12.48-.2.96-.32 1.44-.19.71-.46.96-1.23.86-1.7-.2-3.41-.4-5.09-.76-2.07-.43-4.11-1.02-6.17-1.54-.55-.14-1.1-.35-1.66-.4a7.34 7.34 0 0 1-5.17-2.82c-1.45-1.7-3.52-2.6-5.63-3.32l-1.64-.52c-.46-.15-.61-.47-.52-.94.08-.4.13-.8.2-1.2l2.8-13.68c.22-1.09.58-1.39 1.65-1.34zm-1.8-14.9c-1.13-.18-1.27-.34-1.1-1.4.18-1.21.35-2.43.63-3.62.94-3.99 1.33-8.05 1.7-12.12.52-5.6 1-11.22 1.56-16.83.24-2.43.61-4.86.99-7.28.49-3.15.8-6.32 1.01-9.5.03-.4.07-.8.14-1.21.11-.68.42-.87.97-.51 1.54 1 3.34 1.3 5.02 1.9.2.08.48.03.7-.04.14-.03.27-.2.3-.34.05-.13.03-.34-.05-.44a1.81 1.81 0 0 0-.56-.45c-.58-.3-1.19-.56-1.76-.87-.95-.52-2.29-.37-2.83-1.61.73-.85 1.82-1 2.75-1.42a43.46 43.46 0 0 1 7.19-2.42 93.02 93.02 0 0 0 8.4-2.66c.6-.22 1.2-.53 1.83-.7 2.79-.74 5.38-1.9 7.72-3.59.5-.35.97-.45 1.6-.24 4.25 1.43 8.49 2.9 12.9 3.8.48.09.7.44.6.89-.37 1.6-.52 3.22-.41 4.86.04.64.02 1.36.84 1.6.63.17 1.25-.2 1.62-1.18.54-1.44.97-2.94 1.47-4.4.25-.76.52-.97 1.24-.81 1.84.38 3.68.78 5.5 1.24 3.88.98 7.8 1.72 11.79 2.17 3.9.43 7.74 1.18 11.56 2.08 2.55.6 5.12 1 7.72 1.25 1.57.14 3.05.5 4.78 1.3-1.75 1.6-3.42 2.75-5.07 3.94-.99.72-1.98 1.43-2.94 2.2-.5.4-.95.9-1.37 1.39-.36.41-.4 1.27-.13 1.34.48.1.7-.3 1.01-.52.86-.63 1.7-1.27 2.6-1.84 1.87-1.18 3.7-2.4 5.4-3.8.38-.3.8-.54 1.2-.8.54.35.27.75.2 1.09-1.66 8.4-3.38 16.8-4.98 25.22-.87 4.57-1.49 9.19-2.65 13.7-.85 3.32-1.7 6.64-2.6 9.94-.29 1.02-.07 2.31-.84 3.02-.67.6-1.8.67-2.69 1.08a169.7 169.7 0 0 0-6.61 3.18c-3.12 1.62-6.2 3.3-9.3 4.96-.42.22-.82.54-1.35.5-.43-.73-.17-1.47-.06-2.15.65-3.95 1.23-7.91 2.05-11.82a285.82 285.82 0 0 0 3.82-23.44c.2-1.54.5-3.06.74-4.6.06-.47.06-.97.03-1.46 0-.22-.1-.53-.4-.48-.22.03-.45.18-.58.35-.47.6-.6 1.34-.74 2.05-.23 1.12-.38 2.26-.54 3.4-.84 5.72-1.56 11.48-2.55 17.19-.83 4.74-1.92 9.44-2.64 14.2-.32 2.18-.56 4.37-.86 6.56-.1.77-.37.96-1.16.8-.8-.17-1.6-.36-2.36-.6a60.77 60.77 0 0 0-9.51-2.3c-5.9-.92-11.64-2.54-17.44-3.9-6.12-1.43-12.23-2.92-18.45-3.88-4.51-.69-9.06-1.21-13.59-1.8-.48-.07-.97-.1-1.46-.17zm58.26-97.08c.1-.28.36-.53.6-.73 2.43-1.95 7.09-2.26 9.74-.62a5.09 5.09 0 0 1 2.35 3.57c.46 2.5-.35 4.66-1.9 6.6a4.58 4.58 0 0 1-2.7 1.56c-.8.18-1.61.23-2.09.29-3.35 0-5.41-1.2-6.33-3.74a9.48 9.48 0 0 1 .32-6.93zm-3.97 112.04c-.28 1.1-.5 2.04-.77 2.96-.15.53-.53.75-1.12.62l-8.15-1.66c-4.88-1-9.64-2.43-14.39-3.92-1.19-.37-1.22-.5-1.22-1.76 0-.4.02-.81.07-1.22.02-.14.15-.27.3-.51 2.77.4 5.5 1.21 8.26 1.86 2.86.67 5.7 1.39 8.57 2 2.78.6 5.58 1.08 8.45 1.63zm34.03 28.68a40.46 40.46 0 0 0-14.8 8.44 12.1 12.1 0 0 1-2.1-5.16 14.5 14.5 0 0 1 .84-7.94c.77-1.98 1.69-3.88 3.15-5.48a3.4 3.4 0 0 1 2.59-1.16c1.78-.05 3.29.46 4.65 1.74 2.42 2.3 4.2 4.99 5.41 8.06.17.44.47.88.26 1.5zm-46 11.03c-.86-.99-1.75-1.95-2.6-2.93-.52-.6-1.12-.95-1.93-.74a1.2 1.2 0 0 1-.25.05c-3.24.24-3.54-.08-3.32-3.52 1.08-.05 2.04.44 3.05.7 2.45.65 4.88 1.34 7.32 1.98.64.16.98.48 1.07 1.14.34 2.37 1.84 3.52 4.18 3.81.3 1.45-.46 2.7-.64 4.23-2.04-.74-2.04-.74-3.68.37l-1.21.83c-1.28.89-1.26.94-2.38-.3-.63-.71-.61-.86.04-1.65.15-.2.33-.36.48-.55 1.08-1.4 1.07-2-.14-3.42zm-5.51 30.72c-.45.04-.7.12-.92.08-3.95-.65-7.9-1.3-11.84-1.97-.48-.09-.95-.23-1.42-.38-.37-.11-.44-.45-.47-.78-.03-.36.1-.62.5-.7a9.38 9.38 0 0 0 3.89-2c2.26-1.81 2.78-3.94 1.55-6.52-1.43-2.99-4.44-4.72-7.1-4.16-1.15.25-1.6-.2-2.04-1.12a13.45 13.45 0 0 0-2.58-3.85c-.39-.4-.8-.5-1.3-.21-1.06.62-2.14 1.21-3.2 1.81-.32.18-.6.2-.85-.11-.3-.38-.3-.7.03-1.07.66-.73 1.31-1.46 1.91-2.23.55-.7.75-1.44.13-2.24-.2-.25-.36-.55-.44-.86-.27-1 .25-1.78 1.29-1.93 1.3-.17 2.6-.32 3.9-.44 1.23-.1 1.42.07 1.62 1.23.02.16.01.33.04.49.22 1.21.56 1.56 1.73 1.65.89.07 1.8.03 2.69.1 1.31.12 2.2-.43 2.73-1.6.13-.3.2-.63.54-.8 1.45.19 2.83.69 4.2 1.2.68.25 1.34.54 1.95.79.07.93-.45 1.51-.75 2.17-.47 1.02-.4 1.9.5 2.63a12.58 12.58 0 0 1 3.62 4.86c.6 1.36.85 1.4 2.5 1.1.81-.14 1.09 0 1.19.77.1.8.14 1.62.19 2.44.03.55-.22.87-.77 1.07-.45.16-.8.54-1.23.78-.62.35-.9.86-1.03 1.56a14.63 14.63 0 0 1-1.32 3.93c-.77 1.51-.88 2.95.56 4.3zm-22.7-8.51c.2.87.45 1.73.65 2.6.1.4.13.8.15 1.21.04.77-.27 1.06-1.31.94l-1.35-.35c-1.42-.39-1.37-.39-1.3-1.93.22-4.73-1.58-8.46-5.77-10.79-2.65-1.47-2.13-.85-1.9-3.72.19-2.1.55-4.2.84-6.3.06-.4.18-.79.35-1.15.3-.63.81-.8 1.4-.43a50 50 0 0 1 3.02 2.07c2.72 2.02 3.01 1.86.1 4.2-1.25 1.01-1.28 1.9-.2 3.1.27.3.56.59.85.87.73.71 1.48.88 2.42.32.83-.5 1.74-.89 2.63-1.3.33-.15.64-.04.85.25a21.1 21.1 0 0 1 2.98 6.14c.17.57-.05.96-.61 1.12-.71.19-1.43.32-2.15.49-1.55.36-2.01 1.09-1.66 2.66zm-5.01 1.73c-.04.32-.08.65-.18.95-.1.32-.31.56-.7.56-.33 0-.65-.1-.85-.38-.12-.2-.18-.44-.23-.68l-.52-2.37a7.25 7.25 0 0 0-3.25-4.67c-1.18-.78-1.17-.8-.8-2.13.04-.15.1-.3.18-.44.04-.07.12-.11.18-.16 4.51 1.15 6.55 6.08 6.17 9.32zm40.78-25.35c-.7-.41-1.39-.85-2.06-1.31-.16-.12-.32-.4-.3-.6.03-.48.44-.37.74-.34.89.08 1.77.19 2.6.28.28.59.04 1.05-.08 1.5-.13.52-.5.7-.9.47zm-9.03-17.07c.13-.07.34-.12.46-.06.1.06.14.27.21.41-.04 1.03-.43 1.69-1.18 1.88-.17.04-.57-.16-.59-.29-.14-.9.32-1.53 1.1-1.94zm-48.58-.6c.04.08.1.16.1.23l-1.46 7.64c-.19-.04-.4-.01-.47-.1-.6-.64-1.5-1.23-1.7-2-.24-.93.76-1.69 1.22-2.52.46-.86.98-1.68 1.5-2.51.19-.32.36-.7.81-.74zm-1.8 11.87c-.25 2.41-.44 4.42-.66 6.43-.05.48-.19.95-.27 1.34-.65.41-1-.07-1.37-.3a16.32 16.32 0 0 1-4.44-4.11c-.6-.84-.58-1.05.02-1.93.41-.61.85-.55 1.45-.3 1.46.63 2.85.46 4.15-.46.26-.18.54-.32 1.12-.67zm-2.77-1.35c-.3.1-.62.13-.67.14-.99.04-1.28-.4-.96-1.05l.23-.4c.5-.77 1.09-.81 1.72-.14.56.58.42 1.23-.32 1.45zm-.36-11.1c.07-.03.17.01.27.07-.05-.18 0-.17.1.04l.04.02h.01l.01.01h-.01l-.04-.01c-.9 1.53-1.81 3.07-2.73 4.6-.26.42-.61.75-1.17.74-.35 0-.73-.1-.64-.5a6.53 6.53 0 0 1 4.16-4.97zm-4.93 16.43c.77.9 1.43 1.73 2.15 2.5a10 10 0 0 0 3.75 2.67c1.14.44 1.15.54 1 1.6-.31 2.25-.66 4.5-.95 6.77a6.09 6.09 0 0 1-1.16 3.15c-.3.38-.5.84-.73 1.28-.76 1.5-.85 1.89-2.82 1.16a41.2 41.2 0 0 1-5.94-2.84 9.5 9.5 0 0 1-2.3-1.79c-1.67-1.82-1.61-1.64-.41-3.48l6.38-9.84c.27-.4.45-.89 1.03-1.18zm-25.98 53.5c-.12-2.36-.19-4.73-.3-7.1-.08-1.7-.22-3.4-.33-5.08.64-.33.96.14 1.34.38a17.09 17.09 0 0 0 9.28 2.7c1.75 0 3.42-.34 5.01-1 3.2-1.35 6.19-3 8.05-6.12.41-.7.96-1.44 1.03-2.2.14-1.43.94-2.29 1.9-3.2.99-.94 1.75-2.11 2.6-3.18.07 3.7-.67 7.2-1.4 10.71-.24 1.11-.86 1.64-1.88 1.96a71.12 71.12 0 0 0-17.36 8.41c-1.92 1.25-3.72 2.66-5.57 4-.59.43-1.1.98-1.84 1.2-.65-.32-.5-.96-.53-1.48zm16.55-39.45c.28.23.5.36.64.54 2.13 2.78 4.99 4.4 8.32 5.27l1.88.52c.91.27 1.07.57.64 1.42-1.19 2.32-2.39 4.64-4.08 6.66a5.28 5.28 0 0 1-6.63 1.17 12.94 12.94 0 0 1-3.92-3.64 4.88 4.88 0 0 1-.9-2.75 8.68 8.68 0 0 1 1.27-5.14c.87-1.37 1.84-2.68 2.78-4.05zm-4.63 60.05c-.34-.34-.18-.76-.18-1.14.05-3.57-1.25-6.7-3.13-9.63a11.76 11.76 0 0 0-5.61-4.56c-.44-.18-.98-.16-1.3-.68-.11-.52.42-.6.7-.77 3.47-1.98 6.97-3.92 10.43-5.92.73-.41 1.36-.4 2.07-.03 2.7 1.37 4.79 3.38 6.2 6.06a38.43 38.43 0 0 1 2.54 6.87c.34 1.12.18 1.99-.93 2.72-3.2 2.11-6.32 4.34-9.49 6.5-.39.27-.77.61-1.3.58zm85.97-39.25c-.14.56-.54.78-1.08.78-.13 0-.37-.15-.37-.2.03-.22.07-.5.22-.63.32-.26.7-.42 1.1-.14.06.04.09.12.13.19zm20.37-31.88c-.58-.96-.54-1.14.25-1.88a27.66 27.66 0 0 1 4.75-3.45 37.6 37.6 0 0 1 8-3.64c1.31-.41 1.6-.3 2.07.9 1.63 4.18 3.24 8.37 4.85 12.55l.41 1.18c-.16.21-.26.46-.44.57-.49.28-1 .52-1.53.76-3.27 1.5-6.72 2.5-10.17 3.5-.62.19-1.27.3-1.86.56-.66.29-.95-.07-1.12-.54a61.3 61.3 0 0 0-5.21-10.51zm7.9 12.05c4.2-1 8.39-2.08 12.1-4.44.55-.35.9-.22 1.14.37 1.33 3.42 2.66 6.84 3.96 10.26.37.96.23 1.3-.58 1.88-.33.24-.68.46-1.04.65a53.17 53.17 0 0 1-7.83 3.43c-.93.3-1.9.5-2.85.67-1.1.2-1.28.1-1.76-.85a115.17 115.17 0 0 1-4.98-11.43c.75-.22 1.3-.4 1.84-.54zm4.73 15.3c-.17-.4-.2-.87.31-.98 1.52-.3 3.04-.61 4.48-1.19 1.51-.6 3.03-1.2 4.5-1.9 1.38-.67 2.7-1.46 4.04-2.2.68.7.77 1.63 1.09 2.46 1 2.66 1.93 5.36 2.9 8.04.22.6.18 1.1-.36 1.52a30.07 30.07 0 0 1-10.35 5.35c-.4.11-.8.16-1.21.21-.54.07-.96-.1-1.17-.63l-1.14-2.97-3.1-7.7zm5.08 12.8c4.26-.59 7.72-2.37 11-4.55.48-.31.92-.7 1.4-.99.28-.16.67-.23.81.19.35 1 .7 2 .96 3.02.18.71.11 1.45-.1 2.18a9.08 9.08 0 0 1-8.99 6.25c-1.7-.12-2.94-.76-3.54-2.48-.4-1.15-.95-2.24-1.54-3.61zM317.46 213c.63 3.63.79 7.3.9 10.98.06 1.79.32 3.57.48 5.36l.76 8.54c.07.81.17 1.63.18 2.45.1 5.56.82 11.07 1.34 16.6.12 1.28.29 2.57.18 3.8-.69.2-1.13-.1-1.57-.26-6.5-2.45-13.08-4.64-19.93-5.93-.86-.16-1.04-.4-1.08-1.35-.22-5.47-.88-10.9-1.36-16.35-.4-4.48-.69-8.97-1.2-13.43-.6-5.35-1.4-10.69-2.12-16.03-.1-.73-.22-1.45-.31-2.18-.05-.41-.02-.83.35-1.11 1.1-.85 1.04-1.94.38-3.4 4.26.94 7.85 2.3 11.42 3.68 1.83.7 3.64 1.47 5.45 2.2 2.34.95 3.72 1.07 3.54.5-.42-1.4-1.76-1.84-2.9-2.38-2.88-1.36-5.9-2.4-8.88-3.49-.76-.28-1.76-.16-2.18-1.1.91-.4 1.76.05 2.6.27 3.46.95 6.9 1.98 10.36 2.94 2.6.73 5.21 1.38 7.81 2.09 1.11.3 1.13.34 1.15 1.51.02 2.21.07 4.42 0 6.62-.1 2.64.33 5.22.53 7.83.4 5.13.9 10.25 1.42 15.37.6 6.01 1.26 12.02 1.93 18.02.1.97.2 2 .57 2.88.5 1.2.01 1.8-.93 2.38-.75.48-1.4 1.13-2.13 1.64-.32.23-.63.05-.72-.33-.1-.4-.15-.8-.2-1.2-.47-4.97-1-9.92-1.39-14.89-.24-3.1-.24-6.2-.6-9.29-.45-3.73-.8-7.47-1.2-11.2l-.8-7.8c-.16-1.72-.67-3.37-1.1-5.02a.42.42 0 0 0-.57-.29c-.1.04-.2.25-.2.4-.03.32-.03.65.02.97z" fill="#4f2808"/><path d="M272.04 139.23a1.46 1.46 0 1 1 0-2.91l11.8-.02a1.46 1.46 0 0 1 0 2.91z" fill="url(#d)"/><path d="M266.21 136.32a1.46 1.46 0 1 1 0 2.91h-3a1.46 1.46 0 1 1 0-2.9z" fill="url(#e)"/><path d="M319.2 33.08a1.46 1.46 0 0 1 0-2.91h28.64a1.46 1.46 0 1 1 0 2.91z" fill="url(#f)"/><path d="M313.38 30.17a1.46 1.46 0 0 1 0 2.91h-3a1.46 1.46 0 1 1 0-2.91z" fill="url(#g)"/><path d="M242.47 144.14a5.21 5.21 0 0 1 3.7 8.91 5.2 5.2 0 0 1-7.39.01l-.08-.09a5.2 5.2 0 0 1 .08-7.3l.09-.08a5.2 5.2 0 0 1 3.6-1.45zm1.64 3.59a2.3 2.3 0 0 0-3.22-.06l-.05.06a2.3 2.3 0 0 0-.06 3.21l.06.06a2.3 2.3 0 0 0 3.27 0 2.3 2.3 0 0 0 0-3.27z" fill="url(#h)"/><path d="M297.5 34.73a5.22 5.22 0 0 1 3.7 8.92l-.08.08a5.2 5.2 0 0 1-7.3-.08 5.19 5.19 0 0 1 0-7.38 5.22 5.22 0 0 1 3.69-1.54zm1.65 3.58a2.3 2.3 0 0 0-1.64-.67 2.3 2.3 0 0 0-1.63 3.95 2.31 2.31 0 0 0 3.21.06l.06-.06c.42-.42.67-1 .67-1.64a2.3 2.3 0 0 0-.67-1.63z" fill="url(#i)"/><path d="M422.56 80.06a5.2 5.2 0 0 1 5.23 5.22 5.2 5.2 0 0 1-1.53 3.7l-.1.08a5.2 5.2 0 0 1-8.82-3.78 5.21 5.21 0 0 1 5.22-5.22zm1.64 3.58a2.3 2.3 0 0 0-3.27 0 2.3 2.3 0 0 0 0 3.28 2.3 2.3 0 0 0 3.21.06l.06-.06a2.3 2.3 0 0 0 0-3.27z" fill="url(#j)"/><path d="M261.14 88.01a1.46 1.46 0 1 1 2.91 0l.02 12.18a1.46 1.46 0 0 1-2.91 0z" fill="url(#k)"/><path d="M268.7 92.64a1.46 1.46 0 1 1 0 2.91l-12.19.02a1.46 1.46 0 0 1 0-2.92z" fill="url(#l)"/><path d="M390.62 28.61a1.46 1.46 0 0 1 2.91 0V40.8a1.46 1.46 0 1 1-2.9 0z" fill="url(#m)"/><path d="M398.17 33.25a1.46 1.46 0 0 1 0 2.91h-12.19a1.45 1.45 0 1 1 0-2.9z" fill="url(#n)"/><path d="M420.04 123.15a1.46 1.46 0 0 1 2.06 2.06l-8.61 8.61a1.46 1.46 0 1 1-2.06-2.06z" fill="url(#o)"/><path d="M422.1 131.76a1.46 1.46 0 0 1-2.06 2.06l-8.61-8.61a1.46 1.46 0 1 1 2.06-2.06z" fill="url(#p)"/><path d="M215.5 175.88a1.46 1.46 0 1 1 2.91 0l.02 12.18a1.46 1.46 0 1 1-2.92 0z" fill="url(#q)"/><path d="M223.05 180.5a1.46 1.46 0 0 1 0 2.92l-12.18.01a1.46 1.46 0 0 1 0-2.91z" fill="url(#r)"/><path d="M387.48 240.59a1.46 1.46 0 1 1 0 2.91h-11.81a1.46 1.46 0 0 1 0-2.91z" fill="url(#s)"/><path d="M393.3 243.5a1.46 1.46 0 1 1 0-2.91h3a1.46 1.46 0 1 1 0 2.91z" fill="url(#t)"/><path d="M419.33 174.99a5.21 5.21 0 0 1 3.7 8.91 5.22 5.22 0 0 1-7.38 0 5.21 5.21 0 0 1 0-7.38l.08-.09a5.2 5.2 0 0 1 3.6-1.44zm1.64 3.58a2.3 2.3 0 0 0-3.21-.05l-.06.06a2.3 2.3 0 0 0 0 3.26v.01a2.3 2.3 0 0 0 3.27 0 2.3 2.3 0 0 0 0-3.27v-.01z" fill="url(#u)"/></g><text transform="translate(40.46 94.64)"><tspan fill="#cdbfbd" font-family="'Roboto-Bold'" font-size="76.04" x="0" y="0">O</tspan><tspan fill="#cdbfbd" font-family="'Roboto-Bold'" font-size="76.04" x="52.31" y="0">ops!</tspan></text><text transform="translate(53.1 143)"><tspan fill="#cdbfbd" font-family="'Roboto-Bold'" font-size="19.54" x="0" y="0">e</tspan><tspan fill="#cdbfbd" font-family="'Roboto-Bold'" font-size="19.54" x="10.22" y="0">rror code : 404</tspan></text></svg>