<svg enable-background="new 0 0 219.012 266.848" viewBox="0 0 219.012 266.848" xmlns="http://www.w3.org/2000/svg" xmlns:xlink="http://www.w3.org/1999/xlink"><linearGradient id="a"><stop offset="0" stop-color="#b5dde7"/><stop offset="1" stop-color="#ddeff4"/></linearGradient><linearGradient id="b" gradientUnits="userSpaceOnUse" x1="9.9513" x2="213.3611" xlink:href="#a" y1="224.3259" y2="224.3259"/><linearGradient id="c" gradientTransform="matrix(1 -.0012 .0012 1 -.0679 .0562)" gradientUnits="userSpaceOnUse" x1="61.0781" x2="75.7992" xlink:href="#a" y1="133.9496" y2="133.9496"/><linearGradient id="d" gradientTransform="matrix(1 -.0012 .0012 1 -.0679 .0562)" gradientUnits="userSpaceOnUse" x1="52.2529" x2="58.1707" xlink:href="#a" y1="133.9496" y2="133.9496"/><linearGradient id="e" gradientUnits="userSpaceOnUse" x1="108.3353" x2="139.8892" xlink:href="#a" y1="27.7861" y2="27.7861"/><linearGradient id="f" gradientUnits="userSpaceOnUse" x1="99.5092" x2="105.427" xlink:href="#a" y1="27.7861" y2="27.7861"/><linearGradient id="g" gradientTransform="matrix(1 -.0012 .0012 1 -.0679 .0562)" gradientUnits="userSpaceOnUse" x1="27.7347" x2="38.1842" xlink:href="#a" y1="145.5069" y2="145.5069"/><linearGradient id="h" gradientTransform="matrix(1 -.0012 .0012 1 -.0679 .0562)" gradientUnits="userSpaceOnUse" x1="82.9016" x2="93.352" xlink:href="#a" y1="36.1633" y2="36.1633"/><linearGradient id="i" gradientUnits="userSpaceOnUse" x1="207.9285" x2="218.3771" xlink:href="#a" y1="81.4441" y2="81.4441"/><linearGradient id="j" gradientTransform="matrix(1 -.0012 .0012 1 -.0679 .0562)" gradientUnits="userSpaceOnUse" x1="51.698" x2="54.6109" xlink:href="#a" y1="90.2693" y2="90.2693"/><linearGradient id="k" gradientTransform="matrix(1 -.0012 .0012 1 -.0679 .0562)" gradientUnits="userSpaceOnUse" x1="45.6059" x2="60.703" xlink:href="#a" y1="90.2693" y2="90.2693"/><linearGradient id="l" gradientUnits="userSpaceOnUse" x1="181.2101" x2="184.122" xlink:href="#a" y1="30.8686" y2="30.8686"/><linearGradient id="m" gradientUnits="userSpaceOnUse" x1="175.118" x2="190.216" xlink:href="#a" y1="30.8686" y2="30.8686"/><linearGradient id="n" gradientUnits="userSpaceOnUse" x1="201.5897" x2="213.1168" xlink:href="#a" y1="124.6459" y2="124.6459"/><linearGradient id="o" gradientUnits="userSpaceOnUse" x1="201.5897" x2="213.1168" xlink:href="#a" y1="124.6467" y2="124.6467"/><linearGradient id="p" gradientTransform="matrix(1 -.0012 .0012 1 -.0679 .0562)" gradientUnits="userSpaceOnUse" x1="5.9509" x2="8.8643" xlink:href="#a" y1="178.0847" y2="178.0847"/><linearGradient id="q" gradientTransform="matrix(1 -.0012 .0012 1 -.0679 .0562)" gradientUnits="userSpaceOnUse" x1="-.1416" x2="14.9568" xlink:href="#a" y1="178.0842" y2="178.0842"/><linearGradient id="r" gradientUnits="userSpaceOnUse" x1="164.7999" x2="179.521" xlink:href="#a" y1="238.2059" y2="238.2059"/><linearGradient id="s" gradientUnits="userSpaceOnUse" x1="182.4283" x2="188.3452" xlink:href="#a" y1="238.2059" y2="238.2059"/><linearGradient id="t" gradientUnits="userSpaceOnUse" x1="204.698" x2="215.1485" xlink:href="#a" y1="176.3724" y2="176.3724"/><path clip-rule="evenodd" d="m109.734 263.7c4.626.557 9.254 1.096 13.884 1.61 5.837.656 11.477 1.04 17.314 1.465 2.308.17 4.429-.001 6.695-.055 1.542-.142 2.753-.346 4.228-.767 1.313-.405 2.293-.834 3.447-1.516 2.059-1.286 3.282-2.596 4.379-4.596.966-1.956 1.364-3.536 1.399-5.692-.058-2.322-.544-4.073-1.726-6.188-.832-1.338-1.701-2.436-2.696-3.398 2.482-5.03-.947-11.351-10.779-14.696l.922-.073c1.035.574 2.845.573 4.039.504 3.993-.236 8.698-.594 12.567-1.269.82-.155 24.253 7.645 34.087 7.1 2.029-.114 3.855-.408 5.81-.719 1.33-.213 2.346-.527 3.569-.979 1.083-.424 1.873-.831 2.781-1.437 1.607-1.132 2.485-2.198 3.156-3.745.563-1.502.685-2.676.411-4.229-.379-1.66-1.049-2.869-2.375-4.268-.914-.876-1.824-1.577-2.823-2.167 1.549-4.137-3.009-8.652-13.455-9.716-3.291-.179-18.658-10.634-33.48-11.252-.41-.901-1.007-1.699-1.902-2.579-.915-.815-1.826-1.466-2.825-2.017 1.548-3.85-3.007-8.05-13.454-9.039-9.618-.485-95.81-5.98-98.742 2.605-1.632.298-3.155.713-4.859 1.369-2.55 1.083-4.07 2.231-5.336 4.069-.736 1.215-1.015 2.217-.976 3.532.084 1.161.381 2.051 1.047 3.127.44.657.896 1.211 1.415 1.723-1.589.561-2.689 1.127-3.896 2.044-.967.781-1.54 1.468-2.039 2.428-.542 1.172-.655 2.121-.397 3.343.279 1.048.711 1.82 1.536 2.734.598.628 1.19 1.11 1.995 1.624 1.141.697 2.139 1.148 3.491 1.635.284.089.564.17.84.248-2.63.58-4.369 1.513-4.968 2.872-1.91.178-3.719.541-5.795 1.232-3.123 1.182-5.107 2.619-6.968 5.107-1.117 1.663-1.668 3.081-1.941 5.013-.18 1.712-.057 3.062.434 4.743.339 1.029.72 1.913 1.182 2.745-1.92.568-3.292 1.222-4.867 2.372-1.273.992-2.082 1.904-2.871 3.231-.888 1.629-1.243 2.999-1.242 4.826.063 1.58.367 2.778 1.076 4.245.523 1.013 1.073 1.813 1.857 2.693 1.117 1.202 2.13 2.02 3.537 2.948 4.216 2.463 7.853 3.089 12.686 3.834.082.031.863.118 1.013.137 4.689.611 9.356.975 14.062 1.358 11.892.966 23.823 1.066 35.71 1.596.557.025 3.359.162 6.788.318 1.037.945 3.075 1.232 4.432 1.324 4.543.314 9.914.574 14.414.268.82-.068 1.798-.454 2.559-.688.606-.184 1.143-.614 1.65-.937zm-27.776-50.019c.159.436.368.874.639 1.343.44.706.896 1.301 1.415 1.851-.454.174-.867.345-1.255.527-6.136-.961-12.186-1.807-17.854-2.447 5.702-.331 11.379-.803 17.055-1.274z" fill="url(#b)" fill-rule="evenodd"/><path d="m188.52 83.473c-1.972-.147-1.737 1.476-2.042 2.606-1.024 3.776-1.769 7.641-3.395 11.225-.737 1.628-1.822 3.1-1.275 5.063.187.669-.319 1.211-.798 1.696-1.38 1.396-2.815 2.687-4.533 3.698-2.744 1.615-5.652 2.933-8.295 4.731-2.695 1.831-2.752 1.911-.566 4.324 2.661 2.935 2.455 5.692-.62 8.205-1.281 1.048-2.717 1.788-4.322 2.223-4.178 1.136-8.395 1.112-12.602.319-7.04-1.326-14.031-2.781-21.216-3.385-6.075-.51-11.377-3.438-15.694-7.83-1.914-1.947-1.473-3.56.986-4.397 1.315-.449 3.221-.865 2.948-2.383-.283-1.566-2.257-1.522-3.735-1.549-.157-.002-.308.094-.453.171-.233.189-.267.409-.098.66h.003c.207.279.523.24.813.277-.297-.005-.602-.037-.812.247l-.001-.005c-.405.433-1.075.045-1.48.479l-.006.002c-.089.102-.193.156-.302.191.059 1.2-.677 2.528-2.213 2.675-3.652.349-7.16 2.389-10.711 3.248-1.449.351-2.918.579-4.365.897.928 4.165-2.555 10.455-3.209 13.741-.192.965-.806 1.469-1.52 1.621-.016.277-.027.557-.202.793.049.131.038.254-.037.373-.339.401-.425.868-.359 1.372.056.242.133.477.243.7.102.227.207.452.329.669.522.982.588 2.019.33 3.084-1.835 7.617-2.174 15.439-3.137 23.173-.466 3.742-1.089 7.371-3.189 10.645-.954 1.486-1.817 3.087-2.332 4.819.055.849.117 1.698-.019 2.532 1.143.019 2.264.763 2.244 2.24-.052 3.998-.779 8.184-2.775 11.693.228.175.484.338.796.475 1.373-3.467 1.69-7.188 2.51-10.921 1.588 2.258 2.588 5.19 2.634 7.781.012.729.174 1.353.853 1.608 2.214.834 3.851 2.68 6.234 3.296 1.957.506 3.814 1.467 5.751 2.088 5.815 1.863 8.666 5.89 9.428 11.83 1.712 13.357 2.537 26.795 3.809 40.189.234 2.473 1.011 5.022-.454 7.405-.045.496.314.684.668.877l-.01-.005c.141.186.315.347.481.511.13.196.318.337.486.494h.49c.168-.158.366-.294.455-.524-.005.003-.008.007-.013.011l.016-.015c-.002.001-.003.003-.004.004.203-.123.364-.29.501-.484-.004.004-.007.007-.012.01l.019-.017c-.002.003-.005.004-.007.007.193-.134.349-.303.506-.475l-.003.003c.161-.156.329-.304.507-.442l.036-.027c.206-.323.675-.221.888-.536l.026-.032c-.007.013-.017.02-.026.032.215-.109.366-.295.538-.455l.01-.006c1.31-.978 2.478-2.101 3.42-3.445l-.006.01c.308-.351.257-.739.105-1.135-2.621-1.931-3.174-4.704-3.386-7.747-.294-4.225-.923-8.433-1.206-12.659-.247-3.657-1.611-7.432.548-10.999.334-.551.125-1.161-.255-1.602-2.654-3.081-2.137-6.924-2.411-10.512-.243-3.145.669-3.706 3.916-3.767 6.868-.128 13.674 1.007 20.522.965 4.329-.026 8.252.785 11.691 3.502 1.365 1.078 2.693.926 3.99-.186 1.912-1.639 3.227-3.694 4.117-6.002 2.91-7.558 5.219-15.294 6.765-23.254 1.307-6.727 1.764-13.613 3.674-20.23.404-1.395-.134-2.378-1.059-3.278-1.299-1.267-2.3-2.69-3.038-4.386-3.061-7.014.879-14.849 6.711-19.045.919-.661 1.982-.664 3.057-.371 1.412.384 2.32 1.456 3.363 2.37 1.127.985 1.859 2.561 3.663 2.6.059-.179.12-.358.18-.537.096-.175.228-.32.391-.437l.026-.026c.136-.174.289-.33.464-.466l.027-.026c.134-.172.29-.326.464-.463l.026-.027c.137-.174.292-.327.465-.464l.026-.027c.142-.172.291-.34.442-.506.657-1.099-.124-2.395.482-3.501.019-.469.041-.937.059-1.406.573-1.452-.172-3.032.431-4.48.017-.303.033-.609.051-.912.355-1.139.303-2.282.025-3.426l-.03-.04c-.368-.305-.272-.627-.043-.955-.002 0-.002.001-.003.001l.008-.011c-.003.003-.004.006-.006.01.187-.148.36-.309.49-.511-.008.003-.017.014-.025.014l.031-.023c-.002.003-.005.006-.006.009.034-.016.068-.055.104-.132.045-.101.007-.204-.11-.313l.019.019c-.151-.169-.294-.346-.431-.527l-.037-.041c-.181-.121-.331-.271-.452-.451l-.04-.04c-.18-.12-.33-.271-.452-.45l-.038-.038c-.179-.124-.331-.272-.453-.452l-.038-.041c-.079-.053-.151-.114-.22-.18-3.397-.041-6.781-.365-10.179-.393-1.706-.015-2.436-1.528-2.197-2.822-.057-.017-.112-.033-.166-.065-.397-.3-.322-.621-.034-.948l-.002.013c.284-.249.74-.172.977-.51-.004.002-.007.002-.009.004l.022-.016c-.004.005-.008.006-.013.013.302-.225.762-.144.99-.513l-.029.033c.19-.126.371-.265.541-.418.093-.088.204-.123.33-.098.367-.172.829-.12 1.11-.484-.004.004-.009.004-.013.006l.026-.018c-.003.006-.009.007-.013.012.304-.209.742-.149.986-.479-.002.003-.006.003-.009.005l.022-.016c-.003.006-.009.006-.013.011.298-.227.738-.161.991-.48-.003.003-.006.003-.008.004l.016-.011c-.002.003-.006.004-.007.006.29-.243.73-.173.996-.471l-.002.001c.396-.44 1.081-.036 1.467-.498-.001.001-.002.002-.004.002l.008-.005c-.001.002-.004.003-.004.003 2.453-.589 3.931-2.246 4.894-4.468-.042-.148-.024-.289.05-.424.474-.595-.051-1.417.448-2.006-.041-.158-.02-.309.059-.451.371-.426.011-1.069.439-1.478l-.007.015c.552-.557-.037-1.407.506-1.967l-.006.007c.423-.456.11-1.118.454-1.594-.042-.134-.024-.257.059-.371.409-.436.055-1.097.452-1.536-.035-.154-.013-.298.067-.435.37-.425.011-1.069.439-1.476l-.007.013c.543-.584-.012-1.429.485-2.024-.036-.155-.015-.301.062-.438.358-.459.055-1.096.416-1.554-.044-.139-.03-.272.044-.397.491-.61-.012-1.439.448-2.055-.047-.139-.032-.271.042-.398.42-.748.194-1.545.172-2.329z" fill="#fff"/><path d="m217.778 214.329c-.079-.117-.095-.243-.047-.376-.358-.466-.018-1.144-.476-1.582l.011.019c-.268-.278-.182-.714-.442-.996-.09-.091-.117-.198-.082-.321-.057-.272-.245-.465-.406-.675l-.017-.032c-.339-.217-.217-.708-.551-.928l.025.026c-.126-.199-.309-.35-.455-.534l-.011-.014c-.305-.224-.21-.693-.536-.903.001.002.003.002.004.004l-.042-.032c.016.007.026.017.038.027-.111-.224-.283-.388-.491-.517.005.006.011.012.016.018l-.027-.027c.005.003.008.006.012.009-.123-.199-.287-.362-.484-.487.003.005.006.008.009.014l-.027-.026c.007.004.011.008.018.013-.122-.203-.29-.362-.48-.5.004.002.006.005.008.007l-.021-.019c.005.003.009.007.013.012-.137-.194-.308-.356-.487-.508l.01.011c-.149-.18-.313-.343-.491-.492l-.009-.009c-.149-.178-.312-.342-.491-.492l.011.011c-.152-.182-.319-.349-.503-.502l.011.011c-.151-.182-.319-.348-.501-.5l.012.01c-.153-.179-.313-.349-.509-.485.004.004.007.008.01.012l-.021-.021c.005.002.007.006.011.009-.134-.189-.291-.353-.492-.473.001.003.004.005.007.008l-.032-.026c.009.004.015.012.025.017-.154-.244-.359-.42-.65-.482-.127.019-.232-.019-.32-.116-.185-.139-.36-.297-.574-.395-.155.013-.29-.028-.412-.122-.186-.13-.379-.252-.574-.368-.144.025-.277-.005-.401-.086-.317-.23-.738-.182-1.059-.399-.302-.034-.605-.068-.909-.103-.949-.391-2.019.046-2.955-.443-.48.432-.988.837-1.433 1.302-.407.426-.981.756-1.18 1.602 1.175-.438 2.155-.789 3.125-1.167.47-.183.945-.268 1.436-.173.327.065.625.221.769.542.154.344.005.594-.277.829-2.008 1.659-4.031 3.298-5.867 5.163-1.179 1.199-1.98 2.592-2.604 4.101-.896 2.164-.27 4.987 1.506 6.468 2.908 2.428 6.248 3.411 10.012 2.642.658-.136 1.289-.267 1.905.049.677.349 1.248.087 1.852-.204.683-.327 1.229-.823 1.685-1.393.732-.916 1.736-1.153 2.8-1.257.428-.041.46.351.539.656.208.131.352.072.441-.149-.017-.14.017-.264.102-.373.224-.289.141-.709.424-.972l-.004.007c.443-.401.044-1.081.493-1.481l-.003.008c.388-.813.367-1.628.013-2.447z" fill="#fff"/><path d="m194.676 51.051c-.104-.23-.272-.394-.495-.506.001.002.004.005.004.008l-.029-.026c.009.005.015.013.025.018-.098-.226-.286-.377-.454-.544l.004.007c-.159-.158-.304-.328-.438-.51l-.039-.041c-.178-.121-.329-.27-.45-.451l-.04-.041c-.179-.121-.33-.27-.451-.45l-.038-.039c-.133-.09-.245-.201-.345-.322-.368-.041-.741-.099-1.127-.196-5.499-1.377-11.548-1.219-17.181-2.144-5.793-.951-11.44-1.873-17.085-3.52-5.656-1.651-10.937-2.145-16.74-2.852-2.364-.287-4.986-1.373-7.332-1.445-1.57-.048-2.973-.208-4.352-.536-.485.255-1.019.469-1.611.634-2.902.808-5.434 2.445-8.262 3.464-2.514.905-5.069 1.667-7.596 2.532-4.152 1.422-7.987 3.583-12.123 5.014.769 3.266.419 6.667-.153 10.079-.76 4.534-1.53 9.064-2.271 13.602-1.687 10.336-1.681 21.087-4.351 31.237.154.128.299.266.429.42l.022.018c.183.142.33.328.535.445l-.027-.027c.427.503 1.118.149 1.593.489l.182-.021.168.07c.454.427 1.119.102 1.598.446l.188-.022.176.068c.744.574 1.726-.088 2.472.475l-.008-.007c1.109.663 2.411-.101 3.532.475l.191-.043.182.064c.615.436 1.279.259 1.94.151.057-1.544-1.306-1.448-2.181-1.773-2.973-1.101-6.05-1.94-8.869-3.489.158-.22.296-.272.478-.237 12.274 2.391 24.598 4.416 37.029 5.824 8.529.967 16.916 2.887 25.398 4.189 1.225.187 2.448.41 3.574-.312 3.915-2.512 8.031-4.754 11.345-8.103 9.187-9.289 14.592-20.558 17.27-33.228.967-4.568 1.509-9.221 2.545-14.113.864 1.802.242 3.486 1.049 4.891.21.238.429.249.66.03-.041-.147-.022-.286.051-.418.463-.617-.023-1.432.434-2.05-.046-.14-.032-.271.041-.397.556-.76-.091-1.742.466-2.502-.042-.157-.025-.307.051-.45.454-.605-.047-1.417.434-2.016-.037-.153-.018-.298.057-.435.241-.499.382-.989-.119-1.427z" fill="#fff"/><path d="m61.844 180.567c-.409-.686-1.026-1.266-1.048-2.164-.038-1.326-.091-2.652.161-3.927-3.103 1.249-6.459 1.821-9.412 3.485-3.054 1.724-1.926 5.921-5.785 7.166-2.771.894-5.902-1.677-8.135-2.871-3.989-2.134-7.597-1.971-11.403-.52.014.075.026.15.029.235.009.634.442.776.928.931 3.488 1.115 6.962 2.276 10.465 3.347.99.304 1.539.777 1.63 1.837.039.467.212 1.011.513 1.353 1.121 1.263 1.205 2.894 1.3 4.361.158 2.434.805 4.829.611 7.288-.019.241-.025.505.049.729.522 1.585.392 3.224.431 4.849.011.489-.073 1.012.066 1.463.546 1.758.36 3.557.375 5.344.024 2.448-.002 4.897.017 7.344.005.729.026 1.451.178 2.185.397 1.9.726 3.814.8 5.767.146 3.9-.301 7.821.455 11.706.226 1.163-.507 2.016-1.705 2.271-.392.082-.81.039-1.219.055-.048 0-.078.067-.09.202-.01.113.08.179.272.202.131-.023.249.009.353.091.306.241.623.234.951.046.172-.012.348-.025.52-.038.171.145.339.291.507.437l-.012-.013c.147.191.313.361.509.503l-.016-.016c.146.196.308.374.527.494l-.025-.037c.304.363.616.356.934.013l-.024.029c.204-.12.349-.303.534-.448l.023-.015c.232-.317.719-.203.939-.546l-.024.026c.202-.118.348-.304.536-.438l.029-.019c.224-.326.715-.206.928-.553l-.025.028c.209-.119.36-.302.533-.458l.013-.007c.233-.297.7-.204.913-.532-.001.001-.002.002-.003.003l.028-.037c-.006.014-.017.023-.026.035.217-.108.379-.277.517-.475-.003.002-.005.003-.006.005l.019-.021c-.004.005-.009.011-.013.016.192-.123.339-.303.526-.433l.034-.021c1.283-.978 2.372-2.155 3.423-3.371l.051-.062c.089-.139.096-.281.016-.425-1.183-.114-1.737-1.112-2.516-1.797-.635-.559-.932-1.231-1.059-2.099-.378-2.556-.927-5.085-1.339-7.636-.256-1.593-.412-3.206-.56-4.815-.083-.885-.086-1.765-.318-2.647-.332-1.264-.24-2.587-.142-3.877.125-1.635 1.186-2.757 2.348-3.785.763-5.588-.546-11.119-.436-16.729.681.176 1.173 1 1.998.58-.011-.325.011-.657-.038-.976-.204-1.32.44-2.088 1.516-2.768 1.662-1.05 3.436-1.868 5.197-2.707 1.971-.936 3.194-2.438 3.912-4.441.178-.503.175-.949-.167-1.371-.36-.441-.78-.846-1.068-1.331z" fill="#fff"/><g clip-rule="evenodd" fill-rule="evenodd"><path d="m183.916 134.838c-.004.005-.006.008-.009.011-.002.002-.002.005-.003.006z" fill="#fff"/><path d="m116.669 257.462.001-.001z" fill="#fff"/><path d="m120.732 252.656c-1.956-.713-3.308-1.857-3.564-4.126-.371-3.313-.848-6.612-.964-9.949-.771-2.191-.23-4.541-.834-6.775-.29-1.075.132-2.367-.232-3.396-.569-1.606.257-3.224-.349-4.783-.182-.468.154-.96.428-1.363.407-.603.87-1.17 1.359-1.821-.265-.322-.468-.707-.784-.923-1.359-.923-1.816-2.393-1.882-3.816-.109-2.446-.761-4.837-.621-7.299.041-.733.057-1.444.331-2.157.463-1.219 1.465-2.039 2.724-1.886 2.525.308 5.056.055 7.582.167.976.045 1.963-.049 2.906.318.223.087.484.126.722.112 4.087-.233 8.118.851 12.205.529 3.131-.248 5.951.704 8.673 2.113.809.418 1.503.962 2.176 1.568 1.177 1.055 1.742 1.004 2.958-.039 1.706-1.463 2.981-3.263 3.836-5.305 1.607-3.836 2.83-7.812 4.013-11.801.924-3.125 1.775-6.269 2.44-9.457.548-2.623.973-5.273 1.428-7.913.787-4.562 1.186-9.192 2.432-13.673.066-.235.025-.528.15-.712.976-1.423.26-2.317-.823-3.278-3.305-2.932-4.327-6.8-4.146-11.034.057-1.277.466-2.568.893-3.789.889-2.558 2.034-4.984 4.16-6.812.743-.639 1.378-1.395 2.092-2.068 1.907-1.791 4.669-1.842 6.619-.06 1.265 1.156 2.436 2.418 3.657 3.625.345.339.719.652 1.081.975l.169-.047c.087.194.223.343.412.437l.06.06c.103.189.245.345.422.467l.024.033c.13.191.31.339.443.527l-.015-.017c.199.155.386.317.474.564l-.047-.048c.395.18.27.695.594.919l.01.019c.143.194.36.335.415.59l-.053-.054c.421.212.333.69.537 1.017l-.03-.047c.416.273.357.761.517 1.149-.048.133-.011.234.111.302.245.278.144.715.446.965l.005.006c.273.292.221.723.443 1.038l-.026-.039c.518.41.176 1.076.461 1.553l-.03-.039c.443.17.33.681.589.963l-.017-.027c.347.306.313.768.474 1.151-.056.132-.024.236.097.315.255.294.186.719.422 1.02l-.019-.032c.359.301.319.768.483 1.151-.057.131-.025.236.097.313.255.289.176.72.433 1.006l-.011-.023c.332.299.285.759.471 1.119-.05.141-.019.257.098.352.241.296.173.718.419 1.012l-.016-.027c.504.361.059 1.077.539 1.446l.005.011c.273.322.241.764.432 1.117-.052.147-.017.27.106.369.226.294.152.714.418.993l-.007-.018c.311.334.307.786.447 1.185-.065.119-.04.214.078.282.273.345.267.788.416 1.177-.064.126-.034.226.088.298.369.462.101 1.076.372 1.561l-.033-.044c.462.214.361.726.564 1.075-.051.142-.018.26.097.356.238.33.208.757.399 1.106-.053.146-.018.269.104.369.227.291.152.714.419.992l-.007-.017c.312.323.294.776.451 1.158-.057.131-.024.237.096.315.256.29.182.719.429 1.013l-.016-.027c.342.315.318.777.469 1.167-.061.126-.032.225.089.298.266.284.183.721.443 1.008l-.013-.023c.331.314.303.774.464 1.155-.057.131-.025.235.096.313.255.295.187.721.423 1.022l-.018-.036c.591.574.052 1.414.475 2.029l-.031-.037c.307.13.489.353.528.689-.058.115-.03.201.088.256.265.289.189.722.435 1.017l-.016-.029c.499.385.092 1.081.514 1.492l-.012-.023c.327.321.31.778.461 1.171-.069.12-.045.218.071.293.289.316.238.765.433 1.119-.053.143-.022.263.095.361.239.298.178.717.412 1.018l-.02-.034c.512.383.104 1.08.515 1.498l-.015-.027c.342.318.323.78.469 1.177-.068.118-.045.212.072.283.277.347.277.792.418 1.188-.067.12-.041.215.077.285.503.574-.056 1.402.47 1.97l-.003-.003c.298.264.214.717.493.991l-.006-.013c.449.405.069 1.081.484 1.498l-.012-.022c.469.434.129 1.117.481 1.587-.007.706-.016 1.41-.021 2.113-.146.399-.123.865-.477 1.178l.018-.03c-.25.292-.147.788-.564.982l.05-.052c-.073.256-.266.415-.457.574l.009-.01c-.151.165-.291.342-.42.527l-.023.037c-.204.284-.274.638-.49.914-.304.385-.621.755-1.157 1.073 1.457-.208 3.18-1.395 4.01.312.87 1.794-1.237 2.363-2.217 3.25-2.111 1.914-4.406 3.639-5.687 6.286-1.534 3.168-.855 5.689 2.032 7.624 2.33 1.564 4.917 2.036 7.678 1.846 2.499-.17 4.961-.178 6.919-2.274.542-.579 2.158-1.655 2.848.375.004.241-.069.456-.208.65-.01.164-.017.331-.027.495.285.335.284.658-.036.969l.015-.02c-.272.271-.148.795-.606.945l.067-.068c-.142.453-.67.325-.924.61l-.002.002c-.163.188-.318.39-.593.422l.047-.055c-.161.464-.668.347-.966.58l.017-.019c-.168.201-.38.33-.634.391-.784.256-1.493.628-2.123 1.178-5.92 5.18-17.003 2.294-20.569-5.018-1.791-3.67-.586-7.35.77-10.924.377-.989 1.344-2.065-.09-3.028-.308-.208-.576-.462-.802-.755l.014.036c-.231-.104-.396-.284-.542-.483l.011.013c-.195-.139-.362-.308-.505-.5l.013.011c-.194-.141-.361-.308-.502-.502l.011.012c-.192-.141-.36-.308-.502-.501l.012.01c-.193-.141-.361-.308-.503-.502l.012.012c-.193-.141-.36-.309-.502-.503l.011.012c-.192-.141-.36-.308-.502-.503l.012.013c-.198-.152-.381-.316-.477-.555l.046.054c-.408-.29-.364-.775-.51-1.176.054-.125.021-.216-.102-.276-.256-.278-.163-.717-.447-.985l.004.006c-.297-.28-.236-.718-.464-1.029l.021.035c-.368-.307-.339-.777-.486-1.179l-.004-.085c.068-.242.185-.487-.038-.715l.011.02c-.203-.152-.393-.316-.474-.57l.053.056c-.433-.246-.354-.742-.536-1.111.049-.137.015-.247-.106-.33-.238-.299-.178-.718-.41-1.02l.019.034c-.358-.311-.332-.78-.479-1.175.072-.119.048-.211-.069-.282-.296-.301-.224-.755-.449-1.086.051-.154.018-.286-.1-.397-.22-.296-.147-.714-.414-.99l.006.015c-.312-.312-.277-.766-.456-1.132.05-.144.012-.261-.115-.348-.221-.296-.151-.714-.414-.992l.009.017c-.319-.304-.275-.76-.463-1.119.048-.144.013-.264-.108-.357-.232-.284-.14-.714-.433-.967l-.001-.005c-.28-.286-.224-.723-.456-1.029l.023.027c-.13-.094-.179-.193-.142-.296.036-.106.076-.159.116-.159l-.009.023c.111-.116.14-.22.089-.317-.048-.092-.094-.139-.138-.139l-.04-.056c-.114-.188-.256-.349-.427-.485l-.014-.019c-.145-.188-.354-.331-.427-.575l.047.05c-.4-.225-.318-.695-.526-1.018l.03.04c-.392-.231-.315-.699-.519-1.024l.016-.016c-.981-.262-.762.492-.813.982-.12 1.167.216 2.36-.198 3.51-.176.423-.206.853-.1 1.295-.431.832.057 1.805-.401 2.634-.027.282-.054.564-.083.847-.475.809.091 1.793-.433 2.593-.105.118-.12.246-.047.385-.442.627.016 1.434-.418 2.061-.109.128-.13.266-.063.421-.522.777.061 1.74-.429 2.522-.027.282-.054.565-.081.847-.51.976.116 2.111-.429 3.083-.102.129-.115.265-.044.41-.544.949.081 2.061-.417 3.017-.024.303-.049.605-.073.908-.587 1.116.143 2.402-.453 3.514-.104.119-.121.246-.047.387-.492.596.14 1.498-.552 2.038l.049-.062c-.091.259-.274.434-.525.541l.041-.041c-.103.25-.281.427-.53.53l.038-.039c-.102.251-.28.425-.529.53l.039-.039c-.104.25-.281.426-.53.528l.04-.037c-.103.249-.281.426-.531.529l.04-.039c-.103.249-.281.425-.53.53l.039-.042c-.11.256-.277.445-.563.497l.051-.055c-.171.457-.67.346-.978.567l.029-.023c-.227.385-.694.3-1.007.516l.027-.02c-.217.375-.696.276-.975.538l.007-.005c-.23.323-.704.211-.939.524l-.028.015c-.186.149-.322.37-.59.4l.046-.048c-.182.442-.675.337-.984.559l.03-.022c-.213.377-.696.272-.966.547l.003-.001c-.235.309-.705.196-.934.517l-.035.017c-.191.141-.326.359-.584.401l.043-.046c-.185.427-.683.319-.973.565l.023-.015c-.227.347-.703.245-.965.529l-.006.004c-.481.356-.977.691-1.528.928l.031-.022c-.207.39-.692.286-.973.547l.009-.005c-.152.204-.309.402-.584.443l.048-.053c-.171.455-.671.345-.977.568l.029-.019c-.219.376-.695.28-.981.535l.018-.011c-2.228.752-4.586-.179-6.814.544l-.026.03c-.336.22-.217.695-.526.93l.006-.011c-.279.269-.174.76-.559.97l.042-.045c-.079.235-.286.376-.416.574l-.017.032c-.335.22-.217.699-.532.929l.008-.013c-.278.266-.159.784-.598.949l.055-.053c-.051.267-.25.426-.439.59l.005-.006c-.285.259-.162.782-.606.937l.057-.054c-.054.28-.249.443-.475.579l.029-.031c-.108.216-.299.365-.449.547l-.01.017c-.423.422-.57 1.053-1.083 1.407l.048-.045c-.088.256-.273.425-.497.557l.028-.029c-.116.221-.296.383-.491.528l.011-.012c-.141.193-.308.362-.502.503l.013-.012c-.142.194-.309.362-.504.504l.012-.012c-.14.193-.309.36-.502.501l.011-.01c-.141.193-.308.36-.5.501l.011-.012c-.142.194-.309.362-.502.503l.012-.011c-.146.194-.308.371-.522.494l.023-.023c-.124.214-.301.376-.493.524l.007-.013c-1.699 2.213-3.755 4.076-5.824 5.927l-.036.034c-.177.122-.329.274-.452.451l-.038.038c-.178.124-.328.275-.453.451l-.039.039c-.178.13-.34.277-.489.44l-.014.011c-.169.158-.322.331-.512.468l.011-.011c-.142.193-.309.36-.502.501l.01-.01c-.144.194-.308.368-.516.496l.022-.02c-.141.209-.308.39-.547.489l.036-.037c-.104.247-.281.422-.524.533l.037-.036c-.103.235-.283.401-.487.548l.018-.019c-.135.201-.308.367-.501.51l.012-.011c-.141.192-.309.359-.501.502l.01-.011c-.134.189-.309.343-.465.516l-.011.014c-.164.144-.309.309-.435.487l-.036.041c-.455.388-.594 1.019-1.074 1.389l.041-.037c-.107.231-.288.396-.487.545l.016-.015c-.14.196-.308.363-.503.506l.011-.012c-.141.194-.308.361-.501.501l.012-.009c-.141.192-.309.359-.502.501l.011-.011c-.142.193-.308.359-.501.502l.006-.011c-.089.21-.213.25-.388.094z" fill="#cdbfbd"/><path d="m80.826 194.791c.041-1.796.451-3.52.81-5.277.4-1.951 1.181-3.897.862-5.988-.06-.4.339-.871.622-1.535.917 1.286 1.94 2.244 2.157 3.668.129.837.43 1.577.909 2.242.933 1.295 1.315 2.607.324 4.052-.074.107-.01.309-.01.549.592.222 1.185.484 1.801.662.883.256 1.715.512 2.053 1.519.149.441.638.414 1.018.544 3.699 1.275 7.389 2.561 10.933 4.248 1.52.724 2.661 1.879 3.901 2.917.592.497 1.037 1.221 1.215 2.078.198.952.57 1.866.847 2.804.625 2.113.882 4.285 1.145 6.469.304 2.499.375 5.015.802 7.509.37 2.157.448 4.366.623 6.556.066.812 0 1.633.305 2.416.088.224.152.481.14.716-.168 2.784.487 5.517.515 8.286.033 3.019.443 5.995.891 8.971.086.562.076 1.141.099 1.71.047 1.218.056 2.423.359 3.639.454 1.819.214 3.563-1.356 4.877-.477.403-.953.423-1.425-.007l.026.016c-.306-.229-.738-.155-1.025-.432l-.122-.11-.164.026c-.394-.138-.845-.132-1.173-.447l.003.004c-.401-.429-1.096-.013-1.471-.514l.017.012c-.295-.248-.752-.166-1.003-.501l.029.03c-.212-1.418-1.026-1.823-2.433-1.755-1.311.063-2.683.35-3.973-.243l.022.012c-.429-.391-1.085-.027-1.507-.447l-.143-.104-.172.036c-.502-.306-1.175-.002-1.634-.462l.01.006c-.571-.505-1.418.075-1.972-.496l.009.006c-.581-.503-1.423.066-1.991-.483l-.13-.098-.152.052c-.678-.377-1.521.064-2.172-.441l-.128-.097-.15.053c-.287-.036-.488-.228-.699-.4l-.035-.029c-.13-.173-.285-.322-.462-.449l-.038-.038c-.124-.177-.275-.328-.453-.452l-.039-.039c-.123-.178-.273-.327-.451-.451l-.04-.038c-.123-.178-.275-.328-.452-.453l-.038-.039c-.127-.178-.277-.335-.451-.467l-.024-.027c-.565-1.292.157-2.722-.433-4.011-.017-.301-.035-.601-.052-.903-.589-1.455.169-3.04-.437-4.492-.016-.3-.03-.6-.044-.9-.612-1.452.166-3.043-.448-4.497.105-.472.12-.941-.072-1.398-.51-1.331.118-2.773-.393-4.105.106-.436.087-.865-.077-1.287-.59-1.454.168-3.038-.438-4.493-.015-.299-.029-.6-.043-.9-.871-.84.76-2.517-1.023-3.05l.014.009c-.592.484-1.368.604-1.998 1.01l.034-.027c-.196.407-.69.299-.968.561l.008-.006c-.15.204-.308.401-.581.447l.047-.054c-.173.454-.67.347-.981.563l.03-.022c-.196.382-.693.265-.942.564l-.012.008c-.178.166-.316.38-.582.421l.044-.05c-.179.435-.679.325-.97.571l.022-.016c-.469.378-1.197.38-1.49 1.017l.024-.026c-.134.207-.306.376-.508.513l.016-.016c-.149.205-.309.399-.574.459l.046-.052c-.154.43-.677.298-.914.605l-.016.012c-.175.16-.322.351-.548.449l.035-.033c-.19.364-.695.23-.898.573l-.05.031c-.178.141-.357.28-.539.419l.023-.022c-.432.426-.985.672-1.48 1l.011-.005c-.151.205-.309.4-.579.453l.047-.052c-.161.438-.677.318-.941.593l.004-.003c-.156.193-.315.384-.569.455l.046-.048c-.173.414-.684.293-.932.588l-.009.006c-.172.17-.317.381-.579.431l.045-.048c-.174.423-.681.306-.944.582h.001c-.162.192-.317.392-.59.427l.056-.049c-.28.654-1.059.142-1.417.61l-.007.006c-.159.172-.317.345-.51.478l.013-.013c-.149.2-.311.381-.549.479l.041-.041c-.2.386-.693.276-.951.56l-.006.004c-.164.182-.32.375-.577.435l.045-.048c-.187.43-.679.326-.981.556l.025-.016c-.208.362-.697.247-.937.554l-.019.013c-.181.156-.323.361-.57.428l.04-.042c-.174.395-.686.269-.913.586l-.027.016c-.182.147-.328.34-.551.437l.034-.033c-.188.363-.696.229-.899.575l-.047.03c-.251.125-.513.218-.787.275-2.206-.431-3.354-1.959-3.79-3.982-1.202-5.585-1.944-11.245-2.45-16.931-.211-2.368.294-4.564 2.338-6.114 1.401-1.83 3.547-2.57 5.456-3.628 6.203-3.436 12.237-7.19 18.95-9.659 2.05-.75 4.378-.676 6.188-2.103z" fill="#cdbfbd"/><path d="m104.986 106.823c-1.644-.935-3.513-1.249-5.265-1.887-2.07-.755-4.143-1.495-6.121-2.473-.365-.181-.739-.364-1.055-.616-.259-.205-.411-.547-.198-.865.117-.177.364-.364.56-.37.397-.016.808.052 1.194.15 3.077.788 6.208 1.273 9.342 1.765 3.448.543 6.872 1.244 10.318 1.812 2.565.422 5.152.716 7.722 1.118 2.974.465 5.976.678 8.959 1.028 3.545.418 7.055 1.137 10.58 1.726 3.284.551 6.571 1.1 9.856 1.652 2.325.389 4.66.722 6.962 1.21.797.169 1.461.145 2.085-.291 3.269-2.289 6.905-4.058 9.873-6.765 2.472-2.255 4.844-4.612 6.773-7.385 2.801-4.026 5.334-8.193 7.147-12.775.478-1.212 1.142-2.351 1.634-3.559 1.516-3.709 2.397-7.58 3.105-11.524.673-3.76 1.362-7.515 1.928-11.294.141-.955.49-1.884.795-2.809.093-.284.318-.639.715-.454.17.079.3.355.35.564.476 1.994.476 4.035.556 6.067.26.641.33 1.278-.047 1.903-.114.105-.128.225-.044.356-.527 1.142.103 2.414-.404 3.556-.181.437-.193.883-.089 1.34-.512.976.121 2.114-.435 3.084-.103.118-.119.246-.047.386-.445.625.032 1.443-.431 2.065-.109.115-.128.244-.06.386-.353.468-.056 1.108-.416 1.572-.113.115-.138.246-.073.393-.362.464-.04 1.12-.44 1.574-.114.093-.137.203-.07.334-.169.365-.149.799-.402 1.134-.118.093-.145.206-.085.343-.179.362-.146.802-.416 1.132-.122.075-.15.176-.079.301-.404.66.1 1.527-.491 2.144l.018-.044c-.107.212-.147.474-.42.562-.849.904-1.599 1.827-1.196 3.221.076.265-.078.641-.219.918-.75 1.472-1.067 3.085-1.439 4.661-.646 2.724-1.554 5.321-3.107 7.664-.296.445-.412.847-.158 1.358.178.36.318.769.348 1.166.069.907.089 1.829-1.068 2.147-.414.114-.743.387-.924.756-.499 1.018-1.416 1.568-2.32 2.113-1.606.967-3.187 2-4.874 2.804-2.299 1.096-4.304 2.654-6.534 3.849-.55.297-.569.777-.112 1.17.308.266.635.511.957.76 1.294 1.003 1.914 2.405 2.32 3.934.383 1.444.12 2.761-.845 3.9-1.448 1.709-3.161 3.066-5.32 3.77-1.55.505-3.11.961-4.77.959-.563-.003-1.126.142-1.689.222-.482.067-.974.23-1.445.186-1.94-.182-3.885-.369-5.81-.662-3.781-.577-7.525-1.337-11.164-2.569-.667-.225-1.45-.135-2.181-.15-1.708-.036-3.411.082-5.107-.392-1.169-.326-2.423-.088-3.648-.291-2.113-.352-4.104-1.05-6.047-1.882-3.626-1.551-6.949-3.56-9.713-6.461-1.057-1.11-1.098-2.286-.929-3.606.057-.43.349-.732.702-.957.484-.306.979-.587 1.572-.636.405-.034.826-.037 1.208-.153.898-.273 2.18-1.357 1.973-1.606-.517-.618-1.29-.61-2.006-.758-.707-.145-1.362-.599-2.133-.336-.629.158-1.257.323-1.842-.13l.008.007c-.582-.503-1.418.06-1.99-.479l-.128-.1-.155.05c-.662-.393-1.528.106-2.144-.488l.021.02c-.404-.418-1.13.063-1.476-.525z" fill="#cdbfbd"/><path d="m32.349 240.804-.139-.099-.163.049c-.667-.39-1.51.065-2.153-.445l-.137-.098-.162.054c-.668-.381-1.498.048-2.148-.428l-.162-.1-.186.046c-.636-.428-1.484.082-2.09-.475l.021.015c-.176-.144-.353-.287-.532-.424l-.04-.039c-.125-.175-.274-.327-.452-.451l-.039-.038c-.123-.178-.276-.328-.453-.453l-.038-.038c-.125-.177-.275-.328-.453-.451l-.039-.039c-.122-.177-.275-.328-.451-.452l-.041-.04c-.129-.179-.278-.341-.444-.489l-.005-.007c-.651-2.636.167-5.355-.439-7.993.1-.615.131-1.226-.083-1.827-.555-1.8.163-3.698-.418-5.494.102-.788.163-1.576-.072-2.355-.442-2.899-.075-5.817-.209-8.725-.042-.878.216-1.785-.218-2.63.108-.962.181-1.921-.072-2.871-.551-2.475.174-5.018-.4-7.492.102-.452.099-.896-.071-1.333-.589-1.79.167-3.686-.438-5.474 0-.599-.001-1.199-.003-1.797.632-2.285-.179-4.663.453-6.947l.008-.016c.169-.137.308-.301.418-.491l.06-.06c.189-.102.339-.245.455-.425l.045-.034c.212-.151.404-.339.674-.392.131.057.238.029.322-.089.652-.296 1.301-.32 1.948.016.078.122.183.151.312.088.394.184.844.12 1.246.275 2.349 2.571 5.657 3.295 8.765 3.965 5.351 1.153 6.888 4.902 7.466 9.532.688 5.498 1.44 11.045 1.394 16.548-.07 8.582 1.459 17.062 1.156 25.632-.045 1.226.151 2.436.27 3.654.237 2.491-.512 3.243-3.192 3.358-.418-.029-.864.068-1.225-.248l-.127-.104-.158.042c-.517-.287-1.19-.006-1.661-.459l.009.008c-.573-.504-1.414.068-1.973-.492l.005.005c-.576-.51-1.419.064-1.987-.487l-.129-.099-.154.053c-.518-.289-1.184-.019-1.671-.44z" fill="#cdbfbd"/><path d="m89.255 135.408c.986 1.04 1.137 2.241.836 3.61-.557 2.531-1.279 5.041-1.344 7.654-.022.798-.913 1.234-.779 1.991.128.719.475 1.456.256 2.152-.649 2.045-.305 4.195-.806 6.27-.43 1.784-.411 3.672-.624 5.508-.187 1.611-.353 3.229-.653 4.818-.253 1.348-.596 2.663-1.48 3.821-.683.893-1.087 1.998-1.624 3.005-.688 1.286-1.388 2.566-2.083 3.85.066.621-.065 1.21-.301 1.779-.57 1.085-1.243 2.101-2.05 3.02-1.979 2.256-3.871 4.314-5.094 7.372-1.652 4.127-5.833 6.279-10.429 7.166-4.26.822-7.8-.331-10.92-3.188-.777-2.153.128-3.582 1.965-4.65 1.616-.941 3.337-1.681 4.962-2.606 3.252-1.851 3.602-3.394 1.917-6.637-1.4-2.694-1.226-5.47.306-8.124.411-.277.68-.701 1.052-1.018l-.046.041c.08-.242.285-.389.442-.571l.006-.01c.311-.235.185-.759.608-.92l-.054.052c.065-.263.261-.423.457-.581l-.013.016c.14-.157.266-.324.378-.502.133-.046.185-.137.157-.276.037-.326.224-.545.501-.698l-.036.044c.114-.234.292-.404.512-.535l-.018.025c.238-.303.158-.769.513-1.012l-.032.036c.131-.181.266-.36.406-.536.125-.049.163-.138.119-.265.033-.322.221-.539.483-.706l-.028.033c.11-.206.303-.352.421-.554l.023-.04c.349-.205.223-.699.553-.914l-.02.026c.136-.167.264-.338.384-.516.13-.056.18-.153.145-.292.039-.307.226-.515.459-.693l-.008.015c.276-.267.157-.784.594-.952l-.055.053c.055-.267.254-.424.443-.59l-.007.011c.283-.266.167-.777.592-.951l-.054.051c.065-.258.261-.417.446-.582l-.005.008c.286-.266.176-.767.574-.963l-.047.049c.071-.246.279-.391.433-.578l.006-.012c.313-.239.2-.732.562-.944l-.035.039c.095-.218.298-.362.419-.563l.02-.036c.342-.211.219-.698.544-.922l-.017.022c.139-.159.262-.328.373-.506.133-.054.186-.152.159-.294.047-.315.228-.529.497-.681l-.033.04c.114-.225.293-.392.487-.544l-.01.016c.26-.29.196-.723.451-1.014l.01-.018c.325-.231.205-.73.569-.934l-.037.041c.104-.229.293-.382.471-.547l-.003.003c.154-.174.32-.336.487-.496h.001c.16-.169.323-.33.49-.491l.002-.001c.444-.401.057-1.068.475-1.477l.004-.008c.309-.246.202-.728.541-.956l-.025.033c.114-.204.305-.347.422-.548l.033-.044c.183-.113.324-.264.427-.453l.06-.059c.185-.099.332-.241.431-.431l.059-.06c.188-.1.331-.243.431-.43l.049-.053c.621-.499-.047-1.376.55-1.883l-.011.019c.266-.281.168-.767.552-.982l-.042.048c.078-.234.287-.375.41-.578l.021-.036c.342-.212.216-.706.558-.92l-.018.027c.251-.294.155-.781.552-.99l-.046.049c.07-.242.283-.384.416-.582l.012-.027c.334-.223.217-.704.539-.934l-.012.017c.267-.28.164-.77.562-.976l-.046.048c.071-.245.28-.388.428-.577l.012-.018c.172-.135.31-.296.419-.486l.059-.06c.188-.098.332-.243.43-.43l.06-.06c.189-.099.332-.243.431-.431l.06-.06c.187-.099.33-.242.43-.43l.06-.059c.188-.099.332-.245.431-.431l.061-.063c.192-.117.375-.246.55-.389l-.023.025c.161-.175.3-.168.415.048l-.016-.014c.566.068.774.54 1.057.931l-.029-.032c.192.165.354.357.515.548z" fill="#cdbfbd"/><path d="m162.689 18.555-.203-.006-.156.133c-.307.202-.723.123-.999.401-.159.024-.313.048-.47.074-1.464.283-2.929.265-4.395.009l-.219-.108-.244.023c-.284-.277-.741-.19-1.017-.484l.006.003c-.135-.151-.295-.272-.48-.355-.047-.159-.15-.224-.313-.196-.318-.063-.545-.229-.613-.563l.061.056c-.309-.054-.49-.236-.545-.543l.054.052c-.309-.054-.491-.234-.544-.543l.052.053c-.307-.053-.49-.235-.542-.543l.052.052c-.308-.053-.489-.235-.543-.543l.053.054c-.309-.056-.49-.236-.544-.545l.054.053c-.309-.056-.496-.234-.537-.552l.063.062c-.469-.118-.33-.669-.642-.898l-.001-.001c-.197-.201-.39-.402-.423-.701.068-.136.032-.231-.109-.289-.242-.324-.197-.753-.405-1.089.099-.302.1-.594-.078-.871-.308-.815-.322-1.629.01-2.442.173-.24.205-.495.089-.768.298-.516-.026-1.219.501-1.668l-.024.046c.216-.317.139-.784.516-1.02l-.041.044c.114-.237.29-.412.524-.533l-.037.037c.12-.231.295-.408.527-.527l-.036.036c.12-.231.296-.407.527-.526l-.036.035c.119-.232.294-.407.526-.526l-.034.036c.119-.232.293-.407.526-.527l-.036.036c.121-.233.295-.411.537-.519l-.046.042c.19-.379.699-.253.918-.585l.022-.011c.212-.174.411-.368.703-.4.139.059.236.021.296-.117.284-.235.715-.141.97-.439h.003c.458-.408 1.116-.1 1.59-.449.744.108 1.487.148 2.23-.006.467.347 1.08.088 1.562.376.263.048.523.096.786.144.272.02.464.205.686.329.106.131.241.174.403.13.228.098.397.282.603.412l.04.025c.11.187.265.327.462.419l.057.056c.872.732 1.673 1.532 2.405 2.404l.057.057c.086.198.23.34.425.431l.059.062c.102.196.238.361.413.496l.006.013c.181.199.367.395.419.675-.004 2.153-.006 4.307-.007 6.462-.022.301-.223.506-.391.728l-.015.03c-.342.211-.217.712-.569.918l.033-.037c-.112.22-.302.373-.466.549l.002-.001c-.167.161-.33.323-.485.495l-.003.002c-.171.154-.334.316-.488.489l-.004.002c-.171.153-.333.316-.487.487l-.002.003c-.172.153-.335.317-.488.488l-.003.003c-.171.154-.334.316-.487.487l-.003.003c-.172.153-.335.317-.488.488l-.004.002c-.173.155-.333.324-.506.48l.009-.007c-.174.199-.368.376-.629.456z" fill="#ed7a7a"/><path d="m190.639 206.107c.392.103.792.185 1.175.313.891.298.955.434.631 1.181-.487 1.12-.971 2.242-1.467 3.358-.947 2.128-1.242 4.367-1.171 6.673.038 1.253.439 2.377 1.072 3.453 1.848 3.142 4.731 4.899 8.08 5.947 2.612.82 5.299.892 7.932.015 1.239-.413 2.472-.926 3.331-1.971.714-.867 1.622-1.017 2.639-.942.116.112.151.22.105.326-.044.103-.088.154-.129.154l.016-.013c-.16.177-.309.362-.503.504l.011-.013c-.146.189-.313.358-.503.502l.014-.012c-.146.19-.315.357-.505.504l.014-.014c-.148.192-.311.367-.521.495l.022-.023c-.136.209-.306.385-.528.503l.032-.038c-.224.372-.702.277-.985.537l.017-.011c-.257.327-.708.252-1.01.487l.026-.017c-.418.508-1.112.144-1.577.498l-.19-.022-.176.069c-2.291.395-4.58.395-6.869 0l-.179-.069-.189.023c-.475-.344-1.139-.022-1.585-.458l.004.002c-.39-.447-1.104-.006-1.463-.536l.025.016c-.304-.231-.766-.15-1.006-.507l.028.032c-.214-.114-.364-.298-.536-.46l-.008-.005c-.247-.299-.74-.187-.945-.561l.03.037c-.227-.114-.398-.289-.526-.506l.027.026c-.22-.127-.392-.298-.518-.516l.027.026c-.22-.127-.391-.298-.517-.516l.026.026c-.218-.127-.39-.299-.517-.517l.026.026c-.218-.125-.39-.297-.516-.516l.026.027c-.217-.127-.391-.299-.517-.517l.026.026c-.218-.128-.392-.299-.514-.521l.036.031c-.361-.19-.226-.701-.581-.895l-.031-.048c-.131-.184-.272-.36-.424-.526l.014.016c-.313-.245-.21-.717-.519-.961l-.007-.011c-.266-.284-.196-.723-.464-1.007l.011.02c-.545-.602-.026-1.449-.475-2.074-.023-.454-.044-.908-.067-1.362-.329-.812-.326-1.624-.002-2.435.076-.141.092-.289.046-.445.495-.591-.024-1.41.446-2.008.077-.127.096-.262.06-.402.225-.328.172-.768.441-1.079l.007-.014c.313-.248.223-.692.47-.97l.014-.025c.5-.356.04-1.079.547-1.431l-.015.027c.205-.362.428-.702.801-.906z" fill="#979898"/><path d="m99.576 156.579c.402-.187.776-.128 1.138.119.866.593 1.741 1.173 2.603 1.776.66.462 1.256 1.021 2.05 1.263-.121.204-.198.464-.372.603-.732.589-.638 1.265-.234 1.957.161.277.445.48.644.737.562.73.56.955-.131 1.658-.513.524-1.083.992-1.626 1.485-.71.643-.923 1.646-.412 2.391.509.745 1.154 1.365 2.004 1.758.496.23.898.202 1.363-.096.685-.44 1.403-.838 2.139-1.185 1.04-.491 1.486-.355 2.035.567.292.491.531 1.014.79 1.522.224.438.439.879.667 1.312.855 1.635 1.987 2.761 4.039 2.17 1.11 1.882-.332 2.947-1.449 3.897-1.42 1.208-2.275 2.327-1.628 4.356.493 1.545-.179 2.887-1.851 3.497-1.757 1.312-1.76 1.329-3.913.745-.997-.272-2.09-.339-2.826-1.243-.226-.277-.579-.208-.902-.105-.982.312-1.703-.111-2.386-.783-.569-.559-1.018-1.277-1.823-1.566-.587-.355-1.012-.86-1.134-1.529-.359-1.953-1.354-3.635-2.22-5.375-.315-.368-.586-.786-.952-1.095-1.261-1.066-1.336-2.37-.7-3.737.259-.551.371-1.002.235-1.602-.105-.456-.013-.969.047-1.45.279-2.248.643-4.486.84-6.74.084-.965.377-1.704 1.059-2.363.994-.954 1.94-1.96 2.906-2.944z" fill="#cdbfbd"/><path d="m143.625 165.343c-.137-.088-.297-.152-.409-.266-.675-.684-1.368-.745-2.156-.159-.849.632-1.739 1.206-2.607 1.816-.447.313-.865.411-1.296-.035-1.416-1.456-2.979-2.781-4.135-4.569.509-.636 1.008-1.256 1.501-1.881.596-.753.49-1.557-.002-2.268-.617-.893-1.334-1.65-2.638-1.181-.436.156-.973.015-1.46.049-.786.058-1.435-.186-1.953-.787-.16-.185-.323-.381-.52-.514-1.738-1.177-2.014-3.045-2.332-4.894-.133-.77.313-1.215.868-1.607 1.936-2.117 1.967-2.219 4.746-1.364 3.253 1.003 6.609 1.663 9.787 2.908.422.166.775.09 1.173.04 2.391-.313 4.253.598 5.782 2.42.59.704.932 1.552.541 2.239-1.014 1.783-.739 3.807-1.284 5.669-.261.894-.524 1.689-1.226 2.305-.795.694-1.379 1.624-2.38 2.079z" fill="#cdbfbd"/><path d="m106.017 124.61c2.719-.285 5.208 1.775 5.278 4.908.058 2.659-3.09 5.176-5.241 5.231-2.062.052-4.969-2.55-4.913-5.19.035-1.709 1.232-2.771 2.12-3.992.686-.942 1.757-1.087 2.756-.957z" fill="#ed7a7a"/><path d="m111.346 186.366c1.399-1.199 1.607-2.684 1.108-4.377-.203-.688-.278-1.415-.419-2.17.589-.298 1.207-.517 1.709-.891.581-.434 1.018-1.06 1.595-1.501.976-.744 1.084-1.722.934-2.812.323-.005.654-.054.969-.005 2.327.365 3.488 1.944 3.167 4.262-.12.863-.501 1.528-1.354 1.853-.226.085-.446.262-.669.266-1.755.033-2.669 1.357-3.791 2.387-1.003.922-1.126 1.886-.326 2.979-.119.318-.341.485-.688.496-.787.032-1.537-.104-2.235-.487z" fill="#fafdff"/><path d="m122.647 130.736c-.025 1.578-1.492 3.101-2.895 3.006-1.289-.087-2.454-1.605-2.426-3.16.029-1.582 1.152-2.603 2.862-2.599 1.379.004 2.482 1.237 2.459 2.753z" fill="#ed7a7a"/><path d="m96.141 176.511c1.604.814 2.189 2.267 2.456 3.92.167 1.034.303 2.079.899 2.983-1.153.084-2.227-.287-3.282-.658-.62-.218-1.166-.666-1.146-1.403.045-1.675.269-3.327 1.073-4.842z" fill="#f6f4f4"/><path d="m80.985 181.037c-.148-.537.066-1.21-.587-1.555.185-.466.371-.932.555-1.395.914.974.507 1.962.032 2.95z" fill="#d3d4d3"/><path d="m89.255 135.408c-.292-.07-.498-.218-.516-.547.287.076.44.274.516.547z" fill="#c3c7ca"/><path d="m140.801 103.489c-1.472-.047-3.518-.643-5.565-1.143-7.67-1.873-15.321-3.823-22.973-5.763-1.106-.281-2.199-.626-3.269-1.016-1.248-.454-1.614-1.066-1.574-2.433.013-.404.026-.83.156-1.205.422-1.223.422-2.584 1.198-3.689 1.318-.332 2.529.219 3.781.454 3.675.684 7.363 1.293 11.03 2.013 2.394.47 4.756 1.1 7.139 1.626 4.284.946 8.574 1.881 12.868 2.785.571.12 1.123.238 1.584.587.166.125.343.429.304.606-.375 1.742-.514 3.531-1.203 5.214-.789 1.929-.796 1.996-3.476 1.964z" fill="#cdbfbd"/><path d="m108.873 69.238c0-.571.009-1.143-.002-1.716-.016-.855.233-1.675.788-2.268 1.104-1.179 2.02-2.504 3.323-3.545 1.505-1.204 3.073-1.191 4.603-.661 3.339 1.159 5.657 3.379 6.693 6.915.87 2.971-.235 4.722-1.926 6.367-.978.953-2.268 1.595-3.584 2.075-3.153 1.148-7.223-.152-9.114-2.924-.465-.683-.795-1.425-.781-2.283.01-.652.002-1.307 0-1.96z" fill="#cdbfbd"/><path d="m139.766 74.541c-.016-.669.115-1.531.394-2.402.53-1.645 1.707-2.522 3.266-2.974.772-.224 1.58-.357 2.381-.454 2.382-.286 4.33.692 5.85 2.387 1.093 1.219 1.655 2.827 1.78 4.461.108 1.403-.434 2.73-1.253 3.871-.965 1.347-2.311 2.237-3.803 2.953-1.399.671-2.767.317-3.977-.266-1.77-.853-3.219-2.145-4.101-4.016-.514-1.089-.531-2.192-.537-3.56z" fill="#cdbfbd"/><path d="m172.629 85.603c-.094-2.578.547-5.016 1.487-7.385.27-.677.644-1.323 1.053-1.925.325-.476.806-.811 1.442-.798.321.007.672.088.956-.013.525-.186.986-.656 1.595-.372.769.357 1.293.988 1.662 1.733.514 1.03.881 2.135.972 3.271.204 2.54.069 5.066-.832 7.487-.577 1.547-1.338 2.97-2.864 3.838-2.059 1.172-3.564.748-4.846-1.526-.395-.7-.608-1.518-.623-2.35-.012-.652-.002-1.306-.002-1.96z" fill="#ed7a7a"/><path d="m143.298 43.647c1.622.123 3.726.282 5.633 1.351.81.455 1.351 1.052 1.717 1.957.6 1.489.408 2.529-1.045 3.636-1.611 1.225-3.378 2.209-5.613 1.93-1.088-.136-2.063-.406-2.993-.934-2.273-1.288-3.161-3.23-2.641-5.763.086-.419.298-.739.623-1.013 1.249-1.058 1.721-1.207 4.319-1.164z" fill="#cdbfbd"/><path d="m144.791 210.798c.998-.081 1.773.171 2.385.878.241.278.287.549-.005.824-.261.242-.577.334-.861.117-.613-.473-1.284-.912-1.519-1.819z" fill="#8b8c8c"/><path d="m149.586 114.238c2.447-.002 4.783.753 7.184 1.073.521.068.986.517 1.49.765.423.206 1.108.13 1.204.678.124.704-.687.769-1.076 1.119-.338.302-.786.253-1.088-.097-1.316-1.528-3.282-1.67-4.988-2.366-.397-.162-.793-.108-1.176.073-.798.374-1.198-.138-1.566-.714-.12-.121-.157-.24-.112-.357.043-.116.087-.174.128-.174z" fill="#949394"/><path d="m149.586 114.238c-.005.176-.011.355-.016.531-4.447-.76-8.91-1.44-13.335-2.687.453-.361.883-.327 1.263-.235 3.154.767 6.423.905 9.547 1.813.838.244 1.834-.22 2.541.578z" fill="#858787"/><path d="m65.061 184.483c-.126.076-.259.225-.363.207-.382-.065-.459-.364-.373-.688.028-.097.233-.232.313-.209.329.096.501.328.423.69z" fill="#858585"/><path d="m173.275 89.87c.116 1.056.489 2.061 1.224 2.884.966 1.088 2.189 1.426 3.536.898 1.25-.491 2.264-1.299 2.881-2.52 1.936-3.818 2.196-7.786.997-11.865-.208-.704-.569-1.356-1.106-1.878-.234-.226-.471-.49-.759-.602-.726-.287-1.427-.313-1.89.605.277.182.523.416.813.519 1.14.405 1.656 1.336 1.886 2.387.716 3.264.565 6.48-.797 9.577-.361.826-.883 1.558-1.687 2.042-1.404.848-2.751.469-3.443-1.02-.202-.435-.324-.923-.398-1.398-.449-2.877-.042-5.682.872-8.412.41-1.224.857-2.467 2.018-3.259.173-.117.277-.414.006-.594-.122-.08-.308-.126-.45-.1-.897.171-1.365.845-1.733 1.585-1.747 3.521-2.392 7.251-1.97 11.151z" fill="#4f2808"/><path d="m171.216 66.601c.835-.483 1.722-.89 2.365-1.643.149-.176.245-.393.352-.568-.056-.116-.071-.215-.122-.238-.137-.062-.313-.161-.434-.121-1.018.338-1.859.938-2.52 1.785-.047.063-.099.146-.096.219.005.152.026.309.072.454.061.199.194.22.383.112z" fill="#250d08"/><path d="m113.528 55.991c1.841.667 3.673 1.363 5.544 1.938 5.081 1.569 10.307 2.543 15.542 3.344 7.851 1.202 15.527 3.045 23.092 5.409 3.342 1.045 6.746 1.84 10.171 2.542.115.024.311-.1.384-.212.079-.119.113-.32.071-.458-.159-.517-.545-.764-1.07-.865-1.843-.356-3.673-.747-5.472-1.308-4.052-1.262-8.061-2.647-12.176-3.703-4.035-1.033-8.081-2.01-12.189-2.673-6.528-1.055-13.029-2.214-19.387-4.084-1.402-.413-2.864-.613-4.166-.885-.426.127-.883-.012-.813.493.023.176.274.394.469.462z" fill="#250d08"/><path d="m153.088 71.602c-.591.061-1.066.372-1.557.663-1.188.707-2.396 1.384-3.568 2.119-.508.318-.905.247-1.303-.131-.941-.9-1.873-1.81-2.822-2.701-.59-.554-1.194-1.1-1.818-1.618-.266-.22-.632-.222-.916-.036-.281.182-.395.504-.392.843.006.851.386 1.571.839 2.254.807 1.215 1.629 2.42 2.563 3.803-.983.745-1.847 1.355-2.659 2.03-.641.531-.772 1.361-.402 1.961.318.514 1.011.781 1.721.527.993-.356 1.973-.76 2.918-1.228.695-.346 1.22-.259 1.73.298.386.42.793.821 1.211 1.206.84.769 1.685 1.535 2.555 2.268.237.201.552.32.909.218 1.503-.433 2.155-1.879 1.388-3.216-.235-.413-.636-.732-.955-1.1-.618-.713-1.92-1.124-1.759-2.144.152-.969 1.518-1.072 2.249-1.694.182-.156.414-.259.621-.387.491-.308.877-.714 1.184-1.207.373-.6.467-1.214.139-1.847-.313-.609-1.115-.957-1.876-.881z" fill="#4f2808"/><path d="m137.257 104.44c1.582.392 3.176.745 4.779 1.031 1.493.266 2.04-.037 2.672-1.468.391-.888.671-1.835.938-2.773.225-.781.37-1.587.527-2.385.074-.373.545-.724.203-1.106-.255-.287-.643-.476-1-.65-.287-.142-.61-.224-.926-.295-3.822-.821-7.682-1.501-11.462-2.483-7.43-1.922-15.013-3.049-22.516-4.585-.976-.2-1.222-.102-1.472.74-.464 1.561-.932 3.126-1.018 4.555-.034 1.389.215 1.841 1.346 2.239 1.384.485 2.786.936 4.207 1.293 7.904 1.982 15.812 3.941 23.722 5.887zm-27.37-8.371c-.818-.217-1.003-.436-.777-1.175.38-1.237.417-2.572 1.049-3.738 1.319-.19 2.528.333 3.78.575 3.523.679 7.059 1.309 10.573 2.027 2.077.423 4.121.986 6.186 1.463 4.448 1.033 8.898 2.047 13.346 3.072.602.139.855.476.709 1.055-.32 1.264-.698 2.512-1.044 3.769-.138.496-.495.584-1.279.516-.221-.047-.778-.169-1.337-.279-6.248-1.208-12.375-2.937-18.574-4.359-3.896-.895-7.783-1.814-11.675-2.72-.318-.073-.642-.121-.957-.206z" fill="#4f2808"/><path d="m110.01 74.135c1.312.107 2.592.038 3.839-.489.803-.337 1.593-1.227 2.449-.812.751.364 1.259 1.234 1.863 1.89.882.963 1.706 1.981 2.801 2.721.267.181.561.383.867.425.756.104 2.085-1.33 1.986-2.111-.117-.929-.659-1.597-1.295-2.266-3.101-3.258-3.125-2.486.932-4.646.502-.264 1.048-.454 1.542-.733.423-.238.833-.518 1.197-.84.75-.665.839-1.669.181-2.638-.472-.7-1.245-1.087-2.129-.666-.882.418-1.767.836-2.638 1.28-1.161.593-2.3 1.23-3.467 1.812-.949.475-1.132.428-1.873-.41-.596-.67-1.133-1.392-1.734-2.059-.762-.848-1.54-1.684-2.353-2.484-.279-.276-.66-.473-1.028-.627-.511-.214-1.26.423-1.088.943.206.61.482 1.207.797 1.769.997 1.771 2.028 3.522 3.036 5.261-1.308 1.413-2.062 1.923-4.03 2.746-.296.124-.605.224-.879.383-.362.207-.372.785-.067 1.053.319.278.674.462 1.091.498z" fill="#4f2808"/><path d="m120.398 135.513c1.573.043 3.164-1.578 3.118-3.175-.039-1.417-1.31-2.724-2.646-2.722-1.882 0-2.996 1.029-3.016 2.792-.022 1.576 1.202 3.07 2.544 3.105zm-.956-3.975c.171-.287.467-.442 1.1-.379.121.061.506.202.824.431.486.35.6 1.034.302 1.519-.292.475-.754.604-1.261.527-.878-.135-1.422-1.314-.965-2.098z" fill="#4f2808"/><path d="m106.696 136.523c2.718-.022 5.368-2.666 5.325-5.39-.05-3.073-2.169-4.962-5.472-4.961-1.038 0-2.011.16-2.656.978-.996 1.263-2.278 2.453-2.193 4.238.146 3.075 2.835 5.151 4.996 5.135zm-2.431-6.642c.316-.089.659-.147.758-.499.245-.868.94-.737 1.577-.756.652-.001 1.294.046 1.904.313 1.133.496 1.697 1.609 1.397 2.78-.366 1.443-1.687 2.378-3.299 2.338-1.516-.04-2.872-1.147-3.085-2.599-.095-.646-.086-1.342.748-1.577z" fill="#4f2808"/><path d="m217.956 212.121c-2.123-5.266-5.617-9.136-11.293-10.68-.455-.124-.989-.056-1.36-.459-.248-.405.022-.774.087-1.161.281-1.623.361-3.235-.17-4.84-.332-1.006-.514-2.06-.843-3.064-2.362-7.216-4.938-14.354-7.758-21.406-.756-1.894-1.546-3.782-2.197-5.711-2.718-8.048-5.792-15.953-9.326-23.679-.288-.627-.322-1.206-.224-1.885.235-1.616.393-3.245.499-4.874.296-4.566.679-9.119 1.657-13.604.412-1.896-.376-3.233-2.146-3.8-.774-.246-1.58-.405-2.382-.558-2.731-.522-5.495-.767-8.268-.958-.355-.024-.82.127-1.039-.351.241-.621.829-.784 1.323-.992 2.788-1.18 5.402-2.693 8.086-4.075 1.261-.651 2.008-1.557 2.29-2.956.371-1.837.824-3.66 1.299-5.475 1.204-4.58 2.463-9.144 3.255-13.821 1.089-6.441 2.345-12.85 3.691-19.241.926-4.392 1.925-8.775 2.39-13.25.194-1.864.34-3.731-.16-5.591-.235-.871-.695-1.565-1.525-1.762-2.301-.543-4.442-1.617-6.844-1.835-2.845-.259-5.679-.668-8.461-1.349-2.857-.702-5.739-1.271-8.65-1.687-2.425-.345-4.857-.631-7.28-.998-3.719-.561-7.32-1.67-10.988-2.472-.454-.1-.989-.097-1.327-.617.067-.277.124-.597.224-.905 1.527-4.745 3.237-9.42 5.39-13.922.141-.295.294-.582.435-.878.275-.574.709-.878 1.363-.818.243.021.485.066.73.079 3.915.215 7.032-1.382 9.275-4.481 2.436-3.368 3.127-7.083 1.683-11.134-.939-2.635-2.608-4.499-5.14-5.578-1.433-.609-2.973-.927-4.532-.962-2.864-.067-5.253 1.03-7.102 3.21-.631.741-1.14 1.59-1.682 2.404-.589.887-1.074 1.825-1.326 2.874-1.011 4.21-.18 7.94 2.921 11.045.62.622.737 1.127.339 1.92-1.66 3.283-2.99 6.709-4.202 10.178-.648 1.85-1.296 3.7-1.894 5.566-.21.655-.556.961-1.237.868-.324-.042-.653-.063-.972-.123-4.02-.773-8.102-.996-12.16-1.422-1.71-.179-3.338.04-5.032.28-2.791.396-5.379 1.305-7.985 2.247-1.458.527-2.915 1.073-4.411 1.466-4.905 1.29-9.687 2.914-14.343 4.92-.756.327-1.453.699-2.112 1.203-.671.512-.986 1.136-.839 1.898.271 1.412-.026 2.738-.322 4.1-1.117 5.108-1.997 10.262-2.569 15.459-.618 5.6-1.059 11.22-1.594 16.83-.24 2.52-.419 5.051-.8 7.549-.528 3.469-1.203 6.916-1.861 10.364-.14.73-.278 1.446-.189 2.181.1.807.918 1.462 1.725 1.253.67-.171 1.273-.148 1.917.019 4.347 1.111 8.699 2.21 13.048 3.317.395.099.797.193 1.175.344.307.123.781.002.908.56-.31.167-.576.368-.875.465-3.031.97-6.061 1.954-9.107 2.874-1.406.424-2.832.746-4.329.781-1.654.036-2.552.887-2.658 2.529-.183 2.864-.767 5.656-1.32 8.46-.227 1.156-.655 2.164-1.293 3.134-1.206 1.845-2.426 3.689-3.508 5.608-.602 1.064-1.368 1.659-2.509 2.109-3.684 1.446-6.514 3.742-7.048 8.003-.102.809-.556 1.292-1.268 1.661-1.015.526-1.987 1.133-2.959 1.734-1.394.861-2.693 1.861-3.795 3.077-.545.602-.989 1.294-1.452 1.963-.061.086-.007.335.079.42.082.083.349.118.412.054.458-.467.863-.98 1.32-1.445 1.946-1.976 4.314-3.187 6.997-3.814.334-.078.641-.075.875.234.262.355.352.735.127 1.133-.24.427-.498.845-.757 1.259-4.394 6.986-8.867 13.916-13.569 20.7-.524.753-1.062 1.055-1.969 1.124-3.811.286-7.045 1.92-9.864 4.443-1.43 1.28-2.52 2.78-3.05 4.648-.112.391-.235.782-.349 1.175-.16.557-.555.821-1.099.745-.965-.139-1.95-.249-2.88-.528-3.047-.915-6.078-1.887-9.107-2.867-.693-.225-1.408-.486-1.998-.895-.852-.591-1.644-.496-2.546-.198-2.555.848-5.086 1.779-7.721 2.363-.736.162-1.108.65-1.202 1.364-.066.486-.094.975-.142 1.465-.478 4.891-.229 9.793-.142 14.686.094 5.306.407 10.608.622 15.911.11 2.773.18 5.55.329 8.322.229 4.323.697 8.631.661 12.968-.01 1.06.028 2.127.139 3.182.117 1.123.948 1.72 2.003 1.364.708-.239 1.248-.089 1.862.19 3.505 1.603 7.178 2.689 10.919 3.581 1.824.434 3.623.98 5.432 1.478.567.154.967.459 1.345.954.996 1.305 1.224 1.348 2.591.423 2.64-1.784 5.234-3.634 7.843-5.464.537-.377 1.062-.802 1.33-1.414.457-1.038 1.344-1.623 2.226-2.206 1.429-.951 2.878-1.87 4.329-2.784 6.987-4.395 13.878-8.931 20.163-14.316.24-.206.524-.485.85-.204.159.136.259.408.278.629.256 2.846.486 5.696.74 8.543.554 6.264 1.132 12.526 1.67 18.79.097 1.138.008 2.29.07 3.431.056 1.067.542 1.646 1.553 1.927.55.154 1.121.23 1.683.33 6.694 1.2 13.14 3.274 19.501 5.628.688.256 1.364.548 2.015.882.416.212.476.623.316 1.054h2.452c.648-.671 1.576-.823 2.344-1.264 1.063-.611 2.141-1.19 3.206-1.794.733-.414 1.412-.997 1.594-1.787.232-.99.923-1.483 1.578-2.089 1.075-1 2.156-2.003 3.152-3.082 2.713-2.95 5.608-5.713 8.517-8.467 4.097-3.877 8.149-7.81 11.134-12.667.452-.734 1.071-1.155 1.857-1.492 1.572-.677 3.137-1.393 4.628-2.233 4.269-2.407 8.493-4.889 12.742-7.333 1.84-1.059 3.658-2.16 5.545-3.134 2.165-1.116 3.25-2.86 3.481-5.241.193-1.952.423-3.899.702-5.838.998-6.951 2.027-13.896 3.051-20.843.051-.354-.054-.819.61-.996.184.314.418.637.581.993.848 1.856 1.731 3.699 2.503 5.586 1.856 4.533 3.696 9.072 5.46 13.641.704 1.826 1.699 3.311 3.48 4.208.277.141.494.4.8.655-1.425 2.692-2.03 5.547-2.098 8.512-.085 3.766 1.072 7.092 3.828 9.732 4.639 4.445 13.963 6.276 20.167 1.705 2.947-2.173 4.901-4.968 6.131-8.349 1.1-3 .79-5.966-.374-8.846zm-13.503 15.315c-2.726.062-5.358-.368-7.818-1.607-2.836-1.429-4.438-3.738-4.836-6.886-.363-2.866-.245-5.691.735-8.442.209-.589.538-.963 1.234-.942 1.876.059 3.484-.704 5.011-1.695.479-.311 1.003-.573 1.42-.951 1.022-.923 2.12-1.53 3.155-1.183 3.612-.08 6.266 1.099 8.376 3.53 1.569 1.808 2.854 3.76 3.413 6.13.308 1.299.392 2.572-.146 3.832-.063.15-.083.318-.138.468-1.758 4.88-5.11 7.627-10.406 7.746zm-34.699-17.454c-.52 3.522-.504 2.909-2.922 4.281-3.624 2.054-7.213 4.172-10.812 6.272-1.045.609-2.055 1.29-3.289 1.689-.279-.928-.032-1.716.034-2.504.11-1.3.219-2.603.308-3.905.007-.124-.169-.377-.212-.366-.218.051-.563.13-.602.272-.242.861-.42 1.741-.604 2.617-.302 1.438-.582 2.878-.89 4.315-.103.476-.207.975-.741 1.192-.221.092-.467.29-.658.245-.438-.097-.289-.485-.236-.78.059-.321.14-.641.241-.95.941-2.895.469-5.709-.809-8.332-1.689-3.464-4.528-5.521-8.419-5.94-3.502-.378-6.788.189-9.887 2.033-3.945 2.35-7.764 4.837-11.032 8.099-.322.323-.616.798-1.209.684-.082-.129-.217-.248-.234-.382-.184-1.458-.4-2.914-.509-4.379-.28-3.75-.388-7.505-.106-11.261.107-1.438-.402-2.734-.83-4.045-.246-.755-.954-1.089-1.685-1.286-1.341-.358-2.692-.675-4.029-1.041-5.118-1.403-10.229-2.822-15.347-4.221-1.1-.301-2.212-.568-3.33-.804-1.132-.24-1.975.646-3.017.844-1.834.348-3.571 1.142-5.453 1.299-.445-.303-.253-.711-.194-1.095.625-4.199 1.255-8.4 1.866-12.601.117-.807.184-1.623.236-2.438.088-1.401.337-2.751 1.069-3.983.689-1.158.62-2.509.83-3.772.922-5.558 1.55-11.159 2.09-16.773.446-4.638 1.239-9.225 2.332-13.757.237-.989.391-1.09 1.33-.898 2.359.48 4.483 1.447 6.369 2.977.874.71 1.198 1.416.811 2.536-.586 1.696-1.062 3.428-1.539 5.159-1.642 5.917-2.649 11.961-3.362 18.044-.539 4.634-1.463 9.19-2.299 13.77-.279 1.519-.782 3.004-.756 4.581.009.629.237 1.079.742 1.448.36.265.74.465 1.107.195.903-.661 1.569-.35 2.381.255.552.411 1.373.473 2.082.654 1.266.322 2.555.558 3.803.935 5.41 1.628 10.95 2.618 16.517 3.498 6.855 1.085 13.714 2.154 20.491 3.676 2.225.499 3.635-.487 3.773-2.827.107-1.8.322-3.577.608-5.35.662-4.111 1.343-8.221 2.029-12.327.079-.483.204-.964.376-1.419.144-.374.476-.391.789-.184.829.548 1.53 1.248 2.063 2.072 2.04 3.154 2.61 6.642 2.252 10.326-.047.478-.371.698-.821.737-1.431.125-2.677.628-3.732 1.639-1.223 1.177-1.281 2.626-.913 4.089.339 1.345 2.054 2.081 3.401 1.568.928-.353 1.724-.932 2.293-1.769.414-.604.798-1.226 1.328-2.042.508.175.907.27 1.271.445 1.991.957 2.011 1.01 1.692 3.172-.537 3.635-1.144 7.262-1.59 10.909-.288 2.347-.34 4.721-.493 7.086-.017.256.071.512.32.577.511.133.462-.329.505-.594.503-3.063 1.001-6.123 1.467-9.191.393-2.583.742-5.172 1.119-7.757.059-.402.146-.806.541-1.143.951.536 1.421 1.536 1.969 2.395 1.65 2.572 2.898 5.304 2.583 8.489-.026.275.037.487.338.479.115-.003.285-.148.331-.268.357-.931.467-1.885.311-2.885-.318-2.021-.779-4.005-1.42-5.95-.617-1.88-1.394-3.693-2.864-5.066-.883-.825-1.074-1.727-.904-2.855.422-2.826.803-5.659 1.175-8.494.798-6.073 1.756-12.123 2.292-18.228.258-2.929.673-5.843 1.021-8.763.02-.16.047-.331.129-.464.074-.127.215-.269.341-.287.098-.01.288.146.317.259 1.475 5.862 4.409 11.035 7.56 16.111.341.55.558 1.176.819 1.772.099.225.153.467.241.694.69 1.748 1.627 3.444 1.998 5.255.376 1.824-.378 3.702-.528 5.567-.178 2.195-.107 4.402-.529 6.588-.466 2.402-.707 4.847-1.144 7.256-.814 4.505-1.272 9.054-1.869 13.588-.035.244-.038.489-.072.733zm-48.623 40.983c-.304-.073-.309-.351-.334-.581-.339-3.236-.667-6.478-.999-9.716-.322-3.157-.654-6.317-.957-9.476-.101-1.042-.124-2.093-.208-3.632 2.555 1.692 4.108 3.524 5.196 5.739 1.59 3.238 2.395 6.735 3.198 10.224.214.934.017 1.687-.73 2.415-1.575 1.531-3.039 3.177-4.543 4.778-.174.185-.362.313-.623.249zm7.077-7.424c-.369-1.822-.679-3.661-1.133-5.462-.314-1.258-.793-2.479-1.252-3.696-1.223-3.232-3.342-5.754-6.192-7.682-.136-.09-.267-.186-.398-.283-1.165-.881-1.216-1.443-.222-2.593.266-.311.556-.599.847-.883 1.111-1.083 2.244-2.142 3.333-3.243 1.305-1.32 2.768-1.546 4.471-.866 1.645.652 2.962 1.7 4.014 3.092.935 1.237 1.717 2.564 2.349 3.991.927 2.094 1.65 4.252 2.222 6.463.203.784.273 1.605.355 2.414.06.587-.117 1.113-.543 1.563-2.357 2.486-4.763 4.921-7.387 7.132-.098.08-.304.038-.464.053zm10.091-9.709c-.216.169-.524.077-.6-.151-.153-.458-.224-.945-.307-1.427-.348-2.09-.65-4.188-1.485-6.167-.735-1.742-1.652-3.365-2.798-4.867-1.369-1.791-3.041-3.171-5.206-3.904-.217-.074-.407-.234-.9-.524 2.109-1.569 4.162-2.749 6.373-3.584 2.668-1.007 5.412-.906 8.193-.302 2.683.585 5.343 4.463 4.481 7.736-.269 1.017-.641 2.026-1.086 2.98-1.595 3.419-3.623 6.572-5.99 9.508-.204.253-.421.505-.675.702zm-56.491-15.62c-1.175.549-2.261 1.294-3.373 1.98-1.211.745-1.722 1.141-1.991-.793-.2-1.442-.667-2.854-1.093-4.255-1.067-3.489-3.162-6.222-6.203-8.238-.468-.311-.922-.649-1.367-.96.162-.398.403-.59.704-.734 3.029-1.429 6.109-2.729 9.311-3.718.929-.287 1.911-.41 2.874-.573.57-.097.912.164 1.04.757.083.394.132.802.161 1.207.328 4.475.632 8.951.982 13.425.072.919-.138 1.482-1.045 1.902zm-27.169 16.767c-.308-1.767-.588-3.537-.89-5.304-.755-4.424-1.217-8.883-1.578-13.35-.051-.647.296-.938.888-.764 2.415.707 4.496 1.933 5.949 4.038 1.939 2.807 3.073 5.908 3.28 9.262 0 .481.006.888-.002 1.294-.009.608-.227 1.1-.76 1.44-1.992 1.273-3.974 2.56-5.97 3.827-.366.232-.837.01-.917-.443zm-9.453 7.879c-.457-.423-.525-.981-.548-1.566-.119-2.855-.323-5.709-.363-8.563-.091-6.374-.539-12.726-.934-19.083-.316-5.056-.816-10.094-1.21-15.142-.133-1.708-.384-3.407-.624-5.105-.067-.477-.255-.947-.446-1.394-.131-.304-.417-.508-.773-.497-.42.012-.511.335-.514.672-.001.487-.018.985.056 1.466.549 3.715.898 7.452 1.164 11.196.448 6.271.893 12.545 1.267 18.82.332 5.624.567 11.253.839 16.881.016.318-.039.641-.083 1.276-2.563-.646-4.922-1.286-7.304-1.827-3.022-.69-6.06-1.314-9.097-1.936-.68-.14-.975-.502-.981-1.166-.009-1.226.019-2.453-.047-3.676-.288-5.382-.637-10.759-.892-16.14-.143-3.019-.082-6.047-.236-9.064-.214-4.158-.301-8.321-.746-12.467-.34-3.166-.47-6.353-.685-9.531-.022-.325-.028-.657.021-.979.054-.379.347-.56.698-.465.628.171 1.236.408 1.853.617 3.399 1.157 6.79 2.334 10.196 3.463 1.503.498 2.444.366 2.348-.203-.178-1.04-1.142-1.064-1.872-1.309-2.554-.851-5.129-1.639-7.696-2.454-.231-.076-.457-.172-.684-.257-.191-.071-.276-.21-.198-.381.063-.135.149-.309.269-.358.91-.357 1.829-.692 2.747-1.032.642-.235 1.286-.165 1.931-.007 3.726.914 7.418 1.948 11.03 3.254.383.14.762.294 1.128.468 1.434.685 2.197 1.707 2.249 3.417.211 7.101 1.021 14.167 1.186 21.279.107 4.644.522 9.287 1.17 13.906.615 4.369 1.254 8.728 2.172 13.042.169.793.086 1.413-.663 1.903-1.568 1.032-3.101 2.119-4.651 3.178-.437.296-.768.05-1.077-.236zm8.49-63.052c2.02-1.411 4.159-2.582 6.436-3.508.335-.135.669.006.679.417.026.898-.013 1.797-.01 2.694.011 2.479.855 4.622 2.566 6.432 1.126 1.191 2.312 2.298 3.675 3.224 1.098.744 2.221 1.363 3.553 1.55.308.043.601.183 1.017.312-.412 1.134-1.112 1.876-2.023 2.426-4.679 2.824-9.469 3.148-14.488.842-5.71-2.624-5.905-11.248-1.405-14.389zm43.513-60.492c.482.024.963.149 1.433.268 3.481.884 6.937 1.877 10.441 2.645 4.784 1.047 9.613 1.885 14.405 2.883 11.189 2.331 22.356 4.745 33.427 7.595 1.184.302 2.396.488 3.604.687.29.048.72.048.744-.403.012-.191-.152-.456-.318-.581-.858-.659-1.865-.999-2.903-1.243-5.562-1.306-11.11-2.675-16.69-3.888-7.657-1.665-15.302-3.397-23.023-4.755-5.226-.917-10.444-1.875-15.585-3.206-.704-.183-1.41-.374-2.22-.59.377-.609.92-.701 1.416-.856 3.658-1.153 7.324-2.281 10.973-3.466 1.162-.375 2.348-.774 3.386-1.39 1.096-.648 2.132-.703 3.271-.334.383.124.772.229 1.248.371.192.837-.067 1.622-.274 2.38-.258.961-.296 1.935-.345 2.914-.043.915.374 1.608 1.14 2.02.933.495 1.894.98 2.895 1.299 4.745 1.504 9.52 2.916 14.388 3.973 2.711.585 5.434 1.125 8.151 1.685.401.085.794.195 1.196.254 2.038.296 3.477-.606 4.085-2.583.457-1.484.684-3.008.506-4.711 1.961.277 3.667.506 4.754 2.246.429.686.769.705 1.449.253 2.52-1.679 5.232-3.018 7.877-4.476 1.006-.556 1.927-.666 3.023-.336 3.987 1.196 8.026 2.194 12.143 2.854.223.036.542.083.472.407-.043.204-.219.425-.397.54-1.931 1.227-3.913 2.374-5.797 3.665-1.617 1.109-3.158 2.313-4.942 3.17-.574.275-1.052.755-1.557 1.166-.108.088-.179.286-.175.431.004.128.125.261.221.368.037.038.166.023.233-.01 1.762-.843 3.61-1.502 5.226-2.647 1.866-1.324 3.827-2.506 5.862-3.554.423-.22.811-.557 1.507-.498.412 1.981-.309 3.931-.363 5.905-.057 2.028-.186 4.054-.632 6.257-1.253-.715-2.408-1.29-3.473-1.999-1.549-1.029-3.187-1.214-4.918-.72-3.746 1.072-6.414 3.441-8.152 6.904-.4.794-.504 1.731-1.338 2.583.082-.919.164-1.644.207-2.372.042-.735.06-1.471.063-2.206.002-.652-.005-1.307-.061-1.954-.019-.198-.183-.5-.34-.546-.481-.14-.485.292-.502.581-.424 7.182-1.455 14.295-2.374 21.423-1.201 9.312-2.391 18.628-3.597 27.94-.125.969-.335 1.925-.545 3.104-.394-.115-.627-.188-.862-.249-1.564-.403-2.189-1.299-2.065-3.008.176-2.461-.437-4.846-1.247-7.184-.889-2.562-2.32-4.689-4.605-6.153-.846-.544-1.023-1.137-.808-2.04.51-2.144.921-4.313 1.477-6.444.602-2.301.959-4.638 1.225-6.992.083-.74.222-1.378.638-2.04.857-1.362.057-3.028-1.515-3.366-.394-.085-.811-.067-1.22-.086-2.867-.133-5.685-.571-8.438-1.392-5.331-1.59-10.744-2.791-16.28-3.404-.323-.036-.65-.075-.971-.126-.496-.081-.68-.408-.595-.871 1.361-7.361 7.99-9.846 13.429-7.75.284.11.519.342.762.507-.136.9-.954 1.16-1.369 1.745-.922 1.306-1.206 2.666-.468 4.141.631 1.259 1.875 1.61 3.081.847 1.398-.882 2.204-2.113 2.287-3.82.052-1.093.337-1.303 1.359-1.096 3.088.623 5.974 1.686 8.252 3.989.171.174.328.373.522.51.102.071.33.105.404.042.1-.085.193-.332.14-.423-.242-.415-.478-.866-.823-1.188-2.904-2.709-6.013-5.051-10.177-5.37-.516-.039-.955-.198-1.294-.591-2.578-2.981-8.587-2.878-12.055-.561-2.63 1.755-4.421 4.081-5.228 7.145-.125.475-.197.961-.321 1.433-.189.717-.46.962-1.233.867-1.702-.206-3.41-.407-5.084-.76-2.074-.435-4.116-1.023-6.172-1.545-.554-.139-1.103-.345-1.665-.397-2.139-.196-3.76-1.152-5.165-2.817-1.446-1.711-3.522-2.61-5.634-3.32-.542-.183-1.089-.346-1.633-.521-.466-.15-.615-.473-.527-.941.079-.4.131-.807.212-1.207.925-4.559 1.852-9.118 2.785-13.678.223-1.083.585-1.386 1.656-1.333zm-1.799-14.907c-1.137-.176-1.275-.333-1.11-1.4.183-1.211.355-2.429.637-3.618.938-3.988 1.328-8.05 1.7-12.115.517-5.611.996-11.224 1.557-16.832.245-2.434.618-4.859.994-7.279.488-3.152.807-6.318 1.011-9.498.025-.407.073-.814.138-1.216.113-.681.424-.872.975-.512 1.536 1.008 3.338 1.299 5.016 1.909.207.075.483.024.705-.043.13-.037.262-.206.304-.343.043-.131.024-.341-.059-.441-.151-.184-.349-.344-.561-.453-.579-.304-1.185-.554-1.758-.867-.95-.523-2.288-.372-2.827-1.613.723-.845 1.813-.989 2.747-1.417 2.309-1.054 4.737-1.779 7.185-2.414 2.849-.741 5.636-1.658 8.397-2.663.614-.224 1.204-.527 1.832-.696 2.79-.744 5.38-1.9 7.724-3.595.492-.355.972-.451 1.595-.241 4.252 1.432 8.493 2.904 12.904 3.794.483.096.701.45.6.893-.364 1.606-.516 3.228-.412 4.867.044.641.022 1.361.839 1.591.639.18 1.255-.199 1.622-1.172.547-1.447.972-2.941 1.469-4.407.256-.759.527-.961 1.247-.81 1.835.385 3.672.782 5.49 1.244 3.884.982 7.808 1.725 11.793 2.166 3.897.432 7.746 1.189 11.561 2.082 2.55.599 5.124 1.009 7.726 1.253 1.562.144 3.05.503 4.777 1.305-1.75 1.587-3.42 2.744-5.066 3.932-.993.719-1.989 1.432-2.944 2.199-.505.404-.946.898-1.37 1.39-.359.416-.407 1.273-.128 1.34.473.112.694-.294 1.008-.521.858-.622 1.707-1.266 2.603-1.832 1.865-1.18 3.696-2.406 5.406-3.809.371-.302.799-.536 1.188-.794.544.352.272.751.205 1.088-1.662 8.406-3.387 16.8-4.982 25.22-.866 4.571-1.49 9.188-2.647 13.703-.851 3.319-1.695 6.639-2.608 9.941-.283 1.021-.069 2.309-.84 3.016-.664.608-1.802.672-2.681 1.078-2.222 1.027-4.442 2.066-6.617 3.188-3.116 1.612-6.193 3.304-9.291 4.954-.422.226-.823.54-1.356.492-.431-.721-.173-1.458-.062-2.144.647-3.948 1.228-7.91 2.048-11.821 1.625-7.759 2.849-15.576 3.824-23.437.191-1.538.506-3.06.735-4.594.069-.479.062-.974.038-1.46-.011-.227-.098-.539-.412-.489-.208.033-.442.186-.575.355-.471.595-.598 1.341-.741 2.053-.227 1.119-.372 2.256-.539 3.387-.84 5.734-1.559 11.49-2.551 17.198-.824 4.741-1.919 9.437-2.632 14.2-.326 2.182-.568 4.372-.862 6.558-.106.776-.37.965-1.157.798-.796-.169-1.595-.35-2.368-.604-3.108-1.017-6.275-1.776-9.51-2.283-5.895-.924-11.637-2.552-17.437-3.909-6.12-1.432-12.23-2.919-18.447-3.876-4.517-.693-9.061-1.213-13.592-1.808-.483-.064-.974-.092-1.458-.168zm58.253-97.071c.114-.282.369-.538.613-.737 2.424-1.952 7.081-2.254 9.734-.617 1.328.817 2.078 2.074 2.351 3.57.456 2.493-.354 4.662-1.903 6.597-.696.869-1.648 1.335-2.699 1.566-.792.173-1.612.223-2.088.285-3.348-.003-5.414-1.205-6.333-3.739-.838-2.313-.587-4.658.325-6.925zm-3.964 112.031c-.278 1.098-.494 2.04-.767 2.966-.159.533-.532.746-1.129.623-2.714-.569-5.432-1.104-8.148-1.663-4.878-1.003-9.641-2.427-14.384-3.918-1.188-.374-1.225-.503-1.222-1.759 0-.407.022-.817.074-1.221.018-.143.15-.275.289-.516 2.775.403 5.502 1.216 8.264 1.863 2.859.667 5.704 1.386 8.577 1.999 2.778.594 5.58 1.08 8.446 1.626zm34.025 28.684c-5.406 1.801-10.428 4.443-14.805 8.443-1.161-1.584-1.762-3.32-2.093-5.161-.487-2.724-.157-5.369.841-7.937.772-1.987 1.691-3.882 3.15-5.487.717-.79 1.559-1.137 2.588-1.162 1.787-.043 3.291.461 4.65 1.748 2.425 2.298 4.198 4.982 5.415 8.061.173.434.47.873.254 1.495zm-46.005 11.034c-.847-.993-1.737-1.952-2.592-2.938-.521-.601-1.116-.947-1.933-.733-.079.022-.161.043-.242.048-3.242.241-3.547-.078-3.324-3.516 1.082-.052 2.045.433 3.054.699 2.442.642 4.874 1.339 7.319 1.975.64.165.978.482 1.071 1.137.338 2.373 1.836 3.527 4.18 3.818.305 1.445-.462 2.696-.643 4.231-2.04-.743-2.04-.743-3.678.367-.408.276-.814.548-1.216.828-1.274.888-1.253.944-2.375-.308-.629-.702-.612-.848.033-1.646.153-.192.338-.357.487-.549 1.081-1.405 1.066-2.003-.141-3.413zm-5.504 30.715c-.449.044-.694.12-.92.083-3.949-.648-7.894-1.305-11.838-1.974-.481-.083-.952-.229-1.417-.377-.366-.114-.445-.448-.471-.779-.027-.361.107-.621.497-.707 1.472-.319 2.739-1.06 3.892-1.989 2.259-1.816 2.779-3.944 1.547-6.529-1.422-2.983-4.44-4.721-7.099-4.153-1.152.246-1.601-.204-2.035-1.127-.662-1.404-1.465-2.737-2.578-3.851-.39-.388-.8-.505-1.31-.208-1.059.619-2.13 1.213-3.195 1.817-.315.18-.598.204-.854-.115-.301-.377-.294-.705.037-1.074.656-.724 1.308-1.456 1.911-2.225.545-.694.747-1.443.129-2.238-.194-.25-.363-.554-.443-.859-.266-1.008.25-1.788 1.289-1.93 1.296-.178 2.596-.326 3.897-.441 1.23-.108 1.425.063 1.621 1.229.027.161.016.327.046.487.22 1.216.556 1.561 1.724 1.651.893.068 1.799.029 2.693.106 1.313.112 2.206-.433 2.729-1.611.13-.294.195-.62.546-.788 1.445.182 2.827.681 4.203 1.196.673.252 1.333.537 1.946.784.065.93-.455 1.514-.755 2.169-.47 1.02-.403 1.908.499 2.636 1.629 1.31 2.777 2.952 3.621 4.862.598 1.355.849 1.391 2.509 1.095.805-.143 1.082.008 1.183.77.107.807.142 1.626.19 2.44.034.556-.223.873-.774 1.071-.443.163-.799.543-1.222.778-.624.348-.91.862-1.039 1.559-.255 1.368-.688 2.69-1.317 3.934-.765 1.511-.876 2.947.558 4.308zm-22.704-8.513c.198.872.46 1.732.662 2.604.091.392.124.804.145 1.21.038.767-.269 1.058-1.315.939-.242-.063-.796-.203-1.344-.351-1.423-.387-1.37-.387-1.299-1.93.214-4.727-1.579-8.46-5.769-10.785-2.656-1.473-2.137-.85-1.894-3.719.179-2.112.536-4.205.833-6.304.058-.392.175-.791.343-1.149.301-.627.817-.801 1.401-.428 1.03.655 2.044 1.339 3.025 2.069 2.722 2.02 3.013 1.858.095 4.206-1.245 1.003-1.272 1.888-.201 3.091.272.304.563.59.857.874.725.711 1.481.878 2.418.312.833-.502 1.744-.882 2.631-1.291.326-.15.638-.049.853.25 1.351 1.869 2.286 3.944 2.971 6.131.178.571-.047.969-.61 1.122-.705.192-1.427.321-2.143.491-1.552.367-2.013 1.092-1.659 2.658zm-5.006 1.735c-.037.322-.078.648-.176.953-.104.313-.315.56-.696.558-.339-.004-.66-.1-.851-.382-.128-.192-.181-.443-.233-.676-.182-.788-.348-1.582-.517-2.375-.432-2.009-1.543-3.533-3.251-4.664-1.185-.784-1.169-.813-.806-2.131.041-.153.109-.304.186-.446.035-.067.119-.108.179-.159 4.51 1.147 6.549 6.086 6.165 9.322zm40.787-25.351c-.702-.412-1.393-.845-2.06-1.311-.169-.118-.326-.405-.312-.602.037-.475.443-.366.748-.336.887.084 1.772.188 2.604.277.276.591.032 1.051-.084 1.508-.126.509-.501.698-.896.464zm-9.034-17.069c.134-.069.344-.119.457-.059.111.059.145.266.214.409-.045 1.027-.429 1.689-1.181 1.879-.17.044-.571-.158-.59-.286-.138-.913.315-1.538 1.1-1.943zm-48.579-.605c.035.083.104.165.091.233-.48 2.548-.966 5.095-1.451 7.64-.19-.036-.391-.01-.468-.096-.607-.647-1.501-1.234-1.7-1.997-.242-.934.756-1.695 1.213-2.531.465-.855.987-1.679 1.497-2.51.196-.32.368-.692.818-.739zm-1.802 11.876c-.245 2.41-.438 4.421-.656 6.428-.051.478-.188.945-.269 1.341-.655.409-1.007-.074-1.37-.308-1.724-1.101-3.227-2.452-4.44-4.107-.612-.834-.579-1.042.017-1.928.412-.611.855-.55 1.451-.294 1.455.624 2.847.454 4.149-.463.254-.179.537-.325 1.118-.669zm-2.771-1.348c-.298.091-.614.13-.665.141-.993.031-1.28-.402-.965-1.05.069-.143.148-.281.234-.412.491-.762 1.087-.807 1.722-.134.551.582.411 1.227-.326 1.455zm-.361-11.105c.071-.029.172.016.274.067-.046-.177-.009-.166.094.044.016.008.031.016.046.022.003 0 .005.001.007.003.001 0 .004.001.005.001.004.001.007.002.011.005-.005-.003-.01-.004-.015-.005-.012-.004-.026-.007-.038-.01-.908 1.533-1.81 3.072-2.732 4.599-.257.426-.611.759-1.171.745-.347-.006-.73-.095-.639-.498.534-2.358 1.857-4.087 4.158-4.973zm-4.923 16.429c.77.903 1.427 1.734 2.145 2.507 1.062 1.14 2.256 2.096 3.748 2.665 1.147.438 1.155.537 1.008 1.592-.318 2.258-.662 4.512-.958 6.773-.151 1.148-.417 2.225-1.161 3.156-.304.378-.502.84-.722 1.276-.767 1.509-.858 1.887-2.822 1.158-2.067-.767-4.033-1.754-5.944-2.836-.84-.478-1.658-1.08-2.306-1.79-1.662-1.823-1.601-1.642-.401-3.483 2.134-3.274 4.25-6.564 6.383-9.839.265-.407.446-.883 1.03-1.179zm-25.986 53.503c-.121-2.364-.184-4.732-.299-7.097-.083-1.705-.22-3.407-.328-5.08.638-.33.959.14 1.339.379 2.837 1.786 5.919 2.692 9.28 2.694 1.748 0 3.419-.334 5.011-1.006 3.197-1.344 6.188-2.997 8.048-6.108.415-.699.963-1.438 1.034-2.197.136-1.436.933-2.291 1.9-3.209.985-.937 1.744-2.109 2.602-3.177.065 3.704-.675 7.206-1.414 10.712-.233 1.112-.854 1.636-1.875 1.956-6.198 1.948-11.927 4.891-17.359 8.415-1.914 1.244-3.719 2.662-5.57 4.004-.585.425-1.093.971-1.842 1.194-.645-.32-.501-.958-.527-1.48zm16.554-39.447c.278.23.502.354.643.539 2.125 2.78 4.983 4.392 8.312 5.269.629.167 1.259.335 1.885.52.913.27 1.074.569.642 1.415-1.188 2.324-2.388 4.646-4.085 6.66-1.615 1.92-4.45 2.438-6.631 1.172-1.573-.913-2.845-2.173-3.918-3.637-.598-.818-.865-1.747-.907-2.747-.077-1.839.283-3.586 1.275-5.145.874-1.368 1.839-2.683 2.784-4.046zm-4.633 60.044c-.339-.34-.18-.758-.176-1.143.043-3.564-1.254-6.697-3.13-9.626-1.363-2.127-3.286-3.6-5.617-4.557-.44-.18-.98-.163-1.304-.678-.105-.525.423-.608.714-.774 3.468-1.985 6.964-3.925 10.428-5.918.725-.416 1.358-.395 2.062-.037 2.702 1.378 4.794 3.387 6.199 6.069 1.137 2.176 1.845 4.524 2.547 6.869.334 1.122.174 1.987-.928 2.716-3.198 2.115-6.328 4.337-9.49 6.506-.393.269-.772.61-1.305.573zm85.971-39.251c-.141.562-.543.784-1.08.784-.13 0-.372-.15-.365-.207.026-.219.07-.504.221-.626.312-.255.697-.421 1.102-.14.056.041.08.124.122.189zm20.37-31.877c-.577-.959-.539-1.143.25-1.885 1.44-1.347 3.071-2.433 4.754-3.442 2.528-1.515 5.189-2.753 8.001-3.642 1.305-.412 1.59-.302 2.062.903 1.637 4.176 3.24 8.364 4.853 12.548.145.379.268.766.41 1.175-.158.214-.256.464-.439.569-.489.288-1.01.527-1.528.764-3.275 1.499-6.725 2.492-10.168 3.504-.625.183-1.279.293-1.869.553-.656.29-.946-.072-1.118-.539-1.358-3.693-3.179-7.15-5.208-10.508zm7.9 12.054c4.209-1.011 8.389-2.088 12.103-4.448.55-.351.903-.213 1.133.377 1.331 3.417 2.665 6.833 3.969 10.26.363.953.226 1.288-.588 1.875-.33.237-.675.466-1.034.652-2.532 1.324-5.12 2.529-7.833 3.431-.926.305-1.892.501-2.853.668-1.09.192-1.272.109-1.752-.852-1.826-3.645-3.471-7.367-4.987-11.427.758-.221 1.294-.404 1.842-.536zm4.726 15.299c-.163-.411-.203-.878.315-.98 1.519-.308 3.039-.613 4.481-1.19 1.51-.605 3.024-1.21 4.492-1.912 1.382-.663 2.702-1.455 4.049-2.187.677.691.769 1.627 1.083 2.454 1.005 2.665 1.935 5.358 2.905 8.039.216.6.175 1.108-.364 1.519-3.134 2.4-6.522 4.31-10.352 5.358-.392.106-.8.152-1.206.206-.537.072-.963-.098-1.173-.634-.386-.986-.751-1.978-1.142-2.963-1.024-2.572-2.058-5.138-3.088-7.71zm5.085 12.802c4.264-.594 7.719-2.379 11.004-4.554.475-.315.912-.693 1.399-.987.278-.169.664-.23.81.185.349.996.705 1.998.96 3.023.176.71.112 1.447-.108 2.174-1.161 3.786-5.085 6.518-8.982 6.251-1.694-.116-2.948-.762-3.543-2.481-.397-1.144-.946-2.234-1.54-3.611zm-79.739 10.183c.629 3.633.788 7.3.905 10.977.057 1.79.315 3.573.475 5.362.255 2.847.51 5.694.759 8.544.07.813.174 1.626.185 2.444.09 5.563.816 11.073 1.332 16.603.119 1.287.288 2.57.183 3.808-.689.191-1.129-.1-1.572-.267-6.501-2.452-13.08-4.637-19.925-5.928-.864-.164-1.044-.41-1.084-1.348-.221-5.472-.875-10.908-1.361-16.357-.399-4.474-.684-8.964-1.193-13.426-.614-5.353-1.409-10.685-2.128-16.027-.099-.728-.219-1.454-.308-2.184-.048-.412-.02-.829.347-1.111 1.101-.845 1.043-1.935.387-3.391 4.261.935 7.844 2.296 11.421 3.672 1.829.704 3.631 1.473 5.448 2.207 2.334.941 3.722 1.068 3.542.49-.428-1.388-1.759-1.835-2.899-2.373-2.882-1.36-5.896-2.396-8.886-3.491-.759-.278-1.754-.161-2.181-1.111.914-.387 1.763.057 2.593.283 3.467.946 6.909 1.977 10.369 2.94 2.596.723 5.211 1.372 7.81 2.082 1.111.305 1.132.341 1.146 1.518.024 2.208.069 4.415-.006 6.621-.087 2.631.338 5.219.54 7.821.402 5.131.9 10.252 1.414 15.373.607 6.013 1.268 12.018 1.932 18.025.107.971.208 1.987.575 2.874.499 1.207.009 1.798-.929 2.387-.757.479-1.404 1.122-2.138 1.638-.32.226-.628.043-.717-.336-.093-.394-.152-.802-.19-1.205-.476-4.961-1.007-9.916-1.395-14.881-.241-3.094-.241-6.203-.609-9.291-.446-3.731-.8-7.472-1.192-11.208-.272-2.599-.541-5.197-.798-7.797-.168-1.718-.67-3.362-1.104-5.018-.061-.238-.319-.382-.569-.286-.108.039-.198.251-.207.391-.023.325-.029.658.028.976z" fill="#4f2808"/><path d="m62.627 135.389c-.805.001-1.458-.65-1.459-1.454-.001-.805.651-1.458 1.456-1.459l11.807-.014c.805-.001 1.457.651 1.458 1.456.001.804-.65 1.456-1.455 1.457z" fill="url(#c)"/><path d="m56.801 132.483c.806-.001 1.458.651 1.459 1.456.001.804-.65 1.456-1.456 1.457l-3.002.004c-.805.001-1.459-.65-1.46-1.454-.001-.805.652-1.458 1.456-1.459z" fill="url(#d)"/><path d="m109.791 29.243c-.803 0-1.455-.652-1.455-1.458 0-.804.652-1.456 1.455-1.456h28.642c.805 0 1.456.652 1.456 1.456 0 .806-.652 1.458-1.456 1.458z" fill="url(#e)"/><path d="m103.971 26.329c.804 0 1.456.652 1.456 1.456 0 .806-.652 1.458-1.456 1.458h-3.003c-.806 0-1.458-.652-1.458-1.458 0-.804.652-1.456 1.458-1.456z" fill="url(#f)"/><path d="m33.056 140.298c1.442-.002 2.75.584 3.697 1.527.946.945 1.533 2.25 1.535 3.693.002 1.437-.584 2.744-1.53 3.694-.941.947-2.248 1.537-3.689 1.538-1.441.002-2.75-.584-3.697-1.527l-.084-.093c-.897-.938-1.448-2.208-1.45-3.6-.002-1.443.581-2.749 1.525-3.697l.093-.085c.938-.896 2.208-1.448 3.6-1.45zm1.639 3.589c-.418-.417-.996-.677-1.635-.676-.613.001-1.168.238-1.577.621l-.056.059c-.418.418-.675.997-.675 1.636.001.614.235 1.169.618 1.578l.06.056c.418.417.996.676 1.635.675.638-.001 1.217-.261 1.634-.679h.006c.414-.415.669-.994.669-1.635-.001-.639-.26-1.217-.679-1.635z" fill="url(#g)"/><path d="m88.096 30.891c1.434-.002 2.741.581 3.689 1.526l.005.005c.948.949 1.534 2.253 1.536 3.688.002 1.442-.583 2.749-1.527 3.697l-.093.084c-.937.897-2.207 1.449-3.598 1.45-1.438.002-2.746-.583-3.694-1.529-.949-.942-1.537-2.248-1.538-3.69-.002-1.435.583-2.742 1.527-3.691l.005-.005c.949-.948 2.253-1.534 3.688-1.535zm1.638 3.583c-.414-.415-.994-.671-1.634-.67-.642.001-1.221.258-1.635.674l-.005.005c-.415.416-.67.994-.67 1.636.001.639.259 1.216.678 1.634v.006c.416.414.995.67 1.637.67.612-.001 1.168-.237 1.577-.62l.056-.059c.419-.419.675-.997.674-1.636-.001-.642-.257-1.22-.673-1.634z" fill="url(#h)"/><path d="m213.153 76.219c1.437 0 2.744.586 3.691 1.534.948.942 1.533 2.248 1.533 3.691 0 1.442-.585 2.75-1.53 3.694l-.092.084c-.94.897-2.21 1.447-3.602 1.447-1.442 0-2.749-.584-3.695-1.531-.945-.944-1.529-2.252-1.529-3.694 0-1.438.586-2.744 1.532-3.691.942-.949 2.25-1.534 3.692-1.534zm1.634 3.584c-.413-.415-.993-.671-1.634-.671-.64 0-1.216.258-1.634.676h-.006c-.415.415-.672.993-.672 1.636 0 .639.258 1.217.677 1.635.418.417.995.677 1.634.677.614 0 1.168-.235 1.578-.617l.057-.06c.419-.418.678-.997.678-1.635 0-.639-.259-1.217-.678-1.636z" fill="url(#i)"/><path d="m51.729 84.172c-.001-.805.65-1.457 1.455-1.458.803-.001 1.457.649 1.458 1.454l.014 12.185c.001.803-.652 1.458-1.455 1.459-.805.001-1.457-.653-1.458-1.455z" fill="url(#j)"/><path d="m59.282 88.799c.805-.001 1.458.649 1.459 1.454.001.804-.651 1.458-1.456 1.459l-12.183.014c-.805.001-1.457-.652-1.458-1.456s.65-1.456 1.455-1.457z" fill="url(#k)"/><path d="m181.21 24.776c0-.804.652-1.456 1.456-1.456s1.456.652 1.456 1.456v12.185c0 .806-.652 1.457-1.456 1.457s-1.456-.651-1.456-1.457z" fill="url(#l)"/><path d="m188.759 29.412c.804 0 1.457.652 1.457 1.457 0 .804-.653 1.455-1.457 1.455h-12.185c-.804 0-1.455-.651-1.455-1.455 0-.805.652-1.457 1.455-1.457z" fill="url(#m)"/><path d="m210.631 119.309c.569-.569 1.491-.569 2.06 0 .568.569.568 1.489 0 2.059l-8.616 8.615c-.568.569-1.49.569-2.059 0s-.569-1.492 0-2.06z" fill="url(#n)"/><path d="m212.691 127.925c.568.569.568 1.49 0 2.059-.569.569-1.49.569-2.06 0l-8.615-8.616c-.569-.569-.569-1.49 0-2.059s1.491-.569 2.059 0z" fill="url(#o)"/><path d="m6.085 172.041c-.001-.805.65-1.456 1.456-1.457.804-.001 1.457.649 1.458 1.454l.014 12.184c.001.805-.65 1.458-1.454 1.459-.805.001-1.458-.651-1.459-1.456z" fill="url(#p)"/><path d="m13.641 176.668c.804-.001 1.457.652 1.458 1.456.001.803-.65 1.456-1.454 1.457l-12.185.014c-.804.001-1.458-.651-1.459-1.454-.001-.805.652-1.459 1.456-1.46z" fill="url(#q)"/><path d="m178.064 236.749c.805 0 1.457.652 1.457 1.456 0 .805-.653 1.457-1.457 1.457h-11.808c-.804 0-1.455-.652-1.455-1.457 0-.804.651-1.456 1.455-1.456z" fill="url(#r)"/><path d="m183.886 239.663c-.805 0-1.457-.652-1.457-1.457 0-.804.653-1.456 1.457-1.456h3.002c.805 0 1.457.652 1.457 1.456 0 .805-.652 1.457-1.457 1.457z" fill="url(#s)"/><path d="m209.922 171.147c1.438 0 2.743.586 3.692 1.533.948.943 1.534 2.249 1.534 3.691 0 1.436-.586 2.743-1.531 3.69l-.005.005c-.951.946-2.256 1.531-3.69 1.531-1.436 0-2.74-.585-3.689-1.531l-.004-.005c-.947-.949-1.531-2.255-1.531-3.69 0-1.442.586-2.749 1.531-3.694l.091-.084c.94-.897 2.21-1.446 3.602-1.446zm1.636 3.584c-.414-.413-.993-.671-1.635-.671-.613 0-1.169.235-1.578.618l-.057.059c-.418.418-.677.997-.677 1.634 0 .643.256 1.221.671 1.635l.006.005c.414.414.993.673 1.634.673.642 0 1.221-.258 1.635-.673l.005-.005c.414-.414.672-.992.672-1.635 0-.637-.259-1.216-.677-1.634v-.006z" fill="url(#t)"/></g></svg>