<svg enable-background="new 0 0 128 128" height="128" viewBox="0 0 128 128" width="128" xmlns="http://www.w3.org/2000/svg"><g clip-rule="evenodd" fill="#999" fill-rule="evenodd"><path d="m69.242 12.696c8.161-10.758 19.508-10.81 19.508-10.81s1.688 10.114-6.419 19.857c-8.66 10.404-18.501 8.702-18.501 8.702s-1.848-8.182 5.412-17.749z"/><path d="m64.868 37.531c4.2 0 11.992-5.772 22.137-5.772 17.462 0 24.331 12.425 24.331 12.425s-13.435 6.869-13.435 23.538c0 18.801 16.736 25.281 16.736 25.281s-11.701 32.929-27.503 32.929c-7.258 0-12.9-4.89-20.548-4.89-7.794 0-15.527 5.073-20.564 5.073-14.43 0-32.66-31.237-32.66-56.347 0-24.704 15.431-37.663 29.903-37.663 9.411-.001 16.713 5.426 21.603 5.426z"/></g></svg>