<?xml version="1.0" encoding="utf-8"?>
<!-- Generator: Adobe Illustrator 15.0.0, SVG Export Plug-In . SVG Version: 6.00 Build 0)  -->
<!DOCTYPE svg PUBLIC "-//W3C//DTD SVG 1.1//EN" "http://www.w3.org/Graphics/SVG/1.1/DTD/svg11.dtd">
<svg version="1.1" id="Layer_1" xmlns="http://www.w3.org/2000/svg" xmlns:xlink="http://www.w3.org/1999/xlink" x="0px" y="0px"
	 width="128px" height="128px" viewBox="0 0 128 128" enable-background="new 0 0 128 128" xml:space="preserve">
<g>
	<path fill-rule="evenodd" clip-rule="evenodd" fill="#999999" d="M69.242,12.696C77.403,1.938,88.75,1.886,88.75,1.886
		S90.438,12,82.331,21.743c-8.66,10.404-18.501,8.702-18.501,8.702S61.982,22.263,69.242,12.696z"/>
	<path fill-rule="evenodd" clip-rule="evenodd" fill="#999999" d="M64.868,37.531c4.2,0,11.992-5.772,22.137-5.772
		c17.462,0,24.331,12.425,24.331,12.425s-13.435,6.869-13.435,23.538c0,18.801,16.736,25.281,16.736,25.281
		s-11.701,32.929-27.503,32.929c-7.258,0-12.9-4.89-20.548-4.89c-7.794,0-15.527,5.073-20.564,5.073
		c-14.43,0-32.66-31.237-32.66-56.347c0-24.704,15.431-37.663,29.903-37.663C52.676,32.104,59.978,37.531,64.868,37.531z"/>
</g>
</svg>
