<svg xmlns="http://www.w3.org/2000/svg" width="1278" height="1038"><g fill="#DDEFF4" fill-rule="evenodd"><path d="M.47 275.281C12.98 109.196 192.07-57.886 477.367 19.472c285.296 77.359 334.585-63.087 550.474 175.954 215.889 239.04 337.914 377.623 174.407 626.664-163.507 249.042-619.964 280.172-791.646 83.916C227.383 696.564-12.037 441.366.47 275.281z" opacity=".5"/><path d="M30.475 285.868C43.093 119.428 223.765-48.01 511.579 29.514c287.814 77.523 337.538-63.222 555.332 176.328 217.794 239.55 283.165 356.726 118.214 606.298-164.95 249.573-567.703 302.471-740.9 105.797C259.389 708.05 17.856 452.307 30.475 285.868z"/></g><script xmlns=""/></svg>
