<?xml version="1.0" encoding="utf-8"?>
<!-- Generator: Adobe Illustrator 21.1.0, SVG Export Plug-In . SVG Version: 6.00 Build 0)  -->
<svg version="1.1" id="Layer_1" xmlns="http://www.w3.org/2000/svg" xmlns:xlink="http://www.w3.org/1999/xlink" x="0px" y="0px"
	 viewBox="0 0 1899 1105" style="enable-background:new 0 0 1899 1105;" xml:space="preserve">
<style type="text/css">
	.st0{opacity:0.3;}
	.st1{fill:#FEF8DF;}
	.st2{fill:url(#path-2_1_);}
	.st3{fill:url(#path-3_1_);}
	.st4{fill:url(#path-4_1_);}
</style>
<script></script>
<g id="_x32_.-Home-Landing_1_">
	<g id="_x30_1-index-landing-c_1_">
		<g id="_x23_header_1_" transform="translate(-248.000000, -75.000000)">
			<g id="bg-1_1_" transform="translate(247.000000, 75.000000)">
				<g id="Mask-Copy-2_1_" class="st0">
					<g>
						<path id="path-2_3_" class="st1" d="M1900.5,1104.7H0.5l0-811c50.9-35.3,132.6-59.6,245-73c168.6-20.1,252.3,51.6,323,29
							c228-73,335.9-45.4,453-64c126-20,307.6-76.4,400-89c183.7-24.9,201-41,295-78c39.5-15.5,100.8-21.2,184-17V1104.7z"/>
					</g>
					<g>
						
							<linearGradient id="path-2_1_" gradientUnits="userSpaceOnUse" x1="762.5992" y1="958.6328" x2="763.5992" y2="958.6328" gradientTransform="matrix(-1900.0157 0 0 1104.3445 1450851 -1058108.375)">
							<stop  offset="0" style="stop-color:#B5DDE7"/>
							<stop  offset="1" style="stop-color:#DDEFF4"/>
						</linearGradient>
						<path id="path-2_2_" class="st2" d="M1900.5,1104.7H0.5l0-811c50.9-35.3,132.6-59.6,245-73c168.6-20.1,252.3,51.6,323,29
							c228-73,335.9-45.4,453-64c126-20,307.6-76.4,400-89c183.7-24.9,201-41,295-78c39.5-15.5,100.8-21.2,184-17V1104.7z"/>
					</g>
				</g>
				<g id="Mask-Copy_1_" class="st0">
					<g>
						<path id="path-3_3_" class="st1" d="M1900.5,1104.7H0.5v-811c73.3-42.7,169.3-52.7,288-30c178,34,248.3,22.6,319,0
							c228-73,312.9-21.4,430-40c126-20,228.6-77.4,321-90c183.7-24.9,264-78,358-115c39.5-15.5,100.8-21.2,184-17V1104.7z"/>
					</g>
					<g>
						
							<linearGradient id="path-3_1_" gradientUnits="userSpaceOnUse" x1="762.5992" y1="958.6328" x2="763.5992" y2="958.6328" gradientTransform="matrix(-1900 0 0 1104.3445 1450839 -1058108.375)">
							<stop  offset="0" style="stop-color:#B5DDE7"/>
							<stop  offset="1" style="stop-color:#DDEFF4"/>
						</linearGradient>
						<path id="path-3_2_" class="st3" d="M1900.5,1104.7H0.5v-811c73.3-42.7,169.3-52.7,288-30c178,34,248.3,22.6,319,0
							c228-73,312.9-21.4,430-40c126-20,228.6-77.4,321-90c183.7-24.9,264-78,358-115c39.5-15.5,100.8-21.2,184-17V1104.7z"/>
					</g>
				</g>
				<g id="Mask_1_">
					<g>
						<path id="path-4_3_" class="st1" d="M1900.5,1104.7H0.5v-811c89.5-27.4,152.8-38.7,190-34c174.8,22.1,294,55.5,374,49
							c112-9.1,227,12,402-87c104-58.9,294-28.1,393-50c176.3-39.1,263-116,357-153c39.5-15.5,100.8-21.2,184-17V1104.7z"/>
					</g>
					<g>
						
							<linearGradient id="path-4_1_" gradientUnits="userSpaceOnUse" x1="762.5992" y1="958.6328" x2="763.5992" y2="958.6328" gradientTransform="matrix(-1900 0 0 1104.3445 1450839 -1058108.375)">
							<stop  offset="0" style="stop-color:#B5DDE7"/>
							<stop  offset="1" style="stop-color:#DDEFF4"/>
						</linearGradient>
						<path id="path-4_2_" class="st4" d="M1900.5,1104.7H0.5v-811c89.5-27.4,152.8-38.7,190-34c174.8,22.1,294,55.5,374,49
							c112-9.1,227,12,402-87c104-58.9,294-28.1,393-50c176.3-39.1,263-116,357-153c39.5-15.5,100.8-21.2,184-17V1104.7z"/>
					</g>
				</g>
			</g>
		</g>
	</g>
</g>
<script  xmlns=""></script>
</svg>
