<svg xmlns="http://www.w3.org/2000/svg" xmlns:xlink="http://www.w3.org/1999/xlink" id="Layer_1" x="0" y="0" enable-background="new 0 0 1899 1390" version="1.1" viewBox="0 0 1899 1390" xml:space="preserve"><style type="text/css">.st0{opacity:.8}.st1{opacity:.3;fill:#ddeff4;enable-background:new}.st2{fill:#dff0f4}</style><title>bg-2</title><desc>Created with Sketch.</desc><g id="_x32_.-Home-Landing" class="st0"><g id="_x30_1-index-landing-c" transform="translate(0.000000, -1674.000000)"><g id="bg-2" transform="translate(-1.000000, 1674.000000)"><path id="Mask-Copy-2" d="M1903.2,226.9L-7.5,298.5l-3.1,384.9c51,35.8,133,60.7,246.1,74.8 c169.5,21.1,309.5-36.4,380.5-13.2c225.1,28.1,344.4-36.5,394.2-38.4c180.1-36.4,312-13.4,404.9-0.2 c184.7,26.1,204.9-7.2,299.2,30.5c39.7,15.8,101.3,21.9,185,18.1L1903.2,226.9z" class="st1"/><path id="Mask-Copy" d="M1903.7,28.5c-124.9,24.7-294,28.1-507.1,10.3C1077,11.9,706.4,32.6,478.9,16.3 C317.4,20.7,165,19.8-6.6,20.6l-4.5,636.7c73.5,43.3,170,53.9,289.6,31.8C457.6,655.8,522,645.8,593,669 c284,4,324.3-36.2,501.2-57.3c136.5,0,193.5,6,257.2,31.1c186.8,60.4,196.2-31.7,320.2,18.4c39.7,15.9,143.6,71.7,227.2,67.9 L1903.7,28.5z" class="st1"/><path id="Mask" d="M1905-3.2c-269.2-6-419.5-1.3-550.2-2c-283.7-1.6-474.8,1.7-661.9-3.7 c-270.7-7.8-505-18.9-698.1-3.9L-9.8,632c89.9,28.3,153.5,40.2,190.9,35.6c176-21.5,296.1-54.7,376.5-47.7 c112.7,9.9,237.3,23.8,390-27.3c160.5-66,306.8-35,406.3-12.1c177.1,40.7,276.8,12.5,371.2,50.6c136.6,57.8,175,75.6,175,75.6 L1905-3.2z" class="st2"/></g></g></g><script/></svg>