<svg xmlns="http://www.w3.org/2000/svg" xmlns:xlink="http://www.w3.org/1999/xlink" width="1899" height="1105" version="1.1" viewBox="0 0 1899 1105"><title>bg-1</title><desc>Created with Sketch.</desc><defs><linearGradient id="linearGradient-1" x1="0%" x2="100%" y1="50%" y2="50%"><stop offset="0%" stop-color="#B5DDE7"/><stop offset="100%" stop-color="#DDEFF4"/></linearGradient><path id="path-2" d="M0,0 L1900.01575,0 L1900,811 C1849.09186,846.282715 1767.4252,870.616048 1655,884 C1486.36221,904.075928 1402.72132,832.356771 1332,855 C1104,928 996.14963,900.404821 879,919 C753,939 571.433634,995.448486 479,1008 C295.263509,1032.94948 278.030208,1049.01893 184,1086 C144.485306,1101.54071 83.1519727,1107.20737 0,1103 L0,0 Z"/><path id="path-3" d="M0,0 L1900,0 L1900,811 C1826.66667,853.666667 1730.66667,863.666667 1612,841 C1434,807 1363.72132,818.356771 1293,841 C1065,914 980.14963,862.404821 863,881 C737,901 634.433634,958.448486 542,971 C358.263509,995.949481 278.030208,1049.01893 184,1086 C144.485306,1101.54071 83.1519727,1107.20737 0,1103 L0,0 Z"/><path id="path-4" d="M0,0 L1900,0 L1900,811 C1810.51665,838.373809 1747.18332,849.707143 1710,845 C1535.16796,822.867509 1415.96279,789.498558 1336,796 C1223.95719,805.109734 1109,784 934,883 C829.967295,941.852788 640,911.053655 541,933 C364.703131,972.081534 278.030208,1049.01893 184,1086 C144.485306,1101.54071 83.1519727,1107.20737 0,1103 L0,0 Z"/></defs><g id="2.-Home-Landing" fill="none" fill-rule="evenodd" stroke="none" stroke-width="1"><g id="01-index-landing-c"><g id="#header" transform="translate(-248.000000, -75.000000)"><g id="bg-1" transform="translate(247.000000, 75.000000)"><g id="Mask-Copy-2" opacity=".3"><use fill="#FEF8DF" xlink:href="#path-2"/><use fill="url(#linearGradient-1)" xlink:href="#path-2"/></g><g id="Mask-Copy" opacity=".3"><use fill="#FEF8DF" xlink:href="#path-3"/><use fill="url(#linearGradient-1)" xlink:href="#path-3"/></g><g id="Mask"><use fill="#FEF8DF" xlink:href="#path-4"/><use fill="url(#linearGradient-1)" xlink:href="#path-4"/></g></g></g></g></g><script/></svg>