<svg xmlns="http://www.w3.org/2000/svg" width="640" height="640" viewBox="0 0 480 480"><path fill="#e5cabe" d="m240 247.964844-232-120 232-120 232 120zm0 0"/><path fill="#ceac9a" d="m240 471.964844-232-120v-224l232 120zm0 0"/><path fill="#995f5b" d="m184 307.425781v-30.664062c0-6.527344 0-12.796875-16-20.796875l-80-40c-5.320312-2.851563-11.773438-2.542969-16.796875.804687-5.019531 3.347657-7.789063 9.1875-7.203125 15.195313v32.453125c0 6.53125 3.585938 12.53125 9.335938 15.625l86.664062 47.921875c11.824219 6.398437 24-7.113282 24-20.539063zm0 0"/><path fill="#aa735e" d="m208 431.964844c-4.417969 0-8-3.582032-8-8v-8c0-4.417969 3.582031-8 8-8s8 3.582031 8 8v8c0 4.417968-3.582031 8-8 8zm0 0"/><path fill="#bc8e79" d="m240 471.964844 232-120v-224l-232 120zm0 0"/><path fill="#aa735e" d="m240 471.964844 232-120v-112l-232 120zm0 0"/><path fill="#d3843d" d="m169.761719 44.300781-72.523438 37.503907 224.96875 123.640624 75.144531-38.875zm0 0"/><path d="m171.574219 248.761719-79.78125-39.839844c-7.292969-4.167969-16.261719-4.089844-23.480469.203125-7.867188 4.886719-12.550781 13.578125-12.3125 22.839844v32.453125c-.015625 9.449219 5.160156 18.136719 13.472656 22.625l86.734375 48c3.066407 1.679687 6.503907 2.566406 10 2.578125 3.941407-.035156 7.792969-1.144532 11.152344-3.203125 9.144531-5.929688 14.65625-16.09375 14.640625-26.992188v-30.664062c0-9.359375-1.558594-18.527344-20.425781-28zm4.425781 58.664062c-.015625 5.261719-2.566406 10.1875-6.847656 13.242188-1.554688 1.125-3.621094 1.242187-5.289063.296875l-86.726562-47.960938c-3.164063-1.699218-5.136719-4.996094-5.136719-8.585937v-32.453125c-.179688-3.617188 1.53125-7.0625 4.519531-9.105469 1.050781-.636719 2.253907-.976563 3.480469-.984375 1.546875.046875 3.058594.476562 4.398438 1.25l80 40c11.601562 5.78125 11.601562 8.566406 11.601562 13.636719zm0 0"/><path d="m208 407.964844c-4.417969 0-8 3.582031-8 8v8c0 4.417968 3.582031 8 8 8s8-3.582032 8-8v-8c0-4.417969-3.582031-8-8-8zm0 0"/><path d="m478.878906 123.914062c-.394531-.558593-.824218-1.09375-1.285156-1.597656-.460938-.410156-.941406-.792968-1.441406-1.144531l-.480469-.273437-232-120c-2.300781-1.199219-5.042969-1.199219-7.34375 0l-232 120-.488281.273437c-.496094.355469-.976563.738281-1.433594 1.144531-.289062.316406-.558594.65625-.796875 1.015625-.152344.214844-.335937.398438-.464844.625-.3125.625-.578125 1.269531-.800781 1.933594-.207031.671875-.3242188 1.371094-.34375 2.074219v224c0 2.988281 1.671875 5.730468 4.328125 7.101562l232 120c1.183594.453125 2.414063.753906 3.671875.898438 1.257812-.144532 2.488281-.445313 3.671875-.898438l232-120c2.65625-1.371094 4.328125-4.113281 4.328125-7.101562v-224c0-.714844-.101562-1.425782-.296875-2.113282-.230469-.664062-.503906-1.308593-.824219-1.9375zm-14.878906 111.183594-216 111.722656v-93.992187l216-111.71875zm-347.648438-154.175781 53.335938-27.582031 210.503906 113.105468-57.863281 29.925782-208.089844-114.351563zm123.648438-63.949219 214.585938 110.992188-57.160157 29.597656-210.515625-113.136719zm-142.871094 73.894532 208.078125 114.402343-65.207031 33.6875-214.585938-110.992187zm-81.128906 50.242187 216 111.71875v205.992187l-216-111.722656zm448 205.988281-216 111.722656v-93.992187l216-111.71875zm0 0"/></svg>