<?xml version="1.0" encoding="utf-8"?>
<!-- Generator: Adobe Illustrator 15.0.0, SVG Export Plug-In . SVG Version: 6.00 Build 0)  -->
<!DOCTYPE svg PUBLIC "-//W3C//DTD SVG 1.1//EN" "http://www.w3.org/Graphics/SVG/1.1/DTD/svg11.dtd">
<svg version="1.1" id="Layer_1" xmlns="http://www.w3.org/2000/svg" xmlns:xlink="http://www.w3.org/1999/xlink" x="0px" y="0px"
	 width="100px" height="100px" viewBox="0 0 100 100" enable-background="new 0 0 100 100" xml:space="preserve">
<g>
	<path d="M94.91,59.57H68.99v-3.32h25.92V29.33H68.99v-8.35L54.3,6.29H8.99L8.96,6.76c-2.85,42.74-0.03,86.03,0,86.471l0.03,0.47
		h85.93L94.91,59.57z M92.439,60.57L65.57,75.1L36.08,60.57H92.439z M93.91,55.25h-42.2V30.33h42.2V55.25z M54.59,8l12.689,12.69
		H54.59V8z M9.93,92.689c-0.3-4.779-2.64-45.27,0-85.399H53.6v14.4H68v7.64H50.71v26.92h17.28v3.32H33.43v8.619
		C25.88,67.99,16.73,68.2,16.64,68.2l0.02,1c0.09,0,9.23-0.22,16.77-0.011v7.641c-11.24-0.221-16.75,0.01-16.8,0.01l0.04,1
		c0.05,0,5.54-0.22,16.76-0.01v14.85H9.93V92.689z M34.43,92.689V60.87l31.15,15.35L93.9,60.9V92.68H34.43V92.689z"/>
	<path d="M62.73,48.58c2.92,0,5.299-2.38,5.299-5.3c0-2.92-2.379-5.3-5.299-5.3s-5.301,2.38-5.301,5.3
		C57.43,46.2,59.811,48.58,62.73,48.58z M62.73,38.97c2.369,0,4.299,1.93,4.299,4.3s-1.93,4.3-4.299,4.3
		c-2.371,0-4.301-1.93-4.301-4.3S60.359,38.97,62.73,38.97z"/>
	<path d="M80.01,38.73h7.2v1h-7.2V38.73z"/>
	<path d="M80.01,45.85h7.2v1h-7.2V45.85z"/>
	<path d="M80.01,42.29h7.2v1h-7.2V42.29z"/>
	<path d="M16.65,16.37h8.64v1h-8.64V16.37z"/>
	<path d="M44,24.57l0.03-1c-13.54-0.43-27.25,0-27.39,0l0.03,1C16.81,24.56,30.49,24.14,44,24.57z"/>
	<path d="M16.67,33.65l-0.02,1c0.08,0,5.56,0.13,10.65,0.13c2.57,0,5.04-0.03,6.67-0.13l-0.06-1
		C29.09,33.94,16.79,33.65,16.67,33.65z"/>
	<path d="M43.94,43.29l0.14-0.99c-8.24-1.2-27.27-0.02-27.46,0l0.06,1C16.88,43.28,35.81,42.11,43.94,43.29z"/>
	<path d="M16.65,50.93h27.36v1H16.65V50.93z"/>
	<path d="M16.65,59.57h12.96v1H16.65V59.57z"/>
	<path d="M78.641,9.07L77.71,8.39c-2.08,2.82-4.12,7.05-4.2,7.22l1.04,0.5C74.57,16.07,76.62,11.8,78.641,9.07z"/>
	<path d="M81.471,22.97c3.819-0.55,7.689-1.62,7.729-1.64l-0.31-1.11c-0.041,0.01-3.841,1.07-7.58,1.6L81.471,22.97z"/>
	<path d="M79.625,17.128l5.301-4.587l0.752,0.87l-5.3,4.587L79.625,17.128z"/>
</g>
<script  xmlns=""></script>
</svg>
