<svg enable-background="new 0 0 512 512" viewBox="0 0 512 512" xmlns="http://www.w3.org/2000/svg"><path d="m414.897 44.138h-61.793-194.207-61.794c-19.5 0-35.31 15.81-35.31 35.31v397.242c0 19.5 15.81 35.31 35.31 35.31h317.793c19.5 0 35.31-15.81 35.31-35.31v-397.242c.001-19.5-15.809-35.31-35.309-35.31z" fill="#be6e41"/><path d="m308.18 26.483c-9.454 0-18.291-4.537-23.896-12.147-6.4-8.686-16.658-14.336-28.284-14.336s-21.884 5.65-28.284 14.336c-5.606 7.609-14.442 12.147-23.896 12.147h-22.59c-12.332 0-22.334 10.002-22.334 22.334v48.287h194.207v-48.287c0-12.332-10.002-22.334-22.334-22.334z" fill="#e7eced"/><path d="m397.241 79.448h-44.138v17.655h-97.103-97.103v-17.655h-44.138c-9.754 0-17.655 7.901-17.655 17.655v361.931c0 9.754 7.901 17.655 17.655 17.655h282.483c9.754 0 17.655-7.901 17.655-17.655v-361.931c0-9.754-7.901-17.655-17.656-17.655z" fill="#f7e6a1"/><g fill="#ccbc7a"><path d="m326.621 167.724h-88.276c-4.873 0-8.828-3.946-8.828-8.828s3.955-8.828 8.828-8.828h88.276c4.873 0 8.828 3.946 8.828 8.828-.001 4.882-3.955 8.828-8.828 8.828z"/><path d="m379.586 167.724h-17.655c-4.873 0-8.828-3.946-8.828-8.828s3.955-8.828 8.828-8.828h17.655c4.873 0 8.828 3.946 8.828 8.828s-3.955 8.828-8.828 8.828z"/><path d="m264.828 203.034h-26.483c-4.873 0-8.828-3.946-8.828-8.828s3.955-8.828 8.828-8.828h26.483c4.873 0 8.828 3.946 8.828 8.828s-3.956 8.828-8.828 8.828z"/><path d="m379.586 203.034h-79.448c-4.873 0-8.828-3.946-8.828-8.828s3.955-8.828 8.828-8.828h79.448c4.873 0 8.828 3.946 8.828 8.828s-3.955 8.828-8.828 8.828z"/><path d="m326.621 291.31h-88.276c-4.873 0-8.828-3.946-8.828-8.828s3.955-8.828 8.828-8.828h88.276c4.873 0 8.828 3.946 8.828 8.828s-3.955 8.828-8.828 8.828z"/><path d="m379.586 291.31h-17.655c-4.873 0-8.828-3.946-8.828-8.828s3.955-8.828 8.828-8.828h17.655c4.873 0 8.828 3.946 8.828 8.828s-3.955 8.828-8.828 8.828z"/><path d="m264.828 326.621h-26.483c-4.873 0-8.828-3.946-8.828-8.828s3.955-8.828 8.828-8.828h26.483c4.873 0 8.828 3.946 8.828 8.828-.001 4.882-3.956 8.828-8.828 8.828z"/><path d="m379.586 326.621h-79.448c-4.873 0-8.828-3.946-8.828-8.828s3.955-8.828 8.828-8.828h79.448c4.873 0 8.828 3.946 8.828 8.828s-3.955 8.828-8.828 8.828z"/></g><path d="m238.345 35.31h35.31v35.31h-35.31z" fill="#afb6bb"/><path d="m216.991 125.237c-3.964-2.842-9.481-1.924-12.314 2.048l-38.082 53.31-19.112-19.112c-3.452-3.452-9.031-3.452-12.482 0-3.452 3.452-3.452 9.031 0 12.482l26.483 26.483c.185.185.424.247.618.406.185.159.291.388.494.53.388.274.821.415 1.227.618.3.15.574.327.883.441.989.362 1.995.591 3.01.591 1.262 0 2.489-.335 3.655-.865.38-.177.671-.459 1.024-.68.53-.335 1.103-.574 1.562-1.033.203-.203.282-.477.468-.706.141-.168.353-.23.477-.406l44.138-61.793c2.841-3.972 1.923-9.489-2.049-12.314z" fill="#25ae88"/><path d="m167.724 238.345c-20.445 0-38.886-13.921-43.855-33.095-1.218-4.723 1.615-9.534 6.329-10.761 4.732-1.28 9.534 1.615 10.761 6.329 2.931 11.326 14.442 19.871 26.765 19.871s23.834-8.545 26.765-19.871c1.218-4.705 6.02-7.574 10.761-6.329 4.723 1.218 7.556 6.038 6.338 10.761-4.97 19.174-23.419 33.095-43.864 33.095z" fill="#188462"/><path d="m150.078 146.008c-3.028 0-5.985-1.562-7.627-4.361-2.463-4.211-1.05-9.622 3.151-12.085 9.887-5.782 22.131-7.442 33.165-4.573 4.723 1.227 7.548 6.047 6.321 10.77-1.227 4.714-6.02 7.574-10.761 6.321-6.568-1.695-13.912-.724-19.809 2.728-1.386.812-2.931 1.2-4.44 1.2z" fill="#188462"/><path d="m167.724 335.448c-19.474 0-35.31-15.837-35.31-35.31s15.837-35.31 35.31-35.31 35.31 15.837 35.31 35.31-15.836 35.31-35.31 35.31zm0-52.965c-9.737 0-17.655 7.918-17.655 17.655s7.918 17.655 17.655 17.655 17.655-7.918 17.655-17.655-7.918-17.655-17.655-17.655z" fill="#dd352e"/><path d="m326.621 397.241h-88.276c-4.873 0-8.828-3.946-8.828-8.828s3.955-8.828 8.828-8.828h88.276c4.873 0 8.828 3.946 8.828 8.828-.001 4.882-3.955 8.828-8.828 8.828z" fill="#ccbc7a"/><path d="m379.586 397.241h-17.655c-4.873 0-8.828-3.946-8.828-8.828s3.955-8.828 8.828-8.828h17.655c4.873 0 8.828 3.946 8.828 8.828s-3.955 8.828-8.828 8.828z" fill="#ccbc7a"/><path d="m264.828 432.552h-26.483c-4.873 0-8.828-3.946-8.828-8.828s3.955-8.828 8.828-8.828h26.483c4.873 0 8.828 3.946 8.828 8.828-.001 4.882-3.956 8.828-8.828 8.828z" fill="#ccbc7a"/><path d="m379.586 432.552h-79.448c-4.873 0-8.828-3.946-8.828-8.828s3.955-8.828 8.828-8.828h79.448c4.873 0 8.828 3.946 8.828 8.828s-3.955 8.828-8.828 8.828z" fill="#ccbc7a"/><path d="m167.724 441.379c-19.474 0-35.31-15.837-35.31-35.31s15.837-35.31 35.31-35.31 35.31 15.837 35.31 35.31-15.836 35.31-35.31 35.31zm0-52.965c-9.737 0-17.655 7.918-17.655 17.655s7.918 17.655 17.655 17.655 17.655-7.918 17.655-17.655-7.918-17.655-17.655-17.655z" fill="#dd352e"/></svg>