<?xml version="1.0" encoding="utf-8"?>
<!-- Generator: Adobe Illustrator 15.0.0, SVG Export Plug-In . SVG Version: 6.00 Build 0)  -->
<!DOCTYPE svg PUBLIC "-//W3C//DTD SVG 1.1//EN" "http://www.w3.org/Graphics/SVG/1.1/DTD/svg11.dtd">
<svg version="1.1" id="Layer_1" xmlns="http://www.w3.org/2000/svg" xmlns:xlink="http://www.w3.org/1999/xlink" x="0px" y="0px"
	 width="100px" height="100px" viewBox="0 0 100 100" enable-background="new 0 0 100 100" xml:space="preserve">
<g>
	<path d="M85.98,6.29h-72c-7.61,0-7.7,7.62-7.7,7.7v72c0,7.609,7.62,7.699,7.7,7.699h72c7.609,0,7.699-7.619,7.699-7.699v-72
		C93.68,6.38,86.061,6.29,85.98,6.29z M7.28,21.83c3.02,0.11,19.97,0.68,43.14,0.68c12.65,0,27.16-0.17,42.26-0.68v49.39H7.28V21.83
		z M13.98,7.29h72c0.27,0,6.699,0.1,6.699,6.7v6.83c-42.85,1.44-80.9,0.16-85.4,0v-6.83C7.28,13.72,7.38,7.29,13.98,7.29z
		 M85.98,92.689h-72c-0.27,0-6.7-0.08-6.7-6.699V72.22h85.4V85.99C92.68,86.26,92.59,92.689,85.98,92.689z"/>
	<path d="M16.27,17.01c1.52,0,2.75-1.229,2.75-2.75c0-1.52-1.23-2.75-2.75-2.75s-2.75,1.23-2.75,2.75
		C13.52,15.78,14.75,17.01,16.27,17.01z M16.27,12.51c0.96,0,1.75,0.79,1.75,1.75s-0.79,1.75-1.75,1.75s-1.75-0.79-1.75-1.75
		S15.3,12.51,16.27,12.51z"/>
	<path d="M23.47,17.01c1.52,0,2.75-1.229,2.75-2.75c0-1.52-1.23-2.75-2.75-2.75s-2.75,1.23-2.75,2.75
		C20.72,15.78,21.95,17.01,23.47,17.01z M23.47,12.51c0.96,0,1.75,0.79,1.75,1.75s-0.79,1.75-1.75,1.75c-0.96,0-1.75-0.79-1.75-1.75
		S22.5,12.51,23.47,12.51z"/>
	<path d="M30.67,17.01c1.52,0,2.75-1.229,2.75-2.75c0-1.52-1.23-2.75-2.75-2.75s-2.75,1.23-2.75,2.75
		C27.92,15.78,29.15,17.01,30.67,17.01z M30.67,12.51c0.96,0,1.75,0.79,1.75,1.75s-0.79,1.75-1.75,1.75s-1.75-0.79-1.75-1.75
		S29.7,12.51,30.67,12.51z"/>
	<path d="M14.02,78.42h71.83v1H14.02V78.42z"/>
	<path d="M14.02,85.54h71.83v1H14.02V85.54z"/>
	<path d="M14.02,81.98h71.83v1H14.02V81.98z"/>
	<path d="M32.59,32.81l-15.73,13.7l15.73,13.7l0.65-0.75L18.38,46.51l14.86-12.94L32.59,32.81z"/>
	<path d="M68.67,32.81l-0.66,0.76l14.87,12.94L68.01,59.46l0.66,0.75l15.73-13.7L68.67,32.81z"/>
	<path d="M41.23,64.84l0.93,0.37c7.33-18.47,17.35-37.18,17.449-37.36l-0.879-0.47C58.63,27.56,48.59,46.32,41.23,64.84z"/>
</g>
<script  xmlns=""></script>
</svg>
