<?xml version="1.0" encoding="utf-8"?>
<!-- Generator: Adobe Illustrator 15.0.0, SVG Export Plug-In . SVG Version: 6.00 Build 0)  -->
<!DOCTYPE svg PUBLIC "-//W3C//DTD SVG 1.1//EN" "http://www.w3.org/Graphics/SVG/1.1/DTD/svg11.dtd">
<svg version="1.1" xmlns="http://www.w3.org/2000/svg" xmlns:xlink="http://www.w3.org/1999/xlink" x="0px" y="0px" width="100px"
	 height="100px" viewBox="0 0 100 100" enable-background="new 0 0 100 100" xml:space="preserve">
<g id="Layer_1" display="none">
	<g display="inline">
		<path fill="#FF7003" d="M85.87,6.29h-72c-7.61,0-7.7,7.62-7.7,7.7v72c0,7.609,7.62,7.699,7.7,7.699H43.7v-1H13.87
			c-0.27,0-6.7-0.1-6.7-6.699V21.83c3.34,0.16,23.56,1.06,46.96,1.06c12.62,0,26.149-0.27,38.44-1.05v64.15
			c0,0.27-0.1,6.699-6.7,6.699H56.2v1h29.67c7.61,0,7.7-7.619,7.7-7.699v-72C93.57,6.38,85.95,6.29,85.87,6.29z M7.17,20.83v-6.84
			c0-0.271,0.1-6.7,6.7-6.7h72c0.271,0,6.7,0.1,6.7,6.7v6.85C57.439,23.1,12.1,21.06,7.17,20.83z"/>
		<path fill="#FF7003" d="M16.16,11.51c-1.52,0-2.75,1.23-2.75,2.75c0,1.521,1.23,2.75,2.75,2.75s2.75-1.229,2.75-2.75
			C18.91,12.74,17.67,11.51,16.16,11.51z M16.16,16.01c-0.96,0-1.75-0.79-1.75-1.75s0.79-1.75,1.75-1.75s1.75,0.79,1.75,1.75
			S17.12,16.01,16.16,16.01z"/>
		<path fill="#FF7003" d="M23.36,11.51c-1.52,0-2.75,1.23-2.75,2.75c0,1.521,1.23,2.75,2.75,2.75s2.75-1.229,2.75-2.75
			C26.11,12.74,24.87,11.51,23.36,11.51z M23.36,16.01c-0.96,0-1.75-0.79-1.75-1.75s0.79-1.75,1.75-1.75s1.75,0.79,1.75,1.75
			S24.32,16.01,23.36,16.01z"/>
		<path fill="#FF7003" d="M30.56,11.51c-1.52,0-2.75,1.23-2.75,2.75c0,1.521,1.23,2.75,2.75,2.75s2.75-1.229,2.75-2.75
			C33.31,12.74,32.07,11.51,30.56,11.51z M30.56,16.01c-0.96,0-1.75-0.79-1.75-1.75s0.79-1.75,1.75-1.75s1.75,0.79,1.75,1.75
			S31.52,16.01,30.56,16.01z"/>
		<path fill="#FF7003" d="M46.42,33.47c0.34,1.64,1.8,2.87,3.53,2.87c1.739,0,3.19-1.23,3.54-2.87
			C66.33,35.19,75.93,45.98,76.15,58.99c-1.75,0.25-3.101,1.74-3.101,3.56c0,1.99,1.62,3.61,3.61,3.61s3.609-1.62,3.609-3.61
			c0-1.819-1.359-3.319-3.119-3.56c-0.2-12.24-8.41-22.59-19.86-25.76H70.9v2.67h6.779v-6.78H70.9v3.11H53.51
			c-0.25-1.75-1.74-3.11-3.56-3.11c-1.82,0-3.32,1.36-3.56,3.11H29.01v-3.11h-6.78v6.78h6.78v-2.67h13.62
			C31.18,36.41,22.95,46.8,22.75,58.99c-1.76,0.24-3.13,1.74-3.13,3.56c0,1.99,1.62,3.61,3.61,3.61c1.99,0,3.61-1.62,3.61-3.61
			c0-1.81-1.35-3.31-3.09-3.56C23.97,46.04,33.6,35.2,46.42,33.47z M79.27,62.55c0,1.44-1.17,2.61-2.609,2.61s-2.61-1.17-2.61-2.61
			s1.171-2.61,2.61-2.61S79.27,61.109,79.27,62.55z M71.891,30.12h4.779v4.78h-4.779V30.12z M28.01,34.9h-4.78v-4.78h4.78V34.9z
			 M49.95,30.12c1.44,0,2.61,1.17,2.61,2.61s-1.17,2.61-2.61,2.61s-2.61-1.17-2.61-2.61S48.51,30.12,49.95,30.12z M25.84,62.55
			c0,1.44-1.17,2.61-2.61,2.61s-2.61-1.17-2.61-2.61s1.17-2.61,2.61-2.61S25.84,61.109,25.84,62.55z"/>
		<path fill="#FF7003" d="M58.029,72.3v-7.64H54.87l4-11.5l-7.64-13.1h-2.98l-7.63,13.1l3.94,11.5h-2.89v7.64h2.16v25.4h12.25V72.3
			H58.029z M41.72,53.27l7.11-12.209h1.83l7.119,12.2l-3.969,11.4H50.25V53.359h2.811v-1h-6.21v1h2.39V64.66h-3.63L41.72,53.27z
			 M42.67,71.3v-5.64h2.23h9.62h2.5v5.64h-0.959H43.83H42.67z M55.07,96.7H44.83V72.3h10.25v24.4H55.07z"/>
		<path fill="#FF7003" d="M49.46,86.18l0.99,0.16c0.8-4.81-0.06-10.96-0.1-11.22l-0.99,0.14C49.36,75.33,50.23,81.52,49.46,86.18z"
			/>
	</g>
	<script  xmlns=""></script>
</g>
<g id="Layer_2">
	<path fill="none" stroke="#000000" stroke-miterlimit="10" d="M21.748,78.253c-7.23-7.187-11.706-17.142-11.706-28.142
		c0-5.784,1.237-11.279,3.462-16.234"/>
	<path fill="none" stroke="#000000" stroke-miterlimit="10" d="M85.998,34.01c2.188,4.92,3.402,10.369,3.402,16.101
		c0,10.997-4.473,20.947-11.697,28.132"/>
	<path fill="none" stroke="#000000" stroke-miterlimit="10" d="M25.954,18.334c0.25-0.187,0.502-0.371,0.756-0.553
		c6.49-4.628,14.433-7.35,23.011-7.35c8.656,0,16.666,2.772,23.188,7.477"/>
	<path fill="none" stroke="#000000" stroke-miterlimit="10" d="M81.436,97.402c0-22.481-14.215-37.299-31.748-37.299
		c-17.535,0-31.634,14.752-31.634,37.231c0,0,14.8-0.049,32.334-0.049C67.922,97.286,81.436,97.402,81.436,97.402z"/>
	<path fill="none" stroke="#000000" stroke-miterlimit="10" d="M96.684,33.593c0-10.815-6.839-17.944-15.275-17.944
		s-15.22,7.097-15.22,17.913c0,0,7.121-0.023,15.558-0.023C90.182,33.538,96.684,33.593,96.684,33.593z"/>
	<path fill="none" stroke="#000000" stroke-miterlimit="10" d="M33.301,33.593c0-10.815-6.839-17.944-15.275-17.944
		c-8.437,0-15.22,7.097-15.22,17.913c0,0,7.121-0.023,15.558-0.023C26.799,33.538,33.301,33.593,33.301,33.593z"/>
	<circle fill="none" stroke="#000000" stroke-miterlimit="10" cx="18.054" cy="9.005" r="6.295"/>
	<circle fill="none" stroke="#000000" stroke-miterlimit="10" cx="81.435" cy="9.005" r="6.294"/>
	<circle fill="none" stroke="#000000" stroke-miterlimit="10" cx="49.658" cy="47.486" r="12.311"/>
	<path fill="none" stroke="#000000" stroke-miterlimit="10" d="M46.844,54.979c0,0,6.208,2.598,8.537-3.659"/>
	<path fill="none" stroke="#000000" stroke-miterlimit="10" d="M10.042,84.735c0,0-3.976-0.368-6.567,2.342"/>
	<line fill="none" stroke="#000000" stroke-miterlimit="10" x1="12.629" y1="89.459" x2="8.151" y2="92.787"/>
	<path fill="none" stroke="#000000" stroke-miterlimit="10" d="M86.706,75.435c0,0,2.384,3.202,6.131,3.318"/>
	<line fill="none" stroke="#000000" stroke-miterlimit="10" x1="88.838" y1="70.7" x2="94.307" y2="71.807"/>
</g>
<g id="Layer_3">
</g>
</svg>
