<svg enable-background="new 0 0 512 512" viewBox="0 0 512 512" xmlns="http://www.w3.org/2000/svg"><path d="m246.583 267.358-45.441-11.36h-128l-45.441 11.36c-16.28 4.07-27.701 18.698-27.701 35.479v172.59c0 5.049 4.093 9.143 9.143 9.143h256c5.049 0 9.143-4.093 9.143-9.143v-172.589c0-16.782-11.422-31.41-27.703-35.48z" fill="#0096dc"/><path d="m246.583 267.357-28.774-7.193c-5.593 13.661-26.958 59.135-75.419 92.87-3.146 2.19-7.349 2.19-10.495 0-48.461-33.735-69.825-79.208-75.419-92.87l-28.775 7.194c-16.28 4.07-27.701 18.698-27.701 35.479v172.589c0 5.049 4.093 9.143 9.143 9.143h265.143v-181.731c0-16.782-11.422-31.411-27.703-35.481z" fill="#b48764"/><path d="m91.43 210.28h91.43v54.857h-91.43z" fill="#d29b6e"/><path d="m219.429 118.855v-27.428c0-35.347-28.654-64-64-64h-36.571c-35.346 0-64 28.653-64 64v27.429c-10.099 0-18.286 8.186-18.286 18.286 0 10.099 8.187 18.286 18.286 18.286 0 45.445 36.84 82.286 82.286 82.286s82.286-36.84 82.286-82.286c10.099 0 18.286-8.187 18.286-18.286-.002-10.1-8.189-18.287-18.287-18.287z" fill="#f0c087"/><path d="m100.571 155.427v-64c0-33.803 26.225-61.416 59.429-63.769-1.516-.108-3.028-.231-4.571-.231h-36.571c-35.346 0-64 28.653-64 64v27.429c-10.099 0-18.286 8.186-18.286 18.286 0 10.099 8.187 18.286 18.286 18.286 0 45.445 36.84 82.286 82.286 82.286 7.94 0 15.593-1.186 22.857-3.285-34.313-9.915-59.43-41.497-59.43-79.002z" fill="#e6af78"/><path d="m137.143 201.141c-9.679 0-18.929-4.563-25.384-12.527-3.188-3.92-2.58-9.679 1.339-12.857 3.929-3.188 9.688-2.589 12.857 1.339 6.036 7.429 16.339 7.429 22.375 0 3.17-3.929 8.92-4.527 12.857-1.339 3.92 3.179 4.527 8.938 1.339 12.857-6.455 7.964-15.705 12.527-25.383 12.527z" fill="#d29b6e"/><path d="m100.571 155.427c-5.054 0-9.143-4.089-9.143-9.143v-9.143c0-5.054 4.089-9.143 9.143-9.143s9.143 4.089 9.143 9.143v9.143c0 5.053-4.089 9.143-9.143 9.143z" fill="#64463c"/><path d="m173.714 155.427c-5.054 0-9.143-4.089-9.143-9.143v-9.143c0-5.054 4.089-9.143 9.143-9.143s9.143 4.089 9.143 9.143v9.143c0 5.053-4.089 9.143-9.143 9.143z" fill="#64463c"/><path d="m73.143 66.284c0-10.099-8.187-18.286-18.286-18.286s-18.286 8.186-18.286 18.286c0 3.725 1.127 7.181 3.04 10.071-9.64 2.684-16.754 11.433-16.754 21.929 0 12.623 10.233 22.857 22.857 22.857s22.857-10.234 22.857-22.857c0-5.969-2.342-11.357-6.088-15.427 6.278-2.897 10.66-9.206 10.66-16.573z" fill="#d5dced"/><path d="m201.143 66.284c0-10.099 8.187-18.286 18.286-18.286s18.286 8.186 18.286 18.286c0 3.725-1.127 7.181-3.04 10.071 9.64 2.684 16.754 11.433 16.754 21.929 0 12.623-10.233 22.857-22.857 22.857s-22.857-10.234-22.857-22.857c0-5.969 2.342-11.357 6.088-15.427-6.278-2.897-10.66-9.206-10.66-16.573z" fill="#d5dced"/><path d="m41.468 315.752-34.396-34.396c-4.438 6.094-7.072 13.522-7.072 21.481v172.59c0 5.049 4.093 9.143 9.143 9.143h45.714v-136.494c0-12.124-4.816-23.751-13.389-32.324z" fill="#0096dc"/><path d="m232.818 315.752 34.396-34.396c4.438 6.094 7.072 13.522 7.072 21.481v181.733h-54.857v-136.494c0-12.124 4.816-23.751 13.389-32.324z" fill="#0096dc"/><path d="m137.143 329.141c-5.049 0-9.143-4.093-9.143-9.143v-54.857h18.286v54.857c0 5.05-4.094 9.143-9.143 9.143z" fill="#007dc3"/><path d="m90.463 241.801 46.68 23.34-20.347 27.13c-3.586 4.781-10.72 4.893-14.454.226l-29.199-36.499 5.054-10.108c2.258-4.516 7.75-6.347 12.266-4.089z" fill="#00aaf0"/><path d="m183.822 241.801-46.68 23.34 20.347 27.13c3.586 4.781 10.72 4.893 14.454.226l29.199-36.499-5.054-10.108c-2.257-4.516-7.749-6.347-12.266-4.089z" fill="#00aaf0"/><path d="m448 246.855c15.148 0 27.429 12.28 27.429 27.429 0 .558-.131 1.079-.164 1.629 10.713 3.733 18.45 13.814 18.45 25.8 0 15.148-12.28 27.429-27.429 27.429h-45.714v-54.857c-.001-15.15 12.28-27.43 27.428-27.43z" fill="#c7cfe2"/><path d="m320 246.855c-15.148 0-27.429 12.28-27.429 27.429 0 .558.131 1.079.164 1.629-10.713 3.733-18.45 13.814-18.45 25.8 0 15.148 12.28 27.429 27.429 27.429h45.714v-54.857c.001-15.15-12.28-27.43-27.428-27.43z" fill="#c7cfe2"/><path d="m483.263 326.789-51.198-20.479c-5.206-2.083-9.068-6.386-10.675-11.561l-.819-20.465h-73.143l-.82 20.465c-1.605 5.176-5.468 9.479-10.675 11.561l-51.198 20.479c-17.354 6.942-28.735 23.752-28.735 42.445v106.196c0 5.05 4.093 9.143 9.143 9.143l237.714-.004c5.049 0 9.143-4.093 9.143-9.143v-106.192c0-18.693-11.381-35.503-28.737-42.445z" fill="#966d50"/><path d="m483.263 326.785-40.007-16.003c-14.256 16.805-35.495 27.498-59.256 27.498-23.762 0-45.001-10.694-59.256-27.498l-40.007 16.003c-17.356 6.942-28.737 23.752-28.737 42.445v106.196c0 5.05 4.094 9.143 9.143 9.143l237.714-.003c5.049 0 9.143-4.093 9.143-9.143v-106.193c0-18.693-11.381-35.503-28.737-42.445z" fill="#ffdc64"/><circle cx="384" cy="164.57" fill="#d5dced" r="100.57"/><path d="m347.429 164.57c0-44.343 28.734-81.906 68.571-95.283-10.063-3.379-20.799-5.288-32-5.288-55.544 0-100.571 45.027-100.571 100.571s45.027 100.571 100.571 100.571c11.201 0 21.938-1.908 32-5.288-39.837-13.378-68.571-50.94-68.571-95.283z" fill="#c7cfe2"/><path d="m384 301.712c-45.445 0-82.286-36.841-82.286-82.286v-30.435c0-3.699 2.339-6.86 5.722-8.354 16.068-7.096 28.418-19.897 34.91-27.71 2.895-3.484 7.94-4.32 11.694-1.783 45.813 30.952 112.245 24.286 112.245 59.139v9.143c.001 45.446-36.84 82.286-82.285 82.286z" fill="#c39772"/><path d="m347.429 219.427v-69.494c-1.921.406-3.741 1.382-5.081 2.996-6.493 7.813-18.843 20.614-34.91 27.71-3.384 1.494-5.723 4.655-5.723 8.354v30.435c0 45.445 36.84 82.286 82.286 82.286 7.94 0 15.593-1.186 22.857-3.285-34.313-9.915-59.429-41.497-59.429-79.002z" fill="#b48764"/><path d="m384 265.141c-9.679 0-18.929-4.563-25.384-12.527-3.188-3.92-2.58-9.679 1.339-12.857 3.929-3.196 9.679-2.589 12.857 1.339 6.036 7.429 16.339 7.429 22.375 0 3.17-3.929 8.92-4.536 12.857-1.339 3.92 3.179 4.527 8.938 1.339 12.857-6.454 7.964-15.704 12.527-25.383 12.527z" fill="#966d50"/><path d="m365.705 219.427c-1.75 0-3.509-.5-5.071-1.545-4.196-2.804-5.33-8.482-2.518-12.679 5.527-8.268 15.196-13.205 25.884-13.205 10.679 0 20.357 4.929 25.884 13.188 2.813 4.196 1.688 9.875-2.509 12.688-4.196 2.804-9.875 1.688-12.688-2.509-4.196-6.268-17.179-6.268-21.375 0-1.758 2.633-4.651 4.062-7.607 4.062z" fill="#707487"/><path d="m347.429 237.712c-15.125 0-27.429-12.304-27.429-27.429s12.304-27.429 27.429-27.429 27.429 12.304 27.429 27.429-12.304 27.429-27.429 27.429z" fill="#7f8499"/><path d="m420.571 237.712c-15.125 0-27.429-12.304-27.429-27.429s12.304-27.429 27.429-27.429 27.429 12.305 27.429 27.43-12.304 27.428-27.429 27.428z" fill="#7f8499"/><path d="m420.571 201.141c-5.045 0-9.143 4.098-9.143 9.143s4.098 9.143 9.143 9.143 9.143-4.098 9.143-9.143-4.098-9.143-9.143-9.143z" fill="#fff"/><path d="m347.429 201.141c-5.045 0-9.143 4.098-9.143 9.143s4.098 9.143 9.143 9.143 9.143-4.098 9.143-9.143-4.099-9.143-9.143-9.143z" fill="#fff"/><g fill="#ffc850"><path d="m293.681 375.964-30.749-30.749c-4.383 7.078-6.932 15.316-6.932 24.014v106.197c0 5.049 4.093 9.143 9.143 9.143l36.571-.001v-89.21c0-7.273-2.89-14.25-8.033-19.394z"/><path d="m474.319 375.964 30.749-30.749c4.383 7.078 6.932 15.316 6.932 24.014v106.197c0 5.049-4.093 9.143-9.143 9.143l-36.571-.001v-89.21c0-7.273 2.89-14.25 8.033-19.394z"/><path d="m384 365.712c35.029 0 65.844-17.93 83.852-45.092l-24.595-9.838c-14.257 16.805-35.496 27.498-59.257 27.498-23.762 0-45.001-10.694-59.256-27.498l-24.595 9.838c18.007 27.162 48.822 45.092 83.851 45.092z"/></g></svg>