<svg enable-background="new 0 0 64 64" height="512" viewBox="0 0 64 64" width="512" xmlns="http://www.w3.org/2000/svg"><g fill="#f0bc5e"><path d="m22 62h-18c-1.105 0-2-.895-2-2v-9h22v9c0 1.105-.895 2-2 2z"/><path d="m60 62h-18c-1.105 0-2-.895-2-2v-9h22v9c0 1.105-.895 2-2 2z"/><path d="m48 8c-.782 0-1.562.094-2.33.279-2.176-4.45-6.664-7.279-11.67-7.279-4.015 0-7.808 1.872-10.267 5.037-.252-.024-.495-.037-.733-.037-2.895 0-5.548 1.57-6.958 4.06-.346-.039-.694-.06-1.042-.06-4.963 0-9 4.037-9 9s4.037 9 9 9h7v-2c0-1.105.895-2 2-2v-4c-1.105 0-2-.895-2-2v-2c0-1.105.895-2 2-2h16c1.105 0 2 .895 2 2v2c0 1.105-.895 2-2 2v4c1.105 0 2 .895 2 2v2h6c5.514 0 10-4.486 10-10s-4.486-10-10-10z"/></g><path d="m15 47h6v2h-6z"/><path d="m60 43h-7.171c-.801 0-1.555.312-2.122.879l-3.121 3.121h-5.586c-1.654 0-3 1.346-3 3v4h-4.184c-.302-.847-.969-1.514-1.816-1.816v-11.184h7c1.654 0 3-1.346 3-3v-2c0-1.302-.839-2.402-2-2.816v-2.369c1.161-.414 2-1.514 2-2.816v-2c0-1.302-.839-2.402-2-2.816v-2.369c1.161-.414 2-1.514 2-2.816v-2c0-1.654-1.346-3-3-3h-16c-1.654 0-3 1.346-3 3v2c0 1.302.839 2.402 2 2.816v2.369c-1.161.414-2 1.514-2 2.816v2c0 1.302.839 2.402 2 2.816v2.369c-1.161.414-2 1.514-2 2.816v2c0 1.654 1.346 3 3 3h7v11.184c-.847.302-1.514.969-1.816 1.816h-4.184v-8c0-1.654-1.346-3-3-3h-7.171c-.801 0-1.555.312-2.122.879l-3.121 3.121h-5.586c-1.654 0-3 1.346-3 3v10c0 1.654 1.346 3 3 3h18c1.654 0 3-1.346 3-3v-4h4.184c.414 1.161 1.514 2 2.816 2s2.402-.839 2.816-2h4.184v4c0 1.654 1.346 3 3 3h18c1.654 0 3-1.346 3-3v-14c0-1.654-1.346-3-3-3zm-21-12v2h-14v-2zm0-10v2h-14v-2zm-16-5c0-.551.449-1 1-1h16c.551 0 1 .449 1 1v2c0 .551-.449 1-1 1h-16c-.551 0-1-.449-1-1zm0 10c0-.551.449-1 1-1h16c.551 0 1 .449 1 1v2c0 .551-.449 1-1 1h-16c-.551 0-1-.449-1-1zm0 12v-2c0-.552.449-1 1-1h16c.551 0 1 .448 1 1v2c0 .552-.449 1-1 1h-16c-.551 0-1-.448-1-1zm0 22c0 .552-.449 1-1 1h-18c-.551 0-1-.448-1-1v-10c0-.552.449-1 1-1h6.414l3.707-3.707c.189-.189.441-.293.708-.293h7.171c.551 0 1 .448 1 1zm9-4c-.551 0-1-.448-1-1s.449-1 1-1 1 .448 1 1-.449 1-1 1zm29 4c0 .552-.449 1-1 1h-18c-.551 0-1-.448-1-1v-10c0-.552.449-1 1-1h6.414l3.707-3.707c.189-.189.441-.293.708-.293h7.171c.551 0 1 .448 1 1z"/><path d="m53 47h6v2h-6z"/><path d="m54 18c0-3.309-2.691-6-6-6v2c2.206 0 4 1.794 4 4s-1.794 4-4 4v2c3.309 0 6-2.691 6-6z"/><path d="m15 16v-2c-2.757 0-5 2.243-5 5h2c0-1.654 1.346-3 3-3z"/><path d="m34 7c1.87 0 3.627.728 4.95 2.05l1.414-1.414c-1.7-1.7-3.96-2.636-6.364-2.636s-4.664.936-6.364 2.636l1.414 1.414c1.323-1.322 3.08-2.05 4.95-2.05z"/><path d="m5 30.414v9.586h2v-9.586l2.293 2.293 1.414-1.414-4.707-4.707-4.707 4.707 1.414 1.414z"/><path d="m5 42h2v2h-2z"/><path d="m53.293 36.707 4.707 4.707 4.707-4.707-1.414-1.414-2.293 2.293v-9.586h-2v9.586l-2.293-2.293z"/><path d="m57 24h2v2h-2z"/></svg>