<svg enable-background="new 0 0 512 512" viewBox="0 0 512 512" xmlns="http://www.w3.org/2000/svg"><path d="m291.623 360.465 54.385-51.081-21.592-4.011c-10.422-2.094-17.919-14.184-17.919-24.814v-47.37h-50.497-50.496v47.37c0 10.63-7.498 22.719-17.919 24.814l-21.592 4.011 54.385 51.081c20.024 18.809 51.22 18.809 71.245 0z" fill="#ffe7cf"/><path d="m282.038 233.189v71.828c0 10.63 7.498 22.719 17.919 24.814l18.609 5.327 27.441-25.774-21.592-4.011c-10.422-2.094-17.919-14.184-17.919-24.814v-47.37z" fill="#f4d5ba"/><path d="m319.041 302.776-63.041 47.118-63.041-47.119c-3.38-2.526-7.759-3.298-11.799-2.079l-105.91 31.956c-11.395 3.438-19.864 13.027-21.868 24.76l-23.334 136.604c-1.606 9.401 5.636 17.984 15.172 17.984h421.56c9.537 0 16.778-8.583 15.172-17.984l-23.333-136.604c-2.004-11.733-10.473-21.322-21.868-24.76l-105.91-31.956c-4.041-1.218-8.42-.447-11.8 2.08z" fill="#24d9de"/><path d="m181.16 300.697-18.22 5.497 40.211 56.268c3.165 4.429 8.982 6.066 13.993 3.938l38.856-16.505-63.041-47.119c-3.38-2.527-7.759-3.298-11.799-2.079z" fill="#d0d1d2"/><path d="m294.856 366.4c5.011 2.129 10.828.492 13.993-3.938l40.211-56.268-.097-.029-18.123-5.468c-4.04-1.219-8.419-.447-11.799 2.079l-63.041 47.118z" fill="#d0d1d2"/><path d="m256 349.894-30.556 12.981 17.863 20.765h25.386l17.863-20.765z" fill="#f9644b"/><path d="m268.693 383.639h-12.693-12.693l-23.443 128.361h72.272z" fill="#f9644b"/><path d="m256 488.169s-70.8-188.691-74.84-187.472l-105.91 31.955c-11.395 3.438-19.864 13.027-21.868 24.76l-23.334 136.604c-1.606 9.401 5.636 17.984 15.172 17.984h421.56c9.537 0 16.778-8.583 15.172-17.984l-23.333-136.604c-2.004-11.733-10.473-21.322-21.868-24.76l-105.91-31.956c-4.041-1.218-74.841 187.473-74.841 187.473z" fill="#e1effb"/><path d="m481.952 494.016-23.334-136.604c-2.004-11.733-10.473-21.321-21.868-24.76l-105.91-31.956c-1.098-.331-7.13 13.372-15.331 33.502l76.812 23.176c5.806 1.752 10.121 6.637 11.142 12.615l24.257 142.011h39.059c9.537 0 16.779-8.584 15.173-17.984z" fill="#caddea"/><path d="m368.586 405.316c-4.266 0-7.724-3.458-7.724-7.724v-87.67c0-29.3-22.904-53.333-52.142-54.714-4.261-.201-7.552-3.818-7.351-8.079s3.82-7.549 8.079-7.351c37.493 1.77 66.861 32.58 66.861 70.143v87.67c0 4.267-3.458 7.725-7.723 7.725z" fill="#44798c"/><path d="m143.414 348.157c-4.266 0-7.724-3.458-7.724-7.724v-30.512c0-37.459 29.284-68.266 66.668-70.134 4.272-.222 7.887 3.068 8.1 7.328s-3.068 7.887-7.328 8.099c-29.154 1.457-51.992 25.487-51.992 54.707v30.512c0 4.267-3.458 7.724-7.724 7.724z" fill="#44798c"/><circle cx="368.5" cy="402.67" fill="#1785b8" r="32.24"/><circle cx="368.5" cy="402.67" fill="#e1effb" r="14.204"/><path d="m168.958 465.94h-9.63c-4.266 0-7.724-3.458-7.724-7.724s3.458-7.724 7.724-7.724h9.63c1.163 0 2.283-.49 3.072-1.343.789-.854 1.191-2.008 1.101-3.166l-5.628-72.212c-.2-2.56-.808-5.056-1.808-7.416-3.566-8.418-12.019-13.832-21.567-13.832-.059 0-.118 0-.178.001l-1.272.009c-9.825.069-18.61 6.051-21.863 14.885-.751 2.041-1.218 4.179-1.388 6.353l-5.626 72.211c-.091 1.16.31 2.313 1.099 3.166.79.855 1.91 1.344 3.072 1.344h9.63c4.266 0 7.724 3.458 7.724 7.724s-3.458 7.724-7.724 7.724h-9.63c-5.455 0-10.708-2.297-14.411-6.301-3.704-4.003-5.586-9.418-5.161-14.858l5.626-72.21c.28-3.589 1.051-7.118 2.293-10.489 5.463-14.836 20.03-24.881 36.25-24.995l1.272-.009c.096 0 .192-.001.288-.001 15.768 0 29.795 9.103 35.789 23.253 1.652 3.897 2.656 8.016 2.986 12.242l5.627 72.211c.424 5.437-1.457 10.852-5.162 14.857-3.703 4.004-8.956 6.3-14.411 6.3z" fill="#2c5871"/><path d="m166.884 163.507v-28.899h-17.628c-8.383 0-15.178 6.795-15.178 15.178v11.739c0 8.383 6.795 15.178 15.178 15.178h17.628z" fill="#f4d5ba"/><path d="m362.744 134.608h-17.628v28.899 13.196h17.628c8.383 0 15.178-6.795 15.178-15.178v-11.739c0-8.382-6.795-15.178-15.178-15.178z" fill="#f4d5ba"/><path d="m320.801 36.18c-15.203-13.09-36.573-12.24-64.801-12.555-28.228.315-49.598-.536-64.801 12.554-19.39 16.696-29.896 41.491-29.896 67.08v74.381c0 25.589 32.161 93.462 94.696 93.462s94.696-67.873 94.696-93.462v-74.38c.001-25.589-10.504-50.384-29.894-67.08z" fill="#ffe7cf"/><path d="m320.801 36.18c-6.038-5.199-13.054-8.194-21.082-9.942 0 .038.001.072.001.111v151.292c0 21.844-23.443 74.496-69.208 89.439 7.844 2.561 16.338 4.023 25.488 4.023 62.535 0 94.696-67.873 94.696-93.462v-74.381c0-25.589-10.505-50.384-29.895-67.08z" fill="#f4d5ba"/><path d="m312.969 0h-56.969-56.969c-29.317 0-53.083 23.766-53.083 53.083v87.143s14.617-.331 24.01 8.965c1.956 1.936 5.28.521 5.28-2.231v-71.303c0-12.958 10.505-23.463 23.463-23.463h21.32c5.592 0 11.011 1.933 15.34 5.472l2.091 1.71c5.234 4.279 11.786 6.616 18.547 6.616 6.76 0 13.313-2.338 18.547-6.616l2.091-1.71c4.329-3.539 9.749-5.472 15.34-5.472h21.32c12.958 0 23.463 10.505 23.463 23.463v71.304c0 2.752 3.324 4.167 5.28 2.231 9.393-9.296 24.01-8.965 24.01-8.965v-87.144c.001-29.317-23.765-53.083-53.081-53.083z" fill="#ffb125"/><path d="m312.969 0h-50.976c29.043 0 52.624 23.327 53.062 52.266 12.137.899 21.706 11.024 21.706 23.391v71.304c0 2.752 3.324 4.167 5.28 2.231 9.393-9.296 24.01-8.965 24.01-8.965v-87.144c0-29.317-23.766-53.083-53.082-53.083z" fill="#ff901d"/></svg>