<svg enable-background="new 0 0 472.038 472.038" viewBox="0 0 472.038 472.038" xmlns="http://www.w3.org/2000/svg"><circle cx="236.019" cy="48.038" fill="#b3ebff" r="48"/><path d="m85.957 173.991c18.599 18.387 18.771 48.37.384 66.968-.127.129-.255.257-.384.384-18.802 18.602-49.074 18.602-67.875 0-18.599-18.387-18.77-48.37-.384-66.968.127-.129.255-.256.384-.384 18.801-18.602 49.073-18.602 67.875 0z" fill="#f77c6a"/><path d="m275.568 20.864-66.724 66.724c21.832 15.019 51.705 9.496 66.724-12.336 11.268-16.379 11.268-38.01 0-54.388z" fill="#8ce2ff"/><path d="m264.308 9.499 10.95 10.95c-15.196-21.695-45.101-26.963-66.796-11.767s-26.962 45.101-11.767 66.795c.224.32.452.637.684.951z" fill="#8ce2ff"/><path d="m284.019 128.038h-96c-17.673 0-32 14.327-32 32s14.327 32 32 32h96c17.673 0 32-14.327 32-32s-14.327-32-32-32z" fill="#ede3e3"/><path d="m284.019 128.038h-48v64h48c17.673 0 32-14.327 32-32s-14.327-32-32-32z" fill="#27ae60"/><path d="m458.647 9.41c-12.497-12.496-32.758-12.496-45.255 0l-67.882 67.883c-12.442 12.552-12.352 32.813.199 45.254 12.474 12.364 32.581 12.364 45.055 0l67.882-67.882c12.497-12.497 12.497-32.758.001-45.255z" fill="#ede3e3"/><g fill="#fd614b"><path d="m413.392 9.41-33.941 33.941 45.255 45.255 33.941-33.941c12.497-12.497 12.497-32.758 0-45.255-12.497-12.497-32.758-12.497-45.255 0z"/><path d="m44.769 160.773h14.954c-15.197-2.522-30.682 2.393-41.642 13.218-18.599 18.431-18.735 48.45-.304 67.048 7.277 7.344 16.756 12.107 26.991 13.565v-93.831z"/><path d="m85.957 173.991c-6.874-6.822-15.657-11.396-25.188-13.119v93.589c9.53-1.722 18.313-6.297 25.188-13.119 18.599-18.387 18.77-48.37.383-66.969-.127-.127-.255-.255-.383-.382z"/></g><path d="m126.528 77.292-67.882-67.882c-12.497-12.497-32.758-12.497-45.255 0s-12.497 32.758 0 45.255l67.882 67.882c12.497 12.497 32.758 12.497 45.255 0s12.497-32.758 0-45.255z" fill="#ede3e3"/><path d="m13.391 54.665 33.941 33.941 45.255-45.255-33.941-33.941c-12.497-12.497-32.758-12.497-45.255 0s-12.497 32.758 0 45.255z" fill="#fecd0d"/><path d="m446.909 195.372c-10.733-6.44-24.597-3.724-32.107 6.289l-44.881 59.841c-8.917 11.889-22.105 19.848-36.78 22.196l-153.122 20.34 105.386-42.317c7.074-2.593 11.696-9.421 11.475-16.952-.47-9.406-8.476-16.65-17.882-16.179-1.41.07-2.805.316-4.154.73l-140.055 43.07c-17.139 4.897-31.632 16.402-40.289 31.984l-26.48 47.664-40 120h120l6.018-48.147c1.211-9.687 7.877-17.819 17.138-20.906l203.458-67.819c13.743-4.581 25.241-14.199 32.179-26.917l48.375-79.202c7.031-11.512 3.399-26.545-8.113-33.576-.056-.033-.111-.066-.166-.099z" fill="#efcb9a"/></svg>