<?xml version="1.0" encoding="utf-8"?>
<!-- Generator: Adobe Illustrator 15.0.0, SVG Export Plug-In . SVG Version: 6.00 Build 0)  -->
<!DOCTYPE svg PUBLIC "-//W3C//DTD SVG 1.1//EN" "http://www.w3.org/Graphics/SVG/1.1/DTD/svg11.dtd">
<svg version="1.1" id="Layer_1" xmlns="http://www.w3.org/2000/svg" xmlns:xlink="http://www.w3.org/1999/xlink" x="0px" y="0px"
	 width="128px" height="128px" viewBox="0 0 128 128" enable-background="new 0 0 128 128" xml:space="preserve">
<g>
	<path fill-rule="evenodd" clip-rule="evenodd" fill="#EB680B" stroke="#FFFFFF" stroke-miterlimit="10" d="M93.121,54.08
		c-3.646,1.259-6.449-0.988-6.72-4.16C89.069,48.887,93.639,49.968,93.121,54.08z"/>
	<path fill-rule="evenodd" clip-rule="evenodd" fill="#EB680B" stroke="#FFFFFF" stroke-miterlimit="10" d="M54.4,128
		c-6.507,0-13.013,0-19.52,0c0.959-5.16-5.237-5.128-5.76-9.28c-0.475-3.774,3.699-8.208,6.08-11.84
		c2.448-3.733,5.854-8.726,5.76-12.16c-0.088-3.228-3.1-4.71-3.84-8.96c-3.098,1.399-6.576,5.146-11.52,5.76
		c-1.249,5.631-2.347,11.031-4.16,16.641c-1.674,5.178-4.692,10.198-5.76,15.04c-0.391,1.772-0.608,3.078,0,4.8
		c-5.227,0-10.454,0-15.68,0c0-11.307,0-22.613,0-33.92c14.531-0.936,28.158-2.776,35.84-10.561
		c-0.863-3.191-2.238-7.572-1.28-11.52c2.186,14.366,12.955,23.13,17.92,35.52c1.685,4.205,3.754,10.104,3.2,14.721
		C55.476,123.949,53.224,126.05,54.4,128z"/>
	<path fill-rule="evenodd" clip-rule="evenodd" fill="#EB680B" stroke="#FFFFFF" stroke-miterlimit="10" d="M73.766,129.109
		c0.173-0.262,0.34-0.528,0.326-0.977c-0.104-3.774-4.985-4.569-6.836-8.465c-1.779-3.742-1.611-9.198-2.931-14.648
		c-1.241-5.133-3.292-9.702-3.255-14.324c0.057-7.064,1.415-10.062,3.72-14.712c0.448-0.905,2.882-3.477,2.882-3.477
		c-8.139-0.763-11.222-8.879-18.396-11.869c-3.788-1.578-6.678-1.176-9.495-4.069c-2.064-2.12-3.382-6.329-4.754-10.474
		c-0.942-2.847-3.205-6.525-3.149-8.12c0.112-3.207,4.832-8.41,7.207-10.487c0.873-0.764,2.996-3.203,2.996-3.203
		c-13.784,3.218-28.915-0.554-43.19-0.979c0-8.139,0-16.277,0-24.416c43.407,0,86.812,0,130.219,0c0,43.407,0,86.812,0,130.219
		C110.662,129.109,92.214,129.109,73.766,129.109z M73.607,40.8c0.325-0.001-0.501-1.14-0.237-1.078
		c2.49,2.978,5.435,6.798,6.122,11.003c1.296,7.928-3.811,12.164-5.399,18.81c2.592,2.868,7.515,0.708,11.721,0.65
		c2.329,1.468,1.839,5.756,4.557,6.836c0.482-0.21,0.662-2.377,1.953-2.604c1.06,6.338-1.184,7.392-1.627,11.719
		c-1.055,10.292,3.069,21.35,14.648,19.859c6.533-0.842,11.058-7.678,9.441-14c-0.62-2.424-5.064-6.677-7.162-6.184
		c-0.779,0.183-2.315,1.887-1.953,3.58c0.324,1.515,2.75,1.146,3.256,3.582c0.668,3.224-1.288,6.444-4.559,6.51
		c-7.909,0.159-6.196-14.777-1.627-17.904c5.284,2.257,11.813,0.481,15.301-1.629c1.892-1.145,4.557-2.675,4.232-4.232
		c-4.31,2.823-13.111,2.293-17.254-0.324c0.607-2.755,1.412-5.535,1.301-9.115c-0.143-4.611-2.463-6.64-3.58-9.767
		c-2.324-6.5-1.285-14.293-4.883-19.858c-3.362-5.198-8.221-6.682-15.301-7.813c-2.793-2.94-6.877-4.535-11.721-6.511
		c-3.86-1.576-8.131-5.682-12.695-5.86c-5.5-0.213-9.391,5.175-12.914,8.447c-2.182,2.026-6.741,6.328-10.105,12.748
		c-0.404,0.771,0.967,2.682,1.302,3.72c2.032,6.298,3.409,12.179,8.369,14.802c2.277,1.205,5.58,1.373,7.958,2.502
		c6.285,2.982,7.616,11.679,17.108,10.847C75.829,62.6,80.823,48.917,73.607,40.8z"/>
</g>
</svg>
