<svg enable-background="new 0 0 128 128" height="128" viewBox="0 0 128 128" width="128" xmlns="http://www.w3.org/2000/svg"><g clip-rule="evenodd" fill="#eb680b" fill-rule="evenodd" stroke="#fff" stroke-miterlimit="10"><path d="m93.121 54.08c-3.646 1.259-6.449-.988-6.72-4.16 2.668-1.033 7.238.048 6.72 4.16z"/><path d="m54.4 128c-6.507 0-13.013 0-19.52 0 .959-5.16-5.237-5.128-5.76-9.28-.475-3.774 3.699-8.208 6.08-11.84 2.448-3.733 5.854-8.726 5.76-12.16-.088-3.228-3.1-4.71-3.84-8.96-3.098 1.399-6.576 5.146-11.52 5.76-1.249 5.631-2.347 11.031-4.16 16.641-1.674 5.178-4.692 10.198-5.76 15.04-.391 1.772-.608 3.078 0 4.8-5.227 0-10.454 0-15.68 0 0-11.307 0-22.613 0-33.92 14.531-.936 28.158-2.776 35.84-10.561-.863-3.191-2.238-7.572-1.28-11.52 2.186 14.366 12.955 23.13 17.92 35.52 1.685 4.205 3.754 10.104 3.2 14.721-.204 1.708-2.456 3.809-1.28 5.759z"/><path d="m73.766 129.109c.173-.262.34-.528.326-.977-.104-3.774-4.985-4.569-6.836-8.465-1.779-3.742-1.611-9.198-2.931-14.648-1.241-5.133-3.292-9.702-3.255-14.324.057-7.064 1.415-10.062 3.72-14.712.448-.905 2.882-3.477 2.882-3.477-8.139-.763-11.222-8.879-18.396-11.869-3.788-1.578-6.678-1.176-9.495-4.069-2.064-2.12-3.382-6.329-4.754-10.474-.942-2.847-3.205-6.525-3.149-8.12.112-3.207 4.832-8.41 7.207-10.487.873-.764 2.996-3.203 2.996-3.203-13.784 3.218-28.915-.554-43.19-.979 0-8.139 0-16.277 0-24.416h130.219v130.219c-18.448.001-36.896.001-55.344.001zm-.159-88.309c.325-.001-.501-1.14-.237-1.078 2.49 2.978 5.435 6.798 6.122 11.003 1.296 7.928-3.811 12.164-5.399 18.81 2.592 2.868 7.515.708 11.721.65 2.329 1.468 1.839 5.756 4.557 6.836.482-.21.662-2.377 1.953-2.604 1.06 6.338-1.184 7.392-1.627 11.719-1.055 10.292 3.069 21.35 14.648 19.859 6.533-.842 11.058-7.678 9.441-14-.62-2.424-5.064-6.677-7.162-6.184-.779.183-2.315 1.887-1.953 3.58.324 1.515 2.75 1.146 3.256 3.582.668 3.224-1.288 6.444-4.559 6.51-7.909.159-6.196-14.777-1.627-17.904 5.284 2.257 11.813.481 15.301-1.629 1.892-1.145 4.557-2.675 4.232-4.232-4.31 2.823-13.111 2.293-17.254-.324.607-2.755 1.412-5.535 1.301-9.115-.143-4.611-2.463-6.64-3.58-9.767-2.324-6.5-1.285-14.293-4.883-19.858-3.362-5.198-8.221-6.682-15.301-7.813-2.793-2.94-6.877-4.535-11.721-6.511-3.86-1.576-8.131-5.682-12.695-5.86-5.5-.213-9.391 5.175-12.914 8.447-2.182 2.026-6.741 6.328-10.105 12.748-.404.771.967 2.682 1.302 3.72 2.032 6.298 3.409 12.179 8.369 14.802 2.277 1.205 5.58 1.373 7.958 2.502 6.285 2.982 7.616 11.679 17.108 10.847 5.97-6.936 10.964-20.619 3.748-28.736z"/></g></svg>