<svg enable-background="new 0 0 647 444" viewBox="0 0 647 444" xmlns="http://www.w3.org/2000/svg"><path d="m385.69 272.93c29.95 0 50.01 4.51 50.43-27.79l-28.08-133.06c-3.61-17.12-7.03-43.95-26.05-43.95h-138.98c-19.02 0-22.44 26.83-26.05 43.95l-28.08 133.06c.42 32.31 20.48 27.79 50.43 27.79" fill="#ff7003"/><path d="m386.38 272.93h-147.76l1.47-204.8h141.9z" fill="#ff7003"/><path d="m365.9 68.86c0-30.3-24.23-54.86-54.13-54.86s-54.13 24.56-54.13 54.86l21.94 1.32c0-18.91 14.41-34.24 32.18-34.24s32.18 15.33 32.18 34.24z" fill="#ff7003"/><path d="m231.34 151c-.22-1.17-.45-2.35-.67-3.52 2.62-10.09 8.33-18.51 15.52-27.03-2.12-.03-3.22-.28-4.18-.02-5.23 1.44-10.42 3-15.63 4.53-.76-3.99-1.52-7.98-2.28-11.97 52.79-10.04 105.57-20.08 158.36-30.12 10.04 52.79 20.08 105.57 30.12 158.36-37.77 7.18-75.54 14.37-113.32 21.55-2.08-5.59-4-11.24-6.26-16.76-5.84-14.3-5.38-27.44 6.43-38.83 1.42-1.37 2.33-3.3 3.33-5.06.42-.74.45-1.7.75-2.93-7.5-.23-13.88-2.66-19.68-6.71-2.15-1.5-4.32-2.98-6.48-4.48-3.47-2.4-7.33-3.6-11.5-3.13-4.59.53-8.42-1.2-12.15-3.43-5.17-3.08-8.78-7.63-11.8-12.73-3.49-5.9-7.03-11.81-10.56-17.72zm168.42 36.6c-7.98 5.76-16.07 7.52-24.81 6.64-5.93-.6-5.9-.59-5.87-6.49.04-9.04-1.27-17.56-8.29-24.3-1.72-1.65-2.73-4.18-3.67-6.47-2.76-6.72-4.96-13.7-8.05-20.26-4.25-9.02-11.12-15.54-21.47-16.3-8.29-.61-16.24-1.78-23.69-5.57-1.04-.53-2.29-.66-3.44-.96-7.96-2.05-16.03-3.73-23.83-6.25-6.52-2.1-11.86-1.17-16.76 3.53-10.21 9.8-17.88 21.37-23.79 34.14-.59 1.27-.87 3.28-.27 4.41 3.54 6.75 7.09 13.52 11.2 19.92 3.67 5.71 8.96 10.21 16.08 9.92 8.58-.36 15.12 2.9 21.27 8.36 5.39 4.79 12.03 6.55 19.24 6.43 2.29-.04 3.73-.84 4.19-2.99 1.36-6.4 3.08-12.77 3.79-19.25 1.34-12.28-.57-23.85-9.76-33.15-.08-.08.07-.39.12-.61.23.04.48.04.67.14.41.23.8.51 1.19.8 8.95 6.71 12.33 16.06 12.65 26.83.2 6.7-.14 13.28-2.42 19.76s.97 9.69 7.68 8.05c1.73-.42 3.43-1.02 5.11-1.63 7.98-2.9 7.98-2.91 12.93 4.07.14.19.24.43.42.58 1.22 1.04 2.46 2.06 3.69 3.09.69-1.31 1.37-2.63 2.08-3.92.09-.17.39-.22 1.26-.67.51 2.66 1.24 5.1 1.37 7.57.14 2.72-.41 5.47-.45 8.21-.15 11.1 2.25 21.38 10.33 29.56 8.4 8.51 21.72 7.87 29.5-1.24 9.19-10.76 5.05-25.87-7.91-29.18-3.06-.78-4.22.85-4.93 3.17-.67 2.19-.78 4.1 2.26 4.96 4.25 1.2 5.92 5.86 4.24 10.86-1.39 4.17-5.21 6.3-9.31 5.06-4.43-1.35-6.75-4.69-7.98-8.92-1.77-6.09-.88-11.98 1.02-17.92.84-2.62 1.73-3.48 4.67-3.22 12.27 1.11 24.86-5.86 29.74-16.76z" fill="#ff7003"/><path d="m255.07 221.33c.34.12.69.23 1.03.35-.44 4.77-1.05 9.53-1.29 14.31-.61 12.07 2.17 23.32 8.57 33.63-3.05.58-6.1 1.16-9.15 1.74" fill="#ff7003"/><path d="m399.76 187.6c-4.87 10.9-17.47 17.87-29.75 16.78-2.95-.26-3.83.6-4.67 3.22-1.9 5.94-2.79 11.84-1.02 17.92 1.23 4.23 3.55 7.58 7.98 8.92 4.1 1.25 7.91-.88 9.31-5.06 1.67-5.01 0-9.66-4.24-10.86-3.04-.86-2.93-2.78-2.26-4.96.72-2.32 1.87-3.95 4.93-3.17 12.96 3.31 17.1 18.42 7.91 29.18-7.78 9.11-21.1 9.74-29.5 1.24-8.08-8.18-10.49-18.46-10.33-29.56.04-2.74.58-5.49.45-8.21-.12-2.47-.86-4.91-1.37-7.57-.87.45-1.16.5-1.26.67-.72 1.29-1.39 2.61-2.08 3.92-1.23-1.03-2.47-2.05-3.69-3.09-.18-.15-.28-.38-.42-.58-4.95-6.99-4.94-6.98-12.93-4.07-1.68.61-3.38 1.2-5.11 1.63-6.71 1.64-9.96-1.57-7.68-8.05 2.28-6.47 2.62-13.05 2.42-19.76-.32-10.77-3.71-20.12-12.65-26.83-.38-.29-.77-.56-1.19-.8-.19-.11-.45-.1-.67-.14-.05.21-.2.53-.12.61 9.19 9.3 11.1 20.86 9.76 33.15-.71 6.48-2.43 12.85-3.79 19.25-.46 2.15-1.9 2.95-4.19 2.99-7.21.13-13.85-1.64-19.24-6.43-6.15-5.46-12.69-8.72-21.27-8.36-7.12.3-12.4-4.21-16.08-9.92-4.12-6.4-7.66-13.18-11.2-19.92-.59-1.13-.32-3.14.27-4.41 5.91-12.77 13.58-24.34 23.79-34.14 4.9-4.7 10.24-5.63 16.76-3.53 7.8 2.52 15.88 4.2 23.83 6.25 1.16.3 2.4.43 3.44.96 7.46 3.79 15.41 4.96 23.69 5.57 10.35.76 17.22 7.28 21.47 16.3 3.09 6.56 5.29 13.54 8.05 20.26.94 2.29 1.95 4.82 3.67 6.47 7.03 6.73 8.34 15.25 8.29 24.3-.03 5.9-.06 5.89 5.87 6.49 8.75.86 16.84-.89 24.82-6.66zm-57.56-28.09c-1.8-7.26-6.12-8.81-12.91-4.86 1.87 5.88 6.5 7.69 12.91 4.86z" fill="#fff"/><path d="m342.2 159.51c-6.41 2.83-11.04 1.03-12.91-4.86 6.79-3.96 11.11-2.4 12.91 4.86z" fill="#ff7003"/><g fill="#576470"><path d="m30.27 336.14v70.57h17.39v-70.57z"/><path d="m115.09 406.71v-36.78c0-10.69-5.84-18.82-16.97-18.82-10.69 0-17.96 8.98-17.96 19.67v35.93h-17.25v-70.43h15.54l1.14 9.55c7.13-6.99 14.26-10.55 23.1-10.55 16.54 0 29.8 12.4 29.8 34.5v36.93z"/><path d="m168.97 316.61v19.96h19.39v14.97h-19.53v30.36c0 6.7 3.71 9.98 9.12 9.98 2.71 0 5.84-.86 8.41-2.14l4.85 14.83c-4.99 2-9.12 2.85-14.4 2.99-15.25.57-25.23-8.13-25.23-25.66v-30.36h-13.12v-14.97h13.12v-18.1z"/><path d="m216.16 377.76c1.14 8.7 8.7 14.97 20.96 14.97 6.42 0 14.83-2.42 18.82-6.56l11.12 10.98c-7.41 7.7-19.53 11.41-30.22 11.41-24.23 0-38.63-14.97-38.63-37.5 0-21.38 14.54-36.78 37.35-36.78 23.52 0 38.21 14.54 35.5 43.48zm38.2-14.39c-1.14-9.12-8.27-13.69-18.25-13.69-9.41 0-17.11 4.56-19.67 13.69z"/><path d="m300.55 336.42 1.28 8.13c5.42-8.7 12.69-9.98 19.82-9.98 7.27 0 14.26 2.85 18.1 6.7l-7.84 15.11c-3.56-2.99-6.85-4.56-12.55-4.56-9.12 0-17.54 4.85-17.54 17.82v37.07h-17.39v-70.28h16.12z"/><path d="m393.06 406.71v-37.64c0-9.27-4.85-17.68-14.4-17.68-9.41 0-14.97 8.41-14.97 17.68v37.64h-17.39v-70.43h16.11l1.28 8.55c3.71-7.13 11.83-9.69 18.53-9.69 8.41 0 16.82 3.42 20.82 13.12 6.27-9.98 14.4-12.83 23.52-12.83 19.96 0 29.8 12.26 29.8 33.36v37.92h-17.39v-37.92c0-9.27-3.85-17.11-13.26-17.11s-15.25 8.13-15.25 17.39v37.64z"/><path d="m529.77 336.42h16.68v70.28h-16.4l-.85-10.27c-3.99 8.27-14.97 12.26-22.81 12.4-20.82.14-36.21-12.69-36.21-37.35 0-24.23 16.11-36.92 36.64-36.78 9.41 0 18.39 4.42 22.38 11.41zm-42.19 35.07c0 13.4 9.27 21.38 20.81 21.38 27.37 0 27.37-42.63 0-42.63-11.55.01-20.81 7.85-20.81 21.25z"/><path d="m623 397.72c-8.13 7.98-16.68 11.12-27.09 11.12-20.39 0-37.35-12.26-37.35-37.21s16.96-37.21 37.35-37.21c9.98 0 17.68 2.85 25.38 10.41l-10.98 11.55c-4.14-3.71-9.27-5.56-14.12-5.56-11.69 0-20.24 8.55-20.24 20.81 0 13.4 9.12 20.53 19.96 20.53 5.56 0 11.12-1.57 15.4-5.85z"/></g><path d="m21 304.51 12.28-1.81 5.47-11.15 5.52 11.12 12.3 1.76-8.87 8.69 2.12 12.23-11-5.76-10.98 5.81 2.07-12.24z" fill="#f27121"/></svg>