<svg enable-background="new 0 0 872 300" viewBox="0 0 872 300" xmlns="http://www.w3.org/2000/svg"><path d="m194.72 276.81c28.18 6.28 46.11 14.73 53.28-15.58l1.48-131.11c.19-16.86 2.6-42.83-15.3-46.82l-130.78-29.14c-17.9-3.99-26.74 20.54-33.73 35.89l-54.32 119.34c-6.38 30.49 13.44 30.45 41.63 36.73" fill="#ff7003"/><path d="m195.37 276.96-139.05-30.99 44.33-192.42 133.53 29.76z" fill="#ff7003"/><path d="m218.89 80.62c6.35-28.51-11.3-56.71-39.43-62.98s-56.09 11.76-62.44 40.27l20.37 5.85c3.97-17.8 20.74-29.2 37.47-25.47s27.07 21.18 23.11 38.97z" fill="#ff7003"/><path d="m75.04 129.7c.04-1.15.07-2.3.11-3.45 4.58-8.94 11.72-15.67 20.27-22.18-1.99-.47-2.97-.94-3.92-.89-5.22.26-10.44.64-15.66.98.12-3.91.24-7.82.37-11.74 51.78 1.62 103.56 3.24 155.34 4.86-1.62 51.78-3.24 103.56-4.86 155.34-37.05-1.16-74.1-2.32-111.16-3.48-.78-5.7-1.41-11.42-2.37-17.08-2.49-14.68.69-26.96 14.19-35.19 1.62-.99 2.89-2.62 4.19-4.07.55-.61.78-1.5 1.32-2.6-7.01-1.79-12.51-5.41-17.12-10.44-1.71-1.87-3.44-3.71-5.16-5.57-2.76-2.99-6.15-4.93-10.17-5.35-4.43-.47-7.67-2.9-10.71-5.77-4.22-3.98-6.67-9.02-8.44-14.45-2.05-6.31-4.14-12.61-6.22-18.92zm150.81 69.77c-8.71 3.75-16.7 3.71-24.74 1.05-5.46-1.81-5.43-1.79-4.16-7.34 1.94-8.5 2.49-16.79-2.71-24.6-1.27-1.91-1.69-4.51-2.1-6.86-1.19-6.91-1.79-13.94-3.32-20.76-2.11-9.38-7.21-16.95-16.79-19.84-7.67-2.31-14.91-5.08-21.13-10.21-.87-.72-2.01-1.1-3.04-1.62-7.06-3.6-14.3-6.87-21.12-10.88-5.7-3.35-10.92-3.59-16.51-.19-11.67 7.08-21.3 16.36-29.55 27.14-.82 1.07-1.5 2.9-1.18 4.09 1.92 7.09 3.83 14.21 6.37 21.1 2.26 6.14 6.29 11.49 13.05 12.7 8.15 1.46 13.62 5.9 18.26 12.33 4.07 5.64 9.95 8.69 16.76 10.08 2.16.44 3.69-.01 4.57-1.94 2.62-5.74 5.58-11.37 7.6-17.32 3.84-11.28 4.47-22.56-2.23-33.24-.06-.09.15-.35.24-.55.2.09.45.14.6.28.34.31.65.65.95 1 7.01 8.19 8.23 17.7 6.28 27.9-1.22 6.35-2.92 12.47-6.42 18.08-3.51 5.62-1.12 9.32 5.54 9.18 1.72-.03 3.44-.24 5.15-.46 8.12-1.06 8.12-1.07 11.31 6.55.09.21.14.45.27.63.93 1.24 1.88 2.46 2.83 3.68.92-1.09 1.84-2.18 2.78-3.25.12-.14.41-.12 1.32-.36-.08 2.61.1 5.06-.3 7.41-.44 2.59-1.53 5.06-2.14 7.63-2.47 10.41-2.36 20.59 3.53 29.98 6.12 9.77 18.79 11.96 28.02 5.02 10.9-8.2 10.18-23.29-1.33-29.12-2.71-1.38-4.15-.08-5.31 1.95-1.09 1.92-1.59 3.7 1.08 5.14 3.74 2.02 4.34 6.75 1.71 11.11-2.19 3.63-6.22 4.84-9.82 2.81-3.88-2.19-5.37-5.83-5.64-10.07-.39-6.1 1.68-11.46 4.72-16.65 1.34-2.29 2.35-2.91 5.07-2.05 11.35 3.61 24.66-.3 31.53-9.53z" fill="#ff7003"/><path d="m82.62 200.86c.3.18.6.36.9.55-1.41 4.4-2.98 8.75-4.21 13.2-3.11 11.23-2.84 22.4 1.02 33.44-2.99-.09-5.98-.19-8.98-.28" fill="#ff7003"/><path d="m225.85 199.47c-6.87 9.23-20.18 13.15-31.51 9.55-2.72-.86-3.73-.24-5.07 2.05-3.04 5.19-5.11 10.55-4.72 16.65.27 4.24 1.75 7.88 5.64 10.07 3.6 2.03 7.63.83 9.82-2.81 2.63-4.36 2.03-9.09-1.71-11.11-2.68-1.45-2.17-3.23-1.08-5.14 1.16-2.04 2.59-3.33 5.31-1.95 11.5 5.83 12.23 20.92 1.33 29.12-9.23 6.94-21.9 4.74-28.02-5.02-5.89-9.39-6-19.57-3.53-29.98.61-2.57 1.7-5.04 2.14-7.63.4-2.35.22-4.8.3-7.41-.91.24-1.2.23-1.32.36-.95 1.07-1.86 2.16-2.78 3.25-.94-1.23-1.9-2.45-2.83-3.68-.13-.18-.19-.42-.27-.63-3.19-7.61-3.19-7.6-11.31-6.55-1.71.22-3.43.42-5.15.46-6.66.13-9.04-3.57-5.54-9.18s5.21-11.74 6.42-18.08c1.95-10.2.73-19.71-6.28-27.9-.3-.35-.61-.69-.95-1-.16-.14-.4-.19-.6-.28-.09.19-.3.45-.24.55 6.7 10.68 6.07 21.96 2.23 33.24-2.02 5.95-4.98 11.58-7.6 17.32-.88 1.93-2.41 2.38-4.57 1.94-6.81-1.39-12.69-4.45-16.76-10.08-4.64-6.43-10.12-10.87-18.26-12.33-6.76-1.21-10.79-6.56-13.05-12.7-2.53-6.88-4.45-14.01-6.37-21.1-.32-1.19.36-3.02 1.18-4.09 8.24-10.78 17.88-20.06 29.55-27.14 5.59-3.4 10.82-3.15 16.51.19 6.82 4 14.06 7.28 21.12 10.88 1.02.52 2.17.91 3.04 1.62 6.22 5.13 13.46 7.9 21.13 10.21 9.58 2.89 14.68 10.46 16.79 19.84 1.53 6.82 2.14 13.85 3.32 20.76.4 2.35.83 4.95 2.1 6.86 5.2 7.81 4.65 16.1 2.71 24.6-1.26 5.55-1.29 5.53 4.16 7.34 8.02 2.63 16.01 2.68 24.72-1.07zm-48.27-38.52c-.17-7.21-3.91-9.58-11.13-7.28.52 5.94 4.5 8.61 11.13 7.28z" fill="#fff"/><path d="m177.58 160.95c-6.63 1.32-10.6-1.35-11.13-7.28 7.22-2.29 10.96.07 11.13 7.28z" fill="#ff7003"/><g fill="#576470"><path d="m287.53 151.8v68.04h16.77v-68.04z"/><path d="m369.31 219.84v-35.46c0-10.31-5.64-18.14-16.36-18.14-10.31 0-17.32 8.66-17.32 18.97v34.64h-16.63v-67.9h14.98l1.1 9.21c6.87-6.74 13.75-10.17 22.27-10.17 15.95 0 28.73 11.96 28.73 33.26v35.6h-16.77z"/><path d="m421.26 132.97v19.24h18.69v14.43h-18.83v29.28c0 6.46 3.57 9.62 8.8 9.62 2.61 0 5.63-.83 8.11-2.06l4.67 14.29c-4.81 1.93-8.8 2.75-13.88 2.89-14.71.55-24.33-7.83-24.33-24.74v-29.28h-12.65v-14.43h12.65v-17.46z"/><path d="m466.75 191.94c1.1 8.39 8.38 14.43 20.2 14.43 6.19 0 14.3-2.34 18.14-6.32l10.72 10.58c-7.15 7.42-18.83 11-29.14 11-23.37 0-37.25-14.43-37.25-36.15 0-20.62 14.02-35.46 36.01-35.46 22.68 0 36.84 14.02 34.23 41.92zm36.84-13.89c-1.1-8.8-7.97-13.2-17.59-13.2-9.07 0-16.49 4.4-18.97 13.2z"/><path d="m548.11 152.08 1.24 7.84c5.22-8.39 12.23-9.62 19.11-9.62 7.01 0 13.75 2.75 17.46 6.46l-7.56 14.57c-3.44-2.89-6.6-4.4-12.1-4.4-8.8 0-16.91 4.67-16.91 17.18v35.74h-16.77v-67.76h15.53z"/><path d="m637.31 219.84v-36.29c0-8.93-4.67-17.04-13.88-17.04-9.07 0-14.43 8.11-14.43 17.04v36.29h-16.77v-67.9h15.53l1.24 8.25c3.57-6.87 11.41-9.35 17.87-9.35 8.11 0 16.22 3.3 20.07 12.65 6.05-9.62 13.88-12.37 22.68-12.37 19.24 0 28.73 11.82 28.73 32.16v36.56h-16.77v-36.56c0-8.94-3.71-16.5-12.78-16.5s-14.71 7.84-14.71 16.77v36.29z"/><path d="m769.12 152.08h16.08v67.76h-15.81l-.82-9.9c-3.85 7.97-14.43 11.82-21.99 11.96-20.07.14-34.91-12.23-34.91-36.01 0-23.37 15.53-35.6 35.32-35.46 9.07 0 17.73 4.26 21.58 11zm-40.69 33.81c0 12.92 8.93 20.62 20.07 20.62 26.39 0 26.39-41.1 0-41.1-11.13 0-20.07 7.56-20.07 20.48z"/><path d="m859 211.18c-7.84 7.7-16.08 10.72-26.12 10.72-19.66 0-36.01-11.82-36.01-35.88 0-24.05 16.35-35.87 36.01-35.87 9.62 0 17.04 2.75 24.47 10.03l-10.58 11.13c-3.99-3.57-8.94-5.36-13.61-5.36-11.27 0-19.52 8.25-19.52 20.07 0 12.92 8.8 19.79 19.24 19.79 5.36 0 10.72-1.51 14.84-5.64z"/></g><path d="m278.59 121.31 11.85-1.75 5.27-10.75 5.32 10.73 11.85 1.69-8.55 8.38 2.05 11.79-10.61-5.55-10.58 5.6 2-11.8z" fill="#f27121"/></svg>