<svg viewBox="0 0 712 213" xmlns="http://www.w3.org/2000/svg"><path d="m0 .1h712.27v213.24h-712.27z" fill="#f27121"/><path d="m81.24 81.6v65.42h16.12v-65.42zm78.63 65.42v-34.09c0-9.91-5.42-17.45-15.73-17.45-9.91 0-16.65 8.33-16.65 18.24v33.3h-15.99v-65.29h14.4l1.06 8.86c6.61-6.48 13.22-9.78 21.41-9.78 15.33 0 27.62 11.5 27.62 31.98v34.23zm49.95-83.53v18.51h17.97v13.88h-18.1v28.15c0 6.21 3.44 9.25 8.46 9.25 2.51 0 5.42-.79 7.8-1.98l4.49 13.74c-4.63 1.85-8.46 2.64-13.35 2.78-14.14.53-23.39-7.53-23.39-23.79v-28.16h-12.16v-13.87h12.16v-16.79zm43.73 56.7c1.06 8.06 8.06 13.88 19.43 13.88 5.95 0 13.74-2.25 17.44-6.08l10.31 10.18c-6.87 7.14-18.1 10.57-28.02 10.57-22.47 0-35.81-13.88-35.81-34.76 0-19.82 13.48-34.09 34.62-34.09 21.81 0 35.42 13.48 32.91 40.31h-50.88zm35.42-13.35c-1.06-8.46-7.66-12.69-16.92-12.69-8.72 0-15.86 4.23-18.24 12.69zm42.81-24.98 1.19 7.53c5.02-8.06 11.76-9.25 18.37-9.25 6.74 0 13.22 2.64 16.78 6.21l-7.27 14.01c-3.3-2.78-6.35-4.23-11.63-4.23-8.46 0-16.26 4.49-16.26 16.52v34.36h-16.12v-65.15zm85.76 65.16v-34.89c0-8.59-4.49-16.39-13.35-16.39-8.72 0-13.88 7.8-13.88 16.39v34.89h-16.12v-65.29h14.93l1.19 7.93c3.44-6.61 10.97-8.99 17.18-8.99 7.8 0 15.6 3.17 19.3 12.16 5.81-9.25 13.35-11.89 21.8-11.89 18.5 0 27.62 11.36 27.62 30.92v35.15h-16.12v-35.15c0-8.59-3.57-15.86-12.29-15.86s-14.14 7.53-14.14 16.12v34.89h-16.12zm126.73-65.16h15.46v65.15h-15.2l-.79-9.52c-3.7 7.67-13.88 11.36-21.14 11.5-19.3.13-33.57-11.76-33.57-34.63 0-22.47 14.93-34.23 33.96-34.1 8.72 0 17.05 4.1 20.75 10.57zm-39.12 32.51c0 12.42 8.59 19.82 19.29 19.82 25.37 0 25.37-39.51 0-39.51-10.7 0-19.29 7.27-19.29 19.69zm125.53 24.32c-7.53 7.4-15.46 10.31-25.11 10.31-18.9 0-34.62-11.37-34.62-34.49 0-23.13 15.72-34.49 34.62-34.49 9.25 0 16.39 2.64 23.52 9.65l-10.18 10.7c-3.83-3.44-8.59-5.16-13.09-5.16-10.84 0-18.77 7.93-18.77 19.29 0 12.42 8.46 19.03 18.5 19.03 5.15 0 10.31-1.45 14.27-5.42zm-557.9-86.67 11.38-1.69 5.07-10.33 5.12 10.31 11.4 1.63-8.23 8.05 1.98 11.34-10.21-5.34-10.17 5.38 1.92-11.34z" fill="#fff"/></svg>