<svg enable-background="new 0 0 580 113" viewBox="0 0 580 113" xmlns="http://www.w3.org/2000/svg"><g fill="#576470"><path d="m8.53 42.8v68.04h16.77v-68.04z"/><path d="m90.31 110.84v-35.46c0-10.31-5.64-18.14-16.36-18.14-10.31 0-17.32 8.66-17.32 18.97v34.64h-16.63v-67.9h14.98l1.1 9.21c6.87-6.74 13.75-10.17 22.27-10.17 15.95 0 28.73 11.96 28.73 33.26v35.6h-16.77z"/><path d="m142.26 23.97v19.24h18.69v14.43h-18.83v29.28c0 6.46 3.57 9.62 8.8 9.62 2.61 0 5.63-.83 8.11-2.06l4.67 14.29c-4.81 1.93-8.8 2.75-13.88 2.89-14.71.55-24.33-7.83-24.33-24.74v-29.27h-12.65v-14.44h12.65v-17.45z"/><path d="m187.75 82.94c1.1 8.39 8.38 14.43 20.2 14.43 6.19 0 14.3-2.34 18.14-6.32l10.72 10.58c-7.15 7.42-18.83 11-29.14 11-23.37 0-37.25-14.43-37.25-36.15 0-20.62 14.02-35.46 36.01-35.46 22.68 0 36.84 14.02 34.23 41.92zm36.84-13.89c-1.1-8.8-7.97-13.2-17.59-13.2-9.07 0-16.49 4.4-18.97 13.2z"/><path d="m269.11 43.08 1.24 7.84c5.22-8.39 12.23-9.62 19.11-9.62 7.01 0 13.75 2.75 17.46 6.46l-7.56 14.57c-3.44-2.89-6.6-4.4-12.1-4.4-8.8 0-16.91 4.67-16.91 17.18v35.74h-16.77v-67.77z"/><path d="m358.31 110.84v-36.29c0-8.93-4.67-17.04-13.88-17.04-9.07 0-14.43 8.11-14.43 17.04v36.29h-16.77v-67.9h15.53l1.24 8.25c3.57-6.87 11.41-9.35 17.87-9.35 8.11 0 16.22 3.3 20.07 12.65 6.05-9.62 13.88-12.37 22.68-12.37 19.24 0 28.73 11.82 28.73 32.16v36.56h-16.77v-36.56c0-8.94-3.71-16.5-12.78-16.5s-14.71 7.84-14.71 16.77v36.29z"/><path d="m490.12 43.08h16.08v67.76h-15.81l-.82-9.9c-3.85 7.97-14.43 11.82-21.99 11.96-20.07.14-34.91-12.23-34.91-36.01 0-23.37 15.53-35.6 35.32-35.46 9.07 0 17.73 4.26 21.58 11zm-40.69 33.81c0 12.92 8.93 20.62 20.07 20.62 26.39 0 26.39-41.1 0-41.1-11.13 0-20.07 7.56-20.07 20.48z"/><path d="m580 102.18c-7.84 7.7-16.08 10.72-26.12 10.72-19.66 0-36.01-11.82-36.01-35.88 0-24.05 16.35-35.87 36.01-35.87 9.62 0 17.04 2.75 24.47 10.03l-10.58 11.13c-3.99-3.57-8.94-5.36-13.61-5.36-11.27 0-19.52 8.25-19.52 20.07 0 12.92 8.8 19.79 19.24 19.79 5.36 0 10.72-1.51 14.84-5.64z"/></g><path d="m-.41 12.31 11.85-1.75 5.27-10.75 5.32 10.73 11.85 1.69-8.55 8.38 2.05 11.79-10.61-5.55-10.58 5.6 2-11.8z" fill="#f27121"/></svg>