<svg height="512pt" viewBox="-79 0 512 512" width="512pt" xmlns="http://www.w3.org/2000/svg"><path d="m220.65625 0h-204.859375c-8.726563 0-15.796875 7.070312-15.796875 15.796875v427.894531c0 8.722656 7.070312 15.792969 15.796875 15.792969h294.621094c10.953125 0 19.835937-8.878906 19.835937-19.835937v-330.050782zm0 0" fill="#e4e3e1"/><g fill="#afafaf"><path d="m269.269531 161.535156h-208.285156c-4.265625 0-7.726563-3.457031-7.726563-7.726562 0-4.265625 3.460938-7.726563 7.726563-7.726563h208.285156c4.265625 0 7.726563 3.460938 7.726563 7.726563 0 4.269531-3.460938 7.726562-7.726563 7.726562zm0 0"/><path d="m269.269531 196.632812h-208.285156c-4.265625 0-7.726563-3.457031-7.726563-7.726562 0-4.265625 3.460938-7.726562 7.726563-7.726562h208.285156c4.265625 0 7.726563 3.457031 7.726563 7.726562s-3.460938 7.726562-7.726563 7.726562zm0 0"/><path d="m269.269531 231.730469h-208.285156c-4.265625 0-7.726563-3.460938-7.726563-7.726563 0-4.269531 3.460938-7.730468 7.726563-7.730468h208.285156c4.265625 0 7.726563 3.460937 7.726563 7.730468 0 4.265625-3.460938 7.726563-7.726563 7.726563zm0 0"/><path d="m269.269531 266.824219h-208.285156c-4.265625 0-7.726563-3.457031-7.726563-7.726563 0-4.265625 3.460938-7.726562 7.726563-7.726562h208.285156c4.265625 0 7.726563 3.460937 7.726563 7.726562 0 4.269532-3.460938 7.726563-7.726563 7.726563zm0 0"/><path d="m269.269531 301.921875h-208.285156c-4.265625 0-7.726563-3.457031-7.726563-7.726563 0-4.265624 3.460938-7.726562 7.726563-7.726562h208.285156c4.265625 0 7.726563 3.457031 7.726563 7.726562 0 4.269532-3.460938 7.726563-7.726563 7.726563zm0 0"/><path d="m247.230469 337.019531h-186.246094c-4.265625 0-7.726563-3.460937-7.726563-7.726562 0-4.269531 3.460938-7.726563 7.726563-7.726563h186.246094c4.265625 0 7.726562 3.457032 7.726562 7.726563 0 4.265625-3.460937 7.726562-7.726562 7.726562zm0 0"/><path d="m234.535156 372.113281h-173.550781c-4.265625 0-7.726563-3.457031-7.726563-7.726562 0-4.265625 3.460938-7.726563 7.726563-7.726563h173.554687c4.265626 0 7.726563 3.460938 7.726563 7.726563 0 4.269531-3.460937 7.726562-7.730469 7.726562zm0 0"/></g><path d="m236.449219 109.597656h93.804687l-109.597656-109.597656v93.804688c0 8.722656 7.070312 15.792968 15.792969 15.792968zm0 0" fill="#d1d0cf"/><path d="m20.605469 443.691406v-427.894531c0-8.726563 7.070312-15.796875 15.792969-15.796875h-20.601563c-8.726563 0-15.796875 7.070312-15.796875 15.796875v427.894531c0 8.722656 7.070312 15.792969 15.796875 15.792969h20.601563c-8.722657 0-15.792969-7.070313-15.792969-15.792969zm0 0" fill="#d1d0cf"/><path d="m241.261719 93.804688v-73.199219l-20.605469-20.605469v93.804688c0 8.722656 7.070312 15.792968 15.796875 15.792968h20.605469c-8.726563 0-15.796875-7.070312-15.796875-15.792968zm0 0" fill="#c1c1c1"/><path d="m258.46875 402.035156v-38.089844c0-16.453124 13.382812-29.835937 29.835938-29.835937 16.449218 0 29.832031 13.382813 29.832031 29.835937v38.089844h23.933593v-38.089844c0-29.648437-24.121093-53.765624-53.765624-53.765624-29.648438 0-53.765626 24.117187-53.765626 53.765624v38.089844zm0 0" fill="#ffc964"/><path d="m298.605469 311.179688c-3.335938-.652344-6.78125-1-10.300781-1-29.648438 0-53.765626 24.117187-53.765626 53.765624v38.089844h20.605469v-38.089844c-.003906-26.125 18.726563-47.945312 43.460938-52.765624zm0 0" fill="#f3a334"/><path d="m343.503906 395.851562h-110.402344c-6.320312 0-11.488281 5.171876-11.488281 11.488282v93.171875c0 6.320312 5.167969 11.488281 11.488281 11.488281h110.402344c6.320313 0 11.488282-5.167969 11.488282-11.488281v-93.171875c0-6.316406-5.167969-11.488282-11.488282-11.488282zm0 0" fill="#4b98d4"/><path d="m242.21875 500.511719v-93.171875c0-6.316406 5.167969-11.488282 11.488281-11.488282h-20.605469c-6.320312 0-11.488281 5.171876-11.488281 11.488282v93.171875c0 6.320312 5.167969 11.488281 11.488281 11.488281h20.605469c-6.320312 0-11.488281-5.167969-11.488281-11.488281zm0 0" fill="#2472b2"/><path d="m304.222656 438.007812c0 8.792969-7.128906 15.917969-15.917968 15.917969-8.792969 0-15.917969-7.125-15.917969-15.917969 0-8.792968 7.125-15.917968 15.917969-15.917968 8.789062 0 15.917968 7.125 15.917968 15.917968zm0 0" fill="#2472b2"/><path d="m292.988281 438.007812c0-4.859374 2.183594-9.203124 5.617188-12.121093-2.777344-2.363281-6.371094-3.796875-10.300781-3.796875-8.792969 0-15.921876 7.125-15.921876 15.917968 0 8.792969 7.128907 15.917969 15.921876 15.917969 3.929687 0 7.523437-1.433593 10.300781-3.796875-3.433594-2.917968-5.617188-7.261718-5.617188-12.121094zm0 0" fill="#1c5da3"/></svg>