<svg viewBox="0 0 200 50" xmlns="http://www.w3.org/2000/svg"><path d="m8.16 18.34v22.35h5.51v-22.35zm26.87 22.35v-11.65c0-3.39-1.85-5.96-5.37-5.96-3.39 0-5.69 2.84-5.69 6.23v11.38h-5.47v-22.3h4.92l.36 3.03c2.26-2.21 4.52-3.34 7.31-3.34 5.24 0 9.44 3.93 9.44 10.93v11.69h-5.5zm17.06-28.53v6.32h6.14v4.74h-6.19v9.62c0 2.12 1.17 3.16 2.89 3.16.86 0 1.85-.27 2.66-.68l1.54 4.7c-1.58.63-2.89.9-4.56.95-4.83.18-7.99-2.57-7.99-8.13v-9.62h-4.15v-4.74h4.15v-5.73zm14.94 19.37c.36 2.75 2.75 4.74 6.64 4.74 2.03 0 4.7-.77 5.96-2.08l3.52 3.48c-2.35 2.44-6.19 3.61-9.57 3.61-7.68 0-12.24-4.74-12.24-11.88 0-6.77 4.61-11.65 11.83-11.65 7.45 0 12.1 4.61 11.24 13.77h-17.38zm12.1-4.56c-.36-2.89-2.62-4.34-5.78-4.34-2.98 0-5.42 1.45-6.23 4.34zm14.63-8.54.41 2.57c1.72-2.75 4.02-3.16 6.28-3.16 2.3 0 4.52.9 5.73 2.12l-2.48 4.79c-1.13-.95-2.17-1.44-3.97-1.44-2.89 0-5.55 1.53-5.55 5.64v11.74h-5.51v-22.26zm29.3 22.26v-11.92c0-2.93-1.54-5.6-4.56-5.6-2.98 0-4.74 2.66-4.74 5.6v11.92h-5.51v-22.3h5.1l.41 2.71c1.17-2.26 3.75-3.07 5.87-3.07 2.66 0 5.33 1.08 6.59 4.15 1.99-3.16 4.56-4.06 7.45-4.06 6.32 0 9.44 3.88 9.44 10.57v12.01h-5.51v-12.02c0-2.94-1.22-5.42-4.2-5.42s-4.83 2.57-4.83 5.51v11.92zm43.3-22.26h5.28v22.26h-5.19l-.27-3.25c-1.26 2.62-4.74 3.88-7.22 3.93-6.59.04-11.47-4.02-11.47-11.83 0-7.68 5.1-11.69 11.6-11.65 2.98 0 5.83 1.4 7.09 3.61zm-13.37 11.11c0 4.24 2.93 6.77 6.59 6.77 8.67 0 8.67-13.5 0-13.5-3.65 0-6.59 2.49-6.59 6.73zm42.89 8.31c-2.57 2.53-5.28 3.52-8.58 3.52-6.46 0-11.83-3.88-11.83-11.79 0-7.9 5.37-11.78 11.83-11.78 3.16 0 5.6.9 8.04 3.3l-3.48 3.66c-1.31-1.17-2.94-1.76-4.47-1.76-3.7 0-6.41 2.71-6.41 6.59 0 4.24 2.89 6.5 6.32 6.5 1.76 0 3.52-.5 4.88-1.85z" fill="#57656f"/><path d="m5.23 8.33 3.89-.58 1.73-3.53 1.75 3.53 3.89.55-2.81 2.75.67 3.88-3.48-1.83-3.48 1.84.66-3.87z" fill="#f37121"/></svg>