<svg enable-background="new 0 0 511.994 511.994" height="512" viewBox="0 0 511.994 511.994" width="512" xmlns="http://www.w3.org/2000/svg"><path d="m504.497 62.315v398.14c0 5.008-4.06 9.068-9.068 9.068h-478.864c-5.008 0-9.068-4.06-9.068-9.068v-398.151c0-10.955 8.881-19.836 19.836-19.836h457.329c10.949.001 19.835 8.887 19.835 19.847z" fill="#e2fffe"/><g fill="#b0d1cf"><path d="m148.309 253.549-15.059-62.93h-30.117l-15.059 62.93 15.059 35.823v180.151h30.003v-180.151h.114z"/><path d="m414.632 323.264c0-36.722-19.571-68.873-48.852-86.591-4.67-2.826-10.638.478-10.638 5.937v66.116h-83.294v-66.116c0-5.459-5.967-8.763-10.638-5.937-29.281 17.718-48.852 49.869-48.852 86.591 0 42.426 26.127 78.745 63.166 93.76v52.499h75.942v-52.499c37.039-15.016 63.166-51.334 63.166-93.76z"/><path d="m504.497 62.315v70.932h-497v-70.932c0-10.96 8.886-19.847 19.836-19.847h457.329c10.949.001 19.835 8.887 19.835 19.847z"/></g><path d="m504.494 117.382h-496.994v-55.072c0-10.956 8.882-19.838 19.838-19.838h457.318c10.956 0 19.838 8.882 19.838 19.838z" fill="#5089dd"/><path d="m484.656 34.972h-320.35c-4.143 0-7.5 3.358-7.5 7.5s3.357 7.5 7.5 7.5h320.351c6.803 0 12.338 5.535 12.338 12.338v47.572h-481.995v-47.572c0-6.803 5.535-12.338 12.338-12.338h106.351c4.143 0 7.5-3.358 7.5-7.5s-3.357-7.5-7.5-7.5h-106.351c-15.074 0-27.338 12.264-27.338 27.338v398.145c0 9.135 7.432 16.567 16.567 16.567h159.787c4.143 0 7.5-3.358 7.5-7.5s-3.357-7.5-7.5-7.5h-35.719v-170.866l14.587-34.701c.618-1.471.751-3.1.38-4.652l-15.059-62.93c-.808-3.375-3.824-5.754-7.294-5.754h-30.117c-3.47 0-6.486 2.38-7.294 5.754l-15.059 62.93c-.371 1.552-.238 3.181.38 4.652l14.473 34.429v171.138h-79.065c-.864 0-1.567-.703-1.567-1.567v-335.573h481.994v32.805c0 4.142 3.357 7.5 7.5 7.5s7.5-3.358 7.5-7.5v-95.377c0-15.074-12.264-27.338-27.338-27.338zm-374.609 251.494-14.107-33.559 13.11-54.788h18.283l13.11 54.788-13.637 32.44c-.741 1.163-1.171 2.544-1.171 4.025v172.65h-15.003v-172.65c.001-.998-.198-1.986-.585-2.906z"/><path d="m504.494 180.804c-4.143 0-7.5 3.358-7.5 7.5v272.151c0 .864-.703 1.567-1.567 1.567h-136.461v-40.072c38.54-17.727 63.166-55.923 63.166-98.686 0-19.034-4.996-37.764-14.447-54.167-9.165-15.904-22.313-29.335-38.022-38.841-4.487-2.716-10.108-2.807-14.67-.236-4.603 2.595-7.351 7.301-7.351 12.589v58.616h-68.294v-58.616c0-5.289-2.748-9.995-7.351-12.589-4.561-2.57-10.182-2.48-14.67.236-15.71 9.506-28.857 22.937-38.022 38.841-9.451 16.402-14.447 35.133-14.447 54.167 0 42.763 24.626 80.959 63.166 98.686v40.073h-61.051c-4.143 0-7.5 3.358-7.5 7.5s3.357 7.5 7.5 7.5h288.454c9.136 0 16.567-7.432 16.567-16.567v-272.152c0-4.142-3.357-7.5-7.5-7.5zm-226.153 229.269c-35.527-14.402-58.483-48.477-58.483-86.809 0-32.772 16.613-62.507 44.49-79.719v65.181c0 4.142 3.357 7.5 7.5 7.5h83.294c4.143 0 7.5-3.358 7.5-7.5v-65.181c27.877 17.212 44.49 46.947 44.49 79.719 0 38.332-22.956 72.407-58.483 86.809-2.831 1.147-4.683 3.896-4.683 6.951v44.999h-22.971v-74.158c0-4.142-3.357-7.5-7.5-7.5s-7.5 3.358-7.5 7.5v74.158h-22.972v-44.999c0-3.055-1.851-5.804-4.682-6.951z"/><path d="m66.658 81.312c0 4.142 3.357 7.5 7.5 7.5h267.531c4.143 0 7.5-3.358 7.5-7.5s-3.357-7.5-7.5-7.5h-267.531c-4.142 0-7.5 3.357-7.5 7.5z"/><path d="m385.46 80.578v-1.303c0-4.142-3.357-7.5-7.5-7.5s-7.5 3.358-7.5 7.5v1.303c0 4.142 3.357 7.5 7.5 7.5s7.5-3.358 7.5-7.5z"/><path d="m415.397 80.578v-1.303c0-4.142-3.357-7.5-7.5-7.5s-7.5 3.358-7.5 7.5v1.303c0 4.142 3.357 7.5 7.5 7.5s7.5-3.358 7.5-7.5z"/><path d="m445.336 80.578v-1.303c0-4.142-3.357-7.5-7.5-7.5s-7.5 3.358-7.5 7.5v1.303c0 4.142 3.357 7.5 7.5 7.5s7.5-3.358 7.5-7.5z"/><path d="m201.521 219.487h5.206c4.143 0 7.5-3.358 7.5-7.5s-3.357-7.5-7.5-7.5h-5.206v-5.206c0-4.142-3.357-7.5-7.5-7.5s-7.5 3.358-7.5 7.5v5.206h-5.206c-4.143 0-7.5 3.358-7.5 7.5s3.357 7.5 7.5 7.5h5.206v5.206c0 4.142 3.357 7.5 7.5 7.5s7.5-3.358 7.5-7.5z"/><path d="m412.621 192.445c-4.143 0-7.5 3.358-7.5 7.5v5.206h-5.206c-4.143 0-7.5 3.358-7.5 7.5s3.357 7.5 7.5 7.5h5.206v5.206c0 4.142 3.357 7.5 7.5 7.5s7.5-3.358 7.5-7.5v-5.206h5.205c4.143 0 7.5-3.358 7.5-7.5s-3.357-7.5-7.5-7.5h-5.205v-5.206c0-4.142-3.357-7.5-7.5-7.5z"/></svg>