<?xml version="1.0" encoding="iso-8859-1"?>
<!-- Generator: Adobe Illustrator 19.0.0, SVG Export Plug-In . SVG Version: 6.00 Build 0)  -->
<svg xmlns="http://www.w3.org/2000/svg" xmlns:xlink="http://www.w3.org/1999/xlink" version="1.1" id="Layer_1" x="0px" y="0px" viewBox="0 0 511.994 511.994" style="enable-background:new 0 0 511.994 511.994;" xml:space="preserve" width="512" height="512">
<g id="XMLID_1984_">
	<g id="XMLID_559_">
		<g id="XMLID_560_">
			<path id="XMLID_561_" style="fill:#E2FFFE;" d="M504.497,62.315v398.14c0,5.008-4.06,9.068-9.068,9.068H16.565     c-5.008,0-9.068-4.06-9.068-9.068V62.304c0-10.955,8.881-19.836,19.836-19.836h457.329     C495.611,42.469,504.497,51.355,504.497,62.315z"/>
			<polygon id="XMLID_562_" style="fill:#B0D1CF;" points="148.309,253.549 133.25,190.619 103.133,190.619 88.074,253.549      103.133,289.372 103.133,469.523 133.136,469.523 133.136,289.372 133.25,289.372    "/>
			<path id="XMLID_563_" style="fill:#B0D1CF;" d="M414.632,323.264c0-36.722-19.571-68.873-48.852-86.591     c-4.67-2.826-10.638,0.478-10.638,5.937v66.116h-83.294v-66.116c0-5.459-5.967-8.763-10.638-5.937     c-29.281,17.718-48.852,49.869-48.852,86.591c0,42.426,26.127,78.745,63.166,93.76v52.499h75.942v-52.499     C388.505,402.008,414.632,365.69,414.632,323.264z"/>
			<path id="XMLID_564_" style="fill:#B0D1CF;" d="M504.497,62.315v70.932h-497V62.315c0-10.96,8.886-19.847,19.836-19.847h457.329     C495.611,42.469,504.497,51.355,504.497,62.315z"/>
			<path id="XMLID_2300_" style="fill:#5089DD;" d="M504.494,117.382H7.5V62.31c0-10.956,8.882-19.838,19.838-19.838h457.318     c10.956,0,19.838,8.882,19.838,19.838V117.382z"/>
		</g>
	</g>
	<g id="XMLID_761_">
		<path id="XMLID_773_" d="M484.656,34.972H164.306c-4.143,0-7.5,3.358-7.5,7.5s3.357,7.5,7.5,7.5h320.351    c6.803,0,12.338,5.535,12.338,12.338v47.572H15V62.31c0-6.803,5.535-12.338,12.338-12.338h106.351c4.143,0,7.5-3.358,7.5-7.5    s-3.357-7.5-7.5-7.5H27.338C12.264,34.972,0,47.236,0,62.31v398.145c0,9.135,7.432,16.567,16.567,16.567h159.787    c4.143,0,7.5-3.358,7.5-7.5s-3.357-7.5-7.5-7.5h-35.719V291.156l14.587-34.701c0.618-1.471,0.751-3.1,0.38-4.652l-15.059-62.93    c-0.808-3.375-3.824-5.754-7.294-5.754h-30.117c-3.47,0-6.486,2.38-7.294,5.754l-15.059,62.93    c-0.371,1.552-0.238,3.181,0.38,4.652l14.473,34.429v171.138H16.567c-0.864,0-1.567-0.703-1.567-1.567V124.882h481.994v32.805    c0,4.142,3.357,7.5,7.5,7.5s7.5-3.358,7.5-7.5V62.31C511.994,47.236,499.73,34.972,484.656,34.972z M110.047,286.466    l-14.107-33.559l13.11-54.788h18.283l13.11,54.788l-13.637,32.44c-0.741,1.163-1.171,2.544-1.171,4.025v172.65h-15.003v-172.65    C110.633,288.374,110.434,287.386,110.047,286.466z"/>
		<path id="XMLID_770_" d="M504.494,180.804c-4.143,0-7.5,3.358-7.5,7.5v272.151c0,0.864-0.703,1.567-1.567,1.567H358.966V421.95    c38.54-17.727,63.166-55.923,63.166-98.686c0-19.034-4.996-37.764-14.447-54.167c-9.165-15.904-22.313-29.335-38.022-38.841    c-4.487-2.716-10.108-2.807-14.67-0.236c-4.603,2.595-7.351,7.301-7.351,12.589v58.616h-68.294v-58.616    c0-5.289-2.748-9.995-7.351-12.589c-4.561-2.57-10.182-2.48-14.67,0.236c-15.71,9.506-28.857,22.937-38.022,38.841    c-9.451,16.402-14.447,35.133-14.447,54.167c0,42.763,24.626,80.959,63.166,98.686v40.073h-61.051c-4.143,0-7.5,3.358-7.5,7.5    s3.357,7.5,7.5,7.5h288.454c9.136,0,16.567-7.432,16.567-16.567V188.304C511.994,184.162,508.637,180.804,504.494,180.804z     M278.341,410.073c-35.527-14.402-58.483-48.477-58.483-86.809c0-32.772,16.613-62.507,44.49-79.719v65.181    c0,4.142,3.357,7.5,7.5,7.5h83.294c4.143,0,7.5-3.358,7.5-7.5v-65.181c27.877,17.212,44.49,46.947,44.49,79.719    c0,38.332-22.956,72.407-58.483,86.809c-2.831,1.147-4.683,3.896-4.683,6.951v44.999h-22.971v-74.158c0-4.142-3.357-7.5-7.5-7.5    s-7.5,3.358-7.5,7.5v74.158h-22.972v-44.999C283.023,413.969,281.172,411.22,278.341,410.073z"/>
		<path id="XMLID_769_" d="M66.658,81.312c0,4.142,3.357,7.5,7.5,7.5h267.531c4.143,0,7.5-3.358,7.5-7.5s-3.357-7.5-7.5-7.5H74.158    C70.016,73.812,66.658,77.169,66.658,81.312z"/>
		<path id="XMLID_768_" d="M385.46,80.578v-1.303c0-4.142-3.357-7.5-7.5-7.5s-7.5,3.358-7.5,7.5v1.303c0,4.142,3.357,7.5,7.5,7.5    S385.46,84.72,385.46,80.578z"/>
		<path id="XMLID_766_" d="M415.397,80.578v-1.303c0-4.142-3.357-7.5-7.5-7.5s-7.5,3.358-7.5,7.5v1.303c0,4.142,3.357,7.5,7.5,7.5    S415.397,84.72,415.397,80.578z"/>
		<path id="XMLID_765_" d="M445.336,80.578v-1.303c0-4.142-3.357-7.5-7.5-7.5s-7.5,3.358-7.5,7.5v1.303c0,4.142,3.357,7.5,7.5,7.5    S445.336,84.72,445.336,80.578z"/>
		<path id="XMLID_764_" d="M201.521,219.487h5.206c4.143,0,7.5-3.358,7.5-7.5s-3.357-7.5-7.5-7.5h-5.206v-5.206    c0-4.142-3.357-7.5-7.5-7.5s-7.5,3.358-7.5,7.5v5.206h-5.206c-4.143,0-7.5,3.358-7.5,7.5s3.357,7.5,7.5,7.5h5.206v5.206    c0,4.142,3.357,7.5,7.5,7.5s7.5-3.358,7.5-7.5V219.487z"/>
		<path id="XMLID_762_" d="M412.621,192.445c-4.143,0-7.5,3.358-7.5,7.5v5.206h-5.206c-4.143,0-7.5,3.358-7.5,7.5s3.357,7.5,7.5,7.5    h5.206v5.206c0,4.142,3.357,7.5,7.5,7.5s7.5-3.358,7.5-7.5v-5.206h5.205c4.143,0,7.5-3.358,7.5-7.5s-3.357-7.5-7.5-7.5h-5.205    v-5.206C420.121,195.803,416.764,192.445,412.621,192.445z"/>
	</g>
</g>















</svg>
