<svg enable-background="new 0 0 128 128" height="128" viewBox="0 0 128 128" width="128" xmlns="http://www.w3.org/2000/svg"><path d="m0-.162h61.046c-.003 20.349 0 40.697-.003 61.046-20.345 0-40.694 0-61.042 0v-61.046z" fill="#f05125"/><path d="m61.046-.162h6.233c0 20.349-.004 40.697.003 61.046 20.346 0 40.694-.004 61.039 0 .008-20.349.004-40.698.004-61.046h472.603v47.477c-4.355.015-8.711-.033-13.063.029-.099-5.51-.011-11.021-.047-16.528-4.356 1.312-8.687 2.709-13.063 3.956-.106 4.18-.008 8.363-.056 12.543-6.438-.003-12.876.007-19.314-.007.081-3.292-.228-6.61.245-9.885.393-2.581 1.889-5.162 4.404-6.159 3.171-1.302 6.717-.437 9.73.891-.019-3.772.029-7.545-.026-11.314-6.343-1.745-13.613-1.404-19.241 2.258-3.63 2.325-6.262 6.042-7.446 10.164-1.4 4.564-.686 9.386-.909 14.072-3.055-.022-6.104-.051-9.151.018.033 3.527.019 7.054.007 10.578 3.062.062 6.127-.011 9.188.048-.025 14.842-.008 29.68-.008 44.521h13.203c0-14.846-.004-29.69.004-44.536 6.438-.011 12.88-.007 19.322-.003.019 9.462-.019 18.922.015 28.381.059 4.407.811 9.118 3.729 12.598 2.526 3.08 6.537 4.488 10.409 4.774 4.08.289 8.297-.209 12.069-1.848v26.299h-472.604c0-20.349 0-40.697 0-61.046-20.349 0-40.697-.004-61.043.003-.007 20.346 0 40.694-.003 61.043h-6.233c0-20.349.004-40.693 0-61.043-20.349-.011-40.697 0-61.046-.007v-6.229h61.042c.004-20.351 0-40.699.004-61.048z" fill="#fff"/><path d="m67.279-.162h61.046c0 20.349.004 40.697-.004 61.046-20.345-.004-40.693 0-61.039 0-.007-20.349-.003-40.697-.003-61.046z" fill="#80bb42"/><g fill="#787878"><path d="m550.496 23.098c5.628-3.663 12.898-4.003 19.241-2.258.056 3.769.008 7.542.026 11.314-3.014-1.327-6.56-2.192-9.73-.891-2.516.997-4.012 3.578-4.404 6.159-.473 3.274-.164 6.593-.245 9.885 6.438.015 12.877.004 19.314.007.048-4.18-.051-8.363.056-12.543 4.377-1.247 8.707-2.643 13.063-3.956.036 5.507-.052 11.018.047 16.528 4.353-.062 8.708-.015 13.063-.029v10.721c-4.37-.18-8.744-.047-13.114-.062.019 6.163.004 12.327.007 18.494.069 3.413-.183 6.845.217 10.247.242 2.006.972 4.228 2.853 5.266 3.149 1.763 7.146.993 10.038-.942v10.827c-3.772 1.639-7.989 2.137-12.069 1.848-3.872-.286-7.883-1.694-10.409-4.774-2.918-3.479-3.67-8.19-3.729-12.598-.033-9.459.004-18.919-.015-28.381-6.442-.004-12.884-.007-19.322.003-.008 14.846-.004 29.69-.004 44.536-4.399 0-8.803 0-13.203 0 0-14.842-.018-29.68.008-44.521-3.062-.059-6.127.015-9.188-.048.012-3.523.026-7.05-.007-10.578 3.047-.069 6.097-.04 9.151-.018.224-4.686-.491-9.507.909-14.072 1.184-4.122 3.816-7.84 7.446-10.164z"/><path d="m267.821 23.868c2.662-.403 5.544.506 7.308 2.589 2.068 2.28 2.449 5.91.917 8.576-1.694 3.006-5.485 4.403-8.789 3.681-3.428-.616-6.284-3.802-6.13-7.354-.099-3.741 3.028-7.074 6.694-7.492z"/><path d="m166.64 25.503h19.201c5.976 15.175 11.996 30.336 17.979 45.512 1.529 3.795 2.959 7.634 4.562 11.398 7.688-18.962 15.486-37.877 23.116-56.866 6.156-.099 12.316-.022 18.476-.037-.015 25.661-.008 51.323-.004 76.984-4.443-.011-8.884.037-13.323-.025.048-18.938-.004-37.874.021-56.815.008-.851-.021-1.701-.08-2.552-.261.396-.492.807-.693 1.232-7.63 19.384-15.406 38.714-22.992 58.116-3.16.114-6.324.008-9.489.059-7.871-19.384-15.645-38.812-23.476-58.212-.205-.403-.426-.795-.664-1.173-.161 8.297-.025 16.602-.069 24.898.004 11.491-.007 22.981.004 34.472-4.19.012-8.382 0-12.568.004-.005-25.665-.009-51.33-.001-76.995z"/><path d="m304.156 47.263c6.372-1.815 13.243-1.741 19.611.059 1.312.367 2.585.876 3.766 1.569-.073 4.206 0 8.415-.04 12.624-4.257-3.252-9.657-5.312-15.069-4.631-4.297.389-8.396 2.618-10.966 6.09-3.304 4.304-4.066 10.02-3.498 15.286.425 4.12 2.13 8.238 5.334 10.97 3.33 2.959 7.997 4.007 12.353 3.677 4.305-.494 8.367-2.316 11.847-4.861.036 3.985-.019 7.971.029 11.956-5.397 3.212-11.868 4.041-18.046 3.736-6.321-.334-12.624-2.728-17.199-7.172-4.973-4.792-7.671-11.626-7.989-18.471-.323-7.117 1.125-14.542 5.221-20.485 3.43-5.07 8.799-8.66 14.646-10.347z"/><path d="m393.606 46.313c6.335-.807 13.019-.447 18.9 2.229 5.104 2.302 9.239 6.559 11.53 11.655 2.445 5.427 3.04 11.521 2.626 17.405-.407 5.745-2.211 11.501-5.805 16.065-3.677 4.848-9.221 8.133-15.156 9.354-5.075 1.056-10.384 1.052-15.458-.015-6.071-1.298-11.692-4.821-15.253-9.947-4.18-5.939-5.367-13.492-4.836-20.609.359-6.038 2.236-12.125 6.094-16.861 4.225-5.305 10.703-8.436 17.358-9.276z"/><path d="m448.375 46.424c6.104-1.075 12.495-.286 18.273 1.903.008 4.048 0 8.092.004 12.136-4.037-2.775-8.968-4.268-13.866-4.095-2.468.095-5.181 1.14-6.307 3.487-.895 2.321-.274 5.364 1.914 6.753 3.743 2.504 8.209 3.567 12.088 5.812 3.055 1.716 6.017 3.959 7.564 7.193 2.907 6.057 1.675 14.061-3.436 18.578-4.88 4.561-11.909 5.822-18.373 5.58-4.59-.297-9.202-1.203-13.422-3.08.018-4.257-.026-8.51.021-12.763 3.549 2.577 7.645 4.422 11.979 5.17 3.017.491 6.299.513 9.111-.836 2.69-1.339 3.175-5.163 1.576-7.502-1.496-1.804-3.692-2.797-5.764-3.772-3.89-1.749-7.979-3.212-11.396-5.834-2.401-1.873-4.22-4.513-4.931-7.49-1.057-4.389-.727-9.334 1.825-13.169 2.918-4.471 7.982-7.151 13.14-8.071z"/><path d="m498.836 46.295c6.589-.818 13.584-.374 19.598 2.662 5.242 2.622 9.309 7.359 11.34 12.836 1.588 4.191 2.146 8.715 2.054 13.177.011 6.665-1.789 13.507-5.973 18.794-3.916 5.118-9.907 8.443-16.231 9.488-6.186 1.001-12.719.741-18.597-1.572-5.954-2.343-10.903-7.124-13.411-13.013-2.614-6.002-2.89-12.755-2.075-19.168.854-6.413 3.758-12.682 8.707-16.946 4.055-3.559 9.275-5.576 14.588-6.258z"/><path d="m357.056 48.162c3.645-2.189 8.274-2.372 12.253-1.034-.019 4.404 0 8.807-.011 13.21-2.604-1.687-5.852-2.409-8.924-2.097-3.748.425-6.718 3.303-8.258 6.603-1.671 3.494-1.986 7.446-1.88 11.267 0 8.796.003 17.592 0 26.388-4.342 0-8.679 0-13.017 0-.011-18.384.015-36.771-.011-55.154 4.345-.055 8.689-.033 13.034-.011-.019 3.157 0 6.313-.011 9.474 1.413-3.436 3.514-6.773 6.825-8.646z"/><path d="m262.326 47.333c4.377-.019 8.759-.062 13.137.022-.052 18.379-.004 36.763-.022 55.143-4.37 0-8.74 0-13.107 0-.012-18.387.003-36.774-.008-55.165z"/></g><path d="m397.544 56.792c3.967-.261 8.19.861 11.043 3.747 3.051 2.999 4.231 7.351 4.558 11.501.234 4.543.048 9.276-1.859 13.485-1.261 2.838-3.571 5.235-6.485 6.372-3.41 1.309-7.241 1.386-10.761.473-3.582-.942-6.622-3.53-8.275-6.827-2.127-4.245-2.445-9.154-2.006-13.811.399-4.235 1.874-8.591 5.101-11.513 2.337-2.184 5.527-3.251 8.684-3.427z" fill="#fff"/><path d="m502.4 56.803c3.729-.26 7.71.601 10.577 3.12 2.644 2.192 4.106 5.478 4.777 8.785.756 3.879.748 7.895.11 11.791-.506 2.904-1.511 5.801-3.414 8.1-1.917 2.31-4.77 3.718-7.714 4.15-3.16.473-6.489.246-9.444-1.026-3.19-1.35-5.661-4.11-6.963-7.285-1.565-3.784-1.877-7.975-1.565-12.022.301-3.92 1.411-7.941 4-10.988 2.362-2.846 5.984-4.419 9.636-4.625z" fill="#fff"/><path d="m587.813 57.973c4.37.015 8.744-.118 13.114.062v33.002c-2.893 1.936-6.889 2.705-10.038.942-1.881-1.038-2.61-3.26-2.853-5.266-.399-3.402-.147-6.834-.217-10.247-.002-6.166.013-12.33-.006-18.493z" fill="#fff"/><path d="m0 67.113c20.349.007 40.697-.004 61.046.007.004 20.35 0 40.694 0 61.043h-61.046z" fill="#33a0da"/><path d="m67.282 67.12c20.346-.007 40.694-.003 61.043-.003v61.046h-61.046c.003-20.349-.004-40.697.003-61.043z" fill="#fdb813"/></svg>