<?xml version="1.0" encoding="utf-8"?>
<!-- Generator: Adobe Illustrator 15.0.0, SVG Export Plug-In . SVG Version: 6.00 Build 0)  -->
<!DOCTYPE svg PUBLIC "-//W3C//DTD SVG 1.1//EN" "http://www.w3.org/Graphics/SVG/1.1/DTD/svg11.dtd">
<svg version="1.1" id="Layer_1" xmlns="http://www.w3.org/2000/svg" xmlns:xlink="http://www.w3.org/1999/xlink" x="0px" y="0px"
	 width="128px" height="128px" viewBox="0 0 128 128" enable-background="new 0 0 128 128" xml:space="preserve">
<g>
	<path fill="#F05125" d="M0-0.162h61.046c-0.003,20.349,0,40.697-0.003,61.046c-20.345,0-40.694,0-61.042,0V-0.162L0-0.162z"/>
	<path fill="#FFFFFF" d="M61.046-0.162h6.233c0,20.349-0.004,40.697,0.003,61.046c20.346,0,40.694-0.004,61.039,0
		c0.008-20.349,0.004-40.698,0.004-61.046h472.603v47.477c-4.355,0.015-8.711-0.033-13.063,0.029
		c-0.099-5.51-0.011-11.021-0.047-16.528c-4.356,1.312-8.687,2.709-13.063,3.956c-0.106,4.18-0.008,8.363-0.056,12.543
		c-6.438-0.003-12.876,0.007-19.314-0.007c0.081-3.292-0.228-6.61,0.245-9.885c0.393-2.581,1.889-5.162,4.404-6.159
		c3.171-1.302,6.717-0.437,9.73,0.891c-0.019-3.772,0.029-7.545-0.026-11.314c-6.343-1.745-13.613-1.404-19.241,2.258
		c-3.63,2.325-6.262,6.042-7.446,10.164c-1.4,4.564-0.686,9.386-0.909,14.072c-3.055-0.022-6.104-0.051-9.151,0.018
		c0.033,3.527,0.019,7.054,0.007,10.578c3.062,0.062,6.127-0.011,9.188,0.048c-0.025,14.842-0.008,29.68-0.008,44.521
		c4.4,0,8.804,0,13.203,0c0-14.846-0.004-29.69,0.004-44.536c6.438-0.011,12.88-0.007,19.322-0.003
		c0.019,9.462-0.019,18.922,0.015,28.381c0.059,4.407,0.811,9.118,3.729,12.598c2.526,3.08,6.537,4.488,10.409,4.774
		c4.08,0.289,8.297-0.209,12.069-1.848v26.299H128.325c0-20.349,0-40.697,0-61.046c-20.349,0-40.697-0.004-61.043,0.003
		c-0.007,20.346,0,40.694-0.003,61.043h-6.233c0-20.349,0.004-40.693,0-61.043c-20.349-0.011-40.697,0-61.046-0.007v-6.229
		c20.349,0,40.697,0,61.042,0C61.046,40.535,61.042,20.187,61.046-0.162L61.046-0.162z"/>
	<path fill="#80BB42" d="M67.279-0.162h61.046c0,20.349,0.004,40.697-0.004,61.046c-20.345-0.004-40.693,0-61.039,0
		C67.275,40.535,67.279,20.187,67.279-0.162L67.279-0.162z"/>
	<path fill="#787878" d="M550.496,23.098c5.628-3.663,12.898-4.003,19.241-2.258c0.056,3.769,0.008,7.542,0.026,11.314
		c-3.014-1.327-6.56-2.192-9.73-0.891c-2.516,0.997-4.012,3.578-4.404,6.159c-0.473,3.274-0.164,6.593-0.245,9.885
		c6.438,0.015,12.877,0.004,19.314,0.007c0.048-4.18-0.051-8.363,0.056-12.543c4.377-1.247,8.707-2.643,13.063-3.956
		c0.036,5.507-0.052,11.018,0.047,16.528c4.353-0.062,8.708-0.015,13.063-0.029v10.721c-4.37-0.18-8.744-0.047-13.114-0.062
		c0.019,6.163,0.004,12.327,0.007,18.494c0.069,3.413-0.183,6.845,0.217,10.247c0.242,2.006,0.972,4.228,2.853,5.266
		c3.149,1.763,7.146,0.993,10.038-0.942v10.827c-3.772,1.639-7.989,2.137-12.069,1.848c-3.872-0.286-7.883-1.694-10.409-4.774
		c-2.918-3.479-3.67-8.19-3.729-12.598c-0.033-9.459,0.004-18.919-0.015-28.381c-6.442-0.004-12.884-0.007-19.322,0.003
		c-0.008,14.846-0.004,29.69-0.004,44.536c-4.399,0-8.803,0-13.203,0c0-14.842-0.018-29.68,0.008-44.521
		c-3.062-0.059-6.127,0.015-9.188-0.048c0.012-3.523,0.026-7.05-0.007-10.578c3.047-0.069,6.097-0.04,9.151-0.018
		c0.224-4.686-0.491-9.507,0.909-14.072C544.234,29.14,546.866,25.422,550.496,23.098L550.496,23.098z"/>
	<path fill="#787878" d="M267.821,23.868c2.662-0.403,5.544,0.506,7.308,2.589c2.068,2.28,2.449,5.91,0.917,8.576
		c-1.694,3.006-5.485,4.403-8.789,3.681c-3.428-0.616-6.284-3.802-6.13-7.354C261.028,27.619,264.155,24.286,267.821,23.868
		L267.821,23.868z"/>
	<path fill="#787878" d="M166.64,25.503c6.401,0,12.799,0,19.201,0c5.976,15.175,11.996,30.336,17.979,45.512
		c1.529,3.795,2.959,7.634,4.562,11.398c7.688-18.962,15.486-37.877,23.116-56.866c6.156-0.099,12.316-0.022,18.476-0.037
		c-0.015,25.661-0.008,51.323-0.004,76.984c-4.443-0.011-8.884,0.037-13.323-0.025c0.048-18.938-0.004-37.874,0.021-56.815
		c0.008-0.851-0.021-1.701-0.08-2.552c-0.261,0.396-0.492,0.807-0.693,1.232c-7.63,19.384-15.406,38.714-22.992,58.116
		c-3.16,0.114-6.324,0.008-9.489,0.059c-7.871-19.384-15.645-38.812-23.476-58.212c-0.205-0.403-0.426-0.795-0.664-1.173
		c-0.161,8.297-0.025,16.602-0.069,24.898c0.004,11.491-0.007,22.981,0.004,34.472c-4.19,0.012-8.382,0-12.568,0.004
		C166.636,76.833,166.632,51.168,166.64,25.503L166.64,25.503z"/>
	<path fill="#787878" d="M304.156,47.263c6.372-1.815,13.243-1.741,19.611,0.059c1.312,0.367,2.585,0.876,3.766,1.569
		c-0.073,4.206,0,8.415-0.04,12.624c-4.257-3.252-9.657-5.312-15.069-4.631c-4.297,0.389-8.396,2.618-10.966,6.09
		c-3.304,4.304-4.066,10.02-3.498,15.286c0.425,4.12,2.13,8.238,5.334,10.97c3.33,2.959,7.997,4.007,12.353,3.677
		c4.305-0.494,8.367-2.316,11.847-4.861c0.036,3.985-0.019,7.971,0.029,11.956c-5.397,3.212-11.868,4.041-18.046,3.736
		c-6.321-0.334-12.624-2.728-17.199-7.172c-4.973-4.792-7.671-11.626-7.989-18.471c-0.323-7.117,1.125-14.542,5.221-20.485
		C292.94,52.54,298.309,48.95,304.156,47.263L304.156,47.263z"/>
	<path fill="#787878" d="M393.606,46.313c6.335-0.807,13.019-0.447,18.9,2.229c5.104,2.302,9.239,6.559,11.53,11.655
		c2.445,5.427,3.04,11.521,2.626,17.405c-0.407,5.745-2.211,11.501-5.805,16.065c-3.677,4.848-9.221,8.133-15.156,9.354
		c-5.075,1.056-10.384,1.052-15.458-0.015c-6.071-1.298-11.692-4.821-15.253-9.947c-4.18-5.939-5.367-13.492-4.836-20.609
		c0.359-6.038,2.236-12.125,6.094-16.861C380.473,50.284,386.951,47.153,393.606,46.313L393.606,46.313z"/>
	<path fill="#787878" d="M448.375,46.424c6.104-1.075,12.495-0.286,18.273,1.903c0.008,4.048,0,8.092,0.004,12.136
		c-4.037-2.775-8.968-4.268-13.866-4.095c-2.468,0.095-5.181,1.14-6.307,3.487c-0.895,2.321-0.274,5.364,1.914,6.753
		c3.743,2.504,8.209,3.567,12.088,5.812c3.055,1.716,6.017,3.959,7.564,7.193c2.907,6.057,1.675,14.061-3.436,18.578
		c-4.88,4.561-11.909,5.822-18.373,5.58c-4.59-0.297-9.202-1.203-13.422-3.08c0.018-4.257-0.026-8.51,0.021-12.763
		c3.549,2.577,7.645,4.422,11.979,5.17c3.017,0.491,6.299,0.513,9.111-0.836c2.69-1.339,3.175-5.163,1.576-7.502
		c-1.496-1.804-3.692-2.797-5.764-3.772c-3.89-1.749-7.979-3.212-11.396-5.834c-2.401-1.873-4.22-4.513-4.931-7.49
		c-1.057-4.389-0.727-9.334,1.825-13.169C438.153,50.024,443.217,47.344,448.375,46.424L448.375,46.424z"/>
	<path fill="#787878" d="M498.836,46.295c6.589-0.818,13.584-0.374,19.598,2.662c5.242,2.622,9.309,7.359,11.34,12.836
		c1.588,4.191,2.146,8.715,2.054,13.177c0.011,6.665-1.789,13.507-5.973,18.794c-3.916,5.118-9.907,8.443-16.231,9.488
		c-6.186,1.001-12.719,0.741-18.597-1.572c-5.954-2.343-10.903-7.124-13.411-13.013c-2.614-6.002-2.89-12.755-2.075-19.168
		c0.854-6.413,3.758-12.682,8.707-16.946C488.303,48.994,493.523,46.977,498.836,46.295L498.836,46.295z"/>
	<path fill="#787878" d="M357.056,48.162c3.645-2.189,8.274-2.372,12.253-1.034c-0.019,4.404,0,8.807-0.011,13.21
		c-2.604-1.687-5.852-2.409-8.924-2.097c-3.748,0.425-6.718,3.303-8.258,6.603c-1.671,3.494-1.986,7.446-1.88,11.267
		c0,8.796,0.003,17.592,0,26.388c-4.342,0-8.679,0-13.017,0c-0.011-18.384,0.015-36.771-0.011-55.154
		c4.345-0.055,8.689-0.033,13.034-0.011c-0.019,3.157,0,6.313-0.011,9.474C351.644,53.372,353.745,50.035,357.056,48.162
		L357.056,48.162z"/>
	<path fill="#787878" d="M262.326,47.333c4.377-0.019,8.759-0.062,13.137,0.022c-0.052,18.379-0.004,36.763-0.022,55.143
		c-4.37,0-8.74,0-13.107,0C262.322,84.111,262.337,65.724,262.326,47.333L262.326,47.333z"/>
	<path fill="#FFFFFF" d="M397.544,56.792c3.967-0.261,8.19,0.861,11.043,3.747c3.051,2.999,4.231,7.351,4.558,11.501
		c0.234,4.543,0.048,9.276-1.859,13.485c-1.261,2.838-3.571,5.235-6.485,6.372c-3.41,1.309-7.241,1.386-10.761,0.473
		c-3.582-0.942-6.622-3.53-8.275-6.827c-2.127-4.245-2.445-9.154-2.006-13.811c0.399-4.235,1.874-8.591,5.101-11.513
		C391.197,58.035,394.387,56.968,397.544,56.792L397.544,56.792z"/>
	<path fill="#FFFFFF" d="M502.4,56.803c3.729-0.26,7.71,0.601,10.577,3.12c2.644,2.192,4.106,5.478,4.777,8.785
		c0.756,3.879,0.748,7.895,0.11,11.791c-0.506,2.904-1.511,5.801-3.414,8.1c-1.917,2.31-4.77,3.718-7.714,4.15
		c-3.16,0.473-6.489,0.246-9.444-1.026c-3.19-1.35-5.661-4.11-6.963-7.285c-1.565-3.784-1.877-7.975-1.565-12.022
		c0.301-3.92,1.411-7.941,4-10.988C495.126,58.582,498.748,57.009,502.4,56.803L502.4,56.803z"/>
	<path fill="#FFFFFF" d="M587.813,57.973c4.37,0.015,8.744-0.118,13.114,0.062v33.002c-2.893,1.936-6.889,2.705-10.038,0.942
		c-1.881-1.038-2.61-3.26-2.853-5.266c-0.399-3.402-0.147-6.834-0.217-10.247C587.817,70.3,587.832,64.136,587.813,57.973
		L587.813,57.973z"/>
	<path fill="#33A0DA" d="M0,67.113c20.349,0.007,40.697-0.004,61.046,0.007c0.004,20.35,0,40.694,0,61.043H0V67.113L0,67.113z"/>
	<path fill="#FDB813" d="M67.282,67.12c20.346-0.007,40.694-0.003,61.043-0.003c0,20.349,0,40.697,0,61.046H67.279
		C67.282,107.814,67.275,87.466,67.282,67.12L67.282,67.12z"/>
</g>
</svg>
