<svg viewBox="0 0 761 740" xmlns="http://www.w3.org/2000/svg"><path d="m189 287-2-2 51-65 3 2zm293-73 1-75h4l-1 75zm-138-72 76-40 2 3-76 40zm201-42 74 37-2 3-74-37z" fill="#babcbe"/><ellipse cx="481" cy="74" fill="none" rx="69" ry="69" stroke="#3cacd3" stroke-miterlimit="10" stroke-width="10" transform="matrix(.05233596 -.99862953 .99862953 .05233596 381.927819 550.467945)"/><path d="m138 278-43-117 3-1 43 117zm79-120-90-36 1-3 89 36zm200 106-84-50 1-3 85 50zm133-9 83-69 2 3-83 69z" fill="#babcbe"/><g fill="none" stroke="#3cacd3" stroke-miterlimit="10" stroke-width="10"><ellipse cx="282" cy="168" rx="71" ry="71" transform="matrix(.05233596 -.99862953 .99862953 .05233596 99.471499 440.821088)"/><ellipse cx="685" cy="145" rx="71" ry="71" transform="matrix(.05233596 -.99862953 .99862953 .05233596 504.348587 821.472518)"/><ellipse cx="71" cy="98" rx="66" ry="66" transform="matrix(.05233596 -.99862953 .99862953 .05233596 -30.581547 163.773773)"/><ellipse cx="486" cy="283" rx="73" ry="73" transform="matrix(.05233596 -.99862953 .99862953 .05233596 177.952567 753.522878)"/><ellipse cx="155" cy="333" rx="60" ry="60" transform="matrix(.05233596 -.99862953 .99862953 .05233596 -185.655708 470.359704)"/></g><path d="m379 579 3 56-8 96-10 1-13-87-18-74z" fill="#306299"/><path d="m364 739h16l1-5-6-4h-11z" fill="#292949"/><path d="m304 562-3 43 7 126 11 1 16-83 14-91z" fill="#306299"/><path d="m319 739-16 1-1-5 6-5 11 1z" fill="#292949"/><path d="m366 434-33-4s-19 2-32 46c-7 25-9 63-9 92 1 5 5 23 25 20 33-6 50-11 65-8 12 2 11-14 10-27l-5-40z" fill="#babcbe"/><path d="m359 392c-8-2-17-3-25-2-2 1-4 1-5 3l-1 2c-2 8-4 20 1 27l4 3 6 3-2 5c2 3 11 4 12 1l1-7 3-2c4-2 6-6 8-11l5-13v-6l-5-2z" fill="#b97262"/><path d="m363 414c4-4 9-10 9-15 0-4 0-10-3-14-2-4-8-5-11-7l-10-6-2-1h-3l-23 6-4 2v3l3 12 3 9 7 6 3 6c4 10 23 7 29 1z" fill="#292949"/><path d="m359 437 23-25-6-67 10-4 21 67-7 21-31 41z" fill="#babcbe"/><path d="m384 341v-6c0-2-6-7-7-9-1-1-5 5-5 6l3 7-2 2 3 4zm-140 63c-2-2-3-9-1-11 3-6 5 3 7 5l2-2c1 0 3 9 2 11-1 3-3 2-6 3z" fill="#b97262"/><path d="m319 468-51-10-22-48 9-7 24 33h26l24 1z" fill="#babcbe"/><circle cx="686" cy="118" fill="#c3e9fd" r="7"/><path d="m664 136c3 3 3 8 0 10v1c-3 2-7 2-10 0-3-3-3-8 0-10v-1c3-2 7-2 10 0z" fill="#db7b6a"/><path d="m692 114-10 10a7 7 0 0 0 10-10zm-2-2 2 2a7 7 0 1 0 -12 8z" fill="#a8e0fd"/><path d="m693 130h-14a5 5 0 1 0 0 9h14a5 5 0 1 0 0-9z" fill="#e9e1e1"/><path d="m693 130h-7v9h7a5 5 0 1 0 0-9z" fill="#67ab65"/><path d="m719 112c-1-2-5-2-6 0l-10 10a5 5 0 0 0 6 7l10-10c2-2 2-5 0-7z" fill="#e9e1e1"/><path d="m713 112-5 5 6 7 5-5a5 5 0 0 0 -6-7zm-55 23h2c-2-1-5 0-6 1a7 7 0 0 0 4 12zm6 1-4-1v13l4-1c3-3 3-8 0-10z" fill="#dd614d"/><path d="m670 122-10-10a5 5 0 0 0 -7 7l10 10a5 5 0 0 0 7-7z" fill="#e9e1e1"/><path d="m653 119 5 5 7-7-5-5a5 5 0 0 0 -7 7z" fill="#f0cb33"/><path d="m718 140c-2-1-4-1-5 1l-7 9-5 3-23 3 16-6 1-3a3 3 0 0 0 -3-2l-21 6-6 5-4 7-6 18h18l1-7c0-2 1-3 3-3l30-11c2 0 4-2 5-4l7-11a4 4 0 0 0 -1-5z" fill="#e4c99a"/><path d="m175 326v25c0 3-2 5-5 5h-37a5 5 0 0 1 -5-5v-25l20 17c2 2 5 2 7 0z" fill="#ce8c68"/><path d="m175 326-20 17c-2 2-5 2-7 0l-20-17c0-3 2-5 5-5h37c3 0 5 2 5 5z" fill="#f3ea82"/><path d="m174 354-1 1-12-12a1 1 0 0 1 2-1zm-33-11-11 12-2-1h1l11-12a1 1 0 1 1 1 1z" fill="#9a5940"/><path d="m168 332a16 16 0 0 1 -5-12v-8l12-6 11 6v8c0 7-4 13-10 15l-1 1-2-1z" fill="#9ae1fd"/><path d="m173 325h-1l-3-4a1 1 0 1 1 2-1l2 3 7-6a1 1 0 0 1 1 2l-7 6z" fill="#40619d"/><path d="m70 98-6-1h-16l-6 1c-2 1-4 3-4 5v22l1 1h34l1-1v-22c0-2-2-4-4-5z" fill="#5494d8"/><path d="m70 98-4-1c0 2-3 8-9 12h-2c-6-4-9-10-9-12l-4 1c-2 1-4 3-4 5v22l1 1h35v-23c0-2-2-4-4-5z" fill="#a68566"/><path d="m50 91h12v7h-12z" fill="#c29970"/><path d="m67 79v-4c0-4-4-8-9-8h-4c-5 0-9 4-9 8v4a2 2 0 1 0 0 5 11 11 0 0 0 22 0 2 2 0 1 0 0-5z" fill="#e2be88"/><path d="m51 84v-9c0-4 4-8 8-8h-5c-5 0-9 4-9 8v4a2 2 0 1 0 0 5 11 11 0 0 0 14 10c-4-1-8-5-8-10z" fill="#d6ac7a"/><path d="m56 90-3-2a1 1 0 1 1 2-2h2a1 1 0 1 1 2 2z" fill="#c29970"/><path d="m51 84-1-2v-1a1 1 0 1 1 2 0v1zm10 0-1-2v-1a1 1 0 1 1 2 0v1z" fill="#5d483f"/><path d="m48 72a2 2 0 1 0 -5 1 3 3 0 0 0 1 6 3 3 0 0 0 2-5zm16 0a2 2 0 1 1 5 1 3 3 0 0 1 -1 6 3 3 0 0 1 -2-5z" fill="#d5daeb"/><path d="m44 104-5-4-1 3v22l1 1h6v-17zm24 0 5-4 1 3v23h-7v-17z" fill="#5494d8"/><path d="m56 106-1-1v-7h2v7z" fill="#467cbe"/><path d="m50 95 6 3-3 3h-2l-3-4v-2zm12 0-6 3 3 3h2l3-4v-2z" fill="#5fa7ec"/><path d="m96 96c2 0 4 1 4 3a4 4 0 0 1 -1 7h-6v-7c0-2 1-3 3-3zm-16 0c-2 0-4 1-4 3a4 4 0 0 0 1 7h6v-7c0-2-1-3-3-3z" fill="#c7cddf"/><path d="m101 106-7-3-1-1v-3h-10v3l-1 1-7 3c-2 1-4 3-4 5v14l2 1h31l1-1v-14c0-2-2-4-4-5z" fill="#8a6d52"/><path d="m101 106-5-2c-2 2-5 3-8 3s-6-1-8-3l-5 2c-2 1-4 3-4 5v14l2 1h31l1-1v-14c0-2-2-4-4-5z" fill="#f4da6c"/><circle cx="88" cy="85" fill="#d5daeb" r="13"/><path d="m83 85c0-6 4-11 9-13a13 13 0 0 0 -17 13 13 13 0 0 0 17 12c-5-2-9-6-9-12z" fill="#c7cddf"/><path d="m88 103c-6 0-11-5-11-11v-4l1-1 5-4h1c6 4 15 3 15 8v1c0 6-5 11-11 11z" fill="#b59573"/><path d="m83 92v-9l-5 4-1 1v4a11 11 0 0 0 14 10c-4-1-8-5-8-10z" fill="#a68566"/><path d="m88 98-3-2a1 1 0 1 1 2-1h4v1z" fill="#8a6d52"/><path d="m86 92h-1v-2l3-2c2 0 3 1 3 2a1 1 0 1 1 -1 1h-3z" fill="#717384"/><path d="m83 94a4 4 0 1 1 0-7 4 4 0 0 1 0 7zm10 0a4 4 0 1 1 0-7 4 4 0 0 1 0 7z" fill="#7f8296"/><path d="m93 90a1 1 0 1 0 0 2 1 1 0 0 0 0-2zm-10 0a1 1 0 1 0 0 2 1 1 0 0 0 0-2z" fill="#fff"/><path d="m76 112-4-4-1 3v14l2 1h4v-11zm24 0 4-4 1 3v14l-1 1h-5v-11zm-12-1c5 0 9-2 11-6l-3-1c-2 2-5 3-8 3s-6-1-8-3l-3 1c3 4 7 6 11 6z" fill="#f0c65a"/><path d="m286 176v-6h-35v-29h48v21h3v-22c0-2-1-3-2-3h-50c-1 0-3 1-3 3v34l3 2z" fill="#f4d853"/><path d="m251 141v29h35v-5c0-2 1-3 2-3h11v-21zm5 14 5 5v-7 7l5-5-5 5zm28-4-5 5 5-5 5 5z" fill="#e8e3db"/><path d="m269 176h12v11h-12z" fill="#f4d853"/><path d="m311 162h-23c-1 0-2 1-2 3v29h28v-29c0-2-1-3-3-3zm-11 24a8 8 0 1 1 0-16 8 8 0 0 1 0 16z" fill="#e8e3db"/><path d="m286 201 2 2h23c2 0 3-1 3-2v-7h-28z" fill="#f4d853"/><path d="m300 170a8 8 0 1 0 0 16 8 8 0 0 0 0-16zm-1 12-3-3 3 3 6-7z" fill="#9bd44e"/><g fill="#272425"><path d="m311 161h-8v-21c0-2-1-4-3-4h-50c-2 0-4 2-4 4v34c0 2 2 3 4 3h18v9h-5v3h22v12c0 2 2 4 3 4h23c2 0 4-2 4-4v-36c0-2-2-4-4-4zm1 4v28h-25v-28l1-1h23zm-14-4h-10c-1 0-3 2-3 4v4h-33v-27h46zm-48 14-1-1v-34l1-2h50l1 2v21h-1v-21h-50v31h35v4zm20 11v-9h9v9zm12 0v-9h3v9zm29 16h-23l-1-1v-6h25v6z"/><path d="m295 198h3v2h-3zm4 0h2v2h-2zm3 0h2v2h-2zm-6-20-1 1 4 4 7-7-2-2-5 6z"/><path d="m291 178a9 9 0 1 0 18 0 9 9 0 0 0 -18 0zm16 0a7 7 0 1 1 -14 0 7 7 0 0 1 14 0zm-27-21 3-3v4c0 3-3 6-6 6h-14v2h14c5 0 8-4 8-8v-4l3 3 2-2-6-6-6 6zm-13-1-2-2-3 3v-4c0-3 3-5 6-5h14v-3h-14c-4 0-8 4-8 8v4l-3-3-1 2 5 6z"/></g><path d="m488 38h-28c-2 0-3 1-3 3v59c0 1 1 2 3 2h41l2-2v-46z" fill="#e2e1df"/><path d="m495 61h-29a1 1 0 1 1 0-2h29a1 1 0 0 1 0 2zm0 5h-29a1 1 0 1 1 0-2h29a1 1 0 1 1 0 2zm0 5h-29a1 1 0 0 1 0-2h29a1 1 0 0 1 0 2zm0 5h-29a1 1 0 1 1 0-3h29a1 1 0 0 1 0 3zm0 4h-29a1 1 0 1 1 0-2h29a1 1 0 1 1 0 2zm-3 5h-26a1 1 0 0 1 0-2h26a1 1 0 1 1 0 2zm-2 5h-24a1 1 0 1 1 0-2h24a1 1 0 1 1 0 2z" fill="#acacac"/><path d="m490 54h13l-15-16v13c0 2 1 3 2 3zm-30 46v-59c0-2 1-3 2-3h-2c-2 0-3 1-3 3v59c0 1 1 2 3 2h2z" fill="#cfcecd"/><path d="m491 51v-10l-3-3v13c0 2 1 3 2 3h3c-1 0-2-1-2-3z" fill="#bfbfbf"/><path d="m493 94v-5a4 4 0 0 1 9 0v5h3v-5a7 7 0 0 0 -15 0v5z" fill="#f0c76a"/><path d="m499 82h-2c-4 0-7 3-7 7v5h3v-5c0-4 2-7 6-7z" fill="#dea140"/><path d="m505 93h-15l-2 2v13l2 2h15l2-2v-13z" fill="#6896d0"/><path d="m491 108v-13l2-2h-3l-2 2v13l2 2h3zm9-9a2 2 0 1 1 -5 0 2 2 0 0 1 5 0z" fill="#4771ad"/><path d="m498 99 1-1a2 2 0 0 0 -4 1 2 2 0 0 0 4 2z" fill="#3b5d9e"/><path d="m492 297 8-8-3-1c-2 0-3-2-3-4v-7h-16v7c0 2-1 4-3 4l-3 1 8 8c3 3 8 3 12 0z" fill="#f7e5ce"/><path d="m490 277v11c0 2 1 4 3 4l3 1 4-4-3-1c-2 0-3-2-3-4v-7z" fill="#ead3b9"/><path d="m496 288-10 7-10-7-2-1-17 5-3 4-4 22c0 2 1 3 2 3h68c1 0 2-1 2-3l-4-22-3-4-17-5z" fill="#7dd7dc"/><path d="m474 287-3 1 6 9 3 1 6-3-10-7zm18 11 2-1 7-9-3-1-2 1-10 7z" fill="#cecfd0"/><path d="m486 295-5 2 3 4h4l3-4zm2 6h-4l-4 20h12z" fill="#da644d"/><path d="m486 317-12-30-17 5-3 4-4 22c0 2 1 3 2 3h68c1 0 2-1 2-3l-4-22-3-4-17-5z" fill="#e3edf9"/><path d="m522 318-4-22-3-4-17-5-3 6 13 3 1 2 4 23h7c1 0 2-1 2-3z" fill="#cddbe8"/><path d="m504 304-1-1v-14c0-5-4-9-9-9a1 1 0 0 1 0-2c6 0 11 5 11 11v14zm-36-9-1-1v-5c0-6 4-11 10-11a1 1 0 1 1 0 2c-4 0-8 4-8 9v5z" fill="#587889"/><circle cx="504" cy="304" fill="#4e83b4" r="5"/><circle cx="504" cy="304" fill="#e3edf9" r="2"/><path d="m472 314h-2a1 1 0 1 1 0-3h2a1 1 0 0 0 1 0l-1-12-1-1c0-2-1-2-3-2a4 4 0 0 0 -4 3l-1 12a1 1 0 0 0 1 0h1a1 1 0 1 1 0 3h-1a3 3 0 0 1 -3-4l1-11v-2c1-2 3-4 6-4a6 6 0 0 1 6 6l1 11a3 3 0 0 1 -3 4z" fill="#3f5970"/><path d="m472 265v-4h-3c-2 0-3 1-3 2v2c0 1 1 3 3 3h3zm31-4h-3v7h3l2-3v-2z" fill="#ead3b9"/><path d="m496 245c-2-2-6-2-10-2-5 0-8 0-10 2-4 3-5 7-5 11v12c0 4 5 15 15 15s15-11 15-15v-12c0-4-2-8-5-11z" fill="#f7e5ce"/><path d="m496 245-3-2v25c0 3-4 12-11 14l4 1c10 0 15-11 15-15v-12c0-4-2-8-5-11z" fill="#ead3b9"/><path d="m495 239h-18c-5 0-9 4-9 9v14l4 1h1v-12c0-2 2-3 4-3h3l3 1a5 5 0 0 0 6 0l3-1h3c2 0 4 1 4 3v12h1l3-1v-14c0-5-3-9-8-9z" fill="#ebae38"/><path d="m495 239h-8c4 0 8 4 8 9 2 0 4 1 4 3v12h1l3-1v-14c0-5-3-9-8-9z" fill="#e58e2e"/></svg>