<?xml version="1.0" encoding="utf-8"?>
<!-- Generator: Adobe Illustrator 15.0.0, SVG Export Plug-In . SVG Version: 6.00 Build 0)  -->
<!DOCTYPE svg PUBLIC "-//W3C//DTD SVG 1.1//EN" "http://www.w3.org/Graphics/SVG/1.1/DTD/svg11.dtd">
<svg version="1.1" id="Layer_1" xmlns="http://www.w3.org/2000/svg" xmlns:xlink="http://www.w3.org/1999/xlink" x="0px" y="0px"
	 width="128px" height="128px" viewBox="0 0 128 128" enable-background="new 0 0 128 128" xml:space="preserve">
<g>
	<path fill-rule="evenodd" clip-rule="evenodd" fill="#EF4135" d="M44.152,1c5.858,0,10.65,4.584,10.65,10.187v104.585
		c0,5.604-4.792,10.187-10.65,10.187c-5.859,0-10.652-4.583-10.652-10.187V11.186C33.5,5.583,38.293,1,44.152,1L44.152,1L44.152,1z"
		/>
	<path fill-rule="evenodd" clip-rule="evenodd" fill="#EF4135" d="M86.74,1C92.6,1,97.392,5.583,97.392,11.186v104.585
		c0,5.604-4.792,10.187-10.651,10.187c-5.857,0-10.65-4.583-10.65-10.187V11.186C76.09,5.583,80.883,1,86.74,1L86.74,1L86.74,1z"/>
	<path fill-rule="evenodd" clip-rule="evenodd" d="M634.121,38.837v-8.268h3.981v-1.722h-10.141v1.722h3.968v8.268H634.121
		L634.121,38.837L634.121,38.837z M647.806,30.072l-2.627,6.484c-0.15,0.306-0.15,0.316-0.3,0.001l-2.629-6.487
		c-0.089-0.211-0.188-0.42-0.315-0.614c-0.478-0.667-1.208-0.765-1.998-0.698c-0.811,0.078-1.359,0.6-1.382,1.386v8.693h2.193
		l-0.043-7.704V31.13c0.026-0.25,0.099-0.024,0.132,0.055l0.009,0.022l2.602,6.488c0.295,0.802,0.717,1.266,1.668,1.252
		c0.89-0.042,1.189-0.534,1.493-1.249l2.603-6.494c0.036-0.102,0.148-0.358,0.155-0.072l-0.059,7.704h2.192v-8.695
		c-0.043-0.936-0.678-1.322-1.598-1.401C648.823,28.713,648.198,29.083,647.806,30.072L647.806,30.072L647.806,30.072z"/>
	<path fill-rule="evenodd" clip-rule="evenodd" d="M563.146,108.537h45.985c12.124-0.073,18.739-7.035,18.679-18.554
		c-0.034-6.394-2.203-12.215-7.997-15.972c-4.555-2.608-9.544-3.957-14.607-5.361l-14.927-3.979c-2.602-0.715-5.684-1.475-7.89-3.01
		c-1.312-1.149-1.489-2.03-1.514-3.687c0.049-3.098,1.418-4.139,5.375-4.139h38.438V38.995h-40.786
		c-10.469,0.04-18.826,2.993-21.193,13.658c-1.198,6.566-0.358,13.69,4.434,18.821c4.071,3.866,9.396,5.724,14.825,7.159
		l13.266,3.48c3.303,0.868,6.671,1.691,9.867,2.885c0.945,0.384,1.995,0.85,2.522,1.744c0.766,1.297,0.984,3.812,0.19,5.151
		c-0.793,1.336-2.359,1.763-4.038,1.803h-40.63V108.537L563.146,108.537L563.146,108.537z"/>
	<path fill-rule="evenodd" clip-rule="evenodd" d="M496.486,53.583c7.024,0.038,14.702,1.376,15.493,9.349
		c0.052,1.531,0.22,2.503-1.541,2.667h-29.537c0.096-3.039,0.556-6.112,2.878-8.432C486.662,54.289,491.402,53.583,496.486,53.583
		L496.486,53.583L496.486,53.583z M491.735,93.654c-4.404-0.295-7.784-1.242-9.681-5.351c-0.838-2.53-1.041-5.221-1.156-7.863
		h38.093c5.32-0.078,9.44-2.321,11.477-7.139c1.047-2.93,1.264-6.143,1.128-9.218c-0.331-7.484-2.366-14.276-8.384-19.243
		c-7.623-5.781-17.387-6.098-26.699-6.098c-9.856,0.068-20.324,0.942-27.815,7.968c-7.085,7.27-7.339,17.125-7.396,26.525
		c-0.009,4.532,0.052,9.049,0.661,13.55c0.783,5.237,2.328,9.965,5.827,14.141c3.899,4.227,8.547,6.341,14.307,7.218
		c2.367,0.296,4.726,0.394,7.11,0.394h40.135V93.696h-35.574L491.735,93.654L491.735,93.654L491.735,93.654z"/>
	<path fill-rule="evenodd" clip-rule="evenodd" d="M264.984,78.98v13.337c0.016,1.687-1.089,1.66-2.516,1.66h-21.128
		c-4.491-0.271-5.13-4.062-5.173-7.49c0.064-3.912,0.432-7.397,5.395-7.507H264.984L264.984,78.98L264.984,78.98z M221.69,39.275
		v14.842h35.83c2.152,0.02,4.04,0.357,5.628,1.841c1.469,1.614,1.837,3.36,1.836,5.421v2.76h-28
		c-4.019,0.025-7.553,0.541-11.126,2.412c-7.487,4.499-9.167,11.351-9.239,19.307c0.055,8.002,1.381,16.617,9.266,21.015
		c3.602,1.686,7.162,1.946,11.104,1.946h32.898c9.194-0.062,14.09-4.167,14.125-12.883V61.724c-0.091-4.887-0.878-9.49-3.322-13.831
		c-3.886-6.098-10.726-8.461-17.936-8.618H221.69L221.69,39.275L221.69,39.275z"/>
	<path fill-rule="evenodd" clip-rule="evenodd" d="M150.327,61.279V38.244c0.005-0.965-0.077-2.035,0.618-2.81
		c0.808-0.659,1.657-0.592,2.669-0.592h27.692c6.491,0.056,10.405,1.497,11.635,7.86c0.61,4.049,0.605,8.509-0.407,12.497
		c-1.712,5.576-6.323,6.08-11.484,6.08H150.327L150.327,61.279L150.327,61.279z M150.327,108.819V77.986h40.753
		c5.787-0.113,11.392-1.578,15.836-5.246c4.886-4.527,6.672-10.526,7.487-16.922c0.582-5.337,0.585-10.814-0.034-16.149
		c-0.56-4.175-1.588-8.107-3.755-11.8c-4.892-7.622-12.871-9.659-21.727-9.729h-0.944h-43.307
		c-4.732,0.031-8.955,1.144-12.255,4.555c-2.645,3.168-3.02,6.413-3.034,10.324v75.801H150.327L150.327,108.819L150.327,108.819z"/>
	<path fill-rule="evenodd" clip-rule="evenodd" d="M297.691,46.187c-5.32,5.568-6.576,12.164-6.656,19.488v42.862h19.029V69.545
		c0.034-3.714,0.316-7.37,2.259-10.668c2.855-4.128,7.49-5.014,12.354-5.041h11.989V38.995H320.76
		C311.945,38.995,304.165,40.4,297.691,46.187L297.691,46.187L297.691,46.187z"/>
	<polygon fill-rule="evenodd" clip-rule="evenodd" points="556.332,108.261 537.306,108.261 537.306,17.578 556.332,17.578 
		556.332,108.261 556.332,108.261 	"/>
	<polygon fill-rule="evenodd" clip-rule="evenodd" points="455.392,108.537 436.361,108.537 436.361,17.858 455.392,17.858 
		455.392,108.537 455.392,108.537 	"/>
	<polygon fill-rule="evenodd" clip-rule="evenodd" points="429.34,108.542 410.312,108.542 410.312,17.858 429.34,17.858 
		429.34,108.542 429.34,108.542 	"/>
	<path fill-rule="evenodd" clip-rule="evenodd" d="M384.265,78.7v13.335c0.016,1.687-1.09,1.661-2.515,1.661h-21.13
		c-4.491-0.272-5.13-4.062-5.173-7.49c0.066-3.911,0.433-7.396,5.396-7.506H384.265L384.265,78.7L384.265,78.7z M340.97,38.995
		v14.841h35.83c2.152,0.019,4.04,0.357,5.63,1.84c1.467,1.615,1.836,3.361,1.835,5.423v2.759h-28.001
		c-4.018,0.026-7.551,0.542-11.125,2.412c-7.487,4.5-9.168,11.352-9.24,19.308c0.055,8.003,1.381,16.617,9.268,21.015
		c3.601,1.686,7.16,1.945,11.102,1.945h32.899c9.195-0.062,14.089-4.166,14.124-12.882V61.442c-0.091-4.888-0.878-9.49-3.321-13.83
		c-3.886-6.098-10.727-8.462-17.936-8.618H340.97L340.97,38.995L340.97,38.995z"/>
</g>
</svg>
