<svg enable-background="new 0 0 128 128" height="128" viewBox="0 0 128 128" width="128" xmlns="http://www.w3.org/2000/svg"><g clip-rule="evenodd" fill-rule="evenodd"><path d="m44.152 1c5.858 0 10.65 4.584 10.65 10.187v104.585c0 5.604-4.792 10.187-10.65 10.187-5.859 0-10.652-4.583-10.652-10.187v-104.586c0-5.603 4.793-10.186 10.652-10.186z" fill="#ef4135"/><path d="m86.74 1c5.86 0 10.652 4.583 10.652 10.186v104.585c0 5.604-4.792 10.187-10.651 10.187-5.857 0-10.65-4.583-10.65-10.187v-104.585c-.001-5.603 4.792-10.186 10.649-10.186z" fill="#ef4135"/><path d="m634.121 38.837v-8.268h3.981v-1.722h-10.141v1.722h3.968v8.268zm13.685-8.765-2.627 6.484c-.15.306-.15.316-.3.001l-2.629-6.487c-.089-.211-.188-.42-.315-.614-.478-.667-1.208-.765-1.998-.698-.811.078-1.359.6-1.382 1.386v8.693h2.193l-.043-7.704v-.003c.026-.25.099-.024.132.055l.009.022 2.602 6.488c.295.802.717 1.266 1.668 1.252.89-.042 1.189-.534 1.493-1.249l2.603-6.494c.036-.102.148-.358.155-.072l-.059 7.704h2.192v-8.695c-.043-.936-.678-1.322-1.598-1.401-1.079-.027-1.704.343-2.096 1.332z"/><path d="m563.146 108.537h45.985c12.124-.073 18.739-7.035 18.679-18.554-.034-6.394-2.203-12.215-7.997-15.972-4.555-2.608-9.544-3.957-14.607-5.361l-14.927-3.979c-2.602-.715-5.684-1.475-7.89-3.01-1.312-1.149-1.489-2.03-1.514-3.687.049-3.098 1.418-4.139 5.375-4.139h38.438v-14.84h-40.786c-10.469.04-18.826 2.993-21.193 13.658-1.198 6.566-.358 13.69 4.434 18.821 4.071 3.866 9.396 5.724 14.825 7.159l13.266 3.48c3.303.868 6.671 1.691 9.867 2.885.945.384 1.995.85 2.522 1.744.766 1.297.984 3.812.19 5.151-.793 1.336-2.359 1.763-4.038 1.803h-40.63v14.841z"/><path d="m496.486 53.583c7.024.038 14.702 1.376 15.493 9.349.052 1.531.22 2.503-1.541 2.667h-29.537c.096-3.039.556-6.112 2.878-8.432 2.883-2.878 7.623-3.584 12.707-3.584zm-4.751 40.071c-4.404-.295-7.784-1.242-9.681-5.351-.838-2.53-1.041-5.221-1.156-7.863h38.093c5.32-.078 9.44-2.321 11.477-7.139 1.047-2.93 1.264-6.143 1.128-9.218-.331-7.484-2.366-14.276-8.384-19.243-7.623-5.781-17.387-6.098-26.699-6.098-9.856.068-20.324.942-27.815 7.968-7.085 7.27-7.339 17.125-7.396 26.525-.009 4.532.052 9.049.661 13.55.783 5.237 2.328 9.965 5.827 14.141 3.899 4.227 8.547 6.341 14.307 7.218 2.367.296 4.726.394 7.11.394h40.135v-14.842h-35.574z"/><path d="m264.984 78.98v13.337c.016 1.687-1.089 1.66-2.516 1.66h-21.128c-4.491-.271-5.13-4.062-5.173-7.49.064-3.912.432-7.397 5.395-7.507zm-43.294-39.705v14.842h35.83c2.152.02 4.04.357 5.628 1.841 1.469 1.614 1.837 3.36 1.836 5.421v2.76h-28c-4.019.025-7.553.541-11.126 2.412-7.487 4.499-9.167 11.351-9.239 19.307.055 8.002 1.381 16.617 9.266 21.015 3.602 1.686 7.162 1.946 11.104 1.946h32.898c9.194-.062 14.09-4.167 14.125-12.883v-34.212c-.091-4.887-.878-9.49-3.322-13.831-3.886-6.098-10.726-8.461-17.936-8.618z"/><path d="m150.327 61.279v-23.035c.005-.965-.077-2.035.618-2.81.808-.659 1.657-.592 2.669-.592h27.692c6.491.056 10.405 1.497 11.635 7.86.61 4.049.605 8.509-.407 12.497-1.712 5.576-6.323 6.08-11.484 6.08zm0 47.54v-30.833h40.753c5.787-.113 11.392-1.578 15.836-5.246 4.886-4.527 6.672-10.526 7.487-16.922.582-5.337.585-10.814-.034-16.149-.56-4.175-1.588-8.107-3.755-11.8-4.892-7.622-12.871-9.659-21.727-9.729h-.944-43.307c-4.732.031-8.955 1.144-12.255 4.555-2.645 3.168-3.02 6.413-3.034 10.324v75.801h20.98z"/><path d="m297.691 46.187c-5.32 5.568-6.576 12.164-6.656 19.488v42.862h19.029v-38.992c.034-3.714.316-7.37 2.259-10.668 2.855-4.128 7.49-5.014 12.354-5.041h11.989v-14.841h-15.906c-8.815 0-16.595 1.405-23.069 7.192z"/><path d="m556.332 108.261h-19.026v-90.683h19.026z"/><path d="m455.392 108.537h-19.031v-90.679h19.031z"/><path d="m429.34 108.542h-19.028v-90.684h19.028z"/><path d="m384.265 78.7v13.335c.016 1.687-1.09 1.661-2.515 1.661h-21.13c-4.491-.272-5.13-4.062-5.173-7.49.066-3.911.433-7.396 5.396-7.506zm-43.295-39.705v14.841h35.83c2.152.019 4.04.357 5.63 1.84 1.467 1.615 1.836 3.361 1.835 5.423v2.759h-28.001c-4.018.026-7.551.542-11.125 2.412-7.487 4.5-9.168 11.352-9.24 19.308.055 8.003 1.381 16.617 9.268 21.015 3.601 1.686 7.16 1.945 11.102 1.945h32.899c9.195-.062 14.089-4.166 14.124-12.882v-34.214c-.091-4.888-.878-9.49-3.321-13.83-3.886-6.098-10.727-8.462-17.936-8.618h-41.065z"/></g></svg>