<svg enable-background="new 0 0 1100 800" viewBox="0 0 1100 800" xmlns="http://www.w3.org/2000/svg"><path d="m504 626.1c-28.2.1-56.4.8-84.5 3.9-10.6 1.2-21 3.8-31.6 4.8-21.2 2.1-42.1 6-63.4 7.8-17.2 1.4-34.4 2.3-51.5 4.1-16 1.7-33.8 1.3-49.7-1.5-11.8-2.1-23.6-3.3-35.2-6.7-13-3.8-27.1-6.5-40.6-6.4-19.3.1-38 .2-56.5 6.8-6.5 2.3-14.4 6.2-19.3 11.1-11.3 11.3-12.8 39.4-1.5 51.1 18.9 19.7 59.3 27.4 85.8 27.8 29.1.4 57.3-1.8 86.4-3 27-1.2 54-2.9 81.1-2.8 55.3.1 110.7 0 165.9-3.7 51.9-3.5 103.9-2.3 155.9-2.3 53.3 0 106.3.4 159.2 7.5 23.1 3.1 46.6 4.2 69.8 6.3 20.8 1.9 40.7 0 61.4-1.8 17.4-1.5 34.6-6 50.4-13.5 12.5-6 34.7-24.5 38.6-38.8 10.7-39.9-151.3-39-176.2-38.9-27.8.1-55.9 1-83.7 0-11.7-.4-23.2-2.7-34.6-5.2s-22.8-1.9-34.4-2.9c-48.1-4.4-96.3-3.7-144.5-3.7-15.9.1-31.6 0-47.3 0z" fill="#f1f2f2"/><path d="m139.5 465.6-3.5 81.3 10.3 138.3 15.4 1.1 18.7-125.6 25.8-106.3z" fill="#9ea6ad"/><path d="m161.1 692.7-17.2 7.2-7.7-8.9 8.9-7.8 16.6 1.2z" fill="#1a3151"/><path d="m248.4 436.8 3.4 61.5-10 182.7-15.4.8-23.1-119.9-20.4-131.4z" fill="#9ea6ad"/><path d="m226.8 688.3 17.1 7.5 7.9-8.8-8.8-7.9-16.6.9z" fill="#1a3151"/><path d="m135.5 260.9 46.5-13.1s26.8-1.6 55.3 57.9c15.8 33.1 28.2 87.5 36 129.2-.1 6.2-2.2 33.4-30.4 33.6-48.5.4-74.9-3-94.8 4.3-16.9 6.8-19.5-17.6-20.7-36.3l-2.7-58.1z" fill="#145566"/><path d="m134.7 200.3c11.5-4.7 23.4-9.1 35.7-8.8 2.7.1 5.7.5 7.5 2.5.7.8 1.2 1.7 1.6 2.7 4.9 10.7 11.6 26.7 5.9 38.3-1.1 2.2-2.7 4.1-4.5 5.7-2.4 2.2-5.2 3.8-8.2 5 1.1 2.7 2.5 5.3 4.1 7.7-2 4.6-14.7 7.2-17.7 3.7-.7-3.4-1.4-6.8-2.1-10.2-1.7-.4-3.3-.9-4.9-1.6-6.1-2.7-10.6-7.5-13.7-13.2-3.4-6.3-7.7-12-10.9-18.4-1.2-2.3-2.2-5-1.3-7.5 1-2.6 3.8-3.9 6.4-5 .6-.3 1.3-.6 2.1-.9z" fill="#aa6755"/><path d="m175.5 200c-6.5-2.8-15.7-2.9-21.2-1.6-16.6 4.1-20.6 17.4-18.9 33-5.6-5.1-15.5-11-17.3-18.5-1.5-6.1-2-14.7.5-20.6 2.4-5.5 10.2-9.7 14.7-13.4 4.2-3.5 8.4-7 12.6-10.6.9-.7 1.8-1.5 2.8-1.9 1.3-.4 2.7-.3 4-.2 11.5 1 22.9 2 34.4 2.9 2.2.2 4.7.6 5.9 2.5.7 1.2.6 2.6.6 3.9-.3 5.9-1.7 12.2-1.3 18-.1 3.5.8 21-5.5 20-2.2-2.6-3.1-6-5-8.9-1.4-1.9-3.6-3.4-6.3-4.6z" fill="#1a3151"/><path d="m182 247.8 18.4 2.3 75.3 56.2 7.6 21.4-22 55.7-11.4-17.1 6.6-39.5-23-11-37.9-57z" fill="#145566"/><path d="m240 159.7h397.4v525.7h-397.4z" fill="#ff7003" transform="matrix(.9962 -.08746548 .08746548 .9962 -35.28 39.9956)"/><path d="m259.8 176.5h357.3v486.4h-357.3z" fill="#fcfcfc" transform="matrix(.9962 -.08746538 .08746538 .9962 -35.0264 39.962)"/><path d="m340 174.8h155.2v14.4h-155.2z" opacity=".12" transform="matrix(.9962 -.08746338 .08746338 .9962 -14.3218 37.2235)"/><path d="m458.8 127.3-2.4.2-.1-1.6c-1.3-15.1-16.6-26.1-34.1-24.6l-23.1 2c-17.5 1.5-30.6 15-29.3 30.1l.1 1.6-2.4.2c-17.5 1.5-30.6 15-29.3 30.1l2.7 30.6 154.6-13.6-2.7-30.6c-1.3-14.9-16.5-25.9-34-24.4zm-25.2 2.9-40.7 3.6c-4.2.4-7.9-2.7-8.2-6.8-.4-4.1 2.7-7.8 6.9-8.2l40.7-3.6c4.2-.4 7.9 2.7 8.2 6.8s-2.8 7.8-6.9 8.2z" fill="#e8ebed"/><g fill="#879195" opacity=".47"><path d="m352.6 364.2c-17.4 1.5-34.8 3.1-52.3 4.6-1.5.1-2.6 1.5-2.5 2.9 1.5 17.3 3 34.5 4.6 51.8.1 1.5 1.5 2.6 3 2.5 17.4-1.5 34.8-3.1 52.3-4.6.8-.1 1.4-.4 1.8-.9 0 0 .1-.1.1-.1s0 0 0-.1c.4-.5.6-1.1.6-1.9-1.5-17.3-3-34.5-4.6-51.8-.2-1.4-1.5-2.5-3-2.4zm1.8 52.1c-15.6 1.4-31.2 2.7-46.8 4.1-1.4-15.5-2.7-30.9-4.1-46.4 15.6-1.4 31.2-2.7 46.8-4.1 1.4 15.4 2.7 30.9 4.1 46.4z"/><path d="m361 460c-17.4 1.5-34.8 3.1-52.3 4.6-1.5.1-2.6 1.5-2.5 2.9 1.5 17.3 3 34.5 4.6 51.8.1 1.5 1.5 2.6 3 2.5 17.4-1.5 34.8-3.1 52.3-4.6.8-.1 1.4-.4 1.8-.9 0 0 .1-.1.1-.1s0 0 0-.1c.4-.5.6-1.1.6-1.9-1.5-17.3-3-34.5-4.6-51.8-.2-1.4-1.5-2.5-3-2.4zm1.8 52c-15.6 1.4-31.2 2.7-46.8 4.1-1.4-15.5-2.7-30.9-4.1-46.4 15.6-1.4 31.2-2.7 46.8-4.1 1.4 15.5 2.8 31 4.1 46.4z"/><path d="m369.4 555.8c-17.4 1.5-34.8 3.1-52.3 4.6-1.5.1-2.6 1.5-2.5 2.9 1.5 17.3 3 34.5 4.6 51.8.1 1.5 1.5 2.6 3 2.5 17.4-1.5 34.8-3.1 52.3-4.6.8-.1 1.4-.4 1.8-.9 0 0 .1-.1.1-.1s0 0 0-.1c.4-.5.6-1.1.6-1.9-1.5-17.3-3-34.5-4.6-51.8-.2-1.4-1.5-2.5-3-2.4zm1.8 52c-15.6 1.4-31.2 2.7-46.8 4.1-1.4-15.5-2.7-30.9-4.1-46.4 15.6-1.4 31.2-2.7 46.8-4.1 1.4 15.5 2.8 31 4.1 46.4z"/></g><path d="m319.6 386.9 11.7-5.1 7.7 11.3 53.8-46 6.8.7-62 60.1z" fill="#ff7003"/><path d="m323.9 485.5 11.7-5.1 7.7 11.3 53.8-46 6.8.7-62 60.1z" fill="#ff7003"/><path d="m330.8 576.2 11.7-5 7.7 11.3 53.8-46 6.8.7-62 60.1z" fill="#ff7003"/><path d="m405.6 565.7h185.1v26h-185.1z" fill="#879195" opacity=".32" transform="matrix(.9962 -.08746431 .08746431 .9962 -48.7099 45.789)"/><path d="m396.7 464.3h185.1v26h-185.1z" fill="#879195" opacity=".32" transform="matrix(.9962 -.08746415 .08746415 .9962 -39.8704 44.6201)"/><path d="m387.8 362.8h185.1v26h-185.1z" fill="#879195" opacity=".32" transform="matrix(.9962 -.08746415 .08746415 .9962 -31.031 43.4513)"/><path d="m155.2 290.1-6.6 52.3 84.8 56.8-4.6 15.1-108.3-41.4-9.6-35.3 24.6-76.7z" fill="#145566"/><path d="m229.8 411.1 6.7 5.8 16.9 1.1-.2-9.4-12.1-4.3-1.2-4.9-6.5-.2z" fill="#aa6755"/><path d="m966.2 672.9.8 8.2-15.6 9.9-9-7.4 7.4-9 15.6-9.9z" fill="#14263a"/><path d="m966.8 422.4 2.5 25-22.2 111.4 19.7 111.4-16 4.9-51.6-132.4-2.8-40.5 7-83.9z" fill="#145566"/><path d="m845.9 430.9-.5 105.4 20.7 135.7 15.3-.1 8.8-125.4 20-125.5z" fill="#145566"/><path d="m881.3 678.3-16.4 8.4-8.3-8.2 8.2-8.3 16.5-.2z" fill="#14263a"/><path d="m833 415.4c11-34.1 12.2-69.9 15.4-105.5.9-10.5 2-21.2 6.3-30.8 5-11 13.3-16.8 22.9-20 12.3-4 26.8-3.8 39.6-4.6 12.1-.4 22.8 45.2 35.2 67.3 7.6 13.5 15.4 25.5 20.5 40.3 4.9 14.2 9.6 28.6 12.5 43.3 4.3 22.3 15.3 37.8 4.8 45.4-1 .3-1.9.6-2.8 1-17.3 6.2-35.1 10.8-53.3 13.2-16.1 2.1-32.5 2.5-48.7.9-22.2-2.2-43.7-5.3-63.2-16.9 3.6-11.2 7.2-22.4 10.8-33.6z" fill="#d1e7f5"/><path d="m757 346.4 76-22.7 25.8-51.4 14.2 26.3-16.4 47.8-83.2 16.5z" fill="#d1e7f5"/><path d="m762.2 194.8h76.3v282.1h-76.3z" fill="#ebb044" transform="matrix(-.7077 .7065 -.7065 -.7077 1604.0729 8.1422)"/><path d="m727.7 209.1-75.2-21.3 21.2 75.2z" fill="#edeeef"/><path d="m680.8 195.8-28.3-8 8 28.2z" fill="#145566"/><path d="m907.1 482.4 40.1-40c3.8-3.8 3.8-10.1 0-13.9l-20.2-19.8-54 53.9 20.2 19.8c3.8 3.9 10 3.9 13.9 0z" fill="#fff"/><path d="m873 462.7 54-54-10.1-10.1-54.4 53.5z" fill="#ededef"/><path d="m923.1 220.7c-6.9-20.8-37.3-28.1-44.4-3.9-2.1 7.3-3.4 15-2 22.4s6 14.6 12.9 17.6h.1c-.3 1.9-.5 3.9-.8 5.8-.1.4-.1.9.1 1.2.3.4.8.5 1.3.6 2.3.3 4.6.7 6.9 1 1.1.2 2.3.3 3.4 0 2.4-.8 3.4-3.7 3.5-6.2 0-.6 0-1.2 0-1.8 13.9-4.5 23.6-23.1 19-36.7z" fill="#eac1a4"/><path d="m886.1 185.1c-5.6-.8-10.3 4.6-15.5 7.4-4.3 2.4-9.1 3-13.6 4.9-4.4 2-8.8 6-8.9 11.1-4.5-2.3-9.4-4.7-14.4-3.8-5 1-9.7 7-7.7 11.9 1.8 4.4 7.6 5.5 9.5 9.8 3 6.9-5.2 17.6.4 22.2 1.4 1.1 3.2 1.4 4.5 2.5 1.6 1.4 2.2 3.8 2.9 6 3.3 9.7 13.1 16.1 22.8 14.8 6-2.8 10.8-8.7 13-15.3 2.6-8.1-1.7-10.9-2.4-18.4-.8-8.3 1.8-17 7-23.4 3.4-4.2 8.2-7.8 13.4-8.3 2.1-.2 1.4 1.5 3.8-.1 1-.7 2.4-3.3 2.7-4.6-5.5-4.3-10.2-15.6-17.5-16.7z" fill="#1a3151"/><path d="m946.3 195.8c2.9.8 6 .7 8.7 1.9 4.1 1.8 3.9 6.1 5 9.8 1.3 4.1 3.2 9.6 5.9 12.8 2 2.3 4.7 3.6 7.1 5.4s4.6 4.4 4.5 7.6c0 3-2.1 5.8-2.4 8.8-.4 4.5.4 6.8-1 11.4-.7 2.4-1.5 4.9-3.3 6.5-2.4 2.1-5.7 2.1-8.7 1.6-2.9-.5-6-1.3-8.9-.3-6.3 2.1-5.1 8.5-6.8 13.8-2.6 8.1-12 12.9-19.2 10-6.1-2.4-9.6-9.5-9.4-16.6.1-3.5 1.5-6.8 1.6-10.3.1-3.4-1.8-8.1 1.3-10.8.7-.7 1.7-1 2.4-1.7.5-.6.8-1.4 1-2.2.7-2.8 0-5.8-1.6-8-1.2-1.5-2.9-2.7-3.6-4.5-.8-2.1-.2-4.6 0-7 .3-5.7-2.8-11.3-7.5-13.5-3.1-1.4-5.9-2.3-8.7-4.5-.4-.3-6.6-5.8-6.8-4.6.3-2.1 1.5-3.9 2.7-5.5 2-2.7 4.2-5.4 7.1-7 9.1-5.3 9.6 7 16.9 5.4 1.8-.4 3.1-2 4.7-3 3-1.8 6.7-1.2 9.8.2 3.2 1.4 6 3.4 9.2 4.3z" fill="#1a3151"/><path d="m754.5 357.1 9-1.9 11.3 8.7-8.5 9.9-8.5-7z" fill="#eac1a4"/><path d="m853.7 386-6.1 6.4-16.6 2.9-.9-9.3 11.6-5.6.7-5 6.4-.9z" fill="#eac1a4"/><path d="m838 374.2 76-22.7 25.8-51.5 14.3 26.3-16.4 47.9-83.2 16.4z" fill="#d1e7f5"/><g fill="#ff7003"><path d="m334.5 244.9-52.6 5 1.1 11.1 19.4-1.9 4.8 50.9 13.8-1.3-4.9-50.9 19.4-1.8z"/><path d="m394.4 253.4c-2.9-4.5-6.7-7.9-11.5-10s-10.2-2.9-16.4-2.3-11.4 2.4-15.7 5.4-7.5 7-9.5 12-2.7 10.7-2.1 17.2c.6 6.4 2.4 12 5.3 16.5 2.9 4.6 6.8 7.9 11.6 10.1 4.8 2.1 10.3 2.9 16.4 2.3 6.2-.6 11.4-2.4 15.6-5.4 4.3-3 7.4-7 9.4-12.1 2-5 2.7-10.8 2-17.2-.5-6.5-2.2-11.9-5.1-16.5zm-11.1 33.9c-2.6 3.9-6.5 6.2-11.7 6.7s-9.5-.9-12.7-4.3c-3.3-3.3-5.2-8.5-5.9-15.4-.7-6.8.3-12.2 2.9-16.1s6.5-6.1 11.7-6.6 9.5.9 12.7 4.2c3.3 3.3 5.2 8.4 5.9 15.2.6 7-.3 12.4-2.9 16.3z"/><path d="m485.8 244.9c-3-4.4-7.1-7.6-12.2-9.6s-11.1-2.6-17.8-2l-23.9 2.3 5.9 62 23.9-2.3c6.8-.7 12.6-2.4 17.2-5.4 4.6-2.9 8-6.8 10.1-11.7s2.9-10.6 2.2-17.1c-.6-6.4-2.4-11.8-5.4-16.2zm-26.1 39.5-9.5.9-3.8-40 9.5-.9c13.2-1.3 20.5 4.8 21.7 18 1.3 13.4-4.6 20.8-17.9 22z"/><path d="m560.4 254.5c-.6-6.4-2.4-11.9-5.3-16.5-2.9-4.5-6.7-7.9-11.5-10s-10.2-2.9-16.4-2.3-11.4 2.4-15.7 5.4-7.5 7-9.5 12-2.7 10.7-2.1 17.2c.6 6.4 2.4 12 5.3 16.5 2.9 4.6 6.8 7.9 11.6 10.1 4.8 2.1 10.3 2.9 16.4 2.3 6.2-.6 11.4-2.4 15.6-5.4 4.3-3 7.4-7 9.4-12.1 2.2-5 2.8-10.7 2.2-17.2zm-16.4 17.5c-2.6 3.9-6.5 6.2-11.7 6.6-5.2.5-9.5-.9-12.7-4.3-3.3-3.3-5.2-8.5-5.9-15.4-.7-6.8.3-12.2 2.9-16.1s6.5-6.1 11.7-6.6 9.5.9 12.7 4.2c3.3 3.3 5.2 8.4 5.9 15.2.7 7.1-.3 12.5-2.9 16.4z"/></g></svg>