<?xml version="1.0" encoding="utf-8"?>
<!-- Generator: Adobe Illustrator 21.1.0, SVG Export Plug-In . SVG Version: 6.00 Build 0)  -->
<svg version="1.1" xmlns="http://www.w3.org/2000/svg" xmlns:xlink="http://www.w3.org/1999/xlink" x="0px" y="0px"
	 viewBox="0 0 1100 800" style="enable-background:new 0 0 1100 800;" xml:space="preserve">
<style type="text/css">
	.st0{fill:#F1F2F2;}
	.st1{fill:#9EA6AD;}
	.st2{fill:#1A3151;}
	.st3{fill:#145566;}
	.st4{fill:#AA6755;}
	.st5{fill:#ff7003;}
	.st6{fill:#FCFCFC;}
	.st7{opacity:0.12;}
	.st8{fill:#E8EBED;}
	.st9{opacity:0.47;}
	.st10{fill:#879195;}
	.st11{opacity:0.32;fill:#879195;}
	.st12{fill:#14263A;}
	.st13{fill:#D1E7F5;}
	.st14{fill:#EBB044;}
	.st15{fill:#EDEEEF;}
	.st16{fill:#FFFFFF;}
	.st17{fill:#EDEDEF;}
	.st18{fill:#EAC1A4;}
</style>
<g id="Background">
</g>
<g id="Shadow">
	<g>
		<path class="st0" d="M504,626.1c-28.2,0.1-56.4,0.8-84.5,3.9c-10.6,1.2-21,3.8-31.6,4.8c-21.2,2.1-42.1,6-63.4,7.8
			c-17.2,1.4-34.4,2.3-51.5,4.1c-16,1.7-33.8,1.3-49.7-1.5c-11.8-2.1-23.6-3.3-35.2-6.7c-13-3.8-27.1-6.5-40.6-6.4
			c-19.3,0.1-38,0.2-56.5,6.8c-6.5,2.3-14.4,6.2-19.3,11.1c-11.3,11.3-12.8,39.4-1.5,51.1c18.9,19.7,59.3,27.4,85.8,27.8
			c29.1,0.4,57.3-1.8,86.4-3c27-1.2,54-2.9,81.1-2.8c55.3,0.1,110.7,0,165.9-3.7c51.9-3.5,103.9-2.3,155.9-2.3
			c53.3,0,106.3,0.4,159.2,7.5c23.1,3.1,46.6,4.2,69.8,6.3c20.8,1.9,40.7,0,61.4-1.8c17.4-1.5,34.6-6,50.4-13.5
			c12.5-6,34.7-24.5,38.6-38.8c10.7-39.9-151.3-39-176.2-38.9c-27.8,0.1-55.9,1-83.7,0c-11.7-0.4-23.2-2.7-34.6-5.2
			c-11.4-2.5-22.8-1.9-34.4-2.9c-48.1-4.4-96.3-3.7-144.5-3.7C535.4,626.2,519.7,626.1,504,626.1z"/>
	</g>
</g>
<g id="Object">
	<g>
		<g>
			<polygon class="st1" points="139.5,465.6 136,546.9 146.3,685.2 161.7,686.3 180.4,560.7 206.2,454.4 			"/>
			<polygon class="st2" points="161.1,692.7 143.9,699.9 136.2,691 145.1,683.2 161.7,684.4 			"/>
		</g>
		<g>
			<polygon class="st1" points="248.4,436.8 251.8,498.3 241.8,681 226.4,681.8 203.3,561.9 182.9,430.5 			"/>
			<polygon class="st2" points="226.8,688.3 243.9,695.8 251.8,687 243,679.1 226.4,680 			"/>
		</g>
		<g>
			<path class="st3" d="M135.5,260.9l46.5-13.1c0,0,26.8-1.6,55.3,57.9c15.8,33.1,28.2,87.5,36,129.2c-0.1,6.2-2.2,33.4-30.4,33.6
				c-48.5,0.4-74.9-3-94.8,4.3c-16.9,6.8-19.5-17.6-20.7-36.3l-2.7-58.1L135.5,260.9z"/>
		</g>
		<g>
			<path class="st4" d="M134.7,200.3c11.5-4.7,23.4-9.1,35.7-8.8c2.7,0.1,5.7,0.5,7.5,2.5c0.7,0.8,1.2,1.7,1.6,2.7
				c4.9,10.7,11.6,26.7,5.9,38.3c-1.1,2.2-2.7,4.1-4.5,5.7c-2.4,2.2-5.2,3.8-8.2,5c1.1,2.7,2.5,5.3,4.1,7.7
				c-2,4.6-14.7,7.2-17.7,3.7c-0.7-3.4-1.4-6.8-2.1-10.2c-1.7-0.4-3.3-0.9-4.9-1.6c-6.1-2.7-10.6-7.5-13.7-13.2
				c-3.4-6.3-7.7-12-10.9-18.4c-1.2-2.3-2.2-5-1.3-7.5c1-2.6,3.8-3.9,6.4-5C133.2,200.9,133.9,200.6,134.7,200.3z"/>
			<path class="st2" d="M175.5,200c-6.5-2.8-15.7-2.9-21.2-1.6c-16.6,4.1-20.6,17.4-18.9,33c-5.6-5.1-15.5-11-17.3-18.5
				c-1.5-6.1-2-14.7,0.5-20.6c2.4-5.5,10.2-9.7,14.7-13.4c4.2-3.5,8.4-7,12.6-10.6c0.9-0.7,1.8-1.5,2.8-1.9c1.3-0.4,2.7-0.3,4-0.2
				c11.5,1,22.9,2,34.4,2.9c2.2,0.2,4.7,0.6,5.9,2.5c0.7,1.2,0.6,2.6,0.6,3.9c-0.3,5.9-1.7,12.2-1.3,18c-0.1,3.5,0.8,21-5.5,20
				c-2.2-2.6-3.1-6-5-8.9C180.4,202.7,178.2,201.2,175.5,200z"/>
		</g>
		<polygon class="st3" points="182,247.8 200.4,250.1 275.7,306.3 283.3,327.7 261.3,383.4 249.9,366.3 256.5,326.8 233.5,315.8 
			195.6,258.8 		"/>
	</g>
	<g>
		<g>
			<g>
				<g>
					
						<rect x="240" y="159.7" transform="matrix(0.9962 -8.746548e-02 8.746548e-02 0.9962 -35.28 39.9956)" class="st5" width="397.4" height="525.7"/>
					
						<rect x="259.8" y="176.5" transform="matrix(0.9962 -8.746538e-02 8.746538e-02 0.9962 -35.0264 39.962)" class="st6" width="357.3" height="486.4"/>
					<g>
						
							<rect x="340" y="174.8" transform="matrix(0.9962 -8.746338e-02 8.746338e-02 0.9962 -14.3218 37.2235)" class="st7" width="155.2" height="14.4"/>
						<g>
							<path class="st8" d="M458.8,127.3l-2.4,0.2l-0.1-1.6c-1.3-15.1-16.6-26.1-34.1-24.6l-23.1,2c-17.5,1.5-30.6,15-29.3,30.1
								l0.1,1.6l-2.4,0.2c-17.5,1.5-30.6,15-29.3,30.1l2.7,30.6l154.6-13.6l-2.7-30.6C491.5,136.8,476.3,125.8,458.8,127.3z
								 M433.6,130.2l-40.7,3.6c-4.2,0.4-7.9-2.7-8.2-6.8c-0.4-4.1,2.7-7.8,6.9-8.2l40.7-3.6c4.2-0.4,7.9,2.7,8.2,6.8
								C440.8,126.1,437.7,129.8,433.6,130.2z"/>
						</g>
					</g>
				</g>
				<g class="st9">
					<path class="st10" d="M352.6,364.2c-17.4,1.5-34.8,3.1-52.3,4.6c-1.5,0.1-2.6,1.5-2.5,2.9c1.5,17.3,3,34.5,4.6,51.8
						c0.1,1.5,1.5,2.6,3,2.5c17.4-1.5,34.8-3.1,52.3-4.6c0.8-0.1,1.4-0.4,1.8-0.9c0,0,0.1-0.1,0.1-0.1c0,0,0,0,0-0.1
						c0.4-0.5,0.6-1.1,0.6-1.9c-1.5-17.3-3-34.5-4.6-51.8C355.4,365.2,354.1,364.1,352.6,364.2z M354.4,416.3
						c-15.6,1.4-31.2,2.7-46.8,4.1c-1.4-15.5-2.7-30.9-4.1-46.4c15.6-1.4,31.2-2.7,46.8-4.1C351.7,385.3,353,400.8,354.4,416.3z"/>
					<path class="st10" d="M361,460c-17.4,1.5-34.8,3.1-52.3,4.6c-1.5,0.1-2.6,1.5-2.5,2.9c1.5,17.3,3,34.5,4.6,51.8
						c0.1,1.5,1.5,2.6,3,2.5c17.4-1.5,34.8-3.1,52.3-4.6c0.8-0.1,1.4-0.4,1.8-0.9c0,0,0.1-0.1,0.1-0.1c0,0,0,0,0-0.1
						c0.4-0.5,0.6-1.1,0.6-1.9c-1.5-17.3-3-34.5-4.6-51.8C363.8,461,362.5,459.9,361,460z M362.8,512c-15.6,1.4-31.2,2.7-46.8,4.1
						c-1.4-15.5-2.7-30.9-4.1-46.4c15.6-1.4,31.2-2.7,46.8-4.1C360.1,481.1,361.5,496.6,362.8,512z"/>
					<path class="st10" d="M369.4,555.8c-17.4,1.5-34.8,3.1-52.3,4.6c-1.5,0.1-2.6,1.5-2.5,2.9c1.5,17.3,3,34.5,4.6,51.8
						c0.1,1.5,1.5,2.6,3,2.5c17.4-1.5,34.8-3.1,52.3-4.6c0.8-0.1,1.4-0.4,1.8-0.9c0,0,0.1-0.1,0.1-0.1c0,0,0,0,0-0.1
						c0.4-0.5,0.6-1.1,0.6-1.9c-1.5-17.3-3-34.5-4.6-51.8C372.2,556.8,370.9,555.7,369.4,555.8z M371.2,607.8
						c-15.6,1.4-31.2,2.7-46.8,4.1c-1.4-15.5-2.7-30.9-4.1-46.4c15.6-1.4,31.2-2.7,46.8-4.1C368.5,576.9,369.9,592.4,371.2,607.8z"
						/>
				</g>
				<polygon class="st5" points="319.6,386.9 331.3,381.8 339,393.1 392.8,347.1 399.6,347.8 337.6,407.9 				"/>
				<polygon class="st5" points="323.9,485.5 335.6,480.4 343.3,491.7 397.1,445.7 403.9,446.4 341.9,506.5 				"/>
				<polygon class="st5" points="330.8,576.2 342.5,571.2 350.2,582.5 404,536.5 410.8,537.2 348.8,597.3 				"/>
				
					<rect x="405.6" y="565.7" transform="matrix(0.9962 -8.746431e-02 8.746431e-02 0.9962 -48.7099 45.789)" class="st11" width="185.1" height="26"/>
				
					<rect x="396.7" y="464.3" transform="matrix(0.9962 -8.746415e-02 8.746415e-02 0.9962 -39.8704 44.6201)" class="st11" width="185.1" height="26"/>
				
					<rect x="387.8" y="362.8" transform="matrix(0.9962 -8.746415e-02 8.746415e-02 0.9962 -31.031 43.4513)" class="st11" width="185.1" height="26"/>
			</g>
		</g>
	</g>
	<g>
		<polygon class="st3" points="155.2,290.1 148.6,342.4 233.4,399.2 228.8,414.3 120.5,372.9 110.9,337.6 135.5,260.9 		"/>
		<polygon class="st4" points="229.8,411.1 236.5,416.9 253.4,418 253.2,408.6 241.1,404.3 239.9,399.4 233.4,399.2 		"/>
	</g>
	<g>
		<g>
			<g>
				<g>
					<polygon class="st12" points="966.2,672.9 967,681.1 951.4,691 942.4,683.6 949.8,674.6 965.4,664.7 					"/>
					<polygon class="st3" points="966.8,422.4 969.3,447.4 947.1,558.8 966.8,670.2 950.8,675.1 899.2,542.7 896.4,502.2 
						903.4,418.3 					"/>
				</g>
				<g>
					<polygon class="st3" points="845.9,430.9 845.4,536.3 866.1,672 881.4,671.9 890.2,546.5 910.2,421 					"/>
					<polygon class="st12" points="881.3,678.3 864.9,686.7 856.6,678.5 864.8,670.2 881.3,670 					"/>
				</g>
			</g>
			<g>
				<path class="st13" d="M833,415.4c11-34.1,12.2-69.9,15.4-105.5c0.9-10.5,2-21.2,6.3-30.8c5-11,13.3-16.8,22.9-20
					c12.3-4,26.8-3.8,39.6-4.6c12.1-0.4,22.8,45.2,35.2,67.3c7.6,13.5,15.4,25.5,20.5,40.3c4.9,14.2,9.6,28.6,12.5,43.3
					c4.3,22.3,15.3,37.8,4.8,45.4c-1,0.3-1.9,0.6-2.8,1c-17.3,6.2-35.1,10.8-53.3,13.2c-16.1,2.1-32.5,2.5-48.7,0.9
					c-22.2-2.2-43.7-5.3-63.2-16.9C825.8,437.8,829.4,426.6,833,415.4z"/>
			</g>
		</g>
		<polygon class="st13" points="757,346.4 833,323.7 858.8,272.3 873,298.6 856.6,346.4 773.4,362.9 		"/>
	</g>
	<g>
		
			<rect x="762.2" y="194.8" transform="matrix(-0.7077 0.7065 -0.7065 -0.7077 1604.0729 8.1422)" class="st14" width="76.3" height="282.1"/>
		<polygon class="st15" points="727.7,209.1 652.5,187.8 673.7,263 		"/>
		<polygon class="st3" points="680.8,195.8 652.5,187.8 660.5,216 		"/>
		<path class="st16" d="M907.1,482.4l40.1-40c3.8-3.8,3.8-10.1,0-13.9L927,408.7l-54,53.9l20.2,19.8
			C897,486.3,903.2,486.3,907.1,482.4z"/>
		<polygon class="st17" points="873,462.7 927,408.7 916.9,398.6 862.5,452.1 		"/>
	</g>
	<g>
		<path class="st18" d="M923.1,220.7c-6.9-20.8-37.3-28.1-44.4-3.9c-2.1,7.3-3.4,15-2,22.4c1.4,7.4,6,14.6,12.9,17.6
			c0,0,0.1,0,0.1,0c-0.3,1.9-0.5,3.9-0.8,5.8c-0.1,0.4-0.1,0.9,0.1,1.2c0.3,0.4,0.8,0.5,1.3,0.6c2.3,0.3,4.6,0.7,6.9,1
			c1.1,0.2,2.3,0.3,3.4,0c2.4-0.8,3.4-3.7,3.5-6.2c0-0.6,0-1.2,0-1.8C918,252.9,927.7,234.3,923.1,220.7z"/>
		<g>
			<path class="st2" d="M886.1,185.1c-5.6-0.8-10.3,4.6-15.5,7.4c-4.3,2.4-9.1,3-13.6,4.9c-4.4,2-8.8,6-8.9,11.1
				c-4.5-2.3-9.4-4.7-14.4-3.8c-5,1-9.7,7-7.7,11.9c1.8,4.4,7.6,5.5,9.5,9.8c3,6.9-5.2,17.6,0.4,22.2c1.4,1.1,3.2,1.4,4.5,2.5
				c1.6,1.4,2.2,3.8,2.9,6c3.3,9.7,13.1,16.1,22.8,14.8c6-2.8,10.8-8.7,13-15.3c2.6-8.1-1.7-10.9-2.4-18.4c-0.8-8.3,1.8-17,7-23.4
				c3.4-4.2,8.2-7.8,13.4-8.3c2.1-0.2,1.4,1.5,3.8-0.1c1-0.7,2.4-3.3,2.7-4.6C898.1,197.5,893.4,186.2,886.1,185.1z"/>
			<path class="st2" d="M946.3,195.8c2.9,0.8,6,0.7,8.7,1.9c4.1,1.8,3.9,6.1,5,9.8c1.3,4.1,3.2,9.6,5.9,12.8c2,2.3,4.7,3.6,7.1,5.4
				c2.4,1.8,4.6,4.4,4.5,7.6c0,3-2.1,5.8-2.4,8.8c-0.4,4.5,0.4,6.8-1,11.4c-0.7,2.4-1.5,4.9-3.3,6.5c-2.4,2.1-5.7,2.1-8.7,1.6
				c-2.9-0.5-6-1.3-8.9-0.3c-6.3,2.1-5.1,8.5-6.8,13.8c-2.6,8.1-12,12.9-19.2,10c-6.1-2.4-9.6-9.5-9.4-16.6
				c0.1-3.5,1.5-6.8,1.6-10.3c0.1-3.4-1.8-8.1,1.3-10.8c0.7-0.7,1.7-1,2.4-1.7c0.5-0.6,0.8-1.4,1-2.2c0.7-2.8,0-5.8-1.6-8
				c-1.2-1.5-2.9-2.7-3.6-4.5c-0.8-2.1-0.2-4.6,0-7c0.3-5.7-2.8-11.3-7.5-13.5c-3.1-1.4-5.9-2.3-8.7-4.5c-0.4-0.3-6.6-5.8-6.8-4.6
				c0.3-2.1,1.5-3.9,2.7-5.5c2-2.7,4.2-5.4,7.1-7c9.1-5.3,9.6,7,16.9,5.4c1.8-0.4,3.1-2,4.7-3c3-1.8,6.7-1.2,9.8,0.2
				C940.3,192.9,943.1,194.9,946.3,195.8z"/>
		</g>
	</g>
	<polygon class="st18" points="754.5,357.1 763.5,355.2 774.8,363.9 766.3,373.8 757.8,366.8 	"/>
	<g>
		<polygon class="st18" points="853.7,386 847.6,392.4 831,395.3 830.1,386 841.7,380.4 842.4,375.4 848.8,374.5 		"/>
		<polygon class="st13" points="838,374.2 914,351.5 939.8,300 954.1,326.3 937.7,374.2 854.5,390.6 		"/>
	</g>
	<g>
		<polygon class="st5" points="334.5,244.9 281.9,249.9 283,261 302.4,259.1 307.2,310 321,308.7 316.1,257.8 335.5,256 		"/>
		<path class="st5" d="M394.4,253.4c-2.9-4.5-6.7-7.9-11.5-10c-4.8-2.1-10.2-2.9-16.4-2.3c-6.2,0.6-11.4,2.4-15.7,5.4
			c-4.3,3-7.5,7-9.5,12c-2,5-2.7,10.7-2.1,17.2c0.6,6.4,2.4,12,5.3,16.5c2.9,4.6,6.8,7.9,11.6,10.1c4.8,2.1,10.3,2.9,16.4,2.3
			c6.2-0.6,11.4-2.4,15.6-5.4c4.3-3,7.4-7,9.4-12.1c2-5,2.7-10.8,2-17.2C399,263.4,397.3,258,394.4,253.4z M383.3,287.3
			c-2.6,3.9-6.5,6.2-11.7,6.7c-5.2,0.5-9.5-0.9-12.7-4.3c-3.3-3.3-5.2-8.5-5.9-15.4c-0.7-6.8,0.3-12.2,2.9-16.1
			c2.6-3.9,6.5-6.1,11.7-6.6c5.2-0.5,9.5,0.9,12.7,4.2c3.3,3.3,5.2,8.4,5.9,15.2C386.8,278,385.9,283.4,383.3,287.3z"/>
		<path class="st5" d="M485.8,244.9c-3-4.4-7.1-7.6-12.2-9.6c-5.1-2-11.1-2.6-17.8-2l-23.9,2.3l5.9,62l23.9-2.3
			c6.8-0.7,12.6-2.4,17.2-5.4c4.6-2.9,8-6.8,10.1-11.7c2.1-4.9,2.9-10.6,2.2-17.1C490.6,254.7,488.8,249.3,485.8,244.9z
			 M459.7,284.4l-9.5,0.9l-3.8-40l9.5-0.9c13.2-1.3,20.5,4.8,21.7,18C478.9,275.8,473,283.2,459.7,284.4z"/>
		<path class="st5" d="M560.4,254.5c-0.6-6.4-2.4-11.9-5.3-16.5c-2.9-4.5-6.7-7.9-11.5-10c-4.8-2.1-10.2-2.9-16.4-2.3
			c-6.2,0.6-11.4,2.4-15.7,5.4c-4.3,3-7.5,7-9.5,12c-2,5-2.7,10.7-2.1,17.2c0.6,6.4,2.4,12,5.3,16.5c2.9,4.6,6.8,7.9,11.6,10.1
			c4.8,2.1,10.3,2.9,16.4,2.3c6.2-0.6,11.4-2.4,15.6-5.4c4.3-3,7.4-7,9.4-12.1C560.4,266.7,561,261,560.4,254.5z M544,272
			c-2.6,3.9-6.5,6.2-11.7,6.6c-5.2,0.5-9.5-0.9-12.7-4.3c-3.3-3.3-5.2-8.5-5.9-15.4c-0.7-6.8,0.3-12.2,2.9-16.1
			c2.6-3.9,6.5-6.1,11.7-6.6c5.2-0.5,9.5,0.9,12.7,4.2c3.3,3.3,5.2,8.4,5.9,15.2C547.6,262.7,546.6,268.1,544,272z"/>
	</g>
</g>
</svg>
