<?xml version="1.0" encoding="utf-8"?>
<!-- Generator: Adobe Illustrator 21.1.0, SVG Export Plug-In . SVG Version: 6.00 Build 0)  -->
<svg version="1.1" id="OBJECTS" xmlns="http://www.w3.org/2000/svg" xmlns:xlink="http://www.w3.org/1999/xlink" x="0px" y="0px"
	 viewBox="0 0 373.3 275.3" style="enable-background:new 0 0 373.3 275.3;" xml:space="preserve">
<style type="text/css">
	.st0{fill:#EBF5FF;}
	.st1{fill:#009DB0;}
	.st2{fill:#018BA0;}
	.st3{fill:#00C0CD;}
	.st4{fill:#01052A;}
	.st5{fill:#84B4FE;}
	.st6{fill:#FFBDA1;}
	.st7{fill:#1E1A1E;}
	.st8{fill:#052E47;}
	.st9{fill:#EFBD65;}
	.st10{fill:#F7C869;}
	.st11{fill:#214A81;}
	.st12{fill:#1A3E66;}
	.st13{fill:#03345F;}
	.st14{fill:#CFD1D3;}
	.st15{fill:#E2E4E9;}
	.st16{fill:#FFFFFF;}
	.st17{fill:#FFD474;}
	.st18{clip-path:url(#SVGID_2_);fill:#072042;}
	.st19{fill:#CADFEF;}
</style>
<g>
	<path class="st0" d="M271.2,270.3c-95.9,22.1-115.4-39.9-195.7-15.2c-29.7,9.1-74.2-29.9-75.4-57.1
		c-5.2-120.8,156.6-85.4,207.1-55.6c50.5,29.8,169.5,3,166,47.2C364.1,305.3,271.2,270.3,271.2,270.3z"/>
	<g>
		<g>
			<path class="st1" d="M301.6,180c0,0-28.4-11.7-14.3-66.6C287.3,113.4,320.5,139.7,301.6,180z"/>
			<path class="st2" d="M299.8,178c0,0-14-1.3-28.1-35C271.7,143,292,150.4,299.8,178z"/>
			<path class="st3" d="M301.6,180c0,0-30.4-36.5,16.8-80.8C318.4,99.3,345.8,160.5,301.6,180z"/>
			<g>
				<path class="st1" d="M301.5,184.5c-0.1,0-0.1,0-0.2,0c-0.5-0.1-0.8-0.6-0.7-1.1l14-70.2c0.1-0.5,0.6-0.8,1.1-0.7
					c0.5,0.1,0.8,0.6,0.7,1.1l-14,70.2C302.3,184.2,301.9,184.5,301.5,184.5z"/>
				<path class="st1" d="M311.1,136.3c-0.4,0-0.7-0.2-0.9-0.6c-0.1-0.5,0.1-1,0.6-1.1l10.3-3.2c0.5-0.1,1,0.1,1.1,0.6
					c0.1,0.5-0.1,1-0.6,1.1l-10.3,3.2C311.2,136.3,311.2,136.3,311.1,136.3z"/>
				<path class="st1" d="M305.9,162.1c-0.4,0-0.7-0.2-0.9-0.6c-0.1-0.5,0.1-1,0.6-1.1l10.3-3.2c0.5-0.2,1,0.1,1.1,0.6
					c0.1,0.5-0.1,1-0.6,1.1l-10.3,3.2C306.1,162.1,306,162.1,305.9,162.1z"/>
				<path class="st1" d="M308.1,151.3c-0.2,0-0.5-0.1-0.7-0.3l-9.6-10.7c-0.3-0.4-0.3-0.9,0.1-1.3c0.4-0.3,0.9-0.3,1.3,0.1l9.6,10.7
					c0.3,0.4,0.3,0.9-0.1,1.3C308.5,151.2,308.3,151.3,308.1,151.3z"/>
			</g>
			<path class="st4" d="M308.8,177.3h-17.6c-0.7,0-1.3,0.7-1.2,1.4l3.4,20c0.1,0.6,0.6,1,1.2,1h11.6c0.6,0,1.1-0.4,1.2-1l2.5-20
				C310.1,177.9,309.6,177.3,308.8,177.3z"/>
		</g>
		<rect x="116.8" y="118.1" class="st5" width="92.7" height="83.1"/>
		<polygon class="st6" points="154.7,26.9 157.5,44.4 168.6,42.2 163,18.6 		"/>
		<circle class="st6" cx="154.8" cy="13.9" r="13.9"/>
		<g>
			<path class="st6" d="M126.9,195.6c-0.1-0.8-0.9-20.1-0.9-20.1l-10.3,0.1l0.8,20.1L126.9,195.6z"/>
			<path class="st7" d="M99.2,200.4l28.6-0.3l-0.1-8.8l-19.8,0.2C103,191.5,99.1,195.5,99.2,200.4L99.2,200.4z"/>
		</g>
		<path class="st8" d="M149,121.7h-30.4l10.6-11l0.8,68.2l-18,0.6l-4.1-68.1c-0.3-5.7,4-10.7,9.8-11c0.2,0,0.4,0,0.6,0l0.3,0H149
			V121.7z"/>
		<path class="st9" d="M123.4,82.1c-1.3,0-2.6-0.3-3.7-1.1c-3.4-2.1-4.5-6.5-2.4-9.9L138.7,36c2.1-3.4,6.5-4.5,9.9-2.4
			c3.4,2.1,4.5,6.5,2.4,9.9l-21.5,35.2C128.1,80.9,125.8,82.1,123.4,82.1z"/>
		<path class="st10" d="M145.7,32.4h32.8c4.7,0,8.4,4,8.2,8.6l-6.3,55.2l-39-0.3l-3.8-54.8C137.2,36.4,141,32.4,145.7,32.4z"/>
		<path class="st11" d="M38.6,201.2c-0.1,0-0.1,0-0.2,0c-0.7-0.1-1.2-0.8-1.1-1.5L54.7,98.1c0.1-0.7,0.8-1.2,1.5-1.1
			c0.7,0.1,1.2,0.8,1.1,1.5L39.9,200.1C39.8,200.7,39.3,201.2,38.6,201.2z"/>
		<path class="st12" d="M82,200.7c-0.6,0-1.2-0.4-1.3-1.1L63.3,98.5c-0.1-0.7,0.4-1.4,1.1-1.5c0.7-0.1,1.4,0.4,1.5,1.1l17.4,101.1
			c0.1,0.7-0.4,1.4-1.1,1.5C82.2,200.7,82.1,200.7,82,200.7z"/>
		<path class="st11" d="M195.7,200.4c-0.1,0-0.1,0-0.2,0c-0.7-0.1-1.2-0.8-1.1-1.5l17.4-100.7c0.1-0.7,0.8-1.2,1.5-1.1
			c0.7,0.1,1.2,0.8,1.1,1.5L197,199.3C196.9,199.9,196.3,200.4,195.7,200.4z"/>
		<path class="st12" d="M239.1,200.4c-0.6,0-1.2-0.4-1.3-1.1L220.4,98.5c-0.1-0.7,0.4-1.4,1.1-1.5c0.7-0.1,1.4,0.4,1.5,1.1
			l17.4,100.7c0.1,0.7-0.4,1.4-1.1,1.5C239.2,200.4,239.2,200.4,239.1,200.4z"/>
		<g>
			<path class="st6" d="M158.2,195.6c-0.1-0.8,0.3-20.1,0.3-20.1l-10.3,0.1l-0.5,20.1L158.2,195.6z"/>
			<path class="st7" d="M130.4,200.4l28.6-0.3l-0.1-8.8l-19.8,0.2C134.2,191.5,130.3,195.5,130.4,200.4L130.4,200.4z"/>
		</g>
		<path class="st6" d="M135.1,83c1.6-3.3,5.6-4.7,9-3.1c1.1,0.5,2,1.3,2.6,2.3l10,0.4l3.5,6.6l-14.1,1.2c-2,2.2-5.2,2.9-8,1.6
			C134.8,90.3,133.4,86.3,135.1,83z"/>
		<path class="st13" d="M173.2,119.8l-30.4,6.6l-0.4-16.9c-0.1-4.6,3.7-8.4,8.3-8.4h31.4v9.8C182.1,115.8,178.8,118.8,173.2,119.8z"
			/>
		<polygon class="st13" points="163.6,110.4 161.6,181.9 144.3,181.9 142.5,116.1 		"/>
		<path class="st14" d="M169.9,92.1h-37.3v-4.2h37.3c1.2,0,2.1,0.9,2.1,2.1l0,0C172,91.2,171.1,92.1,169.9,92.1z"/>
		<g>
			<path class="st15" d="M137.5,92.1H88.1c-2.8,0-5.3-1.9-6.1-4.6l-9.6-34.6c-0.9-3.1,1.5-6.1,4.6-6.1h45.4c1.9,0,3.6,1.3,4,3.1
				L137.5,92.1z"/>
			<circle class="st16" cx="103.6" cy="72.2" r="4.7"/>
		</g>
		<path class="st17" d="M154.8,92.6l-0.2-14.5l22.6-0.3l-4.8-36.7c-0.5-4,2.3-7.6,6.3-8.1l0,0c3.9-0.5,7.5,2.4,8,6.4l5.8,44.8
			c0.2,2-0.4,4.1-1.7,5.6c-1.3,1.5-3.3,2.4-5.3,2.5L154.8,92.6z"/>
		<rect x="35.4" y="92.1" class="st11" width="219.5" height="10.4"/>
		<g>
			<defs>
				
					<ellipse id="SVGID_1_" transform="matrix(0.9966 -8.282717e-02 8.282717e-02 0.9966 -0.6184 12.8662)" cx="154.8" cy="13.9" rx="13.9" ry="13.9"/>
			</defs>
			<clipPath id="SVGID_2_">
				<use xlink:href="#SVGID_1_"  style="overflow:visible;"/>
			</clipPath>
			<path class="st18" d="M140.8,7.1c0,0-0.7,6.8,19,0.8l2.6,9.1c0,0,3.6,13.8,3.6,12.1c0-1.7,13.1-27.6-8.1-31.8
				C138.1-6.7,140.8,7.1,140.8,7.1z"/>
		</g>
		<ellipse transform="matrix(0.987 -0.1609 0.1609 0.987 -0.2994 26.3411)" class="st6" cx="162.4" cy="15" rx="3.6" ry="3.6"/>
		<path class="st19" d="M353.7,200.6l-334,1.7c-0.4,0-0.7-0.3-0.7-0.7c0-0.4,0.3-0.7,0.7-0.7l334-1.7c0.4,0,0.7,0.3,0.7,0.7
			C354.4,200.3,354.1,200.6,353.7,200.6z"/>
		<g>
			<path class="st0" d="M219.5,72.2h-16.6c-0.3,0-0.5,0.2-0.5,0.5v12.6c0,3.7,3,6.6,6.6,6.6h4.4c3.7,0,6.6-3,6.6-6.6V72.8
				C220,72.5,219.8,72.2,219.5,72.2z"/>
			<path class="st0" d="M217.5,89.8c3.7-2.1,10.2-8.3,9.1-12.7c-0.3-1.2-1-2.1-2.1-2.6c-2.5-1.2-6,0.2-6.4,0.4l1.2,2.5
				c0.9-0.3,2.9-0.9,3.9-0.5c0.2,0.1,0.4,0.3,0.5,0.7c0.6,2.6-4.4,7.9-7.8,9.8L217.5,89.8z"/>
		</g>
	</g>
</g>
</svg>
