<svg enable-background="new 0 0 373.3 275.3" viewBox="0 0 373.3 275.3" xmlns="http://www.w3.org/2000/svg" xmlns:xlink="http://www.w3.org/1999/xlink"><clipPath id="a"><ellipse cx="154.8" cy="13.9" rx="13.9" ry="13.9" transform="matrix(.9966 -.08282717 .08282717 .9966 -.6184 12.8662)"/></clipPath><path d="m271.2 270.3c-95.9 22.1-115.4-39.9-195.7-15.2-29.7 9.1-74.2-29.9-75.4-57.1-5.2-120.8 156.6-85.4 207.1-55.6s169.5 3 166 47.2c-9.1 115.7-102 80.7-102 80.7z" fill="#ebf5ff"/><path d="m301.6 180s-28.4-11.7-14.3-66.6c0 0 33.2 26.3 14.3 66.6z" fill="#009db0"/><path d="m299.8 178s-14-1.3-28.1-35c0 0 20.3 7.4 28.1 35z" fill="#018ba0"/><path d="m301.6 180s-30.4-36.5 16.8-80.8c0 .1 27.4 61.3-16.8 80.8z" fill="#00c0cd"/><g fill="#009db0"><path d="m301.5 184.5c-.1 0-.1 0-.2 0-.5-.1-.8-.6-.7-1.1l14-70.2c.1-.5.6-.8 1.1-.7s.8.6.7 1.1l-14 70.2c-.1.4-.5.7-.9.7z"/><path d="m311.1 136.3c-.4 0-.7-.2-.9-.6-.1-.5.1-1 .6-1.1l10.3-3.2c.5-.1 1 .1 1.1.6s-.1 1-.6 1.1l-10.3 3.2c-.1 0-.1 0-.2 0z"/><path d="m305.9 162.1c-.4 0-.7-.2-.9-.6-.1-.5.1-1 .6-1.1l10.3-3.2c.5-.2 1 .1 1.1.6s-.1 1-.6 1.1l-10.3 3.2s-.1 0-.2 0z"/><path d="m308.1 151.3c-.2 0-.5-.1-.7-.3l-9.6-10.7c-.3-.4-.3-.9.1-1.3.4-.3.9-.3 1.3.1l9.6 10.7c.3.4.3.9-.1 1.3-.2.1-.4.2-.6.2z"/></g><path d="m308.8 177.3h-17.6c-.7 0-1.3.7-1.2 1.4l3.4 20c.1.6.6 1 1.2 1h11.6c.6 0 1.1-.4 1.2-1l2.5-20c.2-.8-.3-1.4-1.1-1.4z" fill="#01052a"/><path d="m116.8 118.1h92.7v83.1h-92.7z" fill="#84b4fe"/><path d="m154.7 26.9 2.8 17.5 11.1-2.2-5.6-23.6z" fill="#ffbda1"/><circle cx="154.8" cy="13.9" fill="#ffbda1" r="13.9"/><path d="m126.9 195.6c-.1-.8-.9-20.1-.9-20.1l-10.3.1.8 20.1z" fill="#ffbda1"/><path d="m99.2 200.4 28.6-.3-.1-8.8-19.8.2c-4.9 0-8.8 4-8.7 8.9z" fill="#1e1a1e"/><path d="m149 121.7h-30.4l10.6-11 .8 68.2-18 .6-4.1-68.1c-.3-5.7 4-10.7 9.8-11h.6.3 30.4z" fill="#052e47"/><path d="m123.4 82.1c-1.3 0-2.6-.3-3.7-1.1-3.4-2.1-4.5-6.5-2.4-9.9l21.4-35.1c2.1-3.4 6.5-4.5 9.9-2.4s4.5 6.5 2.4 9.9l-21.5 35.2c-1.4 2.2-3.7 3.4-6.1 3.4z" fill="#efbd65"/><path d="m145.7 32.4h32.8c4.7 0 8.4 4 8.2 8.6l-6.3 55.2-39-.3-3.8-54.8c-.4-4.7 3.4-8.7 8.1-8.7z" fill="#f7c869"/><path d="m38.6 201.2c-.1 0-.1 0-.2 0-.7-.1-1.2-.8-1.1-1.5l17.4-101.6c.1-.7.8-1.2 1.5-1.1s1.2.8 1.1 1.5l-17.4 101.6c-.1.6-.6 1.1-1.3 1.1z" fill="#214a81"/><path d="m82 200.7c-.6 0-1.2-.4-1.3-1.1l-17.4-101.1c-.1-.7.4-1.4 1.1-1.5s1.4.4 1.5 1.1l17.4 101.1c.1.7-.4 1.4-1.1 1.5 0 0-.1 0-.2 0z" fill="#1a3e66"/><path d="m195.7 200.4c-.1 0-.1 0-.2 0-.7-.1-1.2-.8-1.1-1.5l17.4-100.7c.1-.7.8-1.2 1.5-1.1s1.2.8 1.1 1.5l-17.4 100.7c-.1.6-.7 1.1-1.3 1.1z" fill="#214a81"/><path d="m239.1 200.4c-.6 0-1.2-.4-1.3-1.1l-17.4-100.8c-.1-.7.4-1.4 1.1-1.5s1.4.4 1.5 1.1l17.4 100.7c.1.7-.4 1.4-1.1 1.5-.1.1-.1.1-.2.1z" fill="#1a3e66"/><path d="m158.2 195.6c-.1-.8.3-20.1.3-20.1l-10.3.1-.5 20.1z" fill="#ffbda1"/><path d="m130.4 200.4 28.6-.3-.1-8.8-19.8.2c-4.9 0-8.8 4-8.7 8.9z" fill="#1e1a1e"/><path d="m135.1 83c1.6-3.3 5.6-4.7 9-3.1 1.1.5 2 1.3 2.6 2.3l10 .4 3.5 6.6-14.1 1.2c-2 2.2-5.2 2.9-8 1.6-3.3-1.7-4.7-5.7-3-9z" fill="#ffbda1"/><path d="m173.2 119.8-30.4 6.6-.4-16.9c-.1-4.6 3.7-8.4 8.3-8.4h31.4v9.8c0 4.9-3.3 7.9-8.9 8.9z" fill="#03345f"/><path d="m163.6 110.4-2 71.5h-17.3l-1.8-65.8z" fill="#03345f"/><path d="m169.9 92.1h-37.3v-4.2h37.3c1.2 0 2.1.9 2.1 2.1 0 1.2-.9 2.1-2.1 2.1z" fill="#cfd1d3"/><path d="m137.5 92.1h-49.4c-2.8 0-5.3-1.9-6.1-4.6l-9.6-34.6c-.9-3.1 1.5-6.1 4.6-6.1h45.4c1.9 0 3.6 1.3 4 3.1z" fill="#e2e4e9"/><circle cx="103.6" cy="72.2" fill="#fff" r="4.7"/><path d="m154.8 92.6-.2-14.5 22.6-.3-4.8-36.7c-.5-4 2.3-7.6 6.3-8.1 3.9-.5 7.5 2.4 8 6.4l5.8 44.8c.2 2-.4 4.1-1.7 5.6s-3.3 2.4-5.3 2.5z" fill="#ffd474"/><path d="m35.4 92.1h219.5v10.4h-219.5z" fill="#214a81"/><path clip-path="url(#a)" d="m140.8 7.1s-.7 6.8 19 .8l2.6 9.1s3.6 13.8 3.6 12.1 13.1-27.6-8.1-31.8c-19.8-4-17.1 9.8-17.1 9.8z" fill="#072042"/><ellipse cx="162.4" cy="15" fill="#ffbda1" rx="3.6" ry="3.6" transform="matrix(.987 -.1609 .1609 .987 -.2994 26.3411)"/><path d="m353.7 200.6-334 1.7c-.4 0-.7-.3-.7-.7s.3-.7.7-.7l334-1.7c.4 0 .7.3.7.7s-.3.7-.7.7z" fill="#cadfef"/><path d="m219.5 72.2h-16.6c-.3 0-.5.2-.5.5v12.6c0 3.7 3 6.6 6.6 6.6h4.4c3.7 0 6.6-3 6.6-6.6v-12.5c0-.3-.2-.6-.5-.6z" fill="#ebf5ff"/><path d="m217.5 89.8c3.7-2.1 10.2-8.3 9.1-12.7-.3-1.2-1-2.1-2.1-2.6-2.5-1.2-6 .2-6.4.4l1.2 2.5c.9-.3 2.9-.9 3.9-.5.2.1.4.3.5.7.6 2.6-4.4 7.9-7.8 9.8z" fill="#ebf5ff"/></svg>